<svg xmlns="http://www.w3.org/2000/svg" xmlns:xlink="http://www.w3.org/1999/xlink" width="50" height="52" viewBox="0 0 50 52">
  <defs>
    <clipPath id="clip-path">
      <rect id="Rectángulo_403296" data-name="Rectángulo 403296" width="40" height="40" transform="translate(190.168 836.5)" fill="#006d36" stroke="#707070" stroke-width="1"/>
    </clipPath>
  </defs>
  <g id="Grupo_1101832" data-name="Grupo 1101832" transform="translate(-180.668 -825)">
    <circle id="Elipse_11622" data-name="Elipse 11622" cx="25" cy="25" r="25" transform="translate(180.668 827)" fill="#ffad09"/>
    <circle id="Elipse_11623" data-name="Elipse 11623" cx="7" cy="7" r="7" transform="translate(216.668 825)" fill="#006d36"/>
    <g id="Enmascarar_grupo_1098763" data-name="Enmascarar grupo 1098763" transform="translate(-3.5 -3.5)" clip-path="url(#clip-path)">
      <g id="agricultura" transform="translate(189.642 839.549)">
        <path id="Trazado_877667" data-name="Trazado 877667" d="M18.968,27.753a14.1,14.1,0,0,1-14.1-14.1v-.586H28.361v1.173H6.053a12.928,12.928,0,0,0,25.829,0h-2.36V13.066h3.546v.586a14.1,14.1,0,0,1-14.1,14.1Z" transform="translate(1.032 -0.804)" fill="#006d36"/>
        <path id="Trazado_877668" data-name="Trazado 877668" d="M22.362,33.653l-.883-2.484a17.754,17.754,0,0,1-3.043,0l-.883,2.484L12.019,32.17l.477-2.588a17.552,17.552,0,0,1-2.637-1.525l-2,1.708L3.8,25.714l1.708-2a17.548,17.548,0,0,1-1.528-2.642l-2.5.459L0,15.992l2.4-.854c-.044-.5-.065-.985-.065-1.486v-.586H6.486v1.173H3.518c.015.4.046.8.094,1.232l.052.462-2.251.8.922,3.443,2.346-.431.186.427a16.365,16.365,0,0,0,1.86,3.217L7,23.765,5.4,25.65l2.52,2.52L9.8,26.564l.375.278A16.365,16.365,0,0,0,13.389,28.7l.427.186-.448,2.433,3.443.922.83-2.335.462.052a16.569,16.569,0,0,0,3.709,0l.462-.052.83,2.335,3.443-.922L26.1,28.885l.427-.186a16.367,16.367,0,0,0,3.211-1.857l.375-.278L32,28.17l2.52-2.52-1.607-1.886.278-.375a16.366,16.366,0,0,0,1.857-3.211l.186-.427,2.433.448.922-3.443-2.335-.83.052-.462c.046-.406.077-.816.092-1.226H33.514V13.066h4.068v.588c0,.491-.023.986-.065,1.478L40,16.015l-1.483,5.534-2.588-.477A17.551,17.551,0,0,1,34.4,23.709l1.708,2-4.051,4.051-2-1.708a17.551,17.551,0,0,1-2.637,1.525L27.9,32.17Z" transform="translate(0 -0.804)" fill="#006d36"/>
        <path id="Línea_4305" data-name="Línea 4305" d="M.689,6.934H-.484V0H.689Z" transform="translate(19.912 6.45)" fill="#006d36"/>
        <path id="Trazado_877669" data-name="Trazado 877669" d="M21.93,2.95h2.307V5.257a5.908,5.908,0,0,1-5.9,5.9H16.029V8.852A5.908,5.908,0,0,1,21.93,2.95Zm1.134,1.173H21.93A4.734,4.734,0,0,0,17.2,8.852V9.986h1.134a4.734,4.734,0,0,0,4.729-4.729Z" transform="translate(3.4 -2.95)" fill="#006d36"/>
        <path id="Línea_4306" data-name="Línea 4306" d="M.487,4.083l-.829-.829,3.6-3.6.829.829Z" transform="translate(19.942 3.954)" fill="#006d36"/>
        <path id="Trazado_877670" data-name="Trazado 877670" d="M10.211,2.95h2.307a5.908,5.908,0,0,1,5.9,5.9v2.307H16.113a5.908,5.908,0,0,1-5.9-5.9Zm7.036,7.036V8.852a4.734,4.734,0,0,0-4.729-4.729H11.384V5.257a4.734,4.734,0,0,0,4.729,4.729Z" transform="translate(2.166 -2.95)" fill="#006d36"/>
        <path id="Línea_4307" data-name="Línea 4307" d="M3.253,4.083l-3.6-3.6L.487-.342l3.6,3.6Z" transform="translate(16.332 3.954)" fill="#006d36"/>
        <path id="Trazado_877671" data-name="Trazado 877671" d="M25.3,18.318l-.483-.7a3.325,3.325,0,0,0-5.481,0l-.483.7-.483-.7a3.325,3.325,0,0,0-5.481,0l-.483.7-.483-.7a3.325,3.325,0,0,0-5.481,0l-.967-.664a4.5,4.5,0,0,1,6.931-.589,4.5,4.5,0,0,1,6.447,0,4.5,4.5,0,0,1,6.448,0,4.5,4.5,0,0,1,6.932.59l-.967.664a3.325,3.325,0,0,0-5.482,0Z" transform="translate(1.161 -0.394)" fill="#006d36"/>
        <path id="Línea_4308" data-name="Línea 4308" d="M.689,1.173H-.484V0H.689Z" transform="translate(10.516 17.537)" fill="#006d36"/>
      </g>
    </g>
  </g>
</svg>
