<svg xmlns="http://www.w3.org/2000/svg" xmlns:xlink="http://www.w3.org/1999/xlink" width="295" height="350" viewBox="0 0 295 350">
  <defs>
    <clipPath id="clip-path">
      <rect id="Rectángulo_403683" data-name="Rectángulo 403683" width="294" height="350" rx="20" transform="translate(285 6412)" fill="#cce2d6"/>
    </clipPath>
    <clipPath id="clip-path-2">
      <rect id="Rectángulo_403682" data-name="Rectángulo 403682" width="143.442" height="146.148" fill="#ffad09" stroke="#ffde9c" stroke-width="1"/>
    </clipPath>
  </defs>
  <g id="Grupo_1104327" data-name="Grupo 1104327" transform="translate(-810 -1078.715)">
    <rect id="Rectángulo_402579" data-name="Rectángulo 402579" width="295" height="350" rx="20" transform="translate(810 1078.715)" fill="#ffde9c"/>
    <g id="Enmascarar_grupo_1098786" data-name="Enmascarar grupo 1098786" transform="translate(525 -5333.285)" clip-path="url(#clip-path)">
      <g id="Grupo_1102630" data-name="Grupo 1102630" transform="translate(266.303 6356.383)">
        <g id="Grupo_1102627" data-name="Grupo 1102627" transform="translate(297.862 292.625)">
          <path id="Trazado_881189" data-name="Trazado 881189" d="M613.158,259.158v-1.124L591.638,236.55v1.126Z" transform="translate(-590.763 -208.15)" fill="#ffad09"/>
          <path id="Trazado_877632_-_Contorno" data-name="Trazado 877632 - Contorno" d="M613.909,260.968l-23.27-23.23v-3.6l23.27,23.231Z" transform="translate(-590.638 -207.85)" fill="#ffad09"/>
          <path id="Trazado_881190" data-name="Trazado 881190" d="M591.638,218.175V219.3l21.519,21.484v-1.126Z" transform="translate(-590.763 -216.064)" fill="#ffad09"/>
          <path id="Trazado_877633_-_Contorno" data-name="Trazado 877633 - Contorno" d="M590.639,215.764,613.909,239v3.6l-23.27-23.231Z" transform="translate(-590.638 -215.764)" fill="#ffad09"/>
          <path id="Trazado_881191" data-name="Trazado 881191" d="M613.158,249.972v-1.126l-21.519-21.482v1.125Z" transform="translate(-590.763 -212.107)" fill="#ffad09"/>
          <path id="Trazado_877634_-_Contorno" data-name="Trazado 877634 - Contorno" d="M613.909,251.782l-23.27-23.231v-3.6l23.27,23.23Z" transform="translate(-590.638 -211.806)" fill="#ffad09"/>
          <path id="Trazado_881192" data-name="Trazado 881192" d="M613.158,277.532v-1.123l-21.519-21.483v1.125Z" transform="translate(-590.763 -200.236)" fill="#ffad09"/>
          <path id="Trazado_877635_-_Contorno" data-name="Trazado 877635 - Contorno" d="M613.909,279.342l-23.27-23.23v-3.6l23.27,23.231Z" transform="translate(-590.638 -199.935)" fill="#ffad09"/>
          <path id="Trazado_881193" data-name="Trazado 881193" d="M613.158,268.346v-1.125l-21.519-21.484v1.126Z" transform="translate(-590.763 -204.193)" fill="#ffad09"/>
          <path id="Trazado_877636_-_Contorno" data-name="Trazado 877636 - Contorno" d="M613.909,270.156l-23.27-23.23v-3.6l23.27,23.231Z" transform="translate(-590.638 -203.892)" fill="#ffad09"/>
          <path id="Trazado_881194" data-name="Trazado 881194" d="M613.158,295.907v-1.126L591.638,273.3v1.126Z" transform="translate(-590.763 -192.322)" fill="#ffad09"/>
          <path id="Trazado_877637_-_Contorno" data-name="Trazado 877637 - Contorno" d="M613.909,297.717l-23.27-23.23v-3.6l23.27,23.23Z" transform="translate(-590.638 -192.022)" fill="#ffad09"/>
          <path id="Trazado_881195" data-name="Trazado 881195" d="M613.158,286.719v-1.125l-21.519-21.482v1.126Z" transform="translate(-590.763 -196.279)" fill="#ffad09"/>
          <path id="Trazado_877638_-_Contorno" data-name="Trazado 877638 - Contorno" d="M613.909,288.529,590.638,265.3v-3.6l23.27,23.23Z" transform="translate(-590.638 -195.978)" fill="#ffad09"/>
        </g>
        <g id="Grupo_1102629" data-name="Grupo 1102629" transform="matrix(-0.105, 0.995, -0.995, -0.105, 160.341, 15.277)">
          <g id="Grupo_1102628" data-name="Grupo 1102628" clip-path="url(#clip-path-2)">
            <path id="Trazado_877665" data-name="Trazado 877665" d="M85.624,145.478l.059-.095a2.615,2.615,0,0,1-.353-.05.729.729,0,0,0-.105-.017l.169.154-.448-.114-.088.015-.036-.047-.3-.077-2.785.1,1.381-.513a.965.965,0,0,0-.226-.012l-.4.018-.016-.1-.051,0a1.139,1.139,0,0,1-.358-.072l-.374-.124-.283-.047a13.011,13.011,0,0,1-2.417-.56l-.47-.169c-.224-.062-.448-.121-.593-.159l-.006.017-1.091-.3-.022-.066-1.11-.306.081-.081c-.234-.074-.466-.136-.694-.2l-.016.039a.122.122,0,0,0,.03.006,1.065,1.065,0,0,0-.175.038c-.043.012-.085.023-.125.032l-.129.029-.125-.045a.823.823,0,0,0-.228-.061,1.826,1.826,0,0,1-.631-.206l-.417-.19-.063-.01-.19-.029.01-.072-1.659-.756h.014a6.19,6.19,0,0,1-.927-.382l-.039-.019-.376-.288a.758.758,0,0,0-.265-.067,1.034,1.034,0,0,1-.5-.164l-.1-.049.022.155L68.4,140.2l-.076-.045h0a3.239,3.239,0,0,0-.521-.245c-.106-.042-.216-.085-.343-.144l-.428-.162a1.3,1.3,0,0,1-.646-.274c-.042-.028-.086-.056-.125-.08h-.209l-.108-.065c-.6-.365-1.635-.911-2.98-1.577l-.094-.046-.041-.054a5.234,5.234,0,0,0-.555-.262l-.024.038c-1.837-.986-1.844-.99-3.632-1.852l-.225-.061a1.187,1.187,0,0,1-.124-.034l.045-.151-.183-.087a.325.325,0,0,0,.067.1,2.012,2.012,0,0,0-.242-.167c-.186-.094-.458-.216-.745-.346-.253-.114-.515-.232-.765-.351l-.67-.319.1-.076-.075-.024h-.013l-.057,0-.008,0h-.074l-.107-.065c-.415-.252-.642-.39-1.114-.649l-2.918-1.31-.4-.181c-.612-.278-1.245-.566-1.736-.726l-.456-.149.022-.056-.1-.027-.159-.091a.579.579,0,0,1-.177.073l-.8.187.123-.351c-.208-.082-.492-.2-.894-.373s-.86-.367-1.185-.489h-.01l-.032.077a4.145,4.145,0,0,1-.431-.174c-.142-.064-.334-.151-.748-.31a5.993,5.993,0,0,1-1.243-.341c-.254-.084-.516-.172-.733-.235l-.051-.015-.046-.026-.029-.015a.8.8,0,0,1-.2-.141.46.46,0,0,1-.054,0,1.241,1.241,0,0,1-.408-.1l-.019-.007a1.265,1.265,0,0,1-.4-.218h0a4.845,4.845,0,0,0-.577-.214l-.019-.007c-.194-.075-.4-.144-.594-.211a6.5,6.5,0,0,1-1.227-.51c-.1-.045-.224-.111-.383-.193-.289-.15-.686-.355-1.082-.526l-.007,0c-.131-.059-.27-.118-.426-.179a19.026,19.026,0,0,0-2.653-.64c-.643.171-1.32.371-1.993.574l1.485.354a28.283,28.283,0,0,1,5.868,1.943l.063.009a.532.532,0,0,1,.342.173l.037.017.12.058.175.063a2.75,2.75,0,0,0,.288.078,2.034,2.034,0,0,1,1.042.5l.046.045.086.033c.039.015.073.028.1.039a.546.546,0,0,1,.155.1,13.382,13.382,0,0,1,2.149,1.143c.3.183.6.37.938.563l-.744-1.641,2,2.273a2.994,2.994,0,0,0,.4.247c.265.148.455.255.52.45l.046.032.132.092.027-.04c.026.015.108.059.3.145l.058.027.048.042a8.843,8.843,0,0,0,.95.684,6.929,6.929,0,0,1,.9.653l.232.078.067.059a8.78,8.78,0,0,0,1.035.72,7.473,7.473,0,0,1,1.378,1.019c1.057.7,1.782,1.164,2.78,1.8l.222.143c.149.108.322.228.5.354a7.492,7.492,0,0,1,1.237.963,8.03,8.03,0,0,0,1.185.75c.251.137.51.278.812.475l.882.577-.076.017.078.053a1.656,1.656,0,0,1,.6.343,2.549,2.549,0,0,0,.4.269l1.339.389-.592.209a1.384,1.384,0,0,1,.172.161l.4.45-1.513.7-.024-.043-.082.042a3.008,3.008,0,0,1-.352.165l-1.23.911.136-.577-.15.04.087.171-.666.054c-.027,0-.05,0-.07,0a.642.642,0,0,1-.15-.017l0,.067c-.113,0-.2,0-.266,0-.036,0-.071,0-.112,0a2.854,2.854,0,0,0-.411.037l-.006-.031c-.069,0-.142,0-.214,0l-.085,0,.02.106s-.176.038-.352.074l-.008,0-.352.064-.062.011-.063-.007-.039,0-.335.053.042-.109c-.067-.006-.12-.014-.159-.021l-.023,0,.2.241-.473-.141-.09.034-.045-.074-.18-.054-1.952.329.753-.506-.262-.072-.087.014,0-.039-1.178-.323a5.4,5.4,0,0,1-1.227-.317l-.163-.065-1.453-.4-.01-.065-.792-.227.031-.039-.272-.088-.059.025c-.037.016-.073.031-.107.043l-.163.06-.161-.065a.462.462,0,0,0-.075-.026h-.014a1.115,1.115,0,0,1-.547-.187l-.238-.133-.148-.016.006-.063-1.118-.623a2.839,2.839,0,0,1-.728-.348l-.045-.029-.22-.234a.287.287,0,0,0-.073-.01.751.751,0,0,1-.432-.144l-.028.226-.642-.556L44.114,141l-.006,0a1.54,1.54,0,0,0-.316-.181c-.069-.032-.146-.069-.233-.117l-.246-.107a.686.686,0,0,1-.358-.131l.492.532L40.021,138.6c-1.18-.824-1.2-.835-2.33-1.537l-.128-.04a.863.863,0,0,1-.106-.034l.052-.149-.218-.133a.285.285,0,0,0,.043.085.917.917,0,0,0-.1-.1c-.114-.074-.284-.173-.463-.277s-.352-.2-.522-.309l-.551-.342.031-.024-.151-.125c-.2-.173-.334-.282-.559-.454l-1.975-1.183-.314-.191a8.978,8.978,0,0,0-1.066-.593L31.2,133l.009-.016-.01,0-1,.308.267-.534c-.127-.071-.283-.163-.481-.28s-.493-.293-.7-.4H29.27l-.052,0-.031.055a2.134,2.134,0,0,1-.315-.176c-.087-.057-.194-.126-.426-.25a2.912,2.912,0,0,1-.81-.305c-.185-.087-.375-.177-.527-.233l-.072-.026-.068-.055a.778.778,0,0,1-.1-.085,1.093,1.093,0,0,1-.3-.1l-.007,0a.9.9,0,0,1-.309-.212c-.037-.018-.125-.055-.32-.124l-.022-.009a3.778,3.778,0,0,0-.564-.165,3.361,3.361,0,0,1-.692-.219l-.1-.036c-.289-.1-.824-.289-1.274-.408a9.437,9.437,0,0,0-1.443-.12,5.508,5.508,0,0,0-2.22.418l-.132.059-.128-.278c-.929.222-1.813.428-2.543.592l-1.782.408-.02,0-4.727.861-5.915,1.3-2.383.076L0,132.281l3.527-1.338.057.141-.017-.134a16.258,16.258,0,0,0,1.712-.342c.49-.117,1-.237,1.521-.314l.35-.649.236.578c.215-.047.521-.127.75-.186a7.36,7.36,0,0,1,1.378-.287h.03a8.953,8.953,0,0,0,1.356-.332c.207-.063.4-.123.61-.176l1.348-.343-.269-.017,1.6-.322.156-.04-.02.012,1.588-.319c1.537-.309,3.156-.707,4.722-1.092,1.038-.255,2.026-.5,2.949-.705l.063-.081.585-.754,0-.006c.277-.345.529-.725.531-.729l.26.166-.172-.235a6.762,6.762,0,0,0,.981-.929c.192-.207.388-.42.607-.623l-.2-.882.664.458c.1-.116.208-.262.295-.374a3.868,3.868,0,0,1,.667-.758,3.52,3.52,0,0,0,.543-.754c.073-.125.149-.254.236-.38a.594.594,0,0,1,.048-.069l.407-.582-.061.044,1.425-2.1c.782-1.151,1.521-2.515,2.173-3.719.326-.6.634-1.171.932-1.688l.016-.067a.542.542,0,0,1,.191-.321l.1-.2.047-.129c.033-.089.06-.19.089-.3a2.432,2.432,0,0,1,.5-1.052l.055-.062c.013-.033.025-.069.033-.091a.822.822,0,0,1,.126-.247,18.55,18.55,0,0,1,.866-1.95c.214-.431.42-.848.625-1.342l-1.454.98,1.941-2.367a3.26,3.26,0,0,0,.205-.467,1.064,1.064,0,0,1,.37-.592l.029-.062c.025-.054.051-.108.077-.161l-.045-.021c.009-.022.041-.111.1-.327l.017-.059.032-.052a9.415,9.415,0,0,0,.551-1.126,7.507,7.507,0,0,1,.511-1.035l.044-.253.042-.071a10.249,10.249,0,0,0,.552-1.172,8.193,8.193,0,0,1,.854-1.665l.306-.648c.458-.972.82-1.739,1.378-2.8l.01-.017.126-.217a8.946,8.946,0,0,1,1.192-1.767c.143-.2.269-.381.382-.564l.195-.313.158-.24.1-.156c.094-.142.183-.279.277-.426.256-.4.52-.809.889-1.281l1.714-2.187-.039.108.022-.04.068.027.836-1.02a2.37,2.37,0,0,1,.17-.174c.02-.018.039-.037.06-.058l.145-.147.614-1.165-.027.569.376-.381-.46,2.019-.037-.005h0a.893.893,0,0,0-.065.261c-.017.1-.038.225-.076.378a.9.9,0,0,1,.028.272l-.053.4-.141,0a.448.448,0,0,0-.014.1c0,.026,0,.053,0,.087l0,.022.153-.126-.211.795-.149,1.74-.143-.5-.03.106a7.378,7.378,0,0,0-.227,1.059l-.032,0c-.019.086-.039.167-.059.247s-.042.168-.061.255l.113.009s-.021.3-.041.613l0,.413-.016.059a.784.784,0,0,1-.031.093l-.009.227.1-.077-.144.448.037.142-.1.051-.04.126.183,2.043-.528-.951h0l.07.463-.116.013a1.018,1.018,0,0,1-.054.223l-.074.214c-.016.164-.028.322-.04.477a8.013,8.013,0,0,1-.228,1.554l-.1.359c-.023.155-.042.309-.054.409l.018,0-.124.921-.054.019-.1.839-.037-.02-.051.334.038.062c.021.034.042.068.06.1l.081.145-.033.163a.305.305,0,0,0-.012.113,1.2,1.2,0,0,1-.084.571l-.093.292c0,.039.007.089.011.153l-.061.005-.424,1.335a2.972,2.972,0,0,1-.208.763l-.019.045-.2.283a.308.308,0,0,0,0,.1.779.779,0,0,1-.06.441l.189-.027-.432.831a2.046,2.046,0,0,0-.148.378c-.025.079-.052.167-.09.267l-.079.284a1,1,0,0,1-.2.589l-.02.032.022.116.414-.451-1.949,3.434c-.266.468-.467.772-.628,1.016-.082.124-.153.231-.218.338l-.009.015c-.075.113-.146.232-.227.37-.134.226-.3.505-.558.881l-.047.131a.871.871,0,0,1-.043.116l-.15-.06-.134.206a.323.323,0,0,0,.093-.042,1.092,1.092,0,0,0-.119.118c-.056.08-.128.191-.2.308-.143.224-.322.5-.513.744l-.4.506-.014-.024,0,.02-.1.1-.563.56-.226.226-.063-.058-.023.019-.019.02h0c-.011.035-.023.069-.038.1l.323-.159L37.181,118.7c-.191.206-.4.414-.6.615-.235.233-.457.452-.622.641l-.3.336-.037-.032-.046.031a.585.585,0,0,1,0,.107l-.061.947L35.14,121c-.175.151-.412.335-.724.578-.169.132-.363.282-.512.4a.436.436,0,0,1-.03.056l.039.053a2.448,2.448,0,0,1-.324.233c-.094.059-.219.138-.452.307a3.837,3.837,0,0,1-.872.751l2.292-.213a4.8,4.8,0,0,0,.75-.242,2.023,2.023,0,0,1,.637-.185.492.492,0,0,1,.151.024l.2-.061c.083-.026.167-.053.247-.077l-.016-.048c.029-.011.148-.057.449-.194l.043-.019.046-.01a13.6,13.6,0,0,0,1.781-.573,11.671,11.671,0,0,1,1.363-.45l.3-.18.06-.016a15.26,15.26,0,0,0,1.866-.713c.359-.154.728-.313,1.084-.451a5.536,5.536,0,0,0,.445-.5l.006-.008a6.978,6.978,0,0,0,.569-.841l.211.11-.152-.159a6.5,6.5,0,0,0,1.118-1.578c.11-.194.223-.392.344-.59l-.331-.716.646.205c.053-.116.123-.282.21-.509l.05-.137a4.413,4.413,0,0,1,.455-1.04,5.167,5.167,0,0,0,.363-1.1c.044-.184.09-.374.151-.563l.01-.03.413.138v-.384a.432.432,0,0,0-.348.172,2.081,2.081,0,0,0,.205-.6l0-.026.008-.025c.009-.033.024-.147.037-.239l.01-.077-.076.123.683-2.766a44.761,44.761,0,0,0,.874-5.726c.065-.6.126-1.16.192-1.69a.644.644,0,0,1,.041-.467l.023-.28,0-.22c0-.126-.015-.263-.03-.407a3.211,3.211,0,0,1,.063-1.3l.035-.119c0-.055,0-.118,0-.153a.869.869,0,0,1,.024-.3c-.033-1,.009-1.785.05-2.548.032-.6.063-1.174.06-1.842l-.959,1.774.869-3.464a4.174,4.174,0,0,0,.016-.664c-.009-.413-.013-.6.112-.759,0-.049,0-.1.006-.142,0-.079.007-.159.012-.235l-.051,0c0-.022,0-.117-.029-.419l0-.05.007-.049a14.37,14.37,0,0,0,.09-1.494,10.266,10.266,0,0,1,.1-1.434l-.054-.307.01-.071a14.676,14.676,0,0,0,.1-1.516,10.758,10.758,0,0,1,.231-2.292c.142-1.808.252-2.912.516-4.619l0-.016a12.982,12.982,0,0,1,.725-2.761c.185-.58.3-1.018.4-1.442a14.341,14.341,0,0,1,.471-1.587L52.9,70.99l.042.135c.07-.164.142-.318.209-.44a1.092,1.092,0,0,1,.078-.276c.052-.13.128-.286.208-.451a4.441,4.441,0,0,0,.306-.723l.408-2.013.208.886.058-.115c.3-.615.612-1.233.612-1.233l.038.017.027-.056.054-.091v-.015h.008l.033-.053.769-1.214.058,1.436c0,.042,0,.083,0,.127l0,.047.023.054a.846.846,0,0,1,.086.261l.014.137-.1.182a1.012,1.012,0,0,0,.021.233c.006.026.011.052.017.085l.032.181.091-.121.011.7.362,2.051-.311-.589c0,.025,0,.049,0,.072a10.055,10.055,0,0,0,.054,1.27l-.033,0c0,.1.005.2.006.3,0,.05,0,.1,0,.152s0,.116,0,.181l.113-.015s.013.091.033.227l.007.052c.012.088.038.27.049.316l.006.024c.044.206.088.414.088.414l.011.051v.053a.825.825,0,0,1-.014.136l.035.233-.051-.021c0,.091,0,.159,0,.214v.019l.142-.207-.041.51.042.1-.054.051-.019.24.6,2.281-.73-1.008a.787.787,0,0,0,.034.147l.126.408-.094.034a1.042,1.042,0,0,1,.006.329l-.03.279c.019.205.039.4.06.594a11.62,11.62,0,0,1,.094,1.863l-.022.442c.01.194.024.387.035.515h.019l.073,1.037-.049.033.09,1.014-.043-.018.04.5c.019.027.055.069.08.1s.052.061.075.09l.091.115.005.147a.561.561,0,0,0,.024.18,1.523,1.523,0,0,1,.047.618l-.021.367,0,.009c.014.049.034.114.06.208l-.076.022-.073,1.308c.007.066.015.128.022.187a4.93,4.93,0,0,1,.041,1.006l0,.045-.106.4a.5.5,0,0,0,.043.191.909.909,0,0,1,.067.486l.129-.086-.074.922c0,.024,0,.045-.007.065l-.009.085a2.588,2.588,0,0,0,.007.424c.007.1.015.206.016.332l.038.379a1.157,1.157,0,0,1,.035.661c0,.034-.01.068-.014.1l.091.164-.015.141c-.082.793-.1,2.059-.109,2.982v.113l-.032.058a4.655,4.655,0,0,0,.013.52l.043.005,0,.091c-.064,1.88-.064,1.892-.122,3.57l.03.2a1.036,1.036,0,0,1,.019.132L57,99.32q-.006.115-.012.225a.329.329,0,0,0,.074-.1,1.875,1.875,0,0,0-.058.247c-.009.109-.017.244-.027.4-.021.333-.046.748-.1,1.129l-.092.71-.109-.071c0,.013,0,.024,0,.032l.025.068v0l.024.072-.044.139c-.151.482-.23.736-.371,1.187l-.033.1-.083-.023-.015.038a.49.49,0,0,0-.027.081c0,.008,0,.016,0,.025a1.1,1.1,0,0,1-.011.306l.412-.487L55.4,106.134c-.153.361-.334.731-.509,1.088-.151.309-.294.6-.4.847l-.187.439-.052-.026-.02.053-.083.109a.579.579,0,0,1,.047.158l.136.9-.394-.218c-.133.226-.327.527-.6.948-.161.248-.336.517-.463.722q0,.01,0,.02l.062.043a3.469,3.469,0,0,1-.244.362c-.082.11-.192.258-.4.571a4.808,4.808,0,0,1-.571,1.061c-.119.191-.242.389-.335.554l-.029.051-.041.042-.017.019a.754.754,0,0,1-.155.14,1.22,1.22,0,0,1-.183.368l-.012.018a1.1,1.1,0,0,1-.29.312,4.551,4.551,0,0,0-.278.433l-.008.014c-.121.186-.233.386-.341.58a5.777,5.777,0,0,1-.554.87,12.409,12.409,0,0,1-.931,1.163c.214-.106.431-.215.654-.328l.027-.013c.339-.145.746-.337,1.14-.522a14.434,14.434,0,0,1,1.693-.727,16.553,16.553,0,0,0,2.045-1.081c.3-.179.608-.364.981-.57l1.246-.686-.034.068c.073-.045.155-.089.241-.135a3.455,3.455,0,0,0,.328-.19l.237-.444.245.2,1.406-.823.026.038.046-.031a3.437,3.437,0,0,1,.3-.185l1.553-1.571-.2.622a.779.779,0,0,1,.251-.094l0,0-.033-.069c.114-.063.2-.105.276-.142a3.591,3.591,0,0,0,.647-.4l.02.025.025-.037c.192-.285.411-.639.6-.972l0-.006c.421-.707.795-1.45.8-1.458l.017.007a17.637,17.637,0,0,0,1.666-2.874c.149-.3.3-.606.461-.912l-.186-.559.446.084c.091-.208.229-.56.391-1.034.082-.242.16-.486.236-.723a7.471,7.471,0,0,1,.361-1.01,10.308,10.308,0,0,0,.481-2.114c.024-.16.048-.326.075-.49L67.3,96.9a10.84,10.84,0,0,1,.086-1.4c.023-.145.041-.313.054-.5l-.012-2.167a53.868,53.868,0,0,0-1.159-9.159c-.141-.759-.274-1.476-.391-2.161l-.005-.031c-.024-.067-.048-.136-.066-.191a.629.629,0,0,1-.044-.384l-.108-.56-.084-.325c-.048-.187-.107-.377-.169-.577a6.846,6.846,0,0,1-.378-1.869l-.008-.249c-.021-.1-.051-.226-.067-.293a1.17,1.17,0,0,1-.054-.389,45.422,45.422,0,0,1-.866-5.425c-.111-.962-.236-2.052-.429-3.367l.021,0-.027-.435-.088-.014a9.5,9.5,0,0,0-.06-1.073c-.062-.7-.08-.908.038-1.074,0-.118,0-.255-.007-.363s-.006-.243-.007-.359l-.051,0-.01-.124c-.009-.113-.024-.293-.047-.578l0-.028v-.028c.024-.524.034-1.07.044-1.6a21.5,21.5,0,0,1,.181-2.982l-.031-.478.006-.045c.056-.407.108-.853.164-1.326a22.045,22.045,0,0,1,.825-4.488,51.085,51.085,0,0,1,2.017-6.814l.005-.013a28.1,28.1,0,0,1,1.773-3.845c.458-.894.762-1.552,1.055-2.189.305-.661.593-1.286,1.012-2.075l.863-1.629v.137a4.593,4.593,0,0,1,.254-.471,4.662,4.662,0,0,0,.28-.525l.047-.408.234.015,1.539-2.656.04.022.066-.12c.124-.226.276-.505.414-.722l.458-.971.094.038c.032-.061.062-.121.095-.185s.054-.107.084-.166l.035.017c.2-.32.42-.7.627-1.09l.03-.057a.57.57,0,0,1,.378-.353l.736-1.613-.118,2.344a4.311,4.311,0,0,1-.051.5c-.005.035-.01.067-.015.1l.068,0c-.017.32-.034.565-.05.781-.036.5-.065.9-.068,1.945H76.42c-.006.151-.014.3-.022.441,0,.076-.008.152-.012.23l0,.07c-.005.12-.011.243-.014.371l.12,0c0,.054,0,.127.011.212.008.111.016.239.025.376v.015c0,.062.008.124.012.189l.012.123c.034.311.069.622.069.623l0,.035,0,.035c0,.03,0,.056,0,.079l.037.327-.081-.055a4.46,4.46,0,0,1-.006.463,1.149,1.149,0,0,0,0,.2l.151-.331-.069,1.305.6,3.285-.7-1.486a2.176,2.176,0,0,0,.061.349l.083.336-.117.063a1.029,1.029,0,0,1,.1.611l-.013.444c.053.49.114.941.174,1.382.1.762.2,1.482.243,2.29l.035.649c.036.3.078.6.111.829l.019,0,.208,1.369-.046.056.242,1.465-.095-.045c.055.388.124.753.193,1.086l.042,0a1.07,1.07,0,0,0,.159.264c.031.043.061.084.088.125l.057.085.014.1a1.778,1.778,0,0,0,.078.369,3.009,3.009,0,0,1,.131.79l.052.608.028.087c.023.071.053.165.1.3l-.088.029.158,1.848c.026.132.051.252.075.368a10.438,10.438,0,0,1,.22,1.442l0,.031-.033.632a1.675,1.675,0,0,0,.116.463,1.5,1.5,0,0,1,.12.583c0,.048.01.092.014.133l.117-.164.071,1.276c0,.039,0,.075,0,.109v.017a6.155,6.155,0,0,0,.091.807c.024.15.049.306.071.489l.113.667a1.9,1.9,0,0,1,.113.831c0,.1,0,.2,0,.291l.113.238,0,.089c.052,1.019.111,2.2.172,3.408l.065,1.284-.019.063a7.2,7.2,0,0,0,.049.92l.044,0c.011,2.584.005,2.847-.039,4.889l-.016.736.026.353c.005.042.009.091.011.153l-.164.009c0,.052,0,.1-.007.156a.346.346,0,0,0,.089-.13,3.809,3.809,0,0,0-.086.474c-.02.2-.031.48-.043.774-.019.479-.041,1.022-.107,1.533l-.109.847-.1-.087a3.014,3.014,0,0,0-.005.349l.017.064v0l.018.071-.017.094c-.078.442-.145.756-.222,1.12-.051.241-.109.513-.18.869l-.084-.015-.006.025a.817.817,0,0,0-.033.327,4.509,4.509,0,0,1-.276,1.67l-.01.032-.156.441a6.41,6.41,0,0,1-.225,1.12c-.038.15-.079.305-.122.46l.166.06-.342,1.344-.453,1.782-.105.413-.057-.011-.067.321-.135.334,0,.024a.6.6,0,0,1,.108.256l.129.729-.258-.081c-.058.184-.139.418-.25.724-.22.605-.5,1.338-.733,1.927l-.168.432.074.033c-.1.254-.162.391-.251.58s-.222.475-.466,1.049a8.042,8.042,0,0,1-.687,1.71c-.142.305-.289.621-.4.884l-.015.036-.021.033-.029.047a.774.774,0,0,1-.21.25l-.052.092a1.457,1.457,0,0,1-.215.545l-.006.011a1.824,1.824,0,0,1-.3.438,4.365,4.365,0,0,0-.432.809l-.009.017c-.164.3-.32.613-.47.914a15.261,15.261,0,0,1-.733,1.357c-.143.27-.472.772-.858,1.349l.022.088c.174-.152.347-.315.52-.491l-.026-.034a.125.125,0,0,0-.022.025,1.041,1.041,0,0,0,.05-.162c.011-.042.022-.086.036-.131l.037-.121.1-.084a.782.782,0,0,0,.16-.169,1.8,1.8,0,0,1,.475-.458l.337-.258.018-.025c.033-.047.077-.11.141-.2l.071.049,1.11-.85c.09-.095.167-.179.239-.259A6.09,6.09,0,0,1,75,99.77l.03-.024.355-.2.045-.044.057-.053.011,0a.946.946,0,0,0,.1-.149,1.089,1.089,0,0,1,.347-.392h0l-.2-.029.853-.65.049-.039.042-.034a3.387,3.387,0,0,0,.375-.373c.077-.086.157-.174.257-.273l.3-.345a1.323,1.323,0,0,1,.476-.514c.041-.031.083-.063.12-.093l.068-.2.1-.08c.562-.459,1.374-1.278,2.037-1.963.1-.309.236-.729.374-1.155.1-.346.2-.692.282-.976l.041-.144c.079-.31.132-.516.132-.516l.018,0a19.972,19.972,0,0,0,1-2.859c.129-.443.261-.9.411-1.355l-.258-.516.442.011c.088-.347.212-1,.3-1.474a13.11,13.11,0,0,1,.315-1.46,12.165,12.165,0,0,0,.264-2.1c.012-.2.025-.409.043-.616l.163-1.936a8.644,8.644,0,0,1,.03-1.277,22.543,22.543,0,0,0,.019-2.711l-.037,0a51.254,51.254,0,0,0-1.326-9.487c-.136-.664-.264-1.292-.381-1.9l-.006-.033c-.025-.068-.051-.137-.071-.193a.63.63,0,0,1-.051-.382L82,62.683l-.092-.334c-.052-.188-.114-.378-.181-.579a6.878,6.878,0,0,1-.414-1.881l-.012-.254h0c-.023-.1-.053-.225-.07-.292a1.2,1.2,0,0,1-.06-.391,28.608,28.608,0,0,1-.695-4.267c-.085-.9-.147-1.826-.2-3.032l-.85,2.2.743-4.394c.035-.21.054-.641.071-1.022.01-.238.02-.463.034-.635a2.423,2.423,0,0,1,.028-.241.586.586,0,0,1,.124-.28c.011-.082.022-.173.031-.25.019-.157.039-.326.063-.484l-.047-.005c0-.053.009-.151.021-.325l.029-.428.006-.031c.09-.433.177-.885.26-1.322a22.185,22.185,0,0,1,.764-3.214l.057-.48.014-.043c.129-.391.262-.821.4-1.276a23.512,23.512,0,0,1,1.629-4.3,52.273,52.273,0,0,1,3.18-6.42l.007-.012a30.117,30.117,0,0,1,2.437-3.516c.575-.748.977-1.314,1.365-1.861.454-.64.883-1.244,1.5-1.993l1.209-1.479-.03.133c.08-.109.19-.231.323-.38a4.774,4.774,0,0,0,.389-.468l.136-.395.224.067.7-.774,0,0,1.021-1.1.035.031.112-.124c.172-.191.384-.427.577-.615l.616-.783.086.058c.074-.081.135-.152.2-.232l.105-.124.029.024c.353-.344.677-.7.893-.94l.111-.127a.462.462,0,0,1,.352-.164h.2l0,0,.485-.506-.2,1.388a3.455,3.455,0,0,1-.1.474c-.012.044-.022.082-.033.137l.073.012c-.045.307-.084.538-.119.741-.08.474-.144.848-.248,1.916l-.034,0c-.019.136-.038.268-.058.4-.011.073-.022.146-.033.22v.006l-.045.28.115.009-.089,1.332-.007.033a1.124,1.124,0,0,1-.044.157l-.02.222-.045-.045a4.69,4.69,0,0,1-.095.5,1.108,1.108,0,0,0-.042.27l.227-.283-.384,1.238L98.5,25.866l-.316-1.71a2.47,2.47,0,0,0-.054.4L98.1,24.9l-.137.028a1.035,1.035,0,0,1-.084.633l-.152.436c-.035.164-.068.325-.1.483a28.535,28.535,0,0,1-.8,3.192l-.233.709-.008-.009c-.08.293-.155.579-.2.759l.018.006-.352,1.352-.068.036-.375,1.466-.071-.084c-.1.342-.19.7-.276,1.083l.04.013a1.069,1.069,0,0,0,.034.313c.01.053.02.1.028.154l.016.1-.028.1a1.792,1.792,0,0,0-.082.373,3,3,0,0,1-.21.781l-.208.583c0,.026-.007.056-.011.093-.009.074-.02.172-.037.309l-.092-.01-.6,1.676c-.044.185-.079.345-.112.5a11.391,11.391,0,0,1-.366,1.36l-.009.028-.277.568a1.678,1.678,0,0,0-.075.474,1.5,1.5,0,0,1-.115.578c-.023.078-.042.146-.057.2l.2-.117-.42,1.153-.014.039-.02.058a6.32,6.32,0,0,0-.212.806c-.03.142-.061.289-.1.459l-.112.655a1.9,1.9,0,0,1-.16.82c-.032.094-.064.19-.088.273l.032.268-.031.094c-.155.472-.3,1.12-.449,1.8l-.037.165c-.168.718-.32,1.56-.441,2.433l-.011.082-.033.06a6.891,6.891,0,0,0-.13.877l.045.01c-.158,1.081-.231,1.737-.3,2.316-.018.162-.035.316-.053.469-.036.469-.053.929-.079,1.623-.011.3-.024.645-.04,1.049l.044.345c.007.039.012.085.018.14l-.161.018q0,.077,0,.155a.344.344,0,0,0,.08-.132,3.678,3.678,0,0,0-.059.469c-.006.3,0,.733.01,1.191.006.359.013.73.015,1.086l0,.89-.121-.089c.009.145.019.241.026.3l.023.081.009.021v.014l.022.076-.006.079c-.053.729-.08,1.095-.122,2.01l-.087,0,0,.02a.961.961,0,0,0,.019.343c.008.037.016.074.024.114l.143-.58L90.4,69.4c-.017.536-.054,1.105-.09,1.656-.038.581-.074,1.13-.083,1.586l-.01.486-.072-.007,0,.3-.068.361q0,.015,0,.028a.6.6,0,0,1,.152.235l.245.674-.252-.026c-.032.312-.1.773-.221,1.471-.071.391-.152.794-.223,1.15-.047.236-.093.466-.13.664l.083.019c-.057.314-.1.46-.166.727-.057.214-.134.5-.261,1.034a11.287,11.287,0,0,1-.521,2.342c-.042.152-.082.3-.118.433l-.009.034-.014.032-.021.05a.811.811,0,0,1-.17.281l-.032.095a1.378,1.378,0,0,1-.118.585l0,.013a1.772,1.772,0,0,1-.225.494,4.261,4.261,0,0,0-.315.874l-.006.016c-.106.3-.2.6-.3.891-.127.393-.248.772-.386,1.12.106-.11.223-.234.368-.39h0l1.91-2.4c.149-.188.309-.384.464-.573.368-.451.748-.917,1-1.291l.264-.39.048.036.062-.1.138-.134a.579.579,0,0,1-.019-.2l.055-.835.3.229c.157-.2.381-.47.7-.849.258-.308.56-.668.763-.929v0l-.065-.056c.12-.158.2-.243.292-.351s.25-.28.538-.638a5.365,5.365,0,0,1,.684-1.034c.176-.235.358-.479.493-.682l.031-.047.042-.038.024-.023a.729.729,0,0,1,.19-.147,1.266,1.266,0,0,1,.225-.405l.009-.012a1.278,1.278,0,0,1,.32-.329l0,0a2.728,2.728,0,0,0,.211-.3c.034-.08.068-.159.1-.235.067-.153.13-.3.183-.443a4.293,4.293,0,0,0,.15-.506c0-.011.005-.031.007-.049s.007-.052.011-.077l0-.009a3.312,3.312,0,0,0,.007-1.338l-.029-.135.051-.128c.1-.247.188-.463.281-.675l-.234-.549.466.056c.11-.3.275-.838.394-1.225a11.322,11.322,0,0,1,.5-1.461,10.424,10.424,0,0,0,.485-1.754c.054-.257.1-.5.169-.749L99,64.506l-.035.076.986-4.232c.488-2.093.891-4.349,1.281-6.532.272-1.524.529-2.963.8-4.25l.005-.026c0-.068,0-.137.006-.192,0-.038,0-.071,0-.094a.5.5,0,0,1,.092-.27l.093-.5.041-.337c.023-.188.035-.384.048-.591a6.042,6.042,0,0,1,.3-1.762l.073-.2c.016-.1.031-.222.039-.289s.015-.122.021-.163a.651.651,0,0,1,.063-.2,54.7,54.7,0,0,1,1.082-5.561c.077-.331.159-.682.245-1.055l-1.3,1.756,1.744-3.84c.08-.177.2-.556.308-.89.069-.218.135-.423.191-.58a.9.9,0,0,1,.292-.474c.031-.072.063-.15.091-.217.058-.141.118-.285.177-.416l-.045-.019.057-.156.172-.476.011-.03.015-.028c.223-.419.444-.859.658-1.284a21.408,21.408,0,0,1,1.416-2.545l.162-.421.028-.041c.363-.544.736-1.19,1.13-1.874a23.761,23.761,0,0,1,1.765-2.774l3.427-5.635.009-.014c.2-.3.42-.65.654-1.017a23.132,23.132,0,0,1,1.534-2.25c.669-1,1.044-1.679,1.441-2.4.237-.43.482-.875.8-1.4l.862-1.434v.048c.053-.115.13-.244.222-.4a4.333,4.333,0,0,0,.263-.481l.038-.426.244.021.46-.816.591-1.076.042.019.033-.07c.057-.123.127-.272.205-.4l.088-.3.065-.41h.06l.549-1.807.07.63L124.422,0l-.28,6.143.237.08-.008.016.764.265h-.9l-.045.086V7.1l-.2-.067a3.28,3.28,0,0,0-.026.331l.079.073-.055.251a.925.925,0,0,1-.108.295c0,.008,0,.02-.005.035v0l.075.02c-.028.123-.053.218-.074.3a5.038,5.038,0,0,0-.159,1.029l-.033,0c-.013.082-.027.159-.041.235-.017.093-.034.185-.048.284l.114,0-.011.593,0,.63-.006.036a1.334,1.334,0,0,1-.032.157.571.571,0,0,1-.022.064l-.007.165-.026-.022a4.018,4.018,0,0,1-.052.416c-.009.054-.016.095-.019.133l.127-.2-.091.556.01.065-.025.025-.074.449.186,3.179-.507-1.435a1.724,1.724,0,0,0,.011.343l.04.351-.116.042a1.015,1.015,0,0,1,.012.58l-.073.429c-.011.382-.016.742-.02,1.094a23.185,23.185,0,0,1-.114,2.415l-.071.624c-.01.233-.018.5-.024.79l.019,0-.036,1.334-.056.045-.019,1.408-.092-.062c-.018.344-.025.693-.021,1.047l.041,0a1.062,1.062,0,0,0,.1.254c.022.046.045.095.066.144l.042.1-.007.107a1.6,1.6,0,0,0,0,.351,2.7,2.7,0,0,1-.036.78l-.076.58.007.065c.008.072.018.169.032.308l-.09.01-.276,2.1a8.194,8.194,0,0,1-.143,1.425l-.005.029-.184.569a1.646,1.646,0,0,0,0,.438,1.389,1.389,0,0,1-.043.6c-.01.057-.02.107-.028.152l.163-.116-.317,1.341c-.058.268-.09.473-.124.689-.023.149-.048.3-.081.482l-.084.633a1.882,1.882,0,0,1-.16.882c-.023.069-.046.136-.065.2l.03.249-.029.092c-.081.262-.174.571-.273.9-.291.968-.653,2.172-1.062,3.329l-.028.078-.043.051a6.576,6.576,0,0,0-.28.8l.041.018c-.315.863-.569,1.43-.774,1.887-.1.234-.2.436-.277.639l-.012.029c-.247.6-.5,1.219-1.055,2.37l-.093.306c-.01.042-.025.089-.045.148l-.156-.051-.071.15a.362.362,0,0,0,.13-.087,3.361,3.361,0,0,0-.232.368c-.2.442-.557,1.127-.9,1.791l-.488.949-.07-.141a2.989,2.989,0,0,0-.116.28l-.015.126-.064.092c-.392.561-.588.843-1.065,1.573l-.072-.045-.013.017a.785.785,0,0,0-.138.269,4.213,4.213,0,0,1-.85,1.379l-.018.023-.283.325a5.46,5.46,0,0,1-.59.918c-.086.118-.175.238-.264.357l.129.112c-.509.721-1.243,1.764-1.736,2.5l-.249.372-.049-.032-.141.231-.228.253a.592.592,0,0,1,.019.268l-.113.752-.227-.174c-.222.3-.587.745-1.183,1.462-.27.325-.546.657-.753.915l.067.059c-.165.206-.264.312-.4.46s-.335.36-.713.8a9.4,9.4,0,0,1-1.218,1.553c-.132.152-.257.3-.371.43a1.025,1.025,0,0,1-.11.159c-.06.074-.154.188-.289.346l-.085-.065a.687.687,0,0,1-.12.2c-.041.05-.1.123-.191.222l-.009.01a1.672,1.672,0,0,1-.388.34,4.436,4.436,0,0,0-.579.627l-.009.01c-.241.266-.469.551-.689.826a10.61,10.61,0,0,1-.886,1.022c-.187.217-.584.625-1.041,1.095-.264.271-.536.551-.791.817l-.089.217-.079.012c-.089.194-.158.366-.223.531l.1.062-.035.057a.886.886,0,0,0-.077.149c-.014.034-.031.077-.062.136l-.194.376-.039-.017c-.4.643-.722,1.151-.988,1.572-.352.555-.584.921-.735,1.189l0,.007c-.156.266-.235.427-.292.545a1.849,1.849,0,0,1-.172.3l-.154.21c-.779,1.249-1.438,2.145-2.227,3.2l-.793,1.267c-.215.344-1.6,2.185-2.752,3.688-.238.3-.48.612-.723.917.294-.093.6-.189.906-.271l.245-.735.333.587c.21-.087.507-.226.71-.321a5.85,5.85,0,0,1,.964-.4,4.792,4.792,0,0,0,1.173-.7c.078-.058.155-.116.233-.172l.855-.613a4.828,4.828,0,0,1,.7-.689l.008-.006.039-.029,2.289-2.442,1.576-1.681.842-.94,1.618-1.806c.1-.177.176-.308.315-.363l.185-.215.127-.179c.072-.1.14-.217.213-.339a3.224,3.224,0,0,1,.845-1.03l.1-.074c.034-.045.072-.1.093-.13a.879.879,0,0,1,.21-.235,24.687,24.687,0,0,1,1.977-2.38c.316-.347.638-.7.987-1.108l-1.9.657,2.923-1.945a4.41,4.41,0,0,0,.465-.472c.294-.326.431-.477.638-.5l.111-.1c.057-.053.114-.108.17-.159l-.035-.037c.017-.018.087-.094.286-.334l.033-.039.041-.031c.363-.277.719-.6,1.062-.908a10.123,10.123,0,0,1,1.25-1.022l.2-.245L113.1,65c.327-.228.684-.516,1.063-.821a11.9,11.9,0,0,1,2.1-1.467c1.447-1.018,2.415-1.637,3.962-2.536l.017-.01A13.361,13.361,0,0,1,122.854,59c.6-.235,1.026-.436,1.439-.63a15.541,15.541,0,0,1,1.455-.622l1.238-.447-.043.068c.073-.028.152-.052.232-.076l.289-.093a2.568,2.568,0,0,0,.265-.107l.37-.25.114.169,1.135-.327.169-.049.359-.1.019,0,.056-.017a.869.869,0,0,1,.267-.052l.045,0,.529.044-.136.529c-.019.072-.036.141-.052.2v0l-.118.459-.047-.01c-.011.049-.024.11-.035.16-.032.152-.071.338-.125.52L130.1,60.76l-.234-.57-.066.166a.756.756,0,0,1-.124.215l.066.032c-.051.128-.094.216-.132.293a2.992,2.992,0,0,0-.227.614l-.031-.007c-.03.078-.062.148-.091.213-.021.046-.041.09-.06.135l.108.026-.2.907-.026.051c-.009.017-.02.039-.034.063l-.073.284-.063-.067a2.412,2.412,0,0,1-.111.23.3.3,0,0,0-.044.106l.314-.159-.341.5v.01l-.008,0-.218.318-.583,2.456-.149-1.428a.965.965,0,0,0-.057.168l-.107.41-.1-.019a1.049,1.049,0,0,1-.169.3l-.222.3-.043.082a10.509,10.509,0,0,1-1.277,2.045l-.4.47h0l-.1.137c-.053.074-.1.139-.138.193l.014.013-.641.841-.07-.007-.662.833-.047-.106c-.151.168-.287.327-.409.48l.03.034a.165.165,0,0,0,.031-.046,1.043,1.043,0,0,0-.026.146c-.006.042-.012.086-.02.131l-.026.141-.1.1a.654.654,0,0,0-.129.151,1.593,1.593,0,0,1-.447.457l-.327.258-.008.012-.117.168-.055-.037-1.385,1.094.082-.139a4.621,4.621,0,0,1-.771.605l-.039.025-.4.152a.571.571,0,0,0-.144.156.937.937,0,0,1-.382.341l-.058.037.176.088-.823.411-.044.022a2.605,2.605,0,0,0-.4.268c-.081.062-.173.132-.285.206l-.3.241a1.171,1.171,0,0,1-.546.39l-.094.043-.091.166-.125.063c-.645.323-1.64.918-2.619,1.513l-.1.061-.064,0c-.087.044-.276.174-.406.263l-.04.027.018.04c-1.358.744-1.6.886-2.509,1.416l-.676.394-.145.13a1.04,1.04,0,0,1-.1.087l-.106-.125-.2.115a.392.392,0,0,0,.08.008.264.264,0,0,0,.051,0,1.865,1.865,0,0,0-.231.085l-.38.219-.915.528-.632.366-.008-.135h0l-.009.012-.031.05-.012.007-.046.062-.136.053c-.442.172-.664.258-1.2.5l-.037-.077-.025.009a.428.428,0,0,0-.078.038l-.019.02c-.017.018-.035.037-.054.055l.547-.078-2.776,1.283c-.187.086-.385.175-.576.261-.477.213-.969.434-1.321.633l-.447.253-.025-.062-.025.015-.128.036a.576.576,0,0,1-.059.154l-.423.771-.181-.384c-.246.1-.592.234-1.081.414-.276.1-.575.212-.8.3l-.012.013.024.072a4.386,4.386,0,0,1-.454.159c-.133.041-.311.1-.639.207a5.04,5.04,0,0,1-1.189.514c-.2.072-.391.14-.552.2l-.056.022-.06.006-.027,0a.748.748,0,0,1-.21.01.628.628,0,0,1-.169.1c-.047.019-.113.042-.207.073l-.017.005a1.288,1.288,0,0,1-.36.065c-.027,0-.049,0-.066,0a4.532,4.532,0,0,0-.488.165l-.014.005c-.222.074-.444.166-.66.254a6.525,6.525,0,0,1-.943.333c-.22.081-.637.189-1.116.313-.311.08-.633.164-.913.243-.99.346-2.041.694-3.295,1.092-.437.507-.876,1.023-1.3,1.522-1.781,2.091-3.464,4.066-5.189,5.714l-.645.648.2.54c.22-.032.538-.093.809-.145a8.377,8.377,0,0,1,1.219-.187l.059,0a7.058,7.058,0,0,0,1.355-.315c.168-.052.341-.106.517-.152l.982-.259h-.044l3.187-.962a40.3,40.3,0,0,0,6.573-2.911c.335-.173.651-.337.961-.494l0,0c.212-.177.284-.229.435-.232l.114-.061c.071-.038.142-.074.207-.107l.254-.143c.093-.052.186-.109.285-.17a4.314,4.314,0,0,1,1.215-.566l.358-.182-.15.139.111-.016.153-.019c.063-.024.136-.056.176-.073a.815.815,0,0,1,.318-.1c.337-.14.649-.265.931-.377a18.377,18.377,0,0,0,1.695-.739,15.6,15.6,0,0,0,1.514-.875l-2.2.35,3.674-1.483a4.618,4.618,0,0,0,.625-.437c.353-.273.484-.374.683-.372l.168-.117.188-.131-.029-.042c.035-.028.141-.115.361-.314l.033-.03.038-.023c.463-.277.918-.616,1.358-.943a11.828,11.828,0,0,1,1.331-.906l.24-.248.053-.031c.352-.207.74-.471,1.15-.751a11.931,11.931,0,0,1,2.557-1.463,38.547,38.547,0,0,1,4.725-2.179l.016-.006a16.772,16.772,0,0,1,3-.856c.77-.185,1.3-.358,1.818-.525.462-.15.9-.291,1.474-.434l1.353-.336-.084.1c.1-.022.185-.039.26-.052a3.105,3.105,0,0,1,.828-.25l.08-.018a5.809,5.809,0,0,0,.91-.253l1.552-.723-.369.514,1.067-.254-1.846,2.743-.04-.025c-.031.046-.066.1-.1.147-.094.145-.209.323-.334.488l-1.283,2.632.067-.855a.719.719,0,0,1-.17.13l-.005.007.052.055c-.087.092-.155.156-.215.214a3.776,3.776,0,0,0-.5.578l-.028-.019c-.058.064-.114.121-.167.173s-.083.083-.125.128l.093.064-.558.835-.038.035-.051.046-.173.245-.034-.088a2.814,2.814,0,0,1-.216.216.427.427,0,0,0-.1.115l.309-.051-.454.343,0,.006h-.005l-.335.253-1.5,2.213.4-1.417a1.017,1.017,0,0,0-.141.176l-.229.344-.1-.053a1.034,1.034,0,0,1-.3.271l-.276.187-.179.171a13.009,13.009,0,0,1-1.938,1.627l-.477.311-.288.223-.133.1.01.015-.894.677-.065-.024-.9.673-.01-.068-.552.4a1.305,1.305,0,0,0-.075.156c-.017.04-.034.079-.051.115l-.057.121-.115.07a.808.808,0,0,0-.187.138,1.793,1.793,0,0,1-.552.363l-.421.213,0,0-.17.156-.046-.049-1.716.866.079-.082a5.467,5.467,0,0,1-.875.453l-.041.017-.461.093a.714.714,0,0,0-.211.152.988.988,0,0,1-.462.275l-.1.04.19.127-.941.263-.029.008h0l-.037.012a3.153,3.153,0,0,0-.523.218c-.1.051-.209.1-.339.158l-.406.2a1.334,1.334,0,0,1-.651.291l-.132.034-.14.15-.121.034c-.639.18-1.567.48-2.551.8l-.66.213-.1.033-.068-.011a5.375,5.375,0,0,0-.581.2l.008.042-2.108.557-1.826.482-.208.1a1.159,1.159,0,0,1-.122.056l-.064-.15-.2.052a.324.324,0,0,0,.13.041h-.011a2.533,2.533,0,0,0-.287.026c-.155.033-.365.086-.586.142-.322.082-.688.174-1.035.245l-.736.149.034-.111-.05.019-.055.048-.01,0-.056.045-.274.024c-.431.037-.7.06-1.252.128l.235.028-3.255.5c-.26.04-.535.078-.8.114-.528.072-1.074.146-1.48.239l-.44.1-.013-.058-.117.031H89.2a.578.578,0,0,1-.116.15l-.582.55-.074-.353c-.252.037-.6.075-1.1.128-.379.04-.821.086-1.132.131l0,0,.008.085a4.289,4.289,0,0,1-.47.05c-.154.01-.362.024-.785.073a5.568,5.568,0,0,1-1.287.264c-.249.036-.507.074-.715.112l-.049.009-.049,0h-.05a.714.714,0,0,1-.218-.031.621.621,0,0,1-.206.082c-.053.011-.126.025-.233.041l-.015,0a1.219,1.219,0,0,1-.456-.005,4.8,4.8,0,0,0-.57.1l-.008,0c-.292.055-.583.132-.865.206a9.133,9.133,0,0,1-.943.215c-.126.027-.328.066-.582.115-.418.08-.938.18-1.4.284-1.02.306-2.022.649-2.981,1.018-.575.529-1.109,1.012-1.618,1.466a8.216,8.216,0,0,1,1.707-.38c.585-.085,1.058-.189,1.516-.289.36-.079.7-.153,1.054-.209l1.6-.251-.173.144.134-.026c.208-.041.479-.094.771-.13l-.7-.165,4.045.045c2.81.032,5.852.131,8.536.219.779.026,1.526.05,2.223.071h.027a2.721,2.721,0,0,1,.346-.042.457.457,0,0,1,.2.045h.552l.258-.021c.2-.016.4-.045.615-.076a8.034,8.034,0,0,1,1.18-.108,4.515,4.515,0,0,1,.478.025l.221.023c.086-.008.185-.021.259-.031a1.969,1.969,0,0,1,.243-.025.5.5,0,0,1,.11.012l.75-.105c1.142-.16,2.043-.286,2.972-.455a19.213,19.213,0,0,0,3.948-1.131l.007.018.386-.121-.005-.087a7.122,7.122,0,0,0,.974-.334,2.372,2.372,0,0,1,.743-.232.487.487,0,0,1,.128.017c.1-.034.217-.075.308-.108l.286-.1-.018-.048.256-.116.321-.146.029-.013.03-.009c.65-.191,1.312-.443,1.952-.685a17.677,17.677,0,0,1,1.99-.673l.389-.2.045-.013c.39-.11.819-.244,1.273-.386a18.42,18.42,0,0,1,4.037-.954,43.051,43.051,0,0,1,6.554-.748h.017c.328,0,.651-.007.961-.007a17.66,17.66,0,0,1,2.962.157c.925.073,1.6.095,2.275.112l.99.028.394.018.14.007.56.042,3.394.255-.244.049c.178.011.393.031.641.056l.084.008c.406.04.825.082,1.157.082.053,0,.1,0,.149,0l3.761-.18-1.827.535.366.056-5.09,2.059-.019-.042c-.143.065-.327.154-.467.223s-.3.148-.447.214l-.312.2-.347.231-2.685,1.8.5-.593a6.441,6.441,0,0,0-.627.4l-.02-.027c-.067.04-.131.076-.194.111-.082.046-.163.091-.248.144l.071.09-.939.771-.033.019a1.216,1.216,0,0,1-.153.077l-.17.131v-.059a3.9,3.9,0,0,1-.363.224.847.847,0,0,0-.184.122l.346-.021-1.075.537-2.452,2.149.944-1.431a1.893,1.893,0,0,0-.295.217l-.268.233-.1-.073a1.011,1.011,0,0,1-.47.331l-.414.186-.067.041a19.906,19.906,0,0,1-3,1.623l-.567.233-.724.341.007.017-1.2.566-.072-.035-1.286.574.018-.105c-.325.13-.637.265-.937.4l.012.038a1.071,1.071,0,0,0-.187.187c-.034.039-.068.079-.1.118l-.074.079-.1.036a1.334,1.334,0,0,0-.3.135,2.3,2.3,0,0,1-.747.274l-.542.138-.068.037-.269.144-.046-.083-2.087.531a7.539,7.539,0,0,1-1.3.344l-.03.005-.588.025a1.609,1.609,0,0,0-.406.145,1.4,1.4,0,0,1-.559.163l-.158.028.159.113-1.147.14c-.044.005-.084.008-.116.01h-.017a5.343,5.343,0,0,0-.729.121c-.14.031-.285.062-.458.091l-.335.079-.011,0-.267.056a1.746,1.746,0,0,1-.791.136c-.087,0-.177,0-.254.011l-.223.122-.1.006-4.291.254-.091.005-.069-.025a1.2,1.2,0,0,0-.142-.006c-.179,0-.44.017-.7.036l0,.044-.359,0c-2.3-.026-2.448-.027-4.848-.14l-.31.025a1.5,1.5,0,0,1-.155.012l-.01-.164-.171-.01a.342.342,0,0,0,.126.088,3.186,3.186,0,0,0-.418-.082c-.187-.017-.424-.032-.7-.05-.445-.029-.949-.062-1.42-.112l-.849-.09.091-.106c-.071,0-.136,0-.185,0l-.138.021h-.007l-.095.013-.15-.029-1.628-.31.225.084-4.133-.6c-.276-.04-.567-.086-.849-.129-.729-.114-1.483-.231-2.058-.273l-.46-.034.007-.066-.246-.013-.308-.073a.588.588,0,0,1-.216.143l-.645.252.013-.263c-.3-.034-.729-.1-1.291-.182s-1.2-.179-1.646-.227l-.013.088c-.229-.021-.366-.043-.526-.069-.209-.034-.468-.077-1.074-.142a2.026,2.026,0,0,1-.333.021c-.283,0-.678-.027-1.1-.056-.387-.027-.786-.055-1.11-.061h-.045l-.043-.01-.048-.009-.1-.021a.576.576,0,0,1-.157-.061l-.087-.007a.683.683,0,0,1-.257.044c-.063,0-.154,0-.279-.007h-.011a1.639,1.639,0,0,1-.494-.081l-.012,0a3.211,3.211,0,0,0-.446-.015l-.358,0H71.21c-.412,0-.826.036-1.226.07-.375.032-.728.063-1.061.063h-.015c-.109.008-.26.015-.45.025-.431.022-1.021.052-1.6.107h-.008c-.1.008-.189.016-.268.024-1.024.166-1.96.363-2.857.6l-.345.222c-.658.424-1.339.862-1.8,1.213l-.163-.178.12.177-.746.508-.008-.01-2.032,1.233a2.176,2.176,0,0,1,.324-.031c.028,0,.055,0,.08,0a8.811,8.811,0,0,0,1.3-.213,8.812,8.812,0,0,1,.873-.161l1.8-.211-.606-.164,3.683.078a39.794,39.794,0,0,1,9.353,1.182l.029.008.144.011.077.008a.483.483,0,0,1,.268.117l.46.126.189.032c.108.018.218.034.334.051a4.808,4.808,0,0,1,1.672.474l.159.085c.073.021.16.043.208.056l.145.039a.614.614,0,0,1,.195.093,25.151,25.151,0,0,1,3.8,1.463c.431.2.87.4,1.354.6L83.071,117.1l3.281,2.414a5.8,5.8,0,0,0,.756.368c.143.062.277.121.38.171a.74.74,0,0,1,.355.288l.2.1c.085.042.171.086.252.128l.023-.046c.04.018.168.072.489.191l.039.015.036.021a19.194,19.194,0,0,0,1.732.882,15.1,15.1,0,0,1,1.4.709l.359.092.052.029a18.246,18.246,0,0,0,2.087.926,18.093,18.093,0,0,1,2,.882c1.936.7,3.222,1.049,5.164,1.575l.016,0c.264.082.564.17.882.263a15.83,15.83,0,0,1,2.267.768c.766.267,1.33.42,1.876.568s1.059.288,1.714.523l1.469.528-.107.023c.092.032.2.079.337.14a3.677,3.677,0,0,0,.391.157l.479-.039-.015.292.821.384.712.423.266.158.155.092,3.237.217-2.949.586-.087.208-.071.012c-.085.174-.166.324-.241.447-.03.068-.079.159-.158.3-.153.275-.266.479-.518.5a1.986,1.986,0,0,1-.169.157l-.023-.025-.053.038-.147.1-.032.021-.072.043-.117.07L111.2,133c-.082.046-.138.079-.175.1l-.031.126-.258.068a.983.983,0,0,1-.256.039l-.049,0-.032.01-.006,0-.012,0,.011.076c-.227.045-.362.062-.518.082-.174.022-.371.048-.778.122l-.007-.032c-.12.012-.231.015-.339.019l-.163.006.018.112-.541.092-.553.077-.044,0c-.028,0-.066,0-.108-.01l-.265.031.037-.068h-.094c-.107,0-.187-.006-.251-.01-.039,0-.07-.005-.1-.005a.326.326,0,0,0-.078.009l.268.183-1.032-.153-2.789.407,1.334-.654a1.269,1.269,0,0,0-.283.02l-.39.065-.033-.11a.67.67,0,0,1-.162.019,1.5,1.5,0,0,1-.3-.037l-.338-.069-.264-.011a16.9,16.9,0,0,1-2.74-.261l-.651-.13,0-.007c-.195-.027-.386-.05-.534-.067l0,.02-.468-.059h-.008c-.236-.033-.474-.069-.474-.069l-.231-.035-.03-.06-1.193-.167.064-.082c-.289-.051-.56-.091-.8-.122l-.01.04.017,0a1.109,1.109,0,0,0-.184.061c-.043.017-.088.034-.134.05l-.115.039-.119-.025a1.083,1.083,0,0,0-.234-.032h-.075a2.172,2.172,0,0,1-.639-.123l-.5-.145h-.015l-.244-.006v-.069l-1.969-.572h.021a6.816,6.816,0,0,1-.93-.244l-.039-.013-.444-.243a.905.905,0,0,0-.313-.039h-.052a1.071,1.071,0,0,1-.475-.1l-.049-.016.063.148-.981-.364-.066-.026-.021-.009-.091-.037a3.967,3.967,0,0,0-.515-.153c-.118-.029-.241-.059-.383-.1l-.489-.111q-.033,0-.067,0a1.579,1.579,0,0,1-.634-.194c-.056-.026-.113-.052-.164-.074l-.218.026-.109-.045c-.711-.3-1.918-.734-3.4-1.23l-.093-.031-.05-.047a5.354,5.354,0,0,0-.641-.205l-.019.041c-2.073-.772-2.11-.784-4.063-1.432l-.063-.021-.245-.036a1.235,1.235,0,0,1-.14-.021l.027-.158-.186-.061a.325.325,0,0,0,.088.1,2.261,2.261,0,0,0-.288-.145l-.482-.154-1.221-.389-.736-.234.105-.1c-.068-.016-.114-.025-.14-.028l-.134.022-.123-.055c-.428-.192-.677-.3-1.1-.47l-3.444-1.1-.522-.17c-.66-.216-1.342-.439-1.865-.552l-.489-.106.02-.061-.119-.023-.2-.087a.581.581,0,0,1-.192.1l-.758.231.083-.333c-.246-.069-.587-.174-1.069-.326-.417-.131-.9-.284-1.253-.38h-.032l-.025.076a4.531,4.531,0,0,1-.445-.136c-.168-.058-.374-.13-.863-.264a5.639,5.639,0,0,1-1.233-.236c-.318-.079-.647-.161-.914-.211l-.052-.01-.048-.021-.035-.014c-.031-.012-.063-.026-.088-.037a.548.548,0,0,1-.145-.1.477.477,0,0,1-.108.012,1.688,1.688,0,0,1-.385-.071H58.3a1.343,1.343,0,0,1-.434-.166h0a5.4,5.4,0,0,0-.647-.135l-.019,0a9.663,9.663,0,0,0-1.012-.152,8.178,8.178,0,0,1-.971-.149c-.112-.019-.28-.05-.49-.089-.489-.09-1.157-.214-1.742-.3-1.327-.111-2.657-.167-3.954-.167-.25,0-.5,0-.751.006-1.886.826-3.785,1.61-5.672,2.344.107-.005.206-.008.294-.008a1.622,1.622,0,0,1,.356.03l.216,0c.436,0,.8-.026,1.157-.051.223-.016.433-.031.652-.039a.857.857,0,0,1,.1,0l0,.894a.444.444,0,0,0,.069-.857,3.237,3.237,0,0,0,.6.048c.068,0,.135,0,.2-.005h.042c.046,0,.141-.008.243-.017.126-.011.284-.025.455-.033l-.5-.2,3.359.394a49.525,49.525,0,0,1,8.615,1.659l.137.012.081.009a.489.489,0,0,1,.27.118l.261.075v0l.347.084c.138.033.287.058.444.085a4.024,4.024,0,0,1,1.407.435l.137.078c.065.019.142.04.189.052l.137.037a.607.607,0,0,1,.188.091,19.919,19.919,0,0,1,2.949,1.1c.336.142.667.291,1.017.449.284.128.572.258.878.391L65.45,125.8l3.113,2.494a5.228,5.228,0,0,0,.7.365c.4.186.61.287.694.467l.112.063c.1.055.2.11.292.166l.024-.042c.056.028.189.092.456.209l.038.017.034.023c.42.286.877.554,1.318.814a13.456,13.456,0,0,1,1.512.974l.331.124.052.039c.415.314.93.629,1.475.963a14.077,14.077,0,0,1,2.07,1.434l.8.515,3.512,2.266.013.009c.24.168.519.353.815.55a14.19,14.19,0,0,1,1.693,1.228,16.107,16.107,0,0,0,1.872,1.127c.326.174.663.354,1.056.588l1.182.7H88.6c.067.034.139.076.221.122a3.456,3.456,0,0,0,.316.167l.491-.015-.044.3c.263.13.5.269.741.417l.2.121,1.263.75-.015.028a.482.482,0,0,1,.278.353.53.53,0,0,1-.266.532l-.02.014-.026.021c-.086.065-.168.123-.243.173l-1.231,1.274.072-.577c-.2.095-.394.18-.564.253-.117.051-.256.111-.336.15l-.047.087-.2.045a1.225,1.225,0,0,1-.272.038.618.618,0,0,1-.115-.01l-.021.005,0,.076c-.2.02-.322.025-.453.029-.164.006-.351.013-.758.056l0-.033h-.051c-.09,0-.175,0-.257-.008l-.161-.006.01.114-.515.053-.547.038-.047-.007-.047-.007Zm.508-.983.068.056.077-.124.213-.026a4.171,4.171,0,0,1,.519-.033c.112,0,.211,0,.3.009s.146.007.216.007a1.753,1.753,0,0,0,.253-.017l0,.026c.245-.021.391-.027.523-.031l.046,0a.608.608,0,0,1,.071-.032,1.544,1.544,0,0,1,.17-.051.938.938,0,0,1,.228-.033.578.578,0,0,1,.1.008,4.363,4.363,0,0,1,.5-.237,9.307,9.307,0,0,0,.847-.4l.128-.072c.067-.048.15-.1.274-.174l.188-.11-.787-.468-.207-.123c-.234-.14-.456-.273-.692-.389l-.017-.009c-.168-.092-.281-.155-.281-.155l-.266-.15-.014.236-.688-.593a4.306,4.306,0,0,0-.5-.3c-.131-.072-.255-.14-.352-.2a.848.848,0,0,1-.273-.246c-.3-.172-.568-.316-.831-.456a16.826,16.826,0,0,1-2-1.207l-.035-.024-.03-.03A13.867,13.867,0,0,0,82.308,138c-.3-.2-.578-.384-.825-.557l-3.5-2.261-.866-.558-.029-.027a13.164,13.164,0,0,0-1.956-1.353c-.519-.318-1.055-.646-1.495-.973l-.349-.132-.058-.048a12.016,12.016,0,0,0-1.453-.939c-.335-.2-.679-.4-1.014-.613l0,.206-.722-.524-2.381-1.3c-.779-.3-1.423-.6-2-.854-.347-.157-.675-.3-1-.443l-.014-.006a19.316,19.316,0,0,0-3.06-1.118l-3.707-1.037.148.006a.457.457,0,0,1-.115-.065l-1.079-.31a51.48,51.48,0,0,0-5.742-1.062l-1.212-.119c-.256-.025-.54-.05-.814-.074-.509-.044-1.036-.09-1.407-.14l-.012,0a2.59,2.59,0,0,0-.407-.028c-.224,0-.446.019-.624.035-.138.012-.246.021-.332.021s-.153.006-.231.006a4.869,4.869,0,0,1-.583-.035,1.582,1.582,0,0,1-.243-.045c-.173.008-.348.02-.53.033-.353.025-.753.053-1.22.053-.1,0-.2,0-.294,0l-.079,0-.052-.021a1.255,1.255,0,0,0-.147-.006c-.282,0-.745.041-1.153.078-.382.034-.712.064-.915.064a1.05,1.05,0,0,1-.154-.011h-.016a7.2,7.2,0,0,0-.906.037l-3.433.313,3.238-1.182q.58-.212,1.163-.43l.136-.182.035.117c2.356-.887,4.739-1.859,7.1-2.9l.082-.036.09,0c.284-.005.572-.008.857-.008,1.326,0,2.687.058,4.043.171l.028,0c.6.089,1.289.215,1.789.308.216.04.387.072.49.089l.033.007a7.4,7.4,0,0,0,.876.133,10.425,10.425,0,0,1,1.1.165,2.492,2.492,0,0,1,.961.259l.008.005.024.009a.476.476,0,0,1,.133-.019.729.729,0,0,1,.13.013l.023,0,.854.243-.014.059c.25.053.526.121.794.188a7.936,7.936,0,0,0,.977.209l.086-.02.108.029c.2.053.354.1.485.136l.009-.057.452.168,0-.015a15.352,15.352,0,0,1,1.783.5c.408.128.94.3,1.2.362a.6.6,0,0,1,.3-.1l.508-.24-.075.3.195.085.418.08.039.015a1.126,1.126,0,0,1,.241.123c.429.1.919.257,1.412.417l.1-.2.374.145c.444.172,1.252.486,1.488.539l.094-.016.51.271a2.766,2.766,0,0,0,.968.327,1.319,1.319,0,0,1,.521.123l.019.008.662.309-.017.044c.214.089.4.171.637.275l.077.023a5.16,5.16,0,0,1,1.024.263c.205.071.4.131.6.195a16.31,16.31,0,0,1,1.651.594l.3.006,1.273.518-.047.135c.766.258,1.2.414,2.307.827l.3.084a4.508,4.508,0,0,1,1.05.362c.849.285,2.32.791,3.287,1.187l.19-.022.093.03a3.122,3.122,0,0,1,.348.145c.066.03.166.077.23.1l.054-.024.776.178c.066.02.128.037.188.053l-.011-.027.305.1a4.188,4.188,0,0,1,.59.194l.049.016c.135.044.215.069.262.082a.526.526,0,0,1,.067,0,2.259,2.259,0,0,1,.649.165l.029.009.027.013a.2.2,0,0,0,.115.025h.1a1.811,1.811,0,0,1,.575.092l.042.013.453.248a6.569,6.569,0,0,0,1.044.251c.281.05.632.112,1.179.24l.028.007a4.319,4.319,0,0,1,.542.2l.039.019,1.909.238a16.333,16.333,0,0,1,1.768.305l.414.1.406.057.032.064.232.033.329.041,0-.018c.037,0,.908.1,1.4.2l.641.136h0c.619.081,1.222.106,1.937.135.274.011.557.023.863.038l.31.016.085,0,2.414.124-.278.075a.736.736,0,0,1,.112.049l.288-.051.088.082a1.594,1.594,0,0,1,.3,0c.055,0,.112.008.187.008a2.936,2.936,0,0,0,.3-.018l.158-.016.1.062h0l.076-.142.211-.04a4.977,4.977,0,0,1,.836-.085,2.584,2.584,0,0,0,.522-.054l.006.026c.236-.039.385-.058.513-.075l.092-.012a.624.624,0,0,1,.09-.05,1.7,1.7,0,0,1,.167-.062.908.908,0,0,1,.3-.061,2.844,2.844,0,0,1,.342-.213l.327-.189.108-.064.057-.034.139-.1.179-.126c.067-.071.151-.16.29-.286l.042-.038.144-.229a4.274,4.274,0,0,0,.211-.389l-.2-.118-.691-.41-1.311-.609v-.024l-.062-.025.02.226-.766-.479a4.73,4.73,0,0,0-.635-.254c-.147-.052-.286-.1-.393-.145a.887.887,0,0,1-.3-.186c-.528-.182-.972-.3-1.439-.429-.569-.154-1.157-.314-1.97-.6l-.036-.013-.033-.019a15.7,15.7,0,0,0-2.12-.711c-.319-.093-.62-.181-.889-.265-1.97-.534-3.274-.887-5.261-1.607l-.035-.013-.032-.018a17.065,17.065,0,0,0-1.923-.849,19.531,19.531,0,0,1-2.143-.949l-.381-.1-.06-.038a13.5,13.5,0,0,0-1.361-.693c-.458-.214-.965-.451-1.451-.718l.018.182-.723-.433-2.653-1.327v0c-1.02-.4-1.807-.753-2.569-1.1a24,24,0,0,0-3.909-1.485l-3.638-1.008a.581.581,0,0,1-.307-.107l-.073-.02a38.522,38.522,0,0,0-7.752-1.015l-.85.006c-.287,0-.6.007-.911.012-.383.006-.779.013-1.111.013-.14,0-.259,0-.365,0h-.01a5.454,5.454,0,0,0-1.246.148c-.077.016-.139.029-.19.037a4.572,4.572,0,0,1-.839.08,1.778,1.778,0,0,1-.319-.02c-.225.032-.454.082-.695.135a9.534,9.534,0,0,1-1.476.235l-.06,0-.041-.008a11.672,11.672,0,0,0-1.4.289,6.7,6.7,0,0,1-1.122.228c-.023,0-.051.009-.082.016s-.085.018-.136.026l-2.217.334,1.918-1.162.2-.122.287-.534.136.277,3.7-2.245.005.007.7-.479.041-.017.045-.017c.478-.351,1.094-.747,1.744-1.165l.4-.26.059-.038.068-.018a30.394,30.394,0,0,1,3.025-.639l.023,0c.092-.01.19-.019.307-.028.6-.056,1.2-.087,1.636-.109.194-.01.348-.018.447-.025h.064c.294,0,.629-.029.984-.059.419-.036.852-.073,1.3-.073h.026l.366,0a2.051,2.051,0,0,1,.759.071.448.448,0,0,0,.114.02.625.625,0,0,1,.267-.057h.022l1.027.084,0,.061c.3.012.639.035.967.058.4.028.782.054,1.034.054a1.325,1.325,0,0,0,.179-.008l.08-.026.1.01c.27.028.479.053.647.075l0-.056.5.094v-.016h.028a21.482,21.482,0,0,1,2.2.267c.54.081,1.141.171,1.429.2a.647.647,0,0,1,.328-.142l.358-.2-.009.188h0l.334.08.5.025.035.007a1.258,1.258,0,0,1,.3.092c.515.048,1.122.139,1.723.232l.062-.215.3.061c.607.124,1.723.351,2.018.363l.085-.027.608.183a6.274,6.274,0,0,0,1.112.186.933.933,0,0,0,.123-.009,1.511,1.511,0,0,1,.188-.013,1.991,1.991,0,0,1,.392.046l.013,0,.831.191-.009.054.791.15.134.012a1.68,1.68,0,0,1,.218-.011c.281,0,.693.036.989.066h.007c.32.037.62.06.937.084.5.038,1.054.08,1.848.187l.336-.067,1.5.156-.006.141c1.053.043,1.592.049,3.231.067h.087v-.024c.345-.027.7-.054.961-.054a1.727,1.727,0,0,1,.316.023l4.124-.244.2-.109.083-.011a4.211,4.211,0,0,1,.423-.026,3.134,3.134,0,0,0,.366-.023l.051-.049.129-.027.346-.072.349-.082.028-.005c.157-.026.289-.055.428-.085a6.208,6.208,0,0,1,.858-.14h.012l.045-.008c.193-.034.3-.055.351-.067a2.339,2.339,0,0,1,.8-.21l.024,0,.024,0a.536.536,0,0,0,.251-.076,2.518,2.518,0,0,1,.647-.223l.037-.008.6-.026a7.045,7.045,0,0,0,1.272-.352c.31-.109.7-.244,1.3-.423l.02-.005a3.593,3.593,0,0,1,.852-.149.75.75,0,0,1,.114.008c.086-.043.156-.071.347-.146l.37-.147.08-.032h.086a.656.656,0,0,1,.194.027.6.6,0,0,0,.079-.043,1.962,1.962,0,0,1,.359-.175l.014-.016a2.007,2.007,0,0,1,.311-.307l-.021-.062c.592-.262,1.228-.538,1.925-.784l.481-.17.378-.169.061.03.673-.318-.007-.017c.237-.111.945-.444,1.451-.684l.685-.324,0,.055a24.575,24.575,0,0,0,2.208-1.261c.218-.134.445-.274.685-.42l.28-.17c.047-.032.1-.065.167-.1l2.271-1.38-.192.208a.606.606,0,0,1,.172-.036l.246-.216.125.013a1.707,1.707,0,0,1,.315-.211,3.289,3.289,0,0,0,.486-.324l.112-.087.128-.006.073-.06v-.177l.155-.134a4.692,4.692,0,0,1,.876-.605,3.681,3.681,0,0,0,.415-.258l.018.024a4.866,4.866,0,0,1,.614-.349,1.06,1.06,0,0,1,.229-.192l.008-.005a.884.884,0,0,1,.3-.138,1.949,1.949,0,0,1,.353-.292,5.155,5.155,0,0,1,.76-.427l.1-.045a4.37,4.37,0,0,1,.39-.2l.458-.216.013-.008.027-.017.029-.013c.143-.066.3-.144.459-.22.361-.176.576-.277.725-.331l.165-.077-.031.037a.58.58,0,0,1,.133-.015l1.466-.593-1.031-.1-.046.049-.244-.047c-.275-.053-.9-.1-1.451-.143-.321-.024-.625-.047-.853-.071-.132-.014-.228-.026-.3-.039a.753.753,0,0,1-.232-.078l-.431-.032-.123-.006-.387-.018-.979-.028c-.69-.018-1.39-.04-2.353-.117l-.033,0-.032-.007a17.1,17.1,0,0,0-2.8-.141c-.3,0-.619,0-.939.007a42.244,42.244,0,0,0-6.455.739l-.031.006-.031,0a17.639,17.639,0,0,0-3.845.915c-.443.139-.862.27-1.252.381l-.409.214-.057.013a16.327,16.327,0,0,0-1.929.651c-.527.2-1.068.405-1.614.582l.16.1-.937.274-.14.044.247.007-3.329,1.042,0,0a19.914,19.914,0,0,1-3.89,1.09c-.946.173-1.855.3-3.007.461l-1.005.141-.008-.035-.1.012a4.177,4.177,0,0,1-.506.047.8.8,0,0,1-.273-.044c-.1-.008-.2-.012-.3-.012a7.334,7.334,0,0,0-1.053.1c-.19.027-.387.056-.583.075l-.058.018-.055.014H93.489a1.778,1.778,0,0,1-.252.031h-.408l0-.031-3.632,0,.568-.116c-1.061-.034-2.159-.068-3.262-.1l-3.7-.039c-.446,0-.947.011-1.428.026-.393.012-.764.023-1.084.023-.1,0-.18,0-.259,0h-.011c-.04,0-.083,0-.126,0a6.419,6.419,0,0,0-1.186.153c-.162.032-.292.057-.394.068a6,6,0,0,1-1.041.1,1.783,1.783,0,0,1-.25-.012c-.3.05-.6.116-.915.185-.46.1-.982.215-1.617.306l-.047.007-.044,0a8.358,8.358,0,0,0-1.5.36l-.016,0c-.261.073-.512.154-.733.225a3.268,3.268,0,0,1-.711.188c-.1.028-.21.062-.32.1l-.118.038-2.116.673,1.689-1.442q.35-.3.708-.611l.08-.15.03.054c.735-.642,1.508-1.338,2.377-2.138l.062-.058.079-.031c1.009-.392,2.067-.754,3.142-1.076l.031-.008c.483-.108,1.017-.211,1.446-.293.247-.047.461-.088.572-.113l.032-.006a8.343,8.343,0,0,0,.861-.2c.3-.078.6-.159.923-.219a4.1,4.1,0,0,1,.758-.117.759.759,0,0,1,.185.022.591.591,0,0,1,.221-.1l.025-.006.817-.091.01.062c.187-.031.393-.061.593-.091a8.412,8.412,0,0,0,1.027-.186l.074-.057.122-.015c.157-.019.289-.033.4-.045l-.016-.055.492-.021,0-.013a13.931,13.931,0,0,1,1.605-.218c.409-.043.94-.1,1.205-.144a.569.569,0,0,1,.181-.184L89,99.043l.081.383h.176l.375-.1.045,0c.045,0,.083,0,.116,0a.757.757,0,0,1,.145.013c.4-.079.864-.144,1.321-.206l0-.223.228-.018c.429-.034,1.293-.1,1.547-.162l.075-.066.564.015a2.217,2.217,0,0,0,.9-.137,1.188,1.188,0,0,1,.5-.141l.02,0,.673-.039.006.049c.212-.022.4-.038.631-.058l.058-.013a3.928,3.928,0,0,1,.945-.275h.007c.238-.045.46-.1.695-.155.381-.092.811-.2,1.435-.3l.23-.149,1.289-.24.034.13.539-.142,1.666-.44.27-.1a3.775,3.775,0,0,1,.938-.285l.59-.191c.932-.3,1.815-.588,2.463-.774l.123-.131.1-.037a3.053,3.053,0,0,1,.319-.092c.061-.015.153-.038.212-.058l.023-.049.677-.339c.079-.033.15-.066.22-.1l-.005,0,.08-.033.008,0a4.019,4.019,0,0,1,.636-.265l.018-.006.034-.014c.109-.045.176-.075.217-.094a1.8,1.8,0,0,1,.621-.329l.032-.013.033-.008c.032-.008.032-.008.086-.059a1.605,1.605,0,0,1,.511-.343l.045-.02.472-.095a5.017,5.017,0,0,0,.865-.47c.222-.142.5-.318.946-.568l.028-.014a2.663,2.663,0,0,1,.674-.245l1.257-1.008a12.491,12.491,0,0,1,1.38-.946l.342-.205.312-.234.063.023.41-.311-.009-.014c.045-.033.124-.1.217-.167.242-.189.574-.447.815-.608l.543-.363,0,.012a16.817,16.817,0,0,0,1.274-1.142c.19-.182.386-.369.6-.57l.171-.159a1.738,1.738,0,0,1,.16-.149l1.557-1.448-.105.2a.6.6,0,0,1,.1-.039l.158-.232h.116a1.531,1.531,0,0,1,.174-.18,2.11,2.11,0,0,0,.3-.33l.1-.134.065-.013-.044-.115.114-.188a3.227,3.227,0,0,1,.537-.673,1.9,1.9,0,0,0,.253-.291l.025.016a3.942,3.942,0,0,1,.371-.416.957.957,0,0,1,.127-.22l.006-.008a.822.822,0,0,1,.189-.192,3.159,3.159,0,0,1,.617-.915l.061-.069a3.349,3.349,0,0,1,.245-.346l.175-.221.048-.1.029-.037c.112-.143.221-.312.317-.46a1.633,1.633,0,0,1,.351-.442l.358-.532-1.17.278.032-.045-.083.019.059.127-.621.069a4.908,4.908,0,0,0-.567.116l-.463.12-.139.036a1.277,1.277,0,0,1-.615.074c-.445.118-.813.237-1.2.362-.54.175-1.1.356-1.924.553l-.042.01-.043,0a17.429,17.429,0,0,0-2.789.808A37.838,37.838,0,0,0,114.1,83.48l-.033.018-.036.012a11.14,11.14,0,0,0-2.373,1.367c-.4.274-.785.534-1.147.75l-.257.266-.066.034a10.45,10.45,0,0,0-1.274.863c-.35.26-.709.527-1.082.773l.156.073-.723.436-.058.036.152-.024-2.3,1.495,0,0a15.621,15.621,0,0,1-2.683,1.709,19.024,19.024,0,0,1-1.775.776c-.356.142-.723.289-1.139.465l-2.715,1.149-.329.177-.054.029a.6.6,0,0,1-.352.19l-2.5,1.345.163-.157c-.821.412-1.67.82-2.536,1.191l.433-.011-2.85.95-.358.121a12.607,12.607,0,0,1-1.746.509,4.511,4.511,0,0,0-.909.307,3.5,3.5,0,0,1-.338.131,3.34,3.34,0,0,1-1,.2h-.041c-.125.035-.251.074-.383.115a7.806,7.806,0,0,1-1.57.355l-.065.007-.047-.009a10.28,10.28,0,0,0-1.047.171,8.281,8.281,0,0,1-1.2.184.764.764,0,0,1-.121-.009,12.487,12.487,0,0,0-1.645.215l-1.43.26,1.035-1.021c.787-.777,1.506-1.493,2.2-2.189l.009-.009c1.694-1.617,3.363-3.577,5.13-5.652.453-.532.922-1.082,1.388-1.623l.083-.1.121-.038c1.3-.412,2.386-.77,3.4-1.126l.026-.008c.293-.083.625-.169.946-.252.437-.113.888-.23,1.044-.292l.033-.013.035-.008a5.668,5.668,0,0,0,.832-.3c.226-.093.46-.188.707-.272a2.362,2.362,0,0,1,.788-.221h.039a.59.59,0,0,1,.185-.116l.025-.01.729-.2.019.056c.137-.051.285-.1.43-.156a8.1,8.1,0,0,0,.931-.371l.058-.074.124-.043.3-.1-.026-.046.475-.134-.006-.014c.217-.115.674-.284,1.2-.479.375-.138.907-.334,1.164-.451a.542.542,0,0,1,.085-.179l.036-.13-1.944.277L100.5,83.9l.068-.242.088.186,1.875-.677a13.77,13.77,0,0,0,1.471-.6l.052-.09.523-.134c.6-.214.675-.294.711-.333a1.046,1.046,0,0,1,.424-.281l.018-.007.578-.207.02.044c.18-.074.339-.137.53-.211l.034-.019a3.785,3.785,0,0,1,.753-.494l.006,0c.164-.088.315-.175.475-.268a13.827,13.827,0,0,1,1.265-.667l.16-.2,1.122-.545.068.12c.542-.316.883-.509,1.7-.962l.235-.16.141-.1a2.759,2.759,0,0,1,.677-.394c.914-.555,1.837-1.107,2.493-1.445l.077-.14.1-.062a2.33,2.33,0,0,1,.3-.15c.039-.018.091-.041.132-.061l.008-.043.569-.448c.06-.039.113-.077.164-.116l-.022-.011.226-.144a3.132,3.132,0,0,1,.393-.249l.051-.032c.08-.051.132-.085.165-.108a1.659,1.659,0,0,1,.511-.407l.027-.017.029-.013.014-.007c.007-.009.021-.029.032-.045a1.463,1.463,0,0,1,.413-.411l.044-.03.414-.159a4.033,4.033,0,0,0,.7-.572c.172-.165.386-.369.732-.664l.027-.021a2.329,2.329,0,0,1,.6-.347l.87-1.133a12.532,12.532,0,0,1,1.021-1.152l.262-.266.229-.289.058.006.275-.361-.013-.012c.034-.043.106-.144.182-.251.161-.226.36-.507.525-.7l.352-.407a12.954,12.954,0,0,0,.83-1.442c.1-.195.207-.4.323-.61l.084-.157a1.568,1.568,0,0,1,.13-.248l.033-.053.809-1.5-.01.107a.694.694,0,0,1,.1-.094l.062-.262.11-.035a1.441,1.441,0,0,1,.089-.191,1.667,1.667,0,0,0,.147-.362l.052-.176.006,0-.055-.058.042-.225a2.944,2.944,0,0,1,.245-.753,1.636,1.636,0,0,0,.12-.323l.027.006a3.3,3.3,0,0,1,.184-.468.922.922,0,0,1,.032-.228l0-.013a.772.772,0,0,1,.1-.236,1.524,1.524,0,0,1,.037-.312,5.515,5.515,0,0,1,.216-.759l.05-.15c.018-.082.045-.182.09-.322l.078-.24.007-.1.016-.051c.049-.155.086-.33.118-.484.008-.037.015-.073.023-.109l-1.4.4-.312.091-.02-.029-.053.019-.014,0-.016.005.185.206-.9.076a3.458,3.458,0,0,0-.514.169,1.769,1.769,0,0,1-.584.165.529.529,0,0,1-.071,0c-.439.167-.783.33-1.174.514-.415.2-.886.418-1.537.671l-.045.018-.048.008a14.347,14.347,0,0,0-2.387,1.083c-1.528.888-2.481,1.5-3.919,2.511l-.033.023-.036.017a11.052,11.052,0,0,0-1.95,1.37c-.371.3-.722.582-1.059.82l-.214.268-.07.042a8.808,8.808,0,0,0-1.18.961c-.251.227-.509.459-.776.681l.155.051-.649.515c-.071.057-.173.153-.271.246-.083.078-.155.146-.22.2l-1.259,1.259h0c-.645.81-1.179,1.4-1.7,1.966a23.356,23.356,0,0,0-2.045,2.488l-2.086,2.965.3-.772-.151.175a.646.646,0,0,1-.258.3l-1.708,1.981.075-.168-.652.728-.809.863.065-.035-1.875,2.02c-.086.093-.175.19-.265.289a8.91,8.91,0,0,1-1.147,1.129,4.12,4.12,0,0,0-.56.565,2.876,2.876,0,0,1-.266.283,2.338,2.338,0,0,1-.823.527l-.136.1a5.635,5.635,0,0,1-1.423.83l-.058.023-.045,0c-.115.032-.506.215-.767.337a3.91,3.91,0,0,1-1.275.482c-.347.086-.682.192-1.036.3-.442.14-.9.285-1.395.391l-1.242.265.8-.987c.516-.636,1.065-1.326,1.587-1.995.367-.478.722-.944,1.048-1.374l-.592.663c-.118.132-.259.286-.409.449-.27.294-.71.772-.831.944l-.015.1-.435.365c-.526.526-.575.65-.6.724a1.219,1.219,0,0,1-.291.439l-.018.018-.5.475-.036-.033c-.106.108-.2.205-.309.309l.665.361-1.192.2-.026.031.028.019-.164.3-.029.035-.017.022-.015.019.036-.008-.73.853-.086.1-.069.079c-.1.118-.2.224-.3.331l-.9.95-1.5,1.841.285-.558-.262.276,1.385-2.532-1.836.332c-.14.394-.3.792-.484,1.2l0,.008-.088.345,0,.014-.044.151c-.082.286-.183.636-.285.984l0,.012c-.153.476-.306.946-.409,1.262l-.032.1-.072.075c-.7.721-1.483,1.517-2.088,2.026l-.059.169-.075.074a2.841,2.841,0,0,1-.278.23c-.051.039-.121.092-.166.131l0,.056-.5.584c-.046.045-.088.089-.128.132l.057.008-.391.351a3.615,3.615,0,0,1-.271.244l-.052.047c-.089.08-.142.13-.175.162a1.8,1.8,0,0,1-.486.521l-.025.022-.028.018c-.04.026-.043.03-.088.109a1.721,1.721,0,0,1-.3.392l-.062.062-.029.012-.028.026-.038.035-.385.217a5.3,5.3,0,0,0-.621.607,11.664,11.664,0,0,1-.9.9l-.024.02c-.139.109-.254.192-.35.254l-1.351,1.405a10.211,10.211,0,0,1-1.277,1.135l-.3.219-.315.292-.07-.018-.159.143-.242.207.011.015-.029.025c-.141.12-.433.371-.708.585L67.1,107.93l1.46-2.247c.324-.5.667-1.031.993-1.568l.011-.017.308-.459c.487-.724,1.038-1.545,1.2-1.847l.021-.035a14.4,14.4,0,0,0,.7-1.289c.152-.3.31-.62.479-.933a3.757,3.757,0,0,1,.588-1.028.653.653,0,0,0,.093-.134.613.613,0,0,1,.069-.28l.016-.031.274-.489c.127-.216.236-.447.238-.449l.056.025c.1-.232.221-.486.337-.733a11.536,11.536,0,0,0,.611-1.447v-.082l.037-.087c.121-.286.215-.5.292-.674l-.048-.01.25-.512-.022-.009c.069-.191.2-.533.356-.93.3-.768.891-2.293,1.019-2.78a.593.593,0,0,1-.084-.265l-.251-.581.3.1.129-.319.111-.533.012-.032a1.324,1.324,0,0,1,.146-.307l.405-1.593.059-.23-.209-.084a19.258,19.258,0,0,0,.643-2.456l-.019-.086.221-.628a3.815,3.815,0,0,0,.244-1.339,1.672,1.672,0,0,1,.054-.616l0-.006.225-.9.047.01c.063-.295.115-.543.173-.857l.013-.15a6.847,6.847,0,0,1,.067-1.3l0-.012c.055-.386.073-.739.1-1.148.027-.506.057-1.078.163-1.865l-.07-.354.112-1.588.152,0c.024-1.187.027-1.749.02-3.62h-.022a6.783,6.783,0,0,1-.059-1.368l-.058-1.148c-.059-1.174-.117-2.32-.167-3.319l-.106-.224-.008-.078c-.014-.143-.014-.3-.014-.45a3.179,3.179,0,0,0-.017-.419l-.048-.056-.154-.909c-.012-.106-.026-.2-.041-.3l-.021.03-.041-.422a6.287,6.287,0,0,1-.066-.687l-.008-.086c-.022-.224-.036-.339-.044-.4a2.573,2.573,0,0,1-.153-.854l0-.024v-.024a.636.636,0,0,0-.061-.284,2.587,2.587,0,0,1-.174-.72l0-.036.033-.644a9.582,9.582,0,0,0-.2-1.3c-.075-.361-.168-.811-.279-1.554l0-.024a2.907,2.907,0,0,1,.011-1.048c-.03-.1-.045-.175-.088-.383-.021-.1-.048-.237-.089-.43l-.017-.08L77.3,51.8a.667.667,0,0,1,.062-.2.949.949,0,0,0-.035-.129,2.385,2.385,0,0,1-.1-.416l-.015-.021a2.223,2.223,0,0,1-.235-.38l-.068.008a16.806,16.806,0,0,1-.345-2.216l-.038-.482-.078-.475.05-.062-.123-.812-.019,0c-.007-.045-.17-1.121-.212-1.735l-.051-.748.027.012c-.048-.5-.112-.975-.18-1.474-.084-.625-.171-1.269-.237-2.02l-.063.139-.024-1.18-.2-2.4.171.468a1.05,1.05,0,0,1,.086-.439l-.061-.336.075-.107a1.7,1.7,0,0,1-.018-.448,3.852,3.852,0,0,0-.01-.616l-.011-.127.058-.114,0-.009-.016-.147-.151-.1-.025-.2-.011-.084-.01-.091c0-.057-.006-.11-.01-.16l0-.072-.006-.158c0-.09-.007-.168-.01-.242V34.21c0-.234.008-.44.018-.64l0-.072c0-.082.008-.159.013-.236.018-.33.036-.642.03-.992h.029c.011-.665.037-1.016.065-1.41v0l-.036.057-.123.191c-.064.117-.14.247-.247.411l-.195.3-.089.19-.016.025c-.124.193-.276.47-.4.692-.071.13-.133.242-.183.329a.857.857,0,0,1-.208.262l-1.544,2.663-.036,0c-.039.077-.085.16-.137.252l.224-.015-.6.785a7.4,7.4,0,0,0-.432.763,2.483,2.483,0,0,1-.514.8c-.35.672-.608,1.232-.88,1.822-.3.651-.611,1.325-1.086,2.25l-.015.029-.019.026a25.063,25.063,0,0,0-1.688,3.679,50.313,50.313,0,0,0-1.99,6.729l-.006.028-.01.027a21.263,21.263,0,0,0-.786,4.311c-.054.46-.1.9-.16,1.3l.032.5-.01.054A20.268,20.268,0,0,0,64.3,62.2c-.007.392-.015.793-.028,1.19l.126-.107-.032,1.012c0,.152,0,.369.006.579.008.305.013.515,0,.669L64.532,68h0c.173,1.208.289,2.221.393,3.123a44.082,44.082,0,0,0,.91,5.593l-.034.011.025.1a2.115,2.115,0,0,1,.1.809,6.28,6.28,0,0,0,.335,1.545c.054.176.11.357.159.538q.016.028.03.061l.02.045.252,1.313-.016,0,.031.088a.857.857,0,0,1,.09.492c.1.57.211,1.166.326,1.79.351,1.9.733,3.955.963,6.008l.172-.818.074,3.954a19.555,19.555,0,0,1-.088,2.98,9.995,9.995,0,0,0-.076,1.278c0,.256-.007.444-.024.58a5.286,5.286,0,0,1-.147.94,2.172,2.172,0,0,1-.138.426c-.02.125-.038.251-.058.382a11.14,11.14,0,0,1-.537,2.323l-.016.046-.026.041c-.051.09-.186.515-.3.857-.073.229-.156.489-.241.739-.13.38-.261.733-.371.993a2.144,2.144,0,0,1-.26.5c-.182.345-.357.7-.527,1.038A18.556,18.556,0,0,1,63.8,108.8l-.012.015c-.137.266-.423.807-.742,1.343-.2.35-.431.722-.633,1.022-.027.04-.05.077-.074.114l-.062.1-.1.056a1.6,1.6,0,0,0-.235.153l-.018-.022a3.757,3.757,0,0,1-.487.287.953.953,0,0,1-.184.169l-.01.007a.807.807,0,0,1-.247.126,1.7,1.7,0,0,1-.259.243,4.2,4.2,0,0,1-.613.4l-.074.039a1.684,1.684,0,0,1-.216.13l-.134.069-.039.04-.073.034a2.18,2.18,0,0,0-.251.155.867.867,0,0,1-.4.188l-1.669.977-.025-.021,0,0,.213.144-.881.281a4.4,4.4,0,0,0-.529.275,1.637,1.637,0,0,1-.709.3c-.277.156-.521.3-.759.445a17.284,17.284,0,0,1-2.175,1.146l-.032.014-.034.009a13.854,13.854,0,0,0-1.576.681c-.4.187-.805.38-1.157.53-.864.438-1.64.813-2.513,1.216l-1.942.894,1.418-1.6c.313-.352.6-.706.865-1.052l.015-.019c.105-.125.22-.259.337-.4a14.82,14.82,0,0,0,.948-1.171l.021-.037.027-.032a4.927,4.927,0,0,0,.478-.755c.114-.2.232-.416.367-.625a2.191,2.191,0,0,1,.5-.68.6.6,0,0,1,.07-.2l.012-.023.431-.614.053.032c.086-.145.182-.3.276-.451a7.555,7.555,0,0,0,.459-.8v-.094l.071-.11c.068-.1.128-.194.18-.272l-.052-.025.294-.379-.012-.007a12.536,12.536,0,0,1,.683-1.112c.213-.328.515-.791.65-1.034a.554.554,0,0,1-.04-.207l-.309-.827.506.281.046-.061.126-.327.027-.041a1,1,0,0,1,.154-.192c.1-.219.216-.458.337-.706.059-.121.119-.243.178-.365l-.181-.132a9.9,9.9,0,0,0,.684-1.391l-.025-.1.279-.458c.262-.57.252-.679.248-.726a1,1,0,0,1,.086-.515l.222-.574.044.013.168-.538.006-.039a4.37,4.37,0,0,1,.062-.889v-.007c.035-.242.053-.462.074-.718.027-.334.058-.71.135-1.225l-.077-.238.14-1.228.135,0c.02-.577.033-.973.066-1.943l-.017-.273a3.374,3.374,0,0,1,.01-.951c.005-.883.027-2.047.1-2.853l-.076-.137V91.43a2.268,2.268,0,0,1,.032-.332c.006-.04.014-.092.018-.136l-.031-.028-.069-.72c0-.046,0-.089,0-.132l-.029.019.008-.343a3.007,3.007,0,0,1,.011-.477V89.24c0-.088,0-.146,0-.185a1.6,1.6,0,0,1-.053-.65v-.036l.007-.036v-.008c0-.011-.011-.03-.016-.045a1.387,1.387,0,0,1-.1-.576V87.65l.111-.423a4.041,4.041,0,0,0-.039-.8c-.03-.246-.066-.551-.085-1.054v-.036a2.66,2.66,0,0,1,.06-.519l-.228-1.539a8.2,8.2,0,0,1-.093-1.521l.012-.318-.037-.417.058-.039-.028-.407h-.017c-.021-.236-.067-.825-.055-1.185l.021-.626.012,0c-.014-.358-.051-.711-.092-1.1-.03-.283-.061-.575-.085-.895l-.023.033-.008-.471a1.513,1.513,0,0,1-.013-.215l-.118-1.845.125.256c0-.024.007-.046.011-.066a.671.671,0,0,1,.051-.156l-.069-.261.086-.082a1.354,1.354,0,0,1,0-.209,1.473,1.473,0,0,0-.024-.368l-.03-.181,0,0-.055-.022-.064-.2a2.616,2.616,0,0,1-.087-.562c-.015-.185-.019-.341-.021-.47,0-.051,0-.1,0-.156a5.629,5.629,0,0,0-.032-.627l.03,0c-.031-.436-.029-.674-.026-.926a.6.6,0,0,1-.039-.128c-.008-.043-.016-.1-.024-.175v-.009a1.53,1.53,0,0,1,.01-.4c0-.022.006-.044.009-.068a1.549,1.549,0,0,1-.111-.469c-.017-.146-.031-.32-.039-.509-.294.584-.557,1.148-.559,1.153l-.485,1.042.064.059-.22.32a5.99,5.99,0,0,0-.437,1.025l-.006.017c-.04.1-.074.2-.1.281l-.005.014a1.633,1.633,0,0,1-.078.176l-.008.014a.624.624,0,0,1-.124.159c-.162.467-.259.853-.369,1.291s-.23.911-.432,1.538l-.015.046-.024.042a11.72,11.72,0,0,0-.644,2.519c-.261,1.687-.368,2.779-.51,4.586l0,.044-.012.042a9.886,9.886,0,0,0-.21,2.122c-.017.526-.035,1.068-.1,1.542l.058.332-.017.083a8.82,8.82,0,0,0-.1,1.365c-.01.378-.02.766-.051,1.154l.163-.079-.095.707.007-.014-.123,2.546h0a25.64,25.64,0,0,1-.026,3.059,25.5,25.5,0,0,0-.04,2.7l.164,3.772-.292-1.017-.023.288a.6.6,0,0,1-.03.368l-.215,2.671-.063-.3c-.091.807-.192,1.643-.32,2.475l.193-.312-.6,2.63c-.033.145-.066.3-.1.459a8.864,8.864,0,0,1-.394,1.466,3.9,3.9,0,0,0-.167.8,2.942,2.942,0,0,1-.06.356,3.16,3.16,0,0,1-.193.63,1.485,1.485,0,0,1-.153.292c-.033.117-.062.239-.093.365a5.878,5.878,0,0,1-.456,1.344l-.037.075-.039.035a7.7,7.7,0,0,0-.315.788l-.053.146c-.069.181-.173.441-.273.649a1.373,1.373,0,0,1-.227.364c-.151.234-.286.472-.429.724a7.375,7.375,0,0,1-1.255,1.762,7.7,7.7,0,0,1-.569.822,6.666,6.666,0,0,1-.587.656l-.068.067-.09.034c-.365.138-.758.307-1.138.471a16.529,16.529,0,0,1-1.925.738l-.321.193-.074.016a10.22,10.22,0,0,0-1.31.429c-.456.17-.96.358-1.477.5l.134.116-.856.2-.044.011.175.022-2.766.777v0q-.2.077-.394.149l.188.024-2.109.6c-.371.106-.734.2-1.085.295-.866.229-1.761.467-2.882.871l-4.081,1.472,1.195-.736-.042.011,2.158-1.459.183-.127.15-.1.033-.021c.186-.1.387-.214.582-.319l.326-.177-.529-.048.9-.165c.037-.023.066-.042.086-.058l.034-.026.039-.019a3.417,3.417,0,0,0,.53-.375,6.582,6.582,0,0,1,.553-.409,1.926,1.926,0,0,1,.6-.36.58.58,0,0,1,.117-.127l.025-.02.546-.331.037.052.087-.063a8.109,8.109,0,0,0,.814-.634l.027-.092.121-.089.149-.108-.046-.046.378-.225.017-.019a8.54,8.54,0,0,1,.841-.7c.225-.175.568-.442.751-.6a.52.52,0,0,1,.006-.138l-.019-.116-1.261.621,1.193-1.037-.074-.457.29.27,1.331-1.156c.205-.178.658-.569.814-.741l.008-.1.409-.284a1.63,1.63,0,0,0,.393-.42.869.869,0,0,1,.266-.409l.019-.017.392-.332.031.031.311-.31a2.6,2.6,0,0,1,.414-.671l.009-.012a5.4,5.4,0,0,0,.331-.461,8.616,8.616,0,0,1,.605-.823l.036-.208.7-.88.1.06c.067-.113.132-.221.2-.327s.15-.236.231-.359c.112-.17.235-.356.384-.6l.1-.219a2.627,2.627,0,0,1,.4-.731c.179-.325.349-.658.513-.982.2-.4.4-.781.58-1.085l-.023-.117.049-.123a1.779,1.779,0,0,1,.142-.265l.028-.045-.012-.021.172-.619.008-.021.018-.049h0l.042-.109.023-.073a3.109,3.109,0,0,1,.158-.422V106.5l.04-.077.01-.027c.02-.052.034-.091.044-.119a1.387,1.387,0,0,1,.144-.567l.019-.045a1.157,1.157,0,0,1,.057-.535l.02-.06.217-.314a2.3,2.3,0,0,0,.15-.628,7.718,7.718,0,0,1,.162-.871l.009-.033a2.244,2.244,0,0,1,.166-.408l.095-1.272a6.26,6.26,0,0,1,.2-1.281l.064-.222.049-.419.064-.022.038-.28-.017,0,.009-.077a8.452,8.452,0,0,1,.145-.909l.137-.541.009,0c.041-.272.063-.546.086-.845.018-.232.037-.469.066-.729l-.034.027.085-.435a1.213,1.213,0,0,1,.022-.157l.2-1.534.083.236a.858.858,0,0,1,.1-.19l-.022-.25.115-.059a1.286,1.286,0,0,1,.031-.132.928.928,0,0,0,.039-.267l0-.1-.076-.044,0-.262a4.357,4.357,0,0,1,.158-1.091,3.886,3.886,0,0,0,.1-.493l.03,0a7.251,7.251,0,0,1,.177-.772.941.941,0,0,1,.011-.277l0-.011a1.314,1.314,0,0,1,.111-.367l.014-.031a3.53,3.53,0,0,1,.206-1.294l.019-.07.016-.024c0-.025.006-.052.012-.083l-.552.675-.012.112-.147.117a6.572,6.572,0,0,0-.418.517c-.29.379-.43.562-.591.632-.255.345-.46.664-.659.974-.092.143-.186.29-.283.435l-.1.152-.157.239-.184.3c-.134.216-.281.432-.451.662l-.032.044-.042.035A9.483,9.483,0,0,0,42.651,95l-.123.21c-.546,1.034-.9,1.792-1.356,2.751l-.327.692-.021.044-.03.039a7.32,7.32,0,0,0-.767,1.5,11.949,11.949,0,0,1-.564,1.207l-.05.286-.058.082a6.07,6.07,0,0,0-.482.964c-.117.268-.244.56-.391.847l.181,0-.332.544.02-.013-.946,1.935h0a17.6,17.6,0,0,1-1,2.319,16.89,16.89,0,0,0-.9,2.056l-1.04,2.958.046-.854-.094.179-.01.041a.512.512,0,0,1-.158.279l-1,1.918.02-.15c-.276.509-.567,1.041-.869,1.57l.247-.178L31.3,118.275c-.077.116-.156.241-.24.372a7.956,7.956,0,0,1-.7,1l-.009.01a2.2,2.2,0,0,0-.34.58,2.137,2.137,0,0,1-.121.242,2.078,2.078,0,0,1-.541.645c-.05.078-.1.162-.151.249a4.367,4.367,0,0,1-.675.927l-.96,1.373.143-.413a1.9,1.9,0,0,1-.5.508,8.473,8.473,0,0,0-.69.692,7.764,7.764,0,0,1-1.067,1.013c-.1.151-.289.413-.491.665l-.042.054.453.014-.839.662.021.262-.383.083c-1.016.221-2.125.494-3.3.782-.561.138-1.129.277-1.7.414l.21.014-3.133.68c-.218.047-.458.1-.691.16a13.012,13.012,0,0,1-1.529.306,4.479,4.479,0,0,0-.989.279c-.129.048-.234.086-.319.109a3.748,3.748,0,0,1-1.025.184h-.046c-.155.042-.31.089-.473.139a9.7,9.7,0,0,1-1.538.369l-.069.01-.05-.008a10.36,10.36,0,0,0-1.145.259,6.519,6.519,0,0,1-1.205.255l-.054,0a14.789,14.789,0,0,0-1.614.322,17.1,17.1,0,0,1-1.788.356l-.728.276,1.289-.041,5.858-1.288,4.725-.861,1.774-.406c1.083-.244,2.508-.58,3.911-.923l.13-.032.06-.014.077.226a7.48,7.48,0,0,1,1.043-.071,10.363,10.363,0,0,1,1.6.135l.022,0,.022.006c.489.128,1.059.328,1.365.435l.126.044.03.01.028.014a2.559,2.559,0,0,0,.523.16,4.591,4.591,0,0,1,.688.2,1.842,1.842,0,0,1,.6.283.552.552,0,0,1,.166.032l.034.012.532.282-.024.054c.151.062.31.137.465.21s.387.183.5.216l.1-.026.154.081.139.074.026-.066.353.242a6,6,0,0,1,1.154.6c.172.1.4.24.562.325a.54.54,0,0,1,.171-.045l.187-.094-.813-1.03,1.178.847.354-.177-.159.317,1.219.876.253.185c.2.146.547.4.711.5l.116-.018.346.362a1.674,1.674,0,0,0,.406.29l.017,0a.823.823,0,0,1,.444.2l.023.019.358.321-.028.038c.109.087.2.168.318.263l.005,0a2.366,2.366,0,0,1,.664.326l.007,0c.114.075.227.141.346.211a7.153,7.153,0,0,1,.913.612l.2.022.869.671-.068.111c.373.238.633.416,1.193.807l.212.112a2.332,2.332,0,0,1,.629.407c.57.36,1.3.838,1.812,1.222l.123-.009.121.072a1.574,1.574,0,0,1,.235.182l.007.007.008,0,.575.25.021.012.082.044,0-.026.216.131a2.2,2.2,0,0,1,.333.2l.013.006.011.009.019.012.092.054a1.191,1.191,0,0,1,.513.231l.032.02a1.078,1.078,0,0,1,.495.146l.06.034.249.265a2.1,2.1,0,0,0,.536.24,7,7,0,0,1,.793.312l.029.015a2.1,2.1,0,0,1,.339.222l1.181.31a6.744,6.744,0,0,1,1.167.4l.22.1.383.11.009.057.246.067.006-.016.168.045c.208.055.523.138.732.211l.541.189-.009.013a9.657,9.657,0,0,0,1.079.172c.187.023.38.047.589.076l.175.025a1.088,1.088,0,0,1,.127.018l1.553.22-.173.059a.728.728,0,0,1,.079.041l.248-.042.065.106c.043,0,.081.01.113.016a.706.706,0,0,0,.136.013,1.22,1.22,0,0,0,.13-.008l.089-.01.022-.057.229-.056a2.121,2.121,0,0,1,.515-.064c.057,0,.11,0,.156,0s.073,0,.109,0a.724.724,0,0,0,.142-.012l.006.026a3.056,3.056,0,0,1,.338-.021h.053a.856.856,0,0,1,.178-.06l.017,0a.739.739,0,0,1,.2-.013,6.309,6.309,0,0,1,1.026-.3l.134-.033c.054-.02.119-.041.2-.067l.148-.045.044-.033.07-.023a1.9,1.9,0,0,0,.284-.131.919.919,0,0,1,.409-.142l.031-.015-.19-.135-.631-.449-.056.046-.286-.251a3.713,3.713,0,0,0-.315-.211l-.01-.006-.291-.178-.113-.069a1.03,1.03,0,0,1-.383-.334c-.2-.121-.379-.22-.568-.323a8.854,8.854,0,0,1-1.344-.859l-.044-.034-.034-.043a7.661,7.661,0,0,0-1.081-.827c-.183-.127-.357-.246-.511-.359l-.188-.12c-1.016-.648-1.75-1.116-2.837-1.839l-.045-.03-.037-.04a6.578,6.578,0,0,0-1.236-.91,10.4,10.4,0,0,1-1.075-.742l-.263-.088-.075-.077a5.486,5.486,0,0,0-.828-.61c-.221-.145-.461-.3-.694-.475l-.036.179-.5-.435-1.644-1.125a19.154,19.154,0,0,1-1.772-1,12.123,12.123,0,0,0-2.21-1.152L38.96,129.4l.382.024a.448.448,0,0,1-.19-.121l-.849-.382q-1.016-.41-2.346-.8l-2.209-.548c-.2-.05-.436-.089-.665-.127a5.807,5.807,0,0,1-.9-.2,1.292,1.292,0,0,0-.332-.035c-.11,0-.218.008-.312.014a2.129,2.129,0,0,1-.259.009,2.9,2.9,0,0,1-.548-.059,1.369,1.369,0,0,1-.231-.065c-.114,0-.23.007-.352.013-.212.01-.434.02-.689.014l-3.02-.064,2.908-.817c.7-.2,1.423-.416,2.125-.629.924-.281,1.88-.571,2.777-.807l.092-.024.094.015a19.942,19.942,0,0,1,2.891.692l.027.01c.174.068.33.134.477.2.424.183.835.4,1.135.552.154.08.288.149.364.183l.026.012.024.015a5.748,5.748,0,0,0,1.073.441c.2.069.41.14.617.219a2.4,2.4,0,0,1,.866.379l0,0,0,0a.461.461,0,0,1,.073-.006.63.63,0,0,1,.17.027l.022.006.781.3-.019.059c.193.06.4.13.608.2a8.672,8.672,0,0,0,.995.3l.092-.014.111.042c.148.056.272.1.376.147l.011-.057.453.216,0-.012a12.641,12.641,0,0,1,1.675.646c.341.146.782.334,1.016.419a.579.579,0,0,1,.286-.069l.142-.056-1.4-1.132,3.876,2c.135.069.293.153.458.24.37.2.974.514,1.178.589l.1-.01.46.325c.628.374.759.391.837.4a1.194,1.194,0,0,1,.5.176l.018.011.577.365-.023.042c.19.109.354.208.557.331l.055.024a3.93,3.93,0,0,1,.93.36l0,0c.179.089.35.167.531.25a14.2,14.2,0,0,1,1.453.745l.277.036,1.149.658-.064.128c.647.317,1.037.522,1.978,1.026l.35.15a3.8,3.8,0,0,1,.887.453c.9.448,2.093,1.056,2.872,1.516h.178l.094.045a2.824,2.824,0,0,1,.305.181c.051.033.127.083.181.113l.053-.017.714.272c.083.039.16.071.237.1l0-.024.234.116a3.666,3.666,0,0,1,.476.236l.054.027c.11.055.178.086.219.1a1.611,1.611,0,0,1,.655.245l.028.014.026.018c.034.023.034.023.116.032a1.656,1.656,0,0,1,.6.168l.042.02.384.294a5.758,5.758,0,0,0,.94.369c.252.081.566.182,1.048.365l.033.014a3.473,3.473,0,0,1,.5.277l1.749.457a11.786,11.786,0,0,1,1.606.508l.281.117.462.127.021.064.5.137.006-.016.1.027c.267.07.823.217,1.158.324l.65.209-.019.021c.511.136,1.021.22,1.621.319.288.048.586.1.911.156l.207.038a1.853,1.853,0,0,1,.29.051l.036.009,1.9.348-.155.028a.783.783,0,0,1,.16.087l.284-.011.072.094a1.489,1.489,0,0,1,.248.034,1.975,1.975,0,0,0,.452.042ZM31.627,123.758a1.189,1.189,0,0,1-.255.214l-.019.013a1.089,1.089,0,0,1-.289.135l.185-.034a4.252,4.252,0,0,1,.761-.038h.12c.231-.069.453-.138.669-.208l-1.028-.129A.728.728,0,0,1,31.627,123.758Zm51.941-36.3c-.163.485-.307.979-.446,1.458-.161.553-.325,1.117-.525,1.692l2.3-1.151.168-.328c.174-.328.341-.657.487-.955l-.206-.1.309-.11c.18-.375.317-.679.377-.837l.018-.041a11.134,11.134,0,0,0,.542-1.463c.1-.3.195-.605.305-.912a3.918,3.918,0,0,1,.431-1.106.624.624,0,0,0,.069-.15.607.607,0,0,1,.02-.288l.009-.03.36-1.051.061.018.065-.239a16.388,16.388,0,0,0,.49-2.077l-.014-.08.021-.089c.075-.314.134-.549.181-.735l-.038,0,.137-.508-.02,0c.028-.25.114-.682.224-1.229.07-.352.15-.751.219-1.131.149-.856.214-1.379.23-1.607a.624.624,0,0,1-.143-.3l-.267-.443.245.026.066-.351.006-.548.005-.032a2.337,2.337,0,0,1,.045-.23.65.65,0,0,1,.033-.1c.014-.429.046-.914.079-1.423.01-.157.021-.316.031-.475l-.221-.039a24.634,24.634,0,0,0,.181-2.573l-.033-.079.1-.66a4.322,4.322,0,0,0,.022-1.389,1.819,1.819,0,0,1-.039-.606v-.014l.087-.924.048,0c.018-.3.036-.564.06-.891l0-.154a6.97,6.97,0,0,1-.079-1.3v-.005c0-.275,0-.532-.006-.8-.01-.592-.021-1.261.05-2.258l-.081-.369.144-1.58.147,0c.016-.4.032-.726.058-1.061l0-.018c.018-.154.035-.309.054-.473.06-.537.127-1.14.261-2.082l-.036-.007a6.533,6.533,0,0,1,.211-1.34c.123-.877.277-1.723.447-2.451l.035-.158C91,48.633,91.144,48,91.3,47.5l-.028-.236.018-.077c.032-.138.082-.285.129-.427a3.156,3.156,0,0,0,.117-.4l-.028-.071.158-.92c.035-.138.063-.263.088-.383L91.73,45l.093-.327a6.42,6.42,0,0,1,.186-.656l0-.006.02-.07c.06-.211.088-.323.1-.381a2.5,2.5,0,0,1,.177-.86l.008-.027.011-.026a.639.639,0,0,0,.054-.285,2.59,2.59,0,0,1,.122-.734l.01-.035.283-.581a10.53,10.53,0,0,0,.331-1.24c.081-.369.182-.829.4-1.589l.007-.023a6.7,6.7,0,0,1,.248-.639,1.184,1.184,0,0,1,.2-.316c.015-.106.032-.18.08-.387.024-.1.056-.24.1-.437l.018-.08.045-.068a.651.651,0,0,1,.141-.16.945.945,0,0,0,.022-.133,2.4,2.4,0,0,1,.084-.426l-.006-.03a2.286,2.286,0,0,1-.054-.439l-.066-.021a18.558,18.558,0,0,1,.6-2.181l.165-.478.115-.451.07-.037.21-.807-.017-.005c.047-.189.293-1.162.473-1.706l.234-.706.011.011c.218-.774.376-1.53.553-2.373.081-.385.164-.783.26-1.218l.082-.371c.008-.043.019-.09.031-.142l.633-2.864.014.337a.792.792,0,0,1,.112-.185l.025-.349L98,21.416A1.957,1.957,0,0,1,98.067,21a4.178,4.178,0,0,0,.1-.651l.012-.127.077-.1.006-.008.011-.167-.126-.126.007-.2a5.346,5.346,0,0,1,.049-.57v-.006c.028-.176.05-.317.075-.471.011-.074.022-.147.033-.22.048-.319.093-.62.122-.981l.03,0c.073-.651.128-.98.191-1.349l.008-.045a1.11,1.11,0,0,1-.007-.341c-.082.083-.167.166-.253.249l-.165.158c-.088.1-.193.207-.344.353l-.277.266-.117.149-.022.021c-.176.169-.386.4-.555.591a2.059,2.059,0,0,1-.511.485l-.665.714-.886.981-.19.211-.035-.01c-.053.066-.113.136-.181.213l.22.027-.749.661a7.582,7.582,0,0,0-.59.681c-.326.4-.484.6-.652.675-.516.642-.888,1.167-1.313,1.766-.379.534-.808,1.138-1.4,1.911l-.018.023-.021.021a26.7,26.7,0,0,0-2.324,3.366,51.513,51.513,0,0,0-3.139,6.342l-.011.026-.014.024a22.725,22.725,0,0,0-1.563,4.146c-.137.443-.266.862-.394,1.249l-.059.5-.02.052a21,21,0,0,0-.741,3.117c-.059.308-.119.624-.182.937l.185-.11-.225,1.015c-.039.174-.072.449-.1.692-.02.168-.039.328-.06.45l0,.017-.147,2.114c-.007.222-.016.442-.016.442h-.006c.066,1.963.138,3.223.253,4.437a27.293,27.293,0,0,0,.738,4.4l-.034.012.027.11a2.116,2.116,0,0,1,.114.816,6.33,6.33,0,0,0,.364,1.55c.058.177.118.359.17.541q.016.027.03.058l.021.045.279,1.319-.015,0,.032.086a.866.866,0,0,1,.1.495c.1.489.2,1,.309,1.526.4,1.949.831,4.065,1.1,6.185l.155-.821.128,4.171a24.048,24.048,0,0,1-.022,2.951,9.005,9.005,0,0,0-.017,1.332c.009.241.016.419.007.551a5.523,5.523,0,0,1-.079.935,2.694,2.694,0,0,1-.108.459c-.013.165-.023.329-.033.5a13.02,13.02,0,0,1-.292,2.274l-.009.039-.016.037c-.053.132-.182.818-.276,1.319-.084.448-.171.912-.252,1.271-.046.2-.085.357-.121.468A1.039,1.039,0,0,1,83.568,87.459Zm8.677-5.525.011.109.177-.131c.459-.631.863-1.172,1.222-1.652a42.385,42.385,0,0,0,2.569-3.719l.018.009.039-.079c.04-.082.093-.19.174-.34l-.052.038-.009.006h0l0,0a.6.6,0,0,1-.088.235l-.014.023-.528.663-.05-.036c-.13.187-.281.388-.427.583a8.035,8.035,0,0,0-.559.8l-.014.093-.076.095c-.108.135-.2.246-.276.339l.049.029-.334.357.013.009A14.8,14.8,0,0,1,93.038,80.7c-.27.322-.621.74-.781.957A.585.585,0,0,1,92.245,81.934Zm5.2-7.961c0,.012,0,.024,0,.036a1.321,1.321,0,0,1-.023.136,5.185,5.185,0,0,1-.18.609c-.025.069-.051.136-.079.2l.2-.315c.272-.429.6-.951,1.013-1.612l-.025-.014c.073-.157.135-.316.2-.485.085-.217.182-.463.32-.754l.011-.024.014-.022a1.031,1.031,0,0,1,.133-.174l.011-.026.058-.061c.274-.288.57-.591.856-.885.44-.452.856-.879,1.016-1.068l.016-.018.017-.017a9.772,9.772,0,0,0,.821-.948c.227-.285.462-.579.721-.864.558-.651.662-.728.8-.809a.492.492,0,0,0,.1-.084.621.621,0,0,1,.131-.25l.024-.027.713-.756.048.042c.1-.122.216-.25.332-.385a13.181,13.181,0,0,0,1.079-1.335l.024-.084.065-.075c.18-.21.322-.371.437-.5l-.044-.024.377-.392-.015-.012c.179-.261.6-.765,1.082-1.348.432-.52,1.058-1.273,1.268-1.581a.563.563,0,0,1,0-.26l-.071-.693.3.23.2-.223.268-.438.023-.027a1.228,1.228,0,0,1,.24-.236c.3-.44.66-.962,1.005-1.454l-.164-.151a19.872,19.872,0,0,0,1.408-1.927l.008-.093.432-.5c.61-.8.659-.962.7-1.081a1.645,1.645,0,0,1,.261-.522l.007-.009.513-.709.041.027c.161-.239.3-.443.48-.7l.066-.119a8.971,8.971,0,0,1,.514-1.107l.97-1.854.359-.686.066-.355.726-1.355.125.057c.138-.318.25-.589.365-.867l.011-.026c.087-.216.185-.435.289-.668.178-.4.4-.883.658-1.581l-.029-.012a6.17,6.17,0,0,1,.447-1.232c.394-1.12.746-2.289,1.029-3.231.088-.292.171-.57.247-.815l-.029-.237.023-.085c.029-.106.067-.22.1-.33a3.162,3.162,0,0,0,.123-.423l-.032-.068.119-.889c.019-.1.035-.2.05-.29h0l.01-.054.02-.126c.038-.241.077-.49.153-.827v0l.014-.076c.036-.2.053-.306.06-.364a2.386,2.386,0,0,1,.087-.844l0-.025.008-.025a.529.529,0,0,0,.016-.268,2.554,2.554,0,0,1,.011-.693l.005-.039.19-.588a7.566,7.566,0,0,0,.126-1.321c.01-.339.023-.761.079-1.42l0-.028c.04-.273.08-.491.12-.647a1.17,1.17,0,0,1,.117-.312c-.008-.1-.008-.176-.006-.388,0-.1,0-.226,0-.4v-.088l.034-.081a.663.663,0,0,1,.1-.17.806.806,0,0,0-.007-.108,2.2,2.2,0,0,1-.013-.4l-.01-.021a2.07,2.07,0,0,1-.157-.4l-.067,0a17.216,17.216,0,0,1,.079-2.133l.048-.471.006-.462.062-.049.02-.758h-.017c.007-.42.025-1.2.072-1.663l.073-.73.021.014c.033-.534.039-1.054.046-1.6.006-.512.012-1.04.04-1.636l-.044.068.072-.708c0-.053.008-.111.015-.176v-.005l.136-2.557.1.427c.008-.04.015-.076.024-.108a.75.75,0,0,1,.1-.241l-.019-.333.093-.1a1.729,1.729,0,0,1,.033-.386,3.452,3.452,0,0,0,.053-.592l0-.139.076-.106v-.112l-.142-.121,0-.205a5.016,5.016,0,0,1,.1-1.064,3.856,3.856,0,0,0,.069-.507h.028a4.812,4.812,0,0,1,.123-.716,1.062,1.062,0,0,1,0-.307V7.91a.9.9,0,0,1,.094-.329,3.065,3.065,0,0,1,.045-.83l-.018-.006.056-.241h-.421l-.044.08-.935,3.428.081-1.93-.091.165-.6,1.071-.142.252-.041,0c-.031.059-.066.122-.105.19l.233-.008-.609.763a7.027,7.027,0,0,0-.41.674c-.094.166-.182.322-.258.443a.973.973,0,0,1-.283.324c-.252.426-.46.805-.662,1.173a29.022,29.022,0,0,1-1.5,2.495l-.018.027-.022.024a22.7,22.7,0,0,0-1.464,2.153c-.234.368-.455.716-.657,1.023L111.772,24.5l-.015.025-.019.023a22.852,22.852,0,0,0-1.705,2.683c-.375.65-.763,1.322-1.134,1.882l-.168.437-.034.047a20.112,20.112,0,0,0-1.376,2.471c-.151.3-.306.607-.463.91l.186-.048-.481.9c-.076.143-.173.378-.259.585-.062.149-.12.29-.172.4a1.326,1.326,0,0,1-.1.186l-.692,2.128h0c-.2.932-.392,1.733-.558,2.447a53.34,53.34,0,0,0-1.1,5.738h-.036c0,.03-.008.066-.012.1a1.939,1.939,0,0,1-.189.772,5.484,5.484,0,0,0-.222,1.43c-.012.183-.023.371-.043.557q0,.029.006.06l0,.053-.251,1.351c0,.054,0,.1,0,.141s0,.046,0,.06a.486.486,0,0,1-.075.24l-.684,3.683v-.054l-.048.27c-.164.918-.331,1.85-.5,2.778l.188-.4-.9,4.05c-.044.2-.089.4-.135.616-.17.782-.345,1.591-.519,2.138l0,.012a7.355,7.355,0,0,0-.274,1.324c-.023.166-.042.3-.063.4a5.113,5.113,0,0,1-.232.885,2.163,2.163,0,0,1-.171.393c-.049.2-.092.4-.137.619a11.25,11.25,0,0,1-.538,1.925l-.014.037-.02.034c-.071.129-.28.806-.432,1.3-.119.388-.242.789-.347,1.092a2.423,2.423,0,0,1-.253.584c-.1.21-.185.423-.283.665A4.266,4.266,0,0,1,97.448,73.973Z" transform="translate(0.245 0.513)" fill="#ffad09"/>
          </g>
        </g>
      </g>
    </g>
  </g>
</svg>
