<svg xmlns="http://www.w3.org/2000/svg" width="53.35" height="242.323" viewBox="0 0 53.35 242.323">
  <g id="Grupo_1103458" data-name="Grupo 1103458" transform="translate(53.35 242.323) rotate(180)">
    <path id="Trazado_880353" data-name="Trazado 880353" d="M49.336,51.832V49.254L0,0V2.581Z" transform="translate(2.007 65.111)" fill="#ffad09"/>
    <path id="Trazado_877632_-_Contorno" data-name="Trazado 877632 - Contorno" d="M53.35,61.511,0,8.253V0L53.35,53.261Z" transform="translate(0 60.271)" fill="#ffad09"/>
    <path id="Trazado_880354" data-name="Trazado 880354" d="M0,0V2.581L49.336,51.836V49.254Z" transform="translate(2.007 4.84)" fill="#ffad09"/>
    <path id="Trazado_877633_-_Contorno" data-name="Trazado 877633 - Contorno" d="M0,0,53.35,53.261v8.253L0,8.253Z" transform="translate(0)" fill="#ffad09"/>
    <path id="Trazado_880355" data-name="Trazado 880355" d="M49.336,51.832V49.251L0,0V2.578Z" transform="translate(2.007 34.978)" fill="#ffad09"/>
    <path id="Trazado_877634_-_Contorno" data-name="Trazado 877634 - Contorno" d="M53.35,61.511,0,8.25V0L53.35,53.258Z" transform="translate(0 30.139)" fill="#ffad09"/>
    <path id="Trazado_880356" data-name="Trazado 880356" d="M49.336,51.829V49.254L0,0V2.578Z" transform="translate(2.007 125.383)" fill="#ffad09"/>
    <path id="Trazado_877635_-_Contorno" data-name="Trazado 877635 - Contorno" d="M53.35,61.508,0,8.25V0L53.35,53.261Z" transform="translate(0 120.544)" fill="#ffad09"/>
    <path id="Trazado_880357" data-name="Trazado 880357" d="M49.336,51.832V49.254L0,0V2.581Z" transform="translate(2.007 95.247)" fill="#ffad09"/>
    <path id="Trazado_877636_-_Contorno" data-name="Trazado 877636 - Contorno" d="M53.35,61.511,0,8.253V0L53.35,53.261Z" transform="translate(0 90.408)" fill="#ffad09"/>
    <path id="Trazado_880358" data-name="Trazado 880358" d="M49.336,51.832V49.251L0,0V2.581Z" transform="translate(2.007 185.652)" fill="#ffad09"/>
    <path id="Trazado_877637_-_Contorno" data-name="Trazado 877637 - Contorno" d="M53.35,61.511,0,8.253V0L53.35,53.258Z" transform="translate(0 180.813)" fill="#ffad09"/>
    <path id="Trazado_880359" data-name="Trazado 880359" d="M49.336,51.829V49.251L0,0V2.581Z" transform="translate(2.007 155.519)" fill="#ffad09"/>
    <path id="Trazado_877638_-_Contorno" data-name="Trazado 877638 - Contorno" d="M53.35,61.507,0,8.253V0L53.35,53.258Z" transform="translate(0 150.68)" fill="#ffad09"/>
  </g>
</svg>
