<svg xmlns="http://www.w3.org/2000/svg" xmlns:xlink="http://www.w3.org/1999/xlink" width="184.089" height="147.443" viewBox="0 0 184.089 147.443">
  <defs>
    <clipPath id="clip-path">
      <rect id="Rectángulo_404304" data-name="Rectángulo 404304" width="143.046" height="136.558" fill="none"/>
    </clipPath>
  </defs>
  <g id="Grupo_1104328" data-name="Grupo 1104328" transform="translate(-284.668 -10242.648)">
    <circle id="Elipse_11628" data-name="Elipse 11628" cx="71.008" cy="71.008" r="71.008" transform="translate(305.29 10242.648)" fill="#ffde9c"/>
    <g id="Grupo_1102661" data-name="Grupo 1102661" transform="translate(372.19 10289.416) rotate(90)">
      <path id="Trazado_877639" data-name="Trazado 877639" d="M2.095,0A2.088,2.088,0,1,0,4.185,2.089,2.092,2.092,0,0,0,2.095,0" transform="translate(0 83.346)" fill="#d93a04"/>
      <path id="Trazado_877640" data-name="Trazado 877640" d="M2.095,0A2.088,2.088,0,1,0,4.185,2.089,2.092,2.092,0,0,0,2.095,0" transform="translate(0 66.678)" fill="#d93a04"/>
      <path id="Trazado_877641" data-name="Trazado 877641" d="M2.095,0A2.088,2.088,0,1,0,4.185,2.091,2.09,2.09,0,0,0,2.095,0" transform="translate(0 50.009)" fill="#d93a04"/>
      <path id="Trazado_877642" data-name="Trazado 877642" d="M2.095,0A2.088,2.088,0,1,0,4.185,2.091,2.091,2.091,0,0,0,2.095,0" transform="translate(0 33.341)" fill="#d93a04"/>
      <path id="Trazado_877643" data-name="Trazado 877643" d="M2.095,0A2.09,2.09,0,1,0,4.185,2.091,2.093,2.093,0,0,0,2.095,0" transform="translate(0 16.668)" fill="#d93a04"/>
      <path id="Trazado_877644" data-name="Trazado 877644" d="M2.095,0A2.09,2.09,0,1,0,4.185,2.091,2.093,2.093,0,0,0,2.095,0" transform="translate(0)" fill="#d93a04"/>
      <path id="Trazado_877645" data-name="Trazado 877645" d="M2.091,0A2.088,2.088,0,1,0,4.185,2.089,2.09,2.09,0,0,0,2.091,0" transform="translate(9.39 83.346)" fill="#d93a04"/>
      <path id="Trazado_877646" data-name="Trazado 877646" d="M2.091,0A2.088,2.088,0,1,0,4.185,2.089,2.09,2.09,0,0,0,2.091,0" transform="translate(9.39 66.678)" fill="#d93a04"/>
      <path id="Trazado_877647" data-name="Trazado 877647" d="M2.091,0A2.088,2.088,0,1,0,4.185,2.091,2.087,2.087,0,0,0,2.091,0" transform="translate(9.39 50.009)" fill="#d93a04"/>
      <path id="Trazado_877648" data-name="Trazado 877648" d="M2.091,0A2.088,2.088,0,1,0,4.185,2.091,2.088,2.088,0,0,0,2.091,0" transform="translate(9.39 33.341)" fill="#d93a04"/>
      <path id="Trazado_877649" data-name="Trazado 877649" d="M2.091,0A2.09,2.09,0,1,0,4.185,2.091,2.091,2.091,0,0,0,2.091,0" transform="translate(9.39 16.668)" fill="#d93a04"/>
      <path id="Trazado_877650" data-name="Trazado 877650" d="M2.091,0A2.09,2.09,0,1,0,4.185,2.091,2.091,2.091,0,0,0,2.091,0" transform="translate(9.39)" fill="#d93a04"/>
      <path id="Trazado_877651" data-name="Trazado 877651" d="M2.091,0A2.088,2.088,0,1,0,4.185,2.089,2.089,2.089,0,0,0,2.091,0" transform="translate(18.779 83.346)" fill="#d93a04"/>
      <path id="Trazado_877652" data-name="Trazado 877652" d="M2.091,0A2.088,2.088,0,1,0,4.185,2.089,2.089,2.089,0,0,0,2.091,0" transform="translate(18.779 66.678)" fill="#d93a04"/>
      <path id="Trazado_877653" data-name="Trazado 877653" d="M2.091,0A2.088,2.088,0,1,0,4.185,2.091,2.086,2.086,0,0,0,2.091,0" transform="translate(18.779 50.009)" fill="#d93a04"/>
      <path id="Trazado_877654" data-name="Trazado 877654" d="M2.091,0A2.088,2.088,0,1,0,4.185,2.091,2.087,2.087,0,0,0,2.091,0" transform="translate(18.779 33.341)" fill="#d93a04"/>
      <path id="Trazado_877655" data-name="Trazado 877655" d="M2.091,0A2.09,2.09,0,1,0,4.185,2.091,2.09,2.09,0,0,0,2.091,0" transform="translate(18.779 16.668)" fill="#d93a04"/>
      <path id="Trazado_877656" data-name="Trazado 877656" d="M2.091,0A2.09,2.09,0,1,0,4.185,2.091,2.09,2.09,0,0,0,2.091,0" transform="translate(18.779)" fill="#d93a04"/>
      <path id="Trazado_877657" data-name="Trazado 877657" d="M2.091,0A2.088,2.088,0,1,0,4.185,2.089,2.092,2.092,0,0,0,2.091,0" transform="translate(28.169 83.346)" fill="#d93a04"/>
      <path id="Trazado_877658" data-name="Trazado 877658" d="M2.091,0A2.088,2.088,0,1,0,4.185,2.089,2.092,2.092,0,0,0,2.091,0" transform="translate(28.169 66.678)" fill="#d93a04"/>
      <path id="Trazado_877659" data-name="Trazado 877659" d="M2.091,0A2.088,2.088,0,1,0,4.185,2.091,2.09,2.09,0,0,0,2.091,0" transform="translate(28.169 50.009)" fill="#d93a04"/>
      <path id="Trazado_877660" data-name="Trazado 877660" d="M2.091,0A2.088,2.088,0,1,0,4.185,2.091,2.091,2.091,0,0,0,2.091,0" transform="translate(28.169 33.341)" fill="#d93a04"/>
      <path id="Trazado_877661" data-name="Trazado 877661" d="M2.091,0A2.09,2.09,0,1,0,4.185,2.091,2.093,2.093,0,0,0,2.091,0" transform="translate(28.169 16.668)" fill="#d93a04"/>
      <path id="Trazado_877662" data-name="Trazado 877662" d="M2.091,4.18A2.09,2.09,0,1,0,0,2.089,2.092,2.092,0,0,0,2.091,4.18" transform="translate(28.169)" fill="#d93a04"/>
    </g>
    <g id="Grupo_1103731" data-name="Grupo 1103731" transform="translate(325.711 10253.533)">
      <g id="Grupo_1103730" data-name="Grupo 1103730" clip-path="url(#clip-path)">
        <path id="Trazado_883122" data-name="Trazado 883122" d="M126.478,7.4C109.1,20.168,88.383-2.72,69.927.273A32.377,32.377,0,0,0,45.865,17.859c-3.937,7.583-.883,26.252,9.946,38.8,5.432,6.3,11.111,10.524,18.027,14.908,6.376,4.041,14.023,7.18,21.648,7.9a58.361,58.361,0,0,0,20.789-1.821c13.85-3.862,28.318-13.657,35.419-26.38,5.929-10.624,14.155-27.878,8.014-40.054C154.434.757,139.947-3.841,126.478,7.4" transform="translate(-29.628 0)" fill="#40bde3"/>
        <path id="Trazado_883123" data-name="Trazado 883123" d="M293.066,30.94c.855-.119,2.34-1.894,2.487-2.724.246-1.4-1.117-1.5-2.176-1.623-1.421-.17-4.732.467-5.164-1.415-.559-2.433,2.529-3.139,4.121-3.622.717-.217,4.971-1.17,3.949-2.759-.31-.482-1.34-.092-1.392-.754-.091-1.164,4.695-1.784,2.5-3.5-1.023-.8-3.391.064-4.532.2-2.234.274-3.839-.2-4.946-2.205a16.457,16.457,0,0,0,5.817-2.536c-.607,1.191-1.746,1.937-1.56,3.409,1.9.749,4.442-.52,6.284-.8,1.993-.3,4.433.3,5.541,2.142.579.963.734,2.537-.51,2.955-.81.272-7.545-1.592-6.886.725.191.674,1.325.8,1.018,1.549-.143.347-1.038.528-1.367.678-.832.38-1.632.748-2.426,1.166-1.018.535-3.721,2.608-1.137,2.929a24.552,24.552,0,0,0,2.829-.286,10.325,10.325,0,0,1,3.01.484c1.214.409,3.453,2.429,1.935,3.739-1.139.982-3.164-.185-4.463.469-.764.384-1.748,2.235-2.635,1.776.047.145.15.245-.3-.005" transform="translate(-192.914 -6.708)" fill="#fff"/>
        <path id="Trazado_883124" data-name="Trazado 883124" d="M201.085,122.746c-7.1-5.695-18.567-6.611-27.251-6.088-11.518.694-22.519,4.55-32.738,9.759-8.55,4.359-16.954,9.991-23.132,17.479-.474.575-1.059,1.194-1.664,1.847,1.854,1.327,3.789,2.61,5.834,3.906,6.376,4.041,14.023,7.18,21.648,7.9a58.356,58.356,0,0,0,20.789-1.821c13.85-3.861,28.318-13.657,35.419-26.38.874-1.565,1.8-3.276,2.717-5.091a15.316,15.316,0,0,0-1.623-1.509" transform="translate(-77.925 -78.08)" fill="#2e7036"/>
        <path id="Trazado_883125" data-name="Trazado 883125" d="M130.215,147.8a103.284,103.284,0,0,0-14.473-11.84,1.723,1.723,0,0,0,.649-.319c.887-.786-.474-1.053-1.066-.556a.558.558,0,0,0-.437-.729,2.521,2.521,0,0,0-.165.927c-2.048-1.338-4.142-2.594-6.277-3.743a.724.724,0,0,0,.279-.334c.179-.764-.622-.426-.815-.047.013-.443.011-.928-.457-1.122a1.141,1.141,0,0,0-.108.927c-.8-.416-1.61-.824-2.423-1.21A74.5,74.5,0,0,0,92.076,125c.311-.438.451-1.193-.264-1.263-.466-.046-.819.449-1,.937l-.172-.041c-.072-.7-.277-1.627-.765-1.473-.379.119-.316.686-.144,1.253a75.412,75.412,0,0,0-9.692-1.558c-1.644-.159-3.334-.282-5.038-.327a2.744,2.744,0,0,0,.421-.47c.854-1.5-1.708-.771-1.071.251-.355-.229-.545-.745-1.041-.7a1.087,1.087,0,0,0,.279.894,30.777,30.777,0,0,0-10.941,1.747,2.051,2.051,0,0,0,.107-.985c-.328-1.025-.89.03-.718.676-.171-.279-.688-1.057-1.108-.85-.723.356.157,1.075.826,1.525a19.342,19.342,0,0,0-3.771,2.15,47.181,47.181,0,0,0,7.05,11.1c5.432,6.3,11.112,10.524,18.027,14.908,6.376,4.041,14.023,7.18,21.648,7.9a58.355,58.355,0,0,0,20.789-1.821,62.273,62.273,0,0,0,11.348-4.446c-2.225-2.165-4.409-4.44-6.629-6.613" transform="translate(-38.85 -81.213)" fill="#4b9b4d"/>
        <path id="Trazado_883126" data-name="Trazado 883126" d="M244.35,132.463a26.807,26.807,0,0,0-12.029-.846,2.551,2.551,0,0,0,.053-1.12c-.308-1-.993-.059-.675.582-.288-.391-.913-1.092-.881-.218a1.087,1.087,0,0,0,.705.882,36.069,36.069,0,0,0-5.8,1.544,2.2,2.2,0,0,0-.057-.971c-.341-.714-.9-.314-.795.354a1.1,1.1,0,0,0-.834-.422,2.121,2.121,0,0,0,.892,1.325,53.848,53.848,0,0,0-8.887,4.4c-.016-.492-.013-1.207-.317-1.368-.561-.3-.429.543-.2.846-.26-.319-1.121-1.232-1.212-.341-.055.54.58.964,1.2,1.185-1.978,1.223-3.884,2.535-5.7,3.879-2.288,1.69-4.57,3.468-6.8,5.324a1.565,1.565,0,0,0-.328-.738c-.737-.635-.708.315-.469.717a1.55,1.55,0,0,0-.853-.123,1.225,1.225,0,0,0,.9.768c-1.829,1.542-3.619,3.139-5.35,4.785a2.644,2.644,0,0,0-.641-1.545c-.863-.635-.768.636-.389,1.123-.569.046-1.206-.4-1.729-.144.258,1.087,1.259,1.152,2.119,1.177-1.889,1.827-3.7,3.714-5.4,5.658a54.6,54.6,0,0,0-5.188,6.718,39.448,39.448,0,0,0,4.591.718,58.348,58.348,0,0,0,20.789-1.821c13.85-3.862,28.318-13.657,35.419-26.38.72-1.29,1.474-2.678,2.231-4.142a25.86,25.86,0,0,0-4.354-1.807" transform="translate(-124.407 -87.145)" fill="#245b29"/>
        <path id="Trazado_883127" data-name="Trazado 883127" d="M316.778,150.113a30.683,30.683,0,0,0-12.943-3.987c-1.617-.131-8.512.077-9.216-2.627-.521.229-1.038.47-1.553.718-.2,2.444,4.264,4.366,6.069,4.793,5.183,1.227,10.574,1.967,15.209,4.445q1.3-1.628,2.434-3.343" transform="translate(-196.359 -96.149)" fill="#2e7036"/>
        <path id="Trazado_883128" data-name="Trazado 883128" d="M278.318,156.184c-.8-1.994-.249-3.459.323-5.113q-.447.253-.891.513a14.505,14.505,0,0,0-.762,2.373,8.23,8.23,0,0,0,.1,5.263c1.348,3.242,4.683,3.741,7.691,4.616,2.88.837,6.565,1.283,8.885,3.319a5.8,5.8,0,0,1,.436.428q1.235-.968,2.417-1.994c-2.281-1.806-6.1-2.423-8.368-3.118-3.47-1.062-8.346-2.584-9.826-6.289" transform="translate(-185.333 -101.223)" fill="#2e7036"/>
        <path id="Trazado_883129" data-name="Trazado 883129" d="M258.279,176.251a8.3,8.3,0,0,1-4.223-6.923,9.24,9.24,0,0,1,.293-2.765l-.094.068q-.9.666-1.8,1.35a16.155,16.155,0,0,0-.345,5.566c.412,3.618,2.946,5.395,6.194,6.625,3.212,1.217,6.678,1.738,9.919,2.906.344.124.7.268,1.053.432q1.517-.849,3-1.78c-4.211-2.576-9.875-2.833-13.993-5.479" transform="translate(-168.856 -111.603)" fill="#2e7036"/>
        <path id="Trazado_883130" data-name="Trazado 883130" d="M351.086,138.914c-1.58-.562-4.68-1.57-5.561-3.136a2.553,2.553,0,0,1-.188-1.663q-.571-.065-1.141-.106a2.529,2.529,0,0,0-.254.345,3.055,3.055,0,0,0,.975,4.307c1.943,1.4,4.7,1.951,7.216,2.475.015-.026.031-.052.046-.079.266-.476.537-.969.81-1.471-.687-.232-1.335-.471-1.9-.673" transform="translate(-230.111 -89.791)" fill="#2e7036"/>
        <path id="Trazado_883131" data-name="Trazado 883131" d="M234.216,201.049c-3.149-.726-6.891-1.887-9.237-4.248a5.8,5.8,0,0,1-1.389-2.854q-.466.424-.929.852c.141.609.351,1.24.378,1.591.157,2.057-.224,4.479,1.311,6.129,2.428,2.611,6.345,2.185,9.511,1.866,2.926-.295,6.543-.667,9.337.5.046.019.085.041.129.061q1.336-.571,2.66-1.207c-3.56-1.7-7.957-1.815-11.772-2.695" transform="translate(-149.191 -129.951)" fill="#2e7036"/>
        <path id="Trazado_883132" data-name="Trazado 883132" d="M218.5,224.65c-.1-.034-.2-.07-.3-.1-3.3-.973-6.895-.642-10.3-.951-3.521-.32-8.258-.923-10.219-4.079q-.661.762-1.312,1.544a3.507,3.507,0,0,0,.227.538,11.355,11.355,0,0,0,5.341,5.19,58.1,58.1,0,0,0,16.285-2.06c.093-.026.187-.055.28-.082" transform="translate(-131.57 -147.085)" fill="#2e7036"/>
        <rect id="Rectángulo_404290" data-name="Rectángulo 404290" width="13.19" height="0.458" transform="translate(89.948 39.897)" fill="#fff"/>
        <path id="Trazado_883133" data-name="Trazado 883133" d="M283.042,75.284,280.3,70.105l-4.888-1.628-6.241,1.773-2.6,5.032-.5-.257,2.713-5.246,6.64-1.886,5.264,1.753,2.85,5.376Z" transform="translate(-178.274 -45.49)" fill="#0b1c35"/>
        <path id="Trazado_883134" data-name="Trazado 883134" d="M282.09,71.253,277.4,69.626l-6.124,1.737-2.331,4.453,1.4,10.733h12.776l1.4-10.733Z" transform="translate(-180.199 -46.652)" fill="#0b7897"/>
        <path id="Trazado_883135" data-name="Trazado 883135" d="M272.6,80.729l1.457,13.036h.211L272.77,80.4Z" transform="translate(-182.648 -53.868)" fill="#093f61"/>
        <path id="Trazado_883136" data-name="Trazado 883136" d="M279.437,89.512h.21l-1.1-15.463-.206.059Z" transform="translate(-186.501 -49.616)" fill="#093f61"/>
        <path id="Trazado_883137" data-name="Trazado 883137" d="M285.989,88.237h.21l-.933-16.091-.207.058Z" transform="translate(-190.999 -48.34)" fill="#093f61"/>
        <path id="Trazado_883138" data-name="Trazado 883138" d="M291.847,87.017h.21c-.082-3.6-.3-13.146-.381-16.691l-.209.059c.081,3.585.3,13.025.38,16.632" transform="translate(-195.293 -47.121)" fill="#093f61"/>
        <path id="Trazado_883139" data-name="Trazado 883139" d="M298.58,87.481h.21V71.09l-.21-.073Z" transform="translate(-200.059 -47.584)" fill="#093f61"/>
        <path id="Trazado_883140" data-name="Trazado 883140" d="M303.968,89.007h.21l.39-15.64-.208-.072Z" transform="translate(-203.668 -49.11)" fill="#093f61"/>
        <path id="Trazado_883141" data-name="Trazado 883141" d="M308.775,93.249h.21l.871-13.271-.187-.352Z" transform="translate(-206.889 -53.352)" fill="#093f61"/>
        <path id="Trazado_883142" data-name="Trazado 883142" d="M284.23,75.673H268.657a.14.14,0,0,1-.124-.2l2.331-4.453a.14.14,0,0,1,.086-.07l6.124-1.737a.141.141,0,0,1,.084,0l4.693,1.626a.139.139,0,0,1,.078.067l2.425,4.564a.142.142,0,0,1,0,.138.14.14,0,0,1-.12.068m-15.342-.28H284l-2.29-4.31-4.6-1.594L271.084,71.2Z" transform="translate(-179.915 -46.368)" fill="#fff"/>
        <rect id="Rectángulo_404291" data-name="Rectángulo 404291" width="6.248" height="6.804" transform="translate(93.264 32.953)" fill="#0b1c35"/>
        <rect id="Rectángulo_404292" data-name="Rectángulo 404292" width="6.248" height="6.804" transform="translate(93.264 32.953)" fill="none" stroke="#fff" stroke-linecap="round" stroke-linejoin="round" stroke-width="0.848"/>
        <path id="Trazado_883143" data-name="Trazado 883143" d="M288.611,99.443h-6.248a.14.14,0,0,0-.14.14v6.8a.14.14,0,0,0,.14.14h6.248a.14.14,0,0,0,.14-.14v-6.8a.14.14,0,0,0-.14-.14m-3.264,3.183-2.666-2.9h2.666Zm.279-2.9h2.664l-2.664,2.878Zm-.343,3.248-2.781,3V99.942Zm.063.344v2.932h-2.715Zm.279.029,2.666,2.9h-2.666Zm.038-.373,2.806-3.032v6.088Z" transform="translate(-189.099 -66.63)" fill="#fff"/>
        <rect id="Rectángulo_404293" data-name="Rectángulo 404293" width="3.031" height="1.888" transform="translate(95.176 25.865)" fill="#0b1c35"/>
        <rect id="Rectángulo_404294" data-name="Rectángulo 404294" width="3.031" height="1.888" transform="translate(95.176 25.865)" fill="none" stroke="#fff" stroke-miterlimit="10" stroke-width="0.848"/>
        <path id="Trazado_883144" data-name="Trazado 883144" d="M288.018,80.131h3.311V77.964h-3.311Zm.28-1.887h1.308v1.608H288.3Zm2.751,1.608h-1.163V78.244h1.163Z" transform="translate(-192.982 -52.238)" fill="#fff"/>
        <path id="Trazado_883145" data-name="Trazado 883145" d="M219.313,43.533a3.184,3.184,0,1,1-3.185-3.185,3.185,3.185,0,0,1,3.185,3.185" transform="translate(-142.68 -27.034)" fill="#edb32e"/>
        <path id="Trazado_883146" data-name="Trazado 883146" d="M148.146,86.211c2.354-.187,7.161,4.095,8.041,10.882a84.758,84.758,0,0,1,.417,10.376,17.377,17.377,0,0,1,4.791,2.384c2.067,1.312,2.993,3.27,3.951,4.581a16.639,16.639,0,0,0,4.984,4.133,11.661,11.661,0,0,1-1.818,2.5s-9.933-2.031-12.827-3.865c-3.819-2.42-6.569-4.5-7.193-5.639-3.272-5.967-1.128-24.95-.347-25.346" transform="translate(-98.315 -57.76)" fill="#e65b00"/>
        <path id="Trazado_883147" data-name="Trazado 883147" d="M148.146,86.21c-.5.254-1.566,8.181-1.4,15.4l10.77-.081c0-11.752-7.021-15.5-9.375-15.318" transform="translate(-98.316 -57.759)" fill="#edb32e"/>
        <path id="Trazado_883148" data-name="Trazado 883148" d="M94.062,78.385a29.408,29.408,0,0,0-16.769-1.557,27.009,27.009,0,0,0-9.115,3.863s-1.544,10.381,1.514,18.117c0,0,1.259,6.026.18,10.883H98.564s4.5-24.555.9-27.973a18,18,0,0,0-5.4-3.332" transform="translate(-45.42 -51.106)" fill="#edb32e"/>
        <path id="Trazado_883149" data-name="Trazado 883149" d="M105.886,71c-1.231.451-1.417,1.538-1.314,2.8a37.851,37.851,0,0,0,1.566,5.506,36.877,36.877,0,0,0,3.707-1.362c1.359-.715,3.285.507,4.625.855a18.164,18.164,0,0,0-.495-3.913c-.208-.84-.587-3.22-1.706-3.9-1.43-.87-6.255-.357-6.384.016" transform="translate(-70.05 -47.24)" fill="#e08010"/>
        <path id="Trazado_883150" data-name="Trazado 883150" d="M73.464,96.186v.007c-.8-9.67-2.825-15.8-4.225-18.836l-.012,0a2.261,2.261,0,0,0-.459-.876c-.56-.581-1.219-.279-1.9-.544-.584-.227-1.3-.726-1.566.132v0c.249.089.452.11.595.284l1.472,8.761a1.889,1.889,0,0,1-1.818,2.2l-6.365.151a2.7,2.7,0,0,1-2.72-2.223l-1.749-9.8c-.049.006-.068-.646-.5-.687a7.962,7.962,0,0,0-1.4.165,5.374,5.374,0,0,0-2.337.634c-.542.33-.584.455-.625.974.209-.085.425-.144.635-.252a3.461,3.461,0,0,1,.273,1.035,43.222,43.222,0,0,1,.466,5.055c.088.95.054,1.911.143,2.859,0,.038,0,.075.006.112.062,3.616.154,7.427.291,10,.286,5.362-4.659,8.137-6.175,8.859,0,0-12.318,49.79-14.738,66.439H48.3l9.512-38.182-1.282,37.372H75.15v-68.8c-1.079-.665-1.686-4.847-1.686-4.847" transform="translate(-20.612 -50.084)" fill="#0b7897"/>
        <path id="Trazado_883151" data-name="Trazado 883151" d="M155.084,273.461a2.814,2.814,0,0,0-3.12.2c-1.677,1.343-2.013,4.426-1.876,6.383.165,2.361,1.136,6.717,4.157,6.855a3.233,3.233,0,0,0,.839-.068Z" transform="translate(-100.545 -182.972)" fill="#40bde3"/>
        <path id="Trazado_883152" data-name="Trazado 883152" d="M42.019,285.688c2.781.023,4.268-4.726,4.844-6.767.262-.93.92-6.751-.812-6.279-.43-.555-1.341-.5-2.241-.184-1,4.387-1.968,8.771-2.848,12.894a1.721,1.721,0,0,0,1.057.336" transform="translate(-27.446 -182.397)" fill="#40bde3"/>
        <path id="Trazado_883153" data-name="Trazado 883153" d="M99.809,136.979c-1.079-.665-1.686-4.847-1.686-4.847v.007q-.163-1.959-.388-3.723c-3.375-.03-16.439-.1-17.831.5-1.238.54-2.512,2.27-3.6,3.619-.464,4.546-4.75,6.945-6.143,7.609,0,0-1.049,4.239-2.594,10.657a24.608,24.608,0,0,0,3.5,1.647,22.571,22.571,0,0,0,9.788.777c4.36-.631,8.983-2.246,13.34-.745a56.382,56.382,0,0,0,5.616,2.14Z" transform="translate(-45.27 -86.03)" fill="#093f61"/>
        <path id="Trazado_883154" data-name="Trazado 883154" d="M135.394,78.728l-.022-.007c.027.031.033.061.022.007" transform="translate(-90.704 -52.746)" fill="#0b7897"/>
        <path id="Trazado_883155" data-name="Trazado 883155" d="M68.788,188.211c2.918-2.243,6.209-6.371,5.667-10.119" transform="translate(-46.09 -119.328)" fill="none" stroke="#40bde3" stroke-linecap="round" stroke-linejoin="round" stroke-width="1.536"/>
        <path id="Trazado_883156" data-name="Trazado 883156" d="M111.345,249.646h6.389l-7.077,20.081Z" transform="translate(-74.143 -167.271)" fill="#093f61"/>
        <line id="Línea_4364" data-name="Línea 4364" x2="20.11" transform="translate(9.746 115.7)" fill="none" stroke="#40bde3" stroke-linecap="round" stroke-linejoin="round" stroke-width="1.536"/>
        <line id="Línea_4365" data-name="Línea 4365" x2="17.842" transform="translate(34.84 115.565)" fill="none" stroke="#40bde3" stroke-linecap="round" stroke-linejoin="round" stroke-width="1.536"/>
        <path id="Trazado_883157" data-name="Trazado 883157" d="M121.262,219.79c1.425-1.651,1.706-4.813,1.913-6.9.258-2.591.425-5.135.425-7.738a17.553,17.553,0,0,0,2.071,0c0,.683.007,1.52-.022,2.156a22.1,22.1,0,0,1-.348,2.711,3.944,3.944,0,0,1-1.7,2.574" transform="translate(-81.25 -137.46)" fill="none" stroke="#40bde3" stroke-linecap="round" stroke-linejoin="round" stroke-width="1.536"/>
        <path id="Trazado_883158" data-name="Trazado 883158" d="M15.42,365.361l-.944,4.947-4.191,1.234a3.238,3.238,0,0,0-2.42,3.133V375.7H30.83l2.129-10.344Z" transform="translate(-5.269 -244.804)" fill="#edb32e"/>
        <path id="Trazado_883159" data-name="Trazado 883159" d="M7.982,390.984a3.231,3.231,0,0,0-.118.86v1.029H30.83l.293-1.889Z" transform="translate(-5.269 -261.972)" fill="#0b1c35"/>
        <path id="Trazado_883160" data-name="Trazado 883160" d="M27.967,368.632h4.859" transform="translate(-18.694 -246.996)" fill="none" stroke="#e08010" stroke-linecap="round" stroke-linejoin="round" stroke-width="1.536"/>
        <line id="Línea_4366" data-name="Línea 4366" x2="5.059" transform="translate(8.936 123.593)" fill="none" stroke="#e08010" stroke-linecap="round" stroke-linejoin="round" stroke-width="1.536"/>
        <path id="Trazado_883161" data-name="Trazado 883161" d="M25.855,380.148v-.067l5.464.315" transform="translate(-17.324 -254.667)" fill="none" stroke="#e08010" stroke-linecap="round" stroke-linejoin="round" stroke-width="1.536"/>
        <path id="Trazado_883162" data-name="Trazado 883162" d="M108.448,362.908l-.2,11.153h24.5V371.8c0-1.163-.28-2.083-2.1-2.488l-3.3-.623-.272-5.786Z" transform="translate(-72.528 -243.16)" fill="#edb32e"/>
        <path id="Trazado_883163" data-name="Trazado 883163" d="M108.271,390.984l-.026,1.889h24.5v-1.889Z" transform="translate(-72.528 -261.973)" fill="#0b1c35"/>
        <line id="Línea_4367" data-name="Línea 4367" x2="4.861" transform="translate(50.086 121.569)" fill="none" stroke="#e08010" stroke-linecap="round" stroke-linejoin="round" stroke-width="1.536"/>
        <line id="Línea_4368" data-name="Línea 4368" x2="5.008" transform="translate(49.951 123.458)" fill="none" stroke="#e08010" stroke-linecap="round" stroke-linejoin="round" stroke-width="1.536"/>
        <line id="Línea_4369" data-name="Línea 4369" x2="5.071" transform="translate(50.154 125.482)" fill="none" stroke="#e08010" stroke-linecap="round" stroke-linejoin="round" stroke-width="1.536"/>
        <path id="Trazado_883164" data-name="Trazado 883164" d="M112.766,34.858l-8.5,1.693-.9-4.5a4.078,4.078,0,0,1,3.2-4.8l.5-.1a4.078,4.078,0,0,1,4.8,3.2Z" transform="translate(-69.207 -18.14)" fill="#edb32e"/>
        <path id="Trazado_883165" data-name="Trazado 883165" d="M112.769,38.47l-.9-4.5a4.064,4.064,0,0,0-.632-1.5,25.363,25.363,0,0,0-5.647,1.067,16.239,16.239,0,0,0-2.273.858,4.07,4.07,0,0,0,.05,1.272l.9,4.5Z" transform="translate(-69.209 -21.752)" fill="#0b7897"/>
        <path id="Trazado_883166" data-name="Trazado 883166" d="M90.324,44.158a4.23,4.23,0,0,1-4.009-4.511c.172-1.273,1.842-1.792,2.912-2.285a13.481,13.481,0,0,1,4.152-1.127,42.529,42.529,0,0,0,5.974-.983c1.938-.5,3.739-1.231,5.794-.946,1.471.2,3.026,1,2.611,2.745a7.214,7.214,0,0,1-2.926,4.35A18.835,18.835,0,0,1,98.959,43.7a79.511,79.511,0,0,1-8.635.463" transform="translate(-57.816 -22.944)" fill="#edb32e"/>
        <path id="Trazado_883167" data-name="Trazado 883167" d="M109.033,58.561l-.774,6.762a1.98,1.98,0,0,0,.468,1.522c.64.739,2.215,3.036,4.4,2.868a6.964,6.964,0,0,0,1.394-3.823l-.674-7.331Z" transform="translate(-72.528 -39.238)" fill="#e65b00"/>
        <path id="Trazado_883168" data-name="Trazado 883168" d="M110.135,58.561l-.244,2.133a4.57,4.57,0,0,0,.171.679,7.093,7.093,0,0,0,.939,1.37,8.806,8.806,0,0,0,3.621,2.967c.315.136.644.295.982.431.007-.082.016-.162.017-.25l-.674-7.331Z" transform="translate(-73.631 -39.238)" fill="#b03c01"/>
        <path id="Trazado_883169" data-name="Trazado 883169" d="M112.2,49.078c-.227-.1-.465-.165-.7-.254a8.452,8.452,0,0,0-.679-2.9,27.907,27.907,0,0,0-7.273.875,6.865,6.865,0,0,0-.09,1.076c-.619-.54-1.43-.673-1.584.5a2.187,2.187,0,0,0,.753,1.935,1.562,1.562,0,0,0,1.193.255l.011.037c.81,3.913,4.478,5.183,6.637,3.9,1.741-1.033,1.141-2.912,1.062-4.757a1.729,1.729,0,0,0,.8-.437c.108-.163.016-.173-.134-.237" transform="translate(-68.247 -30.766)" fill="#e65b00"/>
        <path id="Trazado_883170" data-name="Trazado 883170" d="M106.7,48.638s.711.212,1.228,1.674a4,4,0,0,0,1.3-3.257c-.923.154-1.753.336-2.439.507a6.865,6.865,0,0,0-.09,1.076" transform="translate(-71.495 -31.528)" fill="#0b1c35"/>
        <path id="Trazado_883171" data-name="Trazado 883171" d="M176.623,121.126c-1.268-.783-2.643-.923-2.231-2.9.141-.676.55-1.252.267-1.955-.315-.783-1.23-1.345-1.65-2.088-1.035-1.833.928-3.214.377-5-.525-1.7-.248-2.785,1.414-3.692,2.472-1.349,6.163.37,6.074,3.42-.051,1.753-1.848,2.726-.93,4.524.441.864.766,1.4.19,2.3-.441.684-1.076,1.079-1.207,1.949-.158,1.055.454,2.661-.768,3.295-.488.253-1.064.012-1.537.15" transform="translate(-115.716 -70.371)" fill="#2e7036"/>
        <path id="Trazado_883172" data-name="Trazado 883172" d="M184.927,119.219c.022-.454-.463-1.294-.424-1.96.065-1.112,1-1.558,1.335-2.529.7-2.056-2.415-3.987-.155-5.915.791-.674,1.81-1.26,1.8-2.42,0-.865-.271-1.536.206-2.372.835-1.465,3.472-1.241,4.792-.545a4.358,4.358,0,0,1,1.908,3.937,10.032,10.032,0,0,1-.732,1.553c-.291.824.357,1.674.364,2.527.018,2.458-3.022,2.633-3.249,4.806-.094.895.426,1.986-.307,2.713a2.1,2.1,0,0,1-1.768.405c-.618-.044-1.384-.385-1.951-.2-.589.191-.9.556-1.821,0" transform="translate(-123.621 -68.97)" fill="#4b9b4d"/>
        <path id="Trazado_883173" data-name="Trazado 883173" d="M144.927,130.734c0,5.159-3.8,9.341-8.491,9.341s-8.492-4.182-8.492-9.341,3.8-9.341,8.492-9.341,8.491,4.182,8.491,9.341" transform="translate(-85.727 -81.337)" fill="#4b9b4d"/>
        <path id="Trazado_883174" data-name="Trazado 883174" d="M133.213,122.676c-.4.789-1.46,1.528-1.788,2.075-.351.585-.013,1.323-.365,1.952-.324.578-1.006.691-1.2,1.355-.213.717.038,1.294-.385,1.947a5.934,5.934,0,0,0-.86,1.975,9.3,9.3,0,0,0-.192.97,9.875,9.875,0,0,0,.972,2.866,5.279,5.279,0,0,0,.246-1.831,7.993,7.993,0,0,1-.052-2.429c.126-.635.514-.984.661-1.55s-.062-1.192.236-1.724c.455-.813,1.623-.629,1.911-1.635.126-.441-.1-.858.011-1.282.138-.516.608-.692,1.042-.974a2.809,2.809,0,0,0,1.268-1.827,3.058,3.058,0,0,1,.24-.528,7.894,7.894,0,0,0-1.741.639" transform="translate(-86.045 -81.769)" fill="#2e7036"/>
        <path id="Trazado_883175" data-name="Trazado 883175" d="M143.043,121.393c-.175,0-.347.008-.519.019a38.4,38.4,0,0,1-1.057,3.7,6.647,6.647,0,0,0-.968,3.852c.027,1.462-.85,1.476-1.53,2.766-.726,1.378.4,1.8.345,3.09s-1.523,1.723-1.509,3.12c0,.049.009.1.013.151a8.348,8.348,0,0,0,1.988,1.276l.028-.147c.214-1.109.974-2.472.789-3.578-.145-.868-.884-1.352-.929-2.282-.053-1.114.551-1.21,1.091-2.1.64-1.06-.2-1.98.365-3.066.265-.509.925-.707,1.254-1.148.707-.944.386-1.665.368-2.745-.021-1.264.727-1.911,1.159-2.857a7.835,7.835,0,0,0-.889-.051" transform="translate(-92.334 -81.337)" fill="#2e7036"/>
        <path id="Trazado_883176" data-name="Trazado 883176" d="M155.864,122.348a7.806,7.806,0,0,0-.914-.282,2.673,2.673,0,0,1-.234,1.144c-.639,1.174-.025,1.713-.148,2.937-.1,1.035-1.019,1.543-1.067,2.646-.047,1.08.667,1.663.053,2.7-.351.593-.848,1.154-.693,1.908a5.2,5.2,0,0,0,.977,1.615,7.627,7.627,0,0,1,.665,1.31c.343.764.98,1.438,1.312,2.2a4.285,4.285,0,0,1,.287,1.4,7.982,7.982,0,0,0,.793-.381,4.682,4.682,0,0,0-.509-2.02c-.874-1.334-2.523-2.415-2.294-4.267.086-.7.6-.884.968-1.419a1.929,1.929,0,0,0,.231-1.967c-.183-.48-.419-.631-.192-1.126.27-.586,1.016-.831,1.254-1.491.428-1.19-.425-1.675-.983-2.5-.462-.682.173-1.174.4-1.947a3.638,3.638,0,0,0,.1-.462" transform="translate(-102.403 -81.788)" fill="#2e7036"/>
        <path id="Trazado_883177" data-name="Trazado 883177" d="M169.927,139.293c-.105-.24-.225-.48-.364-.729a2.124,2.124,0,0,1-.4-1.225c.026-.967.636-1.823.694-2.818a22.064,22.064,0,0,0-.421-2.361,5.178,5.178,0,0,0-.152-1.788c-.4-1.1-1.457-1.515-1.333-2.855a4.289,4.289,0,0,1,.312-1.084q-.277-.237-.571-.448a9.827,9.827,0,0,1-.007,1.385,3.7,3.7,0,0,0,.74,2.713c.628.917.071,1.782.063,2.788-.006.81.511,1.43.477,2.289a4.779,4.779,0,0,1-.412,1.679,12.12,12.12,0,0,0-.776,1.537c-.2.879.761,1.4.837,2.3a1.522,1.522,0,0,1,0,.19,9.113,9.113,0,0,0,1.316-1.577" transform="translate(-112.345 -84.414)" fill="#2e7036"/>
        <path id="Trazado_883178" data-name="Trazado 883178" d="M168.205,124.5c.059-.724,1.158-1.231,1.414-1.924a4.035,4.035,0,0,0,.138-1.394c-.009-.353-.252-1.131-.081-1.416a1.488,1.488,0,0,1,1.183-.4c.384.183.3.675.263,1.015-.08.8-.6,1.809-.109,2.554.309.468,2.274,1.567.967,1.567Z" transform="translate(-112.703 -79.962)" fill="#245b29"/>
        <path id="Trazado_883179" data-name="Trazado 883179" d="M147.823,147.017h-.818a3.506,3.506,0,0,1-3.5-3.5v-6.832a3.506,3.506,0,0,1,3.5-3.5h.818a3.506,3.506,0,0,1,3.5,3.5v6.832a3.506,3.506,0,0,1-3.5,3.5" transform="translate(-96.156 -89.244)" fill="#e65b00"/>
        <path id="Trazado_883180" data-name="Trazado 883180" d="M185.011,147.017h-.818a3.506,3.506,0,0,1-3.5-3.5v-6.832a3.506,3.506,0,0,1,3.5-3.5h.818a3.506,3.506,0,0,1,3.5,3.5v6.832a3.506,3.506,0,0,1-3.5,3.5" transform="translate(-121.074 -89.244)" fill="#e65b00"/>
        <path id="Trazado_883181" data-name="Trazado 883181" d="M156.275,147.017h-.818a3.506,3.506,0,0,1-3.5-3.5v-6.832a3.506,3.506,0,0,1,3.5-3.5h.818a3.506,3.506,0,0,1,3.5,3.5v6.832a3.506,3.506,0,0,1-3.5,3.5" transform="translate(-101.82 -89.244)" fill="#e08010"/>
        <path id="Trazado_883182" data-name="Trazado 883182" d="M177.933,147.017h-.818a3.506,3.506,0,0,1-3.5-3.5v-6.832a3.506,3.506,0,0,1,3.5-3.5h.818a3.506,3.506,0,0,1,3.5,3.5v6.832a3.506,3.506,0,0,1-3.5,3.5" transform="translate(-116.331 -89.244)" fill="#e08010"/>
        <path id="Trazado_883183" data-name="Trazado 883183" d="M167.117,147.017h-.1a3.187,3.187,0,0,1-3.178-3.178v-7.468a3.187,3.187,0,0,1,3.178-3.177h.1a3.187,3.187,0,0,1,3.178,3.177v7.468a3.187,3.187,0,0,1-3.178,3.178" transform="translate(-109.78 -89.244)" fill="#edb32e"/>
        <path id="Trazado_883184" data-name="Trazado 883184" d="M113.965,129.515c-2.852.364-.749,7.064-.417,8.6.25,1.159.614,2.293.948,3.431a7.194,7.194,0,0,0,1.049,2.8,1.363,1.363,0,0,0,2.361-.411c1.107-2.686.635-6.437.444-9.262-.1-1.485-.416-3.576-1.472-4.735a2.25,2.25,0,0,0-2.913-.419" transform="translate(-75.372 -86.539)" fill="#e08010"/>
        <path id="Trazado_883185" data-name="Trazado 883185" d="M115.691,141.57a27.788,27.788,0,0,1-.485-6.85c.008-1.189-.648-2.08-.76-3.259a7.837,7.837,0,0,1,.093-2.019,2.325,2.325,0,0,0-.574.265c-2.852.364-.749,7.064-.417,8.6.25,1.159.614,2.294.948,3.431a7.2,7.2,0,0,0,1.049,2.8,1.363,1.363,0,0,0,2.361-.411c.081-.2.15-.4.215-.6-1.131.482-2.021-.364-2.43-1.949" transform="translate(-75.372 -86.73)" fill="#e65b00"/>
        <path id="Trazado_883186" data-name="Trazado 883186" d="M108.434,114.839a9,9,0,0,0-.71-1.1,12.222,12.222,0,0,1-1.77-3.172c-.355-.894-.693-1.759-.965-2.684a4.005,4.005,0,0,0-.276-.783,1.16,1.16,0,0,1,.789-.182c.673,1.451.944,3.495,2.156,4.62-.43-1.494-.945-3.114-1.425-4.581a7.477,7.477,0,0,0,.735-.277c1.3,1.464,1.171,3.968,1.922,5.7-.051-1.471-.545-2.938-.669-4.412-.04-.473-.327-1.2-.011-1.393,1.31-.8,1.441,3.939,1.48,4.493.034.483.6,5.317-1.256,3.771" transform="translate(-70.161 -71.348)" fill="#4b9b4d"/>
        <path id="Trazado_883187" data-name="Trazado 883187" d="M121.649,128.256c-.933-.2-1.629,1.777-1.788,2.477a21.256,21.256,0,0,0,.206,8.463c.281,1.52.573,3.83,1.708,5.017.955,1,1.537-.6,1.828-1.387a27.662,27.662,0,0,0,1.771-8.592c.066-1.839,0-3.482-1.221-4.944-.5-.6-1.412-1.678-2.5-1.033" transform="translate(-80.08 -85.803)" fill="#e08010"/>
        <path id="Trazado_883188" data-name="Trazado 883188" d="M124.152,129.29c-.5-.6-1.412-1.678-2.5-1.033-.933-.2-1.629,1.777-1.788,2.477a21.262,21.262,0,0,0,.206,8.463c.281,1.52.573,3.83,1.708,5.017.419.438.766.376,1.048.1-.586-.637-.433-1.916-.454-2.656-.029-.98-1.064-2.112-.769-3,.226-.68.649-.855.574-1.68-.112-1.227-.7-2.414-.927-3.613-.2-1.094-.63-3.486,1.014-3.267.7.093,1.774.277,2.337-.185a5.012,5.012,0,0,0-.444-.621" transform="translate(-80.079 -85.803)" fill="#e65b00"/>
        <path id="Trazado_883189" data-name="Trazado 883189" d="M127.8,115.342c-.069-1.415.075-2.839.062-4.264a9.971,9.971,0,0,1,.158-2.7,2.331,2.331,0,0,1,.977-.113,20.32,20.32,0,0,0-.273,4.37c.627-1.4.567-3.018,1.113-4.39,1.049.39.9.53.714,1.747a13.079,13.079,0,0,1-1.087,3.685,9.379,9.379,0,0,1-.94,1.994c-.318.352-.832.3-.724-.325" transform="translate(-85.614 -72.525)" fill="#2e7036"/>
        <rect id="Rectángulo_404295" data-name="Rectángulo 404295" width="3.598" height="17.896" transform="translate(34.655 44.665)" fill="#5b2d1e"/>
        <rect id="Rectángulo_404296" data-name="Rectángulo 404296" width="3.598" height="17.896" transform="translate(48.416 44.665)" fill="#5b2d1e"/>
        <rect id="Rectángulo_404297" data-name="Rectángulo 404297" width="3.598" height="17.896" transform="translate(67.395 44.665)" fill="#5b2d1e"/>
        <rect id="Rectángulo_404298" data-name="Rectángulo 404298" width="36.338" height="4.789" transform="translate(34.655 44.665)" fill="#724235"/>
        <rect id="Rectángulo_404299" data-name="Rectángulo 404299" width="17.269" height="4.789" transform="translate(34.655 44.665)" fill="#5b2d1e"/>
        <rect id="Rectángulo_404300" data-name="Rectángulo 404300" width="36.338" height="4.789" transform="translate(34.655 51.219)" fill="#724235"/>
        <rect id="Rectángulo_404301" data-name="Rectángulo 404301" width="17.269" height="4.789" transform="translate(34.655 51.219)" fill="#5b2d1e"/>
        <rect id="Rectángulo_404302" data-name="Rectángulo 404302" width="36.338" height="4.789" transform="translate(34.655 57.773)" fill="#724235"/>
        <rect id="Rectángulo_404303" data-name="Rectángulo 404303" width="17.269" height="4.789" transform="translate(34.655 57.773)" fill="#5b2d1e"/>
        <path id="Trazado_883190" data-name="Trazado 883190" d="M171.894,98.259c-.5-.312-.395-1.3-.041-1.786a2.418,2.418,0,0,1,1.311-.834c.111.533.374,1.039.134,1.582-.277.627-.948.757-1.4,1.038" transform="translate(-114.945 -64.081)" fill="#245b29"/>
        <path id="Trazado_883191" data-name="Trazado 883191" d="M153.725,108.012c-.342.484-1.324.315-1.785-.066a2.419,2.419,0,0,1-.754-1.359c.539-.079,1.06-.311,1.588-.039.609.314.7.992.951,1.464" transform="translate(-101.3 -71.304)" fill="#245b29"/>
        <path id="Trazado_883192" data-name="Trazado 883192" d="M220.116,147.747a1.425,1.425,0,0,1-1.744-.831,2.789,2.789,0,0,1,.064-1.789c.579.243,1.23.323,1.589.905.414.672.121,1.1.09,1.715" transform="translate(-146.235 -97.24)" fill="#245b29"/>
        <path id="Trazado_883193" data-name="Trazado 883193" d="M98.943,128.905c.537-1.2-.657-3.2-2.062-3.051a5.3,5.3,0,0,0-.1,1.163,1.644,1.644,0,0,0,.564,1.056,1.8,1.8,0,0,0,.739.618c.255.1.528.08.856.214" transform="translate(-64.846 -84.321)" fill="#4b9b4d"/>
        <path id="Trazado_883194" data-name="Trazado 883194" d="M216.838,127.412a2.98,2.98,0,0,1,2.427-2.77c.345,1.667-.608,3.076-2.427,2.77" transform="translate(-145.289 -83.514)" fill="#4b9b4d"/>
        <path id="Trazado_883195" data-name="Trazado 883195" d="M145.422,145.733c.178-.069.273-.372.318-.531a2.441,2.441,0,0,0-.065-1.661,1.692,1.692,0,0,0-1.269-.921,2.383,2.383,0,0,0,.959,3.112c-.016.016-.007.027.057,0" transform="translate(-96.586 -95.56)" fill="#4b9b4d"/>
        <path id="Trazado_883196" data-name="Trazado 883196" d="M199.324,155.071c.183.054.443-.127.576-.226a2.438,2.438,0,0,0,.963-1.355,1.692,1.692,0,0,0-.441-1.5,2.383,2.383,0,0,0-1.143,3.049c-.022,0-.022.017.045.036" transform="translate(-133.395 -101.836)" fill="#2e7036"/>
        <path id="Trazado_883197" data-name="Trazado 883197" d="M59.589,88.283c-3.346,1.647-5.658,8.456-5.532,11.762.472,12.321,5.36,19.438,5.36,19.438,2.9,3.37,8.793,4.142,12.891,4.692a47.222,47.222,0,0,0,8.2.273,15.01,15.01,0,0,0,4.428-.581,16.513,16.513,0,0,1-1.082-3.587c-2.731.131-5.474-2.291-7.67-3.667-2.769-1.734-5.922-3.75-9.171-4.247.742-4.52-.421-14.155-1.485-17.984-.544-1.957-1.426-4.118-3.129-5.256-.673-.45-2.209-1.3-2.807-.843" transform="translate(-36.217 -59.065)" fill="#e65b00"/>
        <path id="Trazado_883198" data-name="Trazado 883198" d="M67.115,105.2a63.06,63.06,0,0,0-1.589-10.815c-.544-1.957-1.426-4.117-3.129-5.255-.673-.45-2.209-1.3-2.807-.843-3.346,1.647-5.658,8.456-5.532,11.762a46.2,46.2,0,0,0,1.55,10.326A122.982,122.982,0,0,1,67.115,105.2" transform="translate(-36.217 -59.065)" fill="#b03c01"/>
        <path id="Trazado_883199" data-name="Trazado 883199" d="M85.021,162.8a5.646,5.646,0,0,1,3.177-2.089" transform="translate(-56.967 -107.684)" fill="none" stroke="#b03c01" stroke-linecap="round" stroke-linejoin="round" stroke-width="1.536"/>
        <path id="Trazado_883200" data-name="Trazado 883200" d="M65.526,94.38c-.544-1.957-1.426-4.118-3.129-5.255-.673-.45-2.209-1.3-2.807-.843-3.346,1.648-5.658,8.456-5.532,11.762a46.952,46.952,0,0,0,.992,8.016l12.067-2.843a63.082,63.082,0,0,0-1.59-10.837" transform="translate(-36.217 -59.065)" fill="#edb32e"/>
        <path id="Trazado_883201" data-name="Trazado 883201" d="M53.387,131.816c.494-.3,9.9-2.411,10.794-2.519" transform="translate(-35.771 -86.633)" fill="none" stroke="#e08010" stroke-linecap="round" stroke-linejoin="round" stroke-width="1.536"/>
        <path id="Trazado_883202" data-name="Trazado 883202" d="M142.8,184.058c-1.277.03-1.762-2.115-1.616-3.166.187-1.35,1.021-1.321,2.076-1.682.547-.187.773-.611,1.247-.859.454-.238,1.068-.02,1.585-.08.447-.052,1.087-.834,1.422-.711.463.17.118,1.021-.069,1.265-.288.376-.8.514-1.15.823a1.514,1.514,0,0,0-.656,1.054.287.287,0,0,0,.326.316,5.752,5.752,0,0,0,1.582-.327c.41-.188.762-.177,1-.839a1.836,1.836,0,0,1,.933-1.2c1.661-.455-.144,2.09-.319,2.417,1.171-.444,1.172-1.04,1.981-.984,1.3.09.585.809.016,1.189.773-.078,1.356.453.013,1.081-1.518.711-2.583,2.226-2.925,2.372-1.627.694-3.176-.661-5.447-.671" transform="translate(-94.582 -118.962)" fill="#edb32e"/>
        <path id="Trazado_883203" data-name="Trazado 883203" d="M160.942,187.36c-.423.517-1.09.821-1.574,1.316a9.465,9.465,0,0,1-1.034.887" transform="translate(-106.089 -125.537)" fill="none" stroke="#e08010" stroke-linecap="round" stroke-linejoin="round" stroke-width="1.536"/>
        <path id="Trazado_883204" data-name="Trazado 883204" d="M204.125,181.916c-.47,0-.825-.035-1.2-.053a3.854,3.854,0,0,1-1.271-.379,2.4,2.4,0,0,1-1.429-1.324c-.128-.461-.681-1.146-.14-1.424.118-.044.1-.113.253-.13a3.009,3.009,0,0,1-.7-1.106c-.113-.316-.251-1.473.419-.9-.481-.875-.146-2.045.864-1.08-.081-.17,0-.244.017-.408,1.048-.11,1.934.892,2.806,1.153a2.214,2.214,0,0,0-.31-.628c-.2-.27-.806-.686-.75-1.095.1-.734,1.147.029,1.492.227a2.311,2.311,0,0,1,1.411,1.823,12.05,12.05,0,0,1,.653,2.878c-.071,1.255-1.032,1.816-2.117,2.447" transform="translate(-133.702 -116.739)" fill="#edb32e"/>
        <path id="Trazado_883205" data-name="Trazado 883205" d="M201.4,187.223c.583.623,1.035.691,1.713,1.351" transform="translate(-134.947 -125.446)" fill="none" stroke="#e08010" stroke-linecap="round" stroke-linejoin="round" stroke-width="1.536"/>
        <path id="Trazado_883206" data-name="Trazado 883206" d="M199.768,180.409a6.792,6.792,0,0,1,1.135,1.02c.444.4,1.441,1.294,1.856,1.725" transform="translate(-133.851 -120.88)" fill="none" stroke="#e08010" stroke-linecap="round" stroke-linejoin="round" stroke-width="1.536"/>
        <path id="Trazado_883207" data-name="Trazado 883207" d="M202.9,177.819c.83.645,2.081,1.759,2.833,2.5" transform="translate(-135.951 -119.145)" fill="none" stroke="#e08010" stroke-linecap="round" stroke-linejoin="round" stroke-width="1.536"/>
        <line id="Línea_4370" data-name="Línea 4370" x2="76.494" transform="translate(0.304 130.901)" fill="none" stroke="#4b9b4d" stroke-linecap="round" stroke-linejoin="round" stroke-width="1.84"/>
        <path id="Trazado_883208" data-name="Trazado 883208" d="M361.268,45.055l8,3.344,1.771-4.235a4.077,4.077,0,0,0-2.189-5.335l-.473-.2a4.078,4.078,0,0,0-5.336,2.189Z" transform="translate(-242.062 -25.672)" fill="#edb32e"/>
        <path id="Trazado_883209" data-name="Trazado 883209" d="M361.268,47.405l1.771-4.235a4.066,4.066,0,0,1,.917-1.349,25.364,25.364,0,0,1,5.323,2.165,16.241,16.241,0,0,1,2.058,1.291,4.068,4.068,0,0,1-.3,1.237l-1.771,4.235Z" transform="translate(-242.062 -28.021)" fill="#0b7897"/>
        <path id="Trazado_883210" data-name="Trazado 883210" d="M341.429,52.587a6.46,6.46,0,0,1-2.171-5.794c.219-1.424.705-2.721,2.145-3.239a9.043,9.043,0,0,1,4.72-.246,30.313,30.313,0,0,1,6.6,2.226,20.946,20.946,0,0,1,6.892,4.5c1.077,1.122,3.259,3.479,2.768,5.209-.5,1.758-2.639,2.551-4.158,2.861-2.557.522-8.941-1.6-9.768-1.856a32.363,32.363,0,0,1-7.032-3.66" transform="translate(-227.268 -28.887)" fill="#edb32e"/>
        <path id="Trazado_883211" data-name="Trazado 883211" d="M371.023,72.98a1.535,1.535,0,0,0,1.648-1.04,3.323,3.323,0,0,0,.324-.78c.334-1.571-1.326-2.058-2.6-2.191-.63-.066-1.8.138-2.125-.581-.193-.427.069-.8.061-1.226-.019-1.037-1.221-1.469-2.072-1.543-.709-.062-1.6,0-2.081-.639-.9-1.2,1.381-1.384,1.09-2.6a5.044,5.044,0,0,0-1.063-1.635,12.582,12.582,0,0,0-4.343-3.7,11.4,11.4,0,0,0-3.747-1.484c-.536-.063-2.233-.079-2.729-.056a3.535,3.535,0,0,0-1.325.209c-.784.5.631,1.051.619,1.528s-.829.689-1.183.728c-.643.071-1.792-.065-2.186.594-.633,1.06.429,2.826,1.174,3.561.321.316,1.114.672,1.115,1.205,0,.489-.755.98-1.073,1.308a3.739,3.739,0,0,0-1.327,2.014,4.194,4.194,0,0,0,1.033,3.155,2.276,2.276,0,0,0,1.636.909,8.911,8.911,0,0,1,2.075-.069c.4.049,1.152.235,1.326.649.135.321-.015.529-.153.794a.95.95,0,0,0,.116,1.088c.852,1.168,2.707,1.577,4.04,1.7.876.078,4.941.633,4.593-1.124-.1-.49-.546-1.446.451-1.261a4.577,4.577,0,0,1,1.288.653,14.8,14.8,0,0,0,2.4,1.184c.532.193,2.325.716,2.719.035.225-.389-.3-.686-.488-.965-.367-.551.248-.534.656-.448-.017.031.147-.01.138.027" transform="translate(-233.917 -37.186)" fill="#0b1c35"/>
        <path id="Trazado_883212" data-name="Trazado 883212" d="M364.333,80.329l1.889-11.45h4.587l.879,11.008Z" transform="translate(-244.115 -46.151)" fill="#e65b00"/>
        <path id="Trazado_883213" data-name="Trazado 883213" d="M371.881,70.14a6.539,6.539,0,0,0,.145-.859l-.032-.4h-4.587L366.1,76.792a7.326,7.326,0,0,0,1.224-.715,17.7,17.7,0,0,0,2.255-1.721,7.945,7.945,0,0,0,2.3-4.216" transform="translate(-245.3 -46.151)" fill="#b03c01"/>
        <path id="Trazado_883214" data-name="Trazado 883214" d="M366.181,58.365a4.592,4.592,0,0,1-2.427-1.729,4.955,4.955,0,0,1-.488-1.081,22.973,22.973,0,0,0-2.335-.063,8.434,8.434,0,0,0-.679,2.9l-.029.927c-.09,1.13-1.405,3.028,1.062,4.757,2.056,1.441,5.827.011,6.637-3.9,0,0-.089.376-.083.355.4.1.772-.256.959-.624a14.876,14.876,0,0,0-2.615-1.54" transform="translate(-241.073 -37.178)" fill="#e65b00"/>
        <path id="Trazado_883215" data-name="Trazado 883215" d="M316.122,103.3a4.117,4.117,0,0,0-4,3.554l.038,19.368s-11.081,10.888-12.681,12.452a.907.907,0,0,0-.194.188c-1.51,1.266-1.379,3.373-1.988,5.117-.227.648-.917,1.486-.144,2.029.263.185.656.225.9.449a1.824,1.824,0,0,1,.422.86c.148.488.136.8.675.945.4.106.72.17.968-.2.164-.247.12-.692.407-.873a3.923,3.923,0,0,1,1.346-.183c.994-.044,1.284-.326,1.147-1.281-.123-.859.048-1.75-.09-2.586-.058-.356-.311-.695-.315-1.034,0-.312.238-.532.387-.776L317.73,130.3a3.373,3.373,0,0,0,1.137-2.439l.809-20.835a3.851,3.851,0,0,0-3.554-3.729" transform="translate(-198.864 -69.211)" fill="#e65b00"/>
        <path id="Trazado_883216" data-name="Trazado 883216" d="M347.243,103.3a4.117,4.117,0,0,0-4,3.554l.025,12.757a63.83,63.83,0,0,1,7.009.793l.519-13.375a3.851,3.851,0,0,0-3.554-3.729" transform="translate(-229.985 -69.211)" fill="#b03c01"/>
        <path id="Trazado_883217" data-name="Trazado 883217" d="M346.477,101.631a4.261,4.261,0,0,0-4.139,3.679l-.255,12.51h7.874l.2-12.329a3.987,3.987,0,0,0-3.679-3.86" transform="translate(-229.207 -68.096)" fill="#edb32e"/>
        <path id="Trazado_883218" data-name="Trazado 883218" d="M341.606,172.776c.354-.377,1.182-.148,1.417.067" transform="translate(-228.887 -115.631)" fill="none" stroke="#b03c01" stroke-linecap="round" stroke-linejoin="round" stroke-width="1.536"/>
        <path id="Trazado_883219" data-name="Trazado 883219" d="M308.282,232.261a15.922,15.922,0,0,0,.622-2.42,1.125,1.125,0,0,1,.592.4" transform="translate(-206.559 -154.001)" fill="none" stroke="#b03c01" stroke-linecap="round" stroke-linejoin="round" stroke-width="1.536"/>
        <path id="Trazado_883220" data-name="Trazado 883220" d="M342.212,96.513a20.519,20.519,0,0,1,17.011,1.558s3.636,2.458,3.231,5.36-5.922,13.842-5.929,21.8l-17.817-.163s3.509-6.319-.851-9.369a8.081,8.081,0,0,1-2.473-2.535,5.679,5.679,0,0,1-.318-5.908c1.709-2.8,2.818-4.143,3.273-6.42a5.758,5.758,0,0,1,3.873-4.32" transform="translate(-224.034 -63.893)" fill="#edb32e"/>
        <path id="Trazado_883221" data-name="Trazado 883221" d="M365.349,154.523c0-4.872,2.075-10.862,3.773-15.441-.086.13-.167.252-.239.358-1.984,2.922-3.958,5.585-7.177,7.151-2.819,1.371-5.975,1.57-9.046,1.723-1.149.057-2.485.313-3.821.484a11.226,11.226,0,0,1-1.307,5.561Z" transform="translate(-232.858 -93.19)" fill="#e08010"/>
        <path id="Trazado_883222" data-name="Trazado 883222" d="M354.691,96.368c-.44.868-.917,2-1.15,2.449a10.342,10.342,0,0,0-1.237,3.734c-.34,3.056,3.152,2.76,5.821,3.019,3.207.31,5.536-.359,7.191-3.3a16.676,16.676,0,0,0,2.509-5.783,20.95,20.95,0,0,0-13.134-.115" transform="translate(-236.04 -63.897)" fill="#e65b00"/>
        <path id="Trazado_883223" data-name="Trazado 883223" d="M312.244,180.161s-7.27,15.7-11.89,29.752a189.033,189.033,0,0,0-6.656,28.029h9.354l15.049-35.8s.477,6.646,1.68,18.709,2.03,17.09,2.03,17.09H331.5s-2.219-24.105,1.043-35.978c2.175-7.915,2.819-15.28-3.155-21.64Z" transform="translate(-196.787 -120.714)" fill="#0b7897"/>
        <path id="Trazado_883224" data-name="Trazado 883224" d="M306.717,274.49c-1.11,3.5-2.061,6.964-2.861,10.182a6.82,6.82,0,0,0,5.291-4.592,5.151,5.151,0,0,0-2.431-5.591" transform="translate(-203.594 -183.917)" fill="#40bde3"/>
        <path id="Trazado_883225" data-name="Trazado 883225" d="M374.156,285.728c-.47-1.205-1.946-3.314-3.471-3.616q.292,3.134.681,7.052c.108,1.077.212,2.1.313,3.063a1.682,1.682,0,0,0,1.039-.007c2.25-.664,2.1-4.8,1.438-6.491" transform="translate(-248.371 -189.024)" fill="#40bde3"/>
        <path id="Trazado_883226" data-name="Trazado 883226" d="M359.625,212.947c-1.358-5.469-2.452-11.034-3.913-16.865" transform="translate(-238.339 -131.381)" fill="none" stroke="#40bde3" stroke-linecap="round" stroke-linejoin="round" stroke-width="1.536"/>
        <path id="Trazado_883227" data-name="Trazado 883227" d="M397.816,190.358c-.073,2.742.514,6.41,3.44,7.421" transform="translate(-266.546 -127.546)" fill="none" stroke="#40bde3" stroke-linecap="round" stroke-linejoin="round" stroke-width="1.536"/>
        <line id="Línea_4371" data-name="Línea 4371" x2="11.468" transform="translate(97.135 113.136)" fill="none" stroke="#40bde3" stroke-linecap="round" stroke-linejoin="round" stroke-width="1.536"/>
        <line id="Línea_4372" data-name="Línea 4372" x2="10.304" transform="translate(124.119 113.406)" fill="none" stroke="#40bde3" stroke-linecap="round" stroke-linejoin="round" stroke-width="1.536"/>
        <path id="Trazado_883228" data-name="Trazado 883228" d="M369.3,355.275l1.727,9.359-4.9,1.192a2.158,2.158,0,0,0-1.615,1.721l.022,1.4h14.779l-.365-13.672Z" transform="translate(-244.231 -238.046)" fill="#edb32e"/>
        <path id="Trazado_883229" data-name="Trazado 883229" d="M364.529,393.969h14.779l-.036-1.349H364.507Z" transform="translate(-244.232 -263.068)" fill="#0b1c35"/>
        <path id="Trazado_883230" data-name="Trazado 883230" d="M274.52,355.275l-2.284,8.553a1.24,1.24,0,0,1-.905.885l-4.477,1.088a2.159,2.159,0,0,0-1.636,1.86l-.143,1.286h14.863l3.935-13.672Z" transform="translate(-177.61 -238.046)" fill="#edb32e"/>
        <path id="Trazado_883231" data-name="Trazado 883231" d="M265.231,392.62c0,.021-.01.042-.012.064l-.143,1.286H279.94l.388-1.349Z" transform="translate(-177.61 -263.068)" fill="#0b1c35"/>
        <line id="Línea_4373" data-name="Línea 4373" x2="4.393" transform="translate(95.584 118.736)" fill="none" stroke="#e08010" stroke-linecap="round" stroke-linejoin="round" stroke-width="1.536"/>
        <path id="Trazado_883232" data-name="Trazado 883232" d="M287.837,367.473v-.067h4.592" transform="translate(-192.861 -246.174)" fill="none" stroke="#e08010" stroke-linecap="round" stroke-linejoin="round" stroke-width="1.536"/>
        <line id="Línea_4374" data-name="Línea 4374" x2="4.183" transform="translate(94.505 123.795)" fill="none" stroke="#e08010" stroke-linecap="round" stroke-linejoin="round" stroke-width="1.536"/>
        <line id="Línea_4375" data-name="Línea 4375" x2="3.86" transform="translate(94.032 125.954)" fill="none" stroke="#e08010" stroke-linecap="round" stroke-linejoin="round" stroke-width="1.536"/>
        <line id="Línea_4376" data-name="Línea 4376" x2="4.465" transform="translate(124.794 118.331)" fill="none" stroke="#e08010" stroke-linecap="round" stroke-linejoin="round" stroke-width="1.536"/>
        <line id="Línea_4377" data-name="Línea 4377" x2="3.98" transform="translate(124.929 120.49)" fill="none" stroke="#e08010" stroke-linecap="round" stroke-linejoin="round" stroke-width="1.536"/>
        <path id="Trazado_883233" data-name="Trazado 883233" d="M379.836,373.334v.068h3.982" transform="translate(-254.503 -250.146)" fill="none" stroke="#e08010" stroke-linecap="round" stroke-linejoin="round" stroke-width="1.536"/>
        <line id="Línea_4378" data-name="Línea 4378" x2="3.308" transform="translate(125.941 125.886)" fill="none" stroke="#e08010" stroke-linecap="round" stroke-linejoin="round" stroke-width="1.536"/>
        <path id="Trazado_883234" data-name="Trazado 883234" d="M369.077,106.567a4.117,4.117,0,0,0-4,3.554l.038,19.368-12.272,11.791-.022-.005a6.706,6.706,0,0,0-1.339,1.935,8.774,8.774,0,0,1-1.156,2.081,1.994,1.994,0,0,0-.631,2.046,12.629,12.629,0,0,1,.136,1.413c0,.379-.186.713-.035,1.047.11.243.713.122.819.347.2.439.025,1.034.192,1.476a.81.81,0,0,0,.847.537c.531-.033.48-.36.543-.832.12-.9.19-1.333,1.062-1.518.856-.181,2.61-.147,2.9-1.146.369-1.262-.3-2.629-.367-3.95l14.89-11.142a3.373,3.373,0,0,0,1.137-2.439l.809-20.835a3.851,3.851,0,0,0-3.554-3.729" transform="translate(-234.279 -71.403)" fill="#e65b00"/>
        <path id="Trazado_883235" data-name="Trazado 883235" d="M400.4,106.567a4.117,4.117,0,0,0-4,3.554l.025,12.757a63.926,63.926,0,0,1,7.009.793l.519-13.375a3.851,3.851,0,0,0-3.554-3.729" transform="translate(-265.6 -71.403)" fill="#b03c01"/>
        <path id="Trazado_883236" data-name="Trazado 883236" d="M399.632,104.9a4.262,4.262,0,0,0-4.139,3.679l-.255,12.51h7.874l.2-12.33a3.987,3.987,0,0,0-3.679-3.86" transform="translate(-264.823 -70.287)" fill="#edb32e"/>
        <path id="Trazado_883237" data-name="Trazado 883237" d="M359.051,234.428a6.53,6.53,0,0,0-.067-2.159" transform="translate(-240.531 -155.628)" fill="none" stroke="#b03c01" stroke-linecap="round" stroke-linejoin="round" stroke-width="1.536"/>
        <path id="Trazado_883238" data-name="Trazado 883238" d="M363.275,234.225c-.016-.624.2-1.511.135-1.956" transform="translate(-243.406 -155.628)" fill="none" stroke="#b03c01" stroke-linecap="round" stroke-linejoin="round" stroke-width="1.536"/>
        <path id="Trazado_883239" data-name="Trazado 883239" d="M395.374,175.4c.562.02,1.474-.109,1.821.135" transform="translate(-264.914 -117.513)" fill="none" stroke="#b03c01" stroke-linecap="round" stroke-linejoin="round" stroke-width="1.536"/>
        <path id="Trazado_883240" data-name="Trazado 883240" d="M316.986,258.89a.81.81,0,0,1-.311-1.557l4.771-1.984,3.738-24.438a.81.81,0,0,1,.646-.672l2.106-.409a.81.81,0,1,1,.309,1.589l-1.546.3-3.72,24.324a.811.811,0,0,1-.489.625l-5.191,2.159a.811.811,0,0,1-.311.062" transform="translate(-211.849 -153.983)" fill="#093f61"/>
        <path id="Trazado_883241" data-name="Trazado 883241" d="M275.279,253.494a.81.81,0,0,1-.311-1.557l4.791-1.992,3.724-19.066a.81.81,0,0,1,.64-.639l2.106-.409a.81.81,0,1,1,.309,1.589l-1.57.3-3.7,18.956a.809.809,0,0,1-.483.592l-5.191,2.159a.816.816,0,0,1-.311.062" transform="translate(-183.904 -153.984)" fill="#093f61"/>
        <path id="Trazado_883242" data-name="Trazado 883242" d="M187.5,349.4l-.518-2.034,8.869-7.477,32.338-10.271.572,1.8-31.98,10.157Z" transform="translate(-125.281 -220.858)" fill="#0b7897"/>
        <path id="Trazado_883243" data-name="Trazado 883243" d="M173.494,298.477l-16.91-3.238-8.635-14.4,30.762-19.262h27.7v26.444Z" transform="translate(-99.131 -175.265)" fill="#0b1c35"/>
        <path id="Trazado_883244" data-name="Trazado 883244" d="M240.109,271.24a4.658,4.658,0,0,0-.182-.458c-.019-.041-.041-.079-.061-.118-.052-.106-.106-.211-.165-.312-.023-.039-.05-.076-.074-.114-.062-.1-.126-.2-.195-.288-.024-.032-.05-.062-.074-.093-.076-.1-.153-.189-.236-.279-.021-.023-.044-.045-.065-.067-.09-.094-.184-.185-.282-.271l-.05-.042q-.16-.137-.331-.257l-.032-.022q-.184-.128-.379-.237l-.013-.007a4.614,4.614,0,0,0-5.885,6.871h0a4.613,4.613,0,0,0,1,.95l.044.03c.086.058.173.115.263.167l.046.025a4.648,4.648,0,0,0,.823.369c.048.016.095.033.143.047.071.021.143.04.215.058s.123.029.186.042.131.027.2.038c.083.013.167.023.251.031.048,0,.1.013.145.016.13.01.261.012.393.011.047,0,.093,0,.14-.006.094,0,.187-.01.281-.02l.151-.019c.1-.013.192-.03.287-.05.044-.009.088-.017.133-.027.139-.033.277-.07.415-.116a4.621,4.621,0,0,0,2.911-5.851" transform="translate(-154.849 -179.629)" fill="#b03c01"/>
        <path id="Trazado_883245" data-name="Trazado 883245" d="M220.789,302.378a4.642,4.642,0,0,0-.182-.458c-.019-.041-.041-.079-.061-.118-.052-.106-.106-.212-.165-.312-.023-.039-.05-.076-.074-.114-.062-.1-.126-.2-.2-.288-.024-.032-.049-.062-.074-.093-.076-.1-.153-.189-.236-.278-.021-.023-.044-.045-.065-.067-.091-.094-.184-.185-.282-.271l-.05-.042q-.16-.137-.331-.257l-.032-.022q-.184-.128-.379-.237l-.013-.007a4.614,4.614,0,0,0-5.884,6.871h0a4.612,4.612,0,0,0,1,.95l.044.03c.086.058.173.115.263.167l.046.025a4.662,4.662,0,0,0,.824.369c.048.016.095.033.143.047.071.021.143.04.215.058s.123.029.186.042.131.027.2.038c.083.013.167.023.251.031.048,0,.1.013.145.016.13.01.261.012.393.011.047,0,.093,0,.14-.006.094,0,.187-.01.281-.02.051-.005.1-.012.151-.019.1-.013.192-.03.287-.05.044-.009.088-.017.133-.027.139-.033.277-.07.415-.117a4.621,4.621,0,0,0,2.911-5.851" transform="translate(-141.904 -200.493)" fill="#b03c01"/>
        <path id="Trazado_883246" data-name="Trazado 883246" d="M191.026,296.888a4.624,4.624,0,0,0-.182-.458c-.019-.041-.041-.079-.061-.118-.052-.106-.106-.212-.165-.312-.023-.039-.05-.076-.074-.114-.062-.1-.126-.2-.195-.288-.024-.032-.05-.062-.074-.093-.076-.1-.153-.189-.235-.279-.021-.023-.044-.045-.066-.067-.091-.094-.184-.185-.282-.27l-.05-.043q-.16-.137-.331-.257l-.032-.022q-.184-.128-.379-.237l-.013-.007A4.614,4.614,0,0,0,183,301.193h0a4.61,4.61,0,0,0,1,.95l.044.03c.086.058.173.115.263.167l.046.025a4.656,4.656,0,0,0,.823.369c.048.016.1.033.143.047.071.021.143.04.215.058s.123.029.186.042.131.027.2.038c.083.013.167.022.251.031.048,0,.1.013.145.016.13.01.261.012.393.011.047,0,.093,0,.14-.006.094,0,.187-.01.281-.02l.151-.019c.1-.013.192-.03.287-.05.044-.009.088-.017.133-.027.139-.033.277-.07.415-.116a4.621,4.621,0,0,0,2.911-5.851" transform="translate(-121.962 -196.813)" fill="#b03c01"/>
        <path id="Trazado_883247" data-name="Trazado 883247" d="M295.5,267.479a4.656,4.656,0,0,0-.182-.458c-.019-.041-.041-.079-.061-.118-.052-.106-.106-.212-.165-.312-.023-.039-.05-.076-.074-.114-.062-.1-.126-.2-.195-.288-.024-.032-.05-.062-.074-.093-.076-.1-.153-.189-.236-.279-.021-.023-.044-.045-.065-.067-.091-.094-.184-.185-.282-.27l-.051-.043q-.16-.137-.331-.257l-.032-.022q-.184-.128-.379-.237l-.013-.007a4.614,4.614,0,0,0-5.885,6.871h0a4.611,4.611,0,0,0,1,.95l.044.03c.086.058.173.115.263.167l.046.025a4.672,4.672,0,0,0,.824.369c.048.016.095.033.143.047.071.021.143.04.215.058s.123.029.186.042.131.027.2.038c.083.013.167.023.251.031.048.005.1.013.145.016.13.01.261.012.393.011.047,0,.093,0,.14-.006.094,0,.187-.01.281-.02l.151-.019c.1-.013.192-.03.287-.05.044-.009.088-.017.133-.027.139-.033.277-.07.415-.116a4.621,4.621,0,0,0,2.911-5.851" transform="translate(-191.96 -177.109)" fill="#b03c01"/>
        <path id="Trazado_883248" data-name="Trazado 883248" d="M217.775,272.9a4.621,4.621,0,1,1-4.621-4.621,4.621,4.621,0,0,1,4.621,4.621" transform="translate(-139.724 -179.754)" fill="#e08010"/>
        <path id="Trazado_883249" data-name="Trazado 883249" d="M216.765,271.848a4.615,4.615,0,0,1-7.432,4.971,4.618,4.618,0,1,0,7.432-4.971" transform="translate(-140.26 -182.147)" fill="#e65b00"/>
        <path id="Trazado_883250" data-name="Trazado 883250" d="M222.5,278.275a.287.287,0,1,1-.287-.287.287.287,0,0,1,.287.287" transform="translate(-148.696 -186.261)" fill="#e65b00"/>
        <path id="Trazado_883251" data-name="Trazado 883251" d="M225.187,282.431a.149.149,0,1,1-.149-.15.15.15,0,0,1,.149.15" transform="translate(-150.682 -189.138)" fill="#e65b00"/>
        <path id="Trazado_883252" data-name="Trazado 883252" d="M222.358,282.09a.217.217,0,1,1-.217-.217.217.217,0,0,1,.217.217" transform="translate(-148.696 -188.864)" fill="#e65b00"/>
        <path id="Trazado_883253" data-name="Trazado 883253" d="M211.5,283.543a.357.357,0,1,1-.357-.357.357.357,0,0,1,.357.357" transform="translate(-141.231 -189.744)" fill="#e65b00"/>
        <path id="Trazado_883254" data-name="Trazado 883254" d="M216.556,284.446a.178.178,0,1,1-.178-.178.178.178,0,0,1,.178.178" transform="translate(-144.86 -190.469)" fill="#e65b00"/>
        <path id="Trazado_883255" data-name="Trazado 883255" d="M218.518,267.021c.074-.2.324-.664.242-.879-.069-.182-.4-.254-.535-.355a4.619,4.619,0,0,0-.186.773,6.487,6.487,0,0,1-.206.654,1.647,1.647,0,0,0-1.227-.835c-.362-.071-.546-.508-.9-.62a2.289,2.289,0,0,0-1.728.332c-.612.355-.954,1.025-1.543,1.41a2.034,2.034,0,0,1-1.817.14,8.5,8.5,0,0,0,1.371,1.03,3.746,3.746,0,0,0,2.631.262,5.3,5.3,0,0,0,1.8-.561,2.759,2.759,0,0,1,.9-.418c.337-.026.632.24.906.418a4.145,4.145,0,0,1-.163-.547,2.281,2.281,0,0,0,.453-.8" transform="translate(-141.118 -178.025)" fill="#2e7036"/>
        <path id="Trazado_883256" data-name="Trazado 883256" d="M221.092,266.928a5.571,5.571,0,0,0-.883.213,1.785,1.785,0,0,0-.9.518,8,8,0,0,1-.778.665,1.018,1.018,0,0,1-.578.279.829.829,0,0,0,.461-.035,7.4,7.4,0,0,0,1.086-.474,9.5,9.5,0,0,0,.922-.617,2.746,2.746,0,0,1,.8-.362l.075-.014a1.647,1.647,0,0,1-.2-.174" transform="translate(-146.038 -178.851)" fill="#245b29"/>
        <path id="Trazado_883257" data-name="Trazado 883257" d="M256.99,260.992a4.621,4.621,0,1,1-5.851-2.911,4.621,4.621,0,0,1,5.851,2.911" transform="translate(-166.16 -172.762)" fill="#edb32e"/>
        <path id="Trazado_883258" data-name="Trazado 883258" d="M256.415,258.993a4.614,4.614,0,0,1-5.464,7.077,4.618,4.618,0,1,0,5.464-7.077" transform="translate(-168.145 -173.534)" fill="#e65b00"/>
        <path id="Trazado_883259" data-name="Trazado 883259" d="M260.837,267.847a.287.287,0,1,1-.363-.18.286.286,0,0,1,.363.18" transform="translate(-174.395 -179.335)" fill="#e65b00"/>
        <path id="Trazado_883260" data-name="Trazado 883260" d="M255.931,261.3a.287.287,0,1,1-.363-.18.286.286,0,0,1,.363.18" transform="translate(-171.108 -174.952)" fill="#e65b00"/>
        <path id="Trazado_883261" data-name="Trazado 883261" d="M253.477,263.758a.287.287,0,1,1-.363-.18.287.287,0,0,1,.363.18" transform="translate(-169.464 -176.596)" fill="#e65b00"/>
        <path id="Trazado_883262" data-name="Trazado 883262" d="M264.635,271.035a.149.149,0,1,1-.189-.094.149.149,0,0,1,.189.094" transform="translate(-177.119 -181.534)" fill="#e65b00"/>
        <path id="Trazado_883263" data-name="Trazado 883263" d="M261.88,271.561a.217.217,0,1,1-.275-.137.217.217,0,0,1,.275.137" transform="translate(-175.185 -181.856)" fill="#e65b00"/>
        <path id="Trazado_883264" data-name="Trazado 883264" d="M252.12,276.29a.357.357,0,1,1-.451-.225.356.356,0,0,1,.451.225" transform="translate(-168.463 -184.961)" fill="#e65b00"/>
        <path id="Trazado_883265" data-name="Trazado 883265" d="M257.11,275.669a.178.178,0,1,1-.226-.112.178.178,0,0,1,.226.112" transform="translate(-172.039 -184.626)" fill="#e65b00"/>
        <path id="Trazado_883266" data-name="Trazado 883266" d="M256.179,249.547c.131-.474.616-1.673.071-1.995-.394-.233-.388.054-.392.391a4.006,4.006,0,0,1-.439,2.089,4.816,4.816,0,0,0-.3-.987,3.83,3.83,0,0,0-1.386-1.929,16.637,16.637,0,0,1-1.948-1.245,11.734,11.734,0,0,0-.15,2.393,1.9,1.9,0,0,0,1.417,1.618,8.264,8.264,0,0,0,1.62.306c.123.013.3.023.444.05l-.167.083c.054.062-.066.29-.2.363.325.026.834,0,.941.4a3,3,0,0,1,.595-.493,1.982,1.982,0,0,0-.555-.211,2.266,2.266,0,0,0,.45-.833" transform="translate(-168.572 -164.742)" fill="#2e7036"/>
        <path id="Trazado_883267" data-name="Trazado 883267" d="M253.644,248.42a2.074,2.074,0,0,0,.313.885,3.367,3.367,0,0,0,1,1.054c.448.335,1.32.454,1.552.981-.042-.314-.307-.494-.543-.664-.36-.258-.742-.507-1.084-.789a3.493,3.493,0,0,1-1.24-1.467" transform="translate(-169.95 -166.45)" fill="#245b29"/>
        <path id="Trazado_883268" data-name="Trazado 883268" d="M276.532,271.673a4.621,4.621,0,1,1-5.851-2.911,4.621,4.621,0,0,1,5.851,2.911" transform="translate(-179.253 -179.918)" fill="#e08010"/>
        <path id="Trazado_883269" data-name="Trazado 883269" d="M275.958,269.674a4.614,4.614,0,0,1-5.464,7.077,4.618,4.618,0,1,0,5.464-7.077" transform="translate(-181.24 -180.691)" fill="#e65b00"/>
        <path id="Trazado_883270" data-name="Trazado 883270" d="M280.38,278.528a.287.287,0,1,1-.363-.18.287.287,0,0,1,.363.18" transform="translate(-187.49 -186.492)" fill="#e65b00"/>
        <path id="Trazado_883271" data-name="Trazado 883271" d="M284.178,281.716a.149.149,0,1,1-.189-.094.149.149,0,0,1,.189.094" transform="translate(-190.214 -188.691)" fill="#e65b00"/>
        <path id="Trazado_883272" data-name="Trazado 883272" d="M281.423,282.242a.217.217,0,1,1-.275-.137.217.217,0,0,1,.275.137" transform="translate(-188.28 -189.012)" fill="#e65b00"/>
        <path id="Trazado_883273" data-name="Trazado 883273" d="M271.663,286.971a.357.357,0,1,1-.451-.225.356.356,0,0,1,.451.225" transform="translate(-181.558 -192.117)" fill="#e65b00"/>
        <path id="Trazado_883274" data-name="Trazado 883274" d="M276.652,286.35a.178.178,0,1,1-.226-.112.178.178,0,0,1,.226.112" transform="translate(-185.133 -191.783)" fill="#e65b00"/>
        <path id="Trazado_883275" data-name="Trazado 883275" d="M274.493,271.961c.146.135.051.528-.128.713a1.126,1.126,0,0,1,.8.137c.03-.3.386-.448.553-.491a.521.521,0,0,1-.42-.58.692.692,0,0,1-.711.175" transform="translate(-183.834 -182.075)" fill="#2e7036"/>
        <path id="Trazado_883276" data-name="Trazado 883276" d="M200.837,290.319a4.621,4.621,0,1,1-5.991,2.61,4.621,4.621,0,0,1,5.991-2.61" transform="translate(-130.338 -194.308)" fill="#e08010"/>
        <path id="Trazado_883277" data-name="Trazado 883277" d="M202.233,290.5a4.614,4.614,0,0,1,1.908,8.735,4.618,4.618,0,1,0-1.908-8.735" transform="translate(-135.503 -194.312)" fill="#e65b00"/>
        <path id="Trazado_883278" data-name="Trazado 883278" d="M204.962,301.665a.287.287,0,1,1-.372.162.287.287,0,0,1,.372-.162" transform="translate(-137.069 -202.112)" fill="#e65b00"/>
        <path id="Trazado_883279" data-name="Trazado 883279" d="M209.732,301.119a.149.149,0,1,1-.194.084.149.149,0,0,1,.194-.084" transform="translate(-140.39 -201.753)" fill="#e65b00"/>
        <path id="Trazado_883280" data-name="Trazado 883280" d="M208.419,303.413a.217.217,0,1,1-.281.122.217.217,0,0,1,.281-.122" transform="translate(-139.449 -203.287)" fill="#e65b00"/>
        <path id="Trazado_883281" data-name="Trazado 883281" d="M205.883,313.611a.357.357,0,1,1-.462.2.356.356,0,0,1,.462-.2" transform="translate(-137.622 -210.113)" fill="#e65b00"/>
        <path id="Trazado_883282" data-name="Trazado 883282" d="M208.466,309.8a.178.178,0,1,1-.231.1.178.178,0,0,1,.231-.1" transform="translate(-139.516 -207.566)" fill="#e65b00"/>
        <path id="Trazado_883283" data-name="Trazado 883283" d="M196.264,302.164c.177.216-.1.635-.233.836.322.016.586.21.868.238a1.7,1.7,0,0,1,.305-.866,1.261,1.261,0,0,1-.84-.14" transform="translate(-131.347 -202.46)" fill="#2e7036"/>
        <path id="Trazado_883284" data-name="Trazado 883284" d="M226.958,288.368a4.621,4.621,0,1,1-5.851-2.911,4.621,4.621,0,0,1,5.851,2.911" transform="translate(-146.037 -191.104)" fill="#edb32e"/>
        <path id="Trazado_883285" data-name="Trazado 883285" d="M226.384,286.369a4.614,4.614,0,0,1-5.464,7.077,4.618,4.618,0,1,0,5.464-7.077" transform="translate(-148.024 -191.877)" fill="#e65b00"/>
        <path id="Trazado_883286" data-name="Trazado 883286" d="M230.806,295.224a.287.287,0,1,1-.363-.18.286.286,0,0,1,.363.18" transform="translate(-154.273 -197.679)" fill="#e65b00"/>
        <path id="Trazado_883287" data-name="Trazado 883287" d="M234.6,298.411a.149.149,0,1,1-.189-.094.149.149,0,0,1,.189.094" transform="translate(-156.998 -199.877)" fill="#e65b00"/>
        <path id="Trazado_883288" data-name="Trazado 883288" d="M231.849,298.937a.217.217,0,1,1-.275-.137.217.217,0,0,1,.275.137" transform="translate(-155.064 -200.198)" fill="#e65b00"/>
        <path id="Trazado_883289" data-name="Trazado 883289" d="M232.667,303.844a.217.217,0,1,1-.275-.137.217.217,0,0,1,.275.137" transform="translate(-155.611 -203.486)" fill="#e65b00"/>
        <path id="Trazado_883290" data-name="Trazado 883290" d="M230.214,286.671a.217.217,0,1,1-.275-.137.217.217,0,0,1,.275.137" transform="translate(-153.968 -191.98)" fill="#e65b00"/>
        <path id="Trazado_883291" data-name="Trazado 883291" d="M234.3,288.306a.217.217,0,1,1-.275-.137.217.217,0,0,1,.275.137" transform="translate(-156.708 -193.075)" fill="#e65b00"/>
        <path id="Trazado_883292" data-name="Trazado 883292" d="M222.089,303.667a.357.357,0,1,1-.451-.225.356.356,0,0,1,.451.225" transform="translate(-148.342 -203.304)" fill="#e65b00"/>
        <path id="Trazado_883293" data-name="Trazado 883293" d="M227.079,303.046a.178.178,0,1,1-.226-.112.178.178,0,0,1,.226.112" transform="translate(-151.918 -202.97)" fill="#e65b00"/>
        <path id="Trazado_883294" data-name="Trazado 883294" d="M222.25,290.867c.072.194-.134.526-.233.735a1.57,1.57,0,0,1,.807.315,4.407,4.407,0,0,1,.662-.874,1.148,1.148,0,0,1-.427-.465.625.625,0,0,1-.742.256" transform="translate(-148.759 -194.696)" fill="#2e7036"/>
        <path id="Trazado_883295" data-name="Trazado 883295" d="M252.105,282.878a4.621,4.621,0,1,1-5.851-2.911,4.621,4.621,0,0,1,5.851,2.911" transform="translate(-162.887 -187.425)" fill="#e08010"/>
        <path id="Trazado_883296" data-name="Trazado 883296" d="M251.53,280.878a4.614,4.614,0,0,1-5.464,7.077,4.618,4.618,0,1,0,5.464-7.077" transform="translate(-164.872 -188.198)" fill="#e65b00"/>
        <path id="Trazado_883297" data-name="Trazado 883297" d="M255.953,289.733a.287.287,0,1,1-.363-.181.286.286,0,0,1,.363.181" transform="translate(-171.122 -194)" fill="#e65b00"/>
        <path id="Trazado_883298" data-name="Trazado 883298" d="M259.751,292.92a.149.149,0,1,1-.189-.094.149.149,0,0,1,.189.094" transform="translate(-173.847 -196.198)" fill="#e65b00"/>
        <path id="Trazado_883299" data-name="Trazado 883299" d="M257,293.446a.217.217,0,1,1-.275-.137.217.217,0,0,1,.275.137" transform="translate(-171.913 -196.519)" fill="#e65b00"/>
        <path id="Trazado_883300" data-name="Trazado 883300" d="M247.235,298.175a.357.357,0,1,1-.451-.225.356.356,0,0,1,.451.225" transform="translate(-165.19 -199.624)" fill="#e65b00"/>
        <path id="Trazado_883301" data-name="Trazado 883301" d="M252.225,297.555a.178.178,0,1,1-.226-.112.178.178,0,0,1,.226.112" transform="translate(-168.766 -199.29)" fill="#e65b00"/>
        <path id="Trazado_883302" data-name="Trazado 883302" d="M248.9,282.992a1.281,1.281,0,0,1-.266.735,2.232,2.232,0,0,1,.766.24c-.04-.325.352-.471.508-.7a.547.547,0,0,1-.308-.342.747.747,0,0,1-.7.1" transform="translate(-166.594 -189.57)" fill="#2e7036"/>
        <path id="Trazado_883303" data-name="Trazado 883303" d="M202.468,283.973l40.475-22.4v26.444l-32.92,10.456Z" transform="translate(-135.66 -175.265)" fill="#093f61"/>
        <path id="Trazado_883304" data-name="Trazado 883304" d="M180.2,376.15c-.244-.05-3.193-.449-3.69-.429a5.936,5.936,0,0,0-.207,11.849c.244.05,3.193.449,3.69.428a5.936,5.936,0,0,0,.206-11.849" transform="translate(-114.452 -251.745)" fill="#0b1c35"/>
        <path id="Trazado_883305" data-name="Trazado 883305" d="M191.74,382.655a5.936,5.936,0,1,1-6.179-5.683,5.936,5.936,0,0,1,6.179,5.683" transform="translate(-120.52 -252.58)" fill="#093f61"/>
        <path id="Trazado_883306" data-name="Trazado 883306" d="M193.921,387.036a3.822,3.822,0,1,1-3.978-3.659,3.823,3.823,0,0,1,3.978,3.659" transform="translate(-124.814 -256.873)" fill="#fff"/>
        <path id="Trazado_883307" data-name="Trazado 883307" d="M173.792,359.505,161.551,357l.378-1.85,11.345,2.319,8.869-7.477,32.338-10.271.572,1.8-31.98,10.157Z" transform="translate(-108.245 -227.626)" fill="#0b7897"/>
        <path id="Trazado_883308" data-name="Trazado 883308" d="M209.951,322.352l-1.663,5.886-21.348,6.78L173.51,329.7l-.085-.034-20.148-3.072-.244,1.6L173,331.238l11.5,4.556-8.067,2.562-8.869,7.477-6.108-1.249-.378,1.85,7,1.432,9.281-7.824,9.914-3.149,14.179,5.616a3.915,3.915,0,0,0,5.213-2.587l3.622-12.964Zm-4.84,17.135A2.3,2.3,0,0,1,202.054,341l-12.335-4.886,17.955-5.7Z" transform="translate(-102.536 -215.986)" fill="#40bde3"/>
        <path id="Trazado_883309" data-name="Trazado 883309" d="M173.425,338.276,173,339.849,153.033,336.8l.244-1.6Z" transform="translate(-102.537 -224.598)" fill="#0b7897"/>
        <path id="Trazado_883310" data-name="Trazado 883310" d="M277.984,306.771c.616,1.768-1.085,3.969-3.8,4.916s-5.415.281-6.032-1.487,1.085-3.969,3.8-4.916,5.415-.28,6.032,1.487" transform="translate(-179.587 -204.262)" fill="#edb32e"/>
        <path id="Trazado_883311" data-name="Trazado 883311" d="M275.87,312.421c-2.212.771-4.427.207-4.939-1.259s.873-3.285,3.086-4.056,4.428-.207,4.939,1.259-.873,3.285-3.086,4.057m-1.764-5.06c-2.072.722-3.381,2.388-2.92,3.713s2.523,1.815,4.6,1.093,3.381-2.388,2.92-3.713-2.523-1.815-4.6-1.092" transform="translate(-181.462 -205.54)" fill="#fff"/>
        <path id="Trazado_883312" data-name="Trazado 883312" d="M280.754,312.131c-.389.036-.434.8-.306,1.081a1.117,1.117,0,0,0,1.528.261c.6-.434.342-1.667-.476-1.584.192-.489-.279-.272-.477-.093-.43-.251-.738.049-.27.334" transform="translate(-187.866 -208.776)" fill="#e65b00"/>
        <path id="Trazado_883313" data-name="Trazado 883313" d="M195.456,284c-.826-1.715-3.147-.984-4.538-.98.3.987.682,2.227,2.008,2.1.782-.072,1.8-1.2,2.53-1.124" transform="translate(-127.921 -189.526)" fill="#245b29"/>
        <path id="Trazado_883314" data-name="Trazado 883314" d="M238.278,306.073a2.088,2.088,0,0,0-1.169,1.831c0,.887.57,1.718.491,2.6.917-.663,1.965-1.4,1.711-2.7a3.181,3.181,0,0,0-1.033-1.731" transform="translate(-158.871 -205.079)" fill="#4b9b4d"/>
        <path id="Trazado_883315" data-name="Trazado 883315" d="M277.9,255.277a3.327,3.327,0,0,1-1.113-1c-.427-.626-.434-1.347-.963-1.873,1.094-.405,2.473-.406,3.118.728.356.628.3,1.38.7,1.944a2.65,2.65,0,0,1,.106-1.462,6.267,6.267,0,0,0,.436-2.418,2.387,2.387,0,0,1,1.478,2.774c-.147.847-.922,1.313-1.08,2.1-.747-.709-2.254-.559-2.687-.789" transform="translate(-184.815 -168.31)" fill="#2e7036"/>
        <path id="Trazado_883316" data-name="Trazado 883316" d="M178.932,309.808c-.023-1.862-3.785-1.1-4.821-1.717.092,1.178.287,2.552,1.718,2.707,1.009.109,2.128-.891,3.1-.99" transform="translate(-116.66 -206.431)" fill="#4b9b4d"/>
        <path id="Trazado_883317" data-name="Trazado 883317" d="M236.42,251.639c-1.734.172-2.484-1.344-2.415-2.845,1.037.123,3.018,1.288,2.415,2.845" transform="translate(-156.788 -166.7)" fill="#4b9b4d"/>
        <line id="Línea_4379" data-name="Línea 4379" x2="60.157" transform="translate(82.586 130.901)" fill="none" stroke="#4b9b4d" stroke-linecap="round" stroke-linejoin="round" stroke-width="1.84"/>
        <line id="Línea_4380" data-name="Línea 4380" x2="33.647" transform="translate(55.095 136.255)" fill="none" stroke="#4b9b4d" stroke-linecap="round" stroke-linejoin="round" stroke-width="1.84"/>
      </g>
    </g>
  </g>
</svg>
