<svg xmlns="http://www.w3.org/2000/svg" width="97.111" height="80.417" viewBox="0 0 97.111 80.417">
  <g id="tierras-de-cultivo" transform="translate(0 -44.008)">
    <g id="Grupo_1102869" data-name="Grupo 1102869" transform="translate(1.425 45.433)">
      <path id="Trazado_881609" data-name="Trazado 881609" d="M171.952,356.407c2.15-13.721,17.786-24.367,36.76-24.367a47.225,47.225,0,0,1,25.119,7.334,2.4,2.4,0,0,1,1.2,2.333v13.226a1.321,1.321,0,0,1-1.473,1.473Z" transform="translate(-140.763 -278.834)" fill="#78c2a4" fill-rule="evenodd"/>
      <path id="Trazado_881610" data-name="Trazado 881610" d="M333.388,440.824h30.985a1.321,1.321,0,0,0,1.473-1.473v-3.134H333.388Z" transform="translate(-271.579 -363.251)" fill="#66b394" fill-rule="evenodd"/>
      <path id="Trazado_881611" data-name="Trazado 881611" d="M70.585,356.407C68.44,342.686,52.8,332.04,33.831,332.04c-9.7,0-18.554,2.742-25.119,7.334-1.113.774-1.177.973-1.2,2.333v13.226c0,1.108.559,1.473,1.473,1.473Z" transform="translate(-7.513 -278.834)" fill="#b3e59f" fill-rule="evenodd"/>
      <path id="Trazado_881612" data-name="Trazado 881612" d="M70.584,383.834c-1.124-7.194-5.957-13.538-13.033-17.947a25.176,25.176,0,0,1,6.715,11.2c.479,1.742-.269,2.14-1.914,2.14H7.512v3.134c0,1.108.559,1.473,1.473,1.473Z" transform="translate(-7.512 -306.261)" fill="#95d6a4" fill-rule="evenodd"/>
      <path id="Trazado_881613" data-name="Trazado 881613" d="M48.159,51.52H75.111A3.692,3.692,0,0,1,78.794,55.2V79.086a3.692,3.692,0,0,1-3.683,3.683H69.488a2.568,2.568,0,0,0-2.3,1.221L62.466,90.93a.909.909,0,0,1-1.656,0l-4.7-6.914a2.684,2.684,0,0,0-2.317-1.247H48.159a3.692,3.692,0,0,1-3.683-3.683V55.2a3.692,3.692,0,0,1,3.683-3.683Z" transform="translate(-37.465 -51.52)" fill="#faf8f9" fill-rule="evenodd"/>
      <path id="Trazado_881614" data-name="Trazado 881614" d="M74.192,51.52h.919A3.692,3.692,0,0,1,78.794,55.2V79.086a3.692,3.692,0,0,1-3.683,3.683H69.488a2.568,2.568,0,0,0-2.3,1.221L62.466,90.93a.909.909,0,0,1-1.656,0l-4.7-6.914a2.684,2.684,0,0,0-2.317-1.247H48.159a3.692,3.692,0,0,1-3.683-3.683v-.92H69.59a4.614,4.614,0,0,0,4.6-4.6Z" transform="translate(-37.465 -51.52)" fill="#ede9fb" fill-rule="evenodd"/>
      <path id="Trazado_881615" data-name="Trazado 881615" d="M290.27,51.52h26.952a3.692,3.692,0,0,1,3.683,3.683V79.086a3.692,3.692,0,0,1-3.683,3.683h-7.1l-6.376,9.377-6.377-9.377h-7.1a3.692,3.692,0,0,1-3.683-3.683V55.2a3.692,3.692,0,0,1,3.683-3.683Z" transform="translate(-233.655 -51.52)" fill="#faf8f9" fill-rule="evenodd"/>
      <path id="Trazado_881616" data-name="Trazado 881616" d="M316.3,51.52h.92a3.692,3.692,0,0,1,3.683,3.683V79.086a3.692,3.692,0,0,1-3.683,3.683H311.6a2.568,2.568,0,0,0-2.3,1.221l-4.72,6.941a.908.908,0,0,1-1.656,0l-4.7-6.914a2.693,2.693,0,0,0-2.323-1.247H290.27a3.692,3.692,0,0,1-3.683-3.683v-.92H311.7a4.614,4.614,0,0,0,4.6-4.6V51.52Z" transform="translate(-233.655 -51.52)" fill="#ede9fb" fill-rule="evenodd"/>
      <path id="Trazado_881617" data-name="Trazado 881617" d="M341.765,107.322c-1.688-1.688-3.521-2.6-5.323-.8-4.8,4.8-9.479,12.221-7.791,13.909s9.113-2.989,13.915-7.791C344.368,110.844,343.459,109.011,341.765,107.322Z" transform="translate(-267.456 -95.295)" fill="#f5bc98" fill-rule="evenodd"/>
      <path id="Trazado_881618" data-name="Trazado 881618" d="M341.914,107.322c-1.688-1.688-3.521-2.6-5.323-.8l-.075.075a8.97,8.97,0,0,1,.8.72c1.693,1.688,2.6,3.522.8,5.323a40.188,40.188,0,0,1-9.629,7.14,1.2,1.2,0,0,0,.317.651c1.694,1.694,9.113-2.989,13.915-7.791C344.517,110.844,343.608,109.011,341.914,107.322Z" transform="translate(-267.605 -95.295)" fill="#e59b6c" fill-rule="evenodd"/>
      <path id="Trazado_881619" data-name="Trazado 881619" d="M99.747,112.211c4.419,0,7.995,1.215,7.995,5.629a7.992,7.992,0,0,1-15.984,0c0-4.414,3.575-5.629,7.989-5.629Z" transform="translate(-75.779 -100.7)" fill="#ff6e6e" fill-rule="evenodd"/>
      <path id="Trazado_881620" data-name="Trazado 881620" d="M105.36,113.854c2.737.586,4.635,2.1,4.635,5.317a7.994,7.994,0,0,1-15.458,2.86,8,8,0,0,0,10.855-7.463c0-.253-.011-.489-.032-.715Z" transform="translate(-78.031 -102.031)" fill="#ff555e" fill-rule="evenodd"/>
      <path id="Trazado_881621" data-name="Trazado 881621" d="M90.014,101.718a6.054,6.054,0,0,1-8.753.022c-.968-1.075-.979-1.4-.016-2.484A6.067,6.067,0,0,1,90,99.251C90.96,100.321,90.966,100.649,90.014,101.718Z" transform="translate(-66.68 -88.686)" fill="#b3e59f" fill-rule="evenodd"/>
    </g>
    <path id="Trazado_881622" data-name="Trazado 881622" d="M26.818,55.573a11.128,11.128,0,0,1,4.957,1.312,6.1,6.1,0,0,1,3.038,5.688,9.417,9.417,0,0,1-18.834,0,8.1,8.1,0,0,1,.253-2.032,6.408,6.408,0,0,1-2.339-2.731,1.406,1.406,0,0,1,0-1.151,6.46,6.46,0,0,1,2.613-2.892,7.624,7.624,0,0,1,7.468-.151V51.121a1.422,1.422,0,1,1,2.844,0v4.452Zm41.663,7.312A1.424,1.424,0,0,1,66.47,64.9l-.489-.495c-.328.516-.635,1.022-.909,1.506C64,67.837,63.357,69.3,63.626,69.568c.306.306,1.952-.446,4.07-1.683a39.11,39.11,0,0,0,5.194-3.7l-.6-.6A1.424,1.424,0,0,1,74.3,61.568l.709.715c.178-.167.344-.339.516-.505a1.449,1.449,0,0,0,.532-1.371,4.71,4.71,0,0,0-1.333-1.941,4.611,4.611,0,0,0-1.941-1.328,1.428,1.428,0,0,0-1.371.532,41.857,41.857,0,0,0-3.78,4.371Zm.925-7.226a4.072,4.072,0,0,1,4.038-1.29,5.788,5.788,0,0,1,2.1,1.043,7.537,7.537,0,0,0,1.489-4.963,1.417,1.417,0,0,1,2.812-.355,8.87,8.87,0,0,1-.6,4.312,7.935,7.935,0,0,1,2.258-.14,1.422,1.422,0,0,1-.156,2.839,5.269,5.269,0,0,0-1.678.113,8.368,8.368,0,0,0-1.731.645,5.57,5.57,0,0,1,.887,1.893,4.071,4.071,0,0,1-1.285,4.032,41.506,41.506,0,0,1-8.414,6.554c-3.215,1.882-6.124,2.624-7.511,1.237-1.328-1.328-.715-4.022.978-7.054a41.846,41.846,0,0,1,6.812-8.866Zm17.85,8.618a1.422,1.422,0,0,1,2.844,0V73a5.121,5.121,0,0,1-5.108,5.108H78.637l-5.946,8.748a1.417,1.417,0,0,1-2.36-.027l-5.936-8.721H58.04A5.113,5.113,0,0,1,52.937,73V49.116a5.113,5.113,0,0,1,5.1-5.108H84.992A5.121,5.121,0,0,1,90.1,49.116v8.721a1.422,1.422,0,0,1-2.844,0V49.116a2.276,2.276,0,0,0-2.264-2.264H58.04a2.275,2.275,0,0,0-1.6.667,2.251,2.251,0,0,0-.661,1.6V73a2.251,2.251,0,0,0,.661,1.6,2.276,2.276,0,0,0,1.6.667h7.1a1.42,1.42,0,0,1,1.172.624l5.2,7.656L76.648,76a1.42,1.42,0,0,1,1.248-.737h7.1A2.276,2.276,0,0,0,87.256,73Zm-45.921,0a1.422,1.422,0,0,1,2.844,0V73a5.122,5.122,0,0,1-5.108,5.108H32.716L26.77,86.854a1.422,1.422,0,0,1-2.366-.027l-5.93-8.721H12.119A5.122,5.122,0,0,1,7.011,73V49.116a5.122,5.122,0,0,1,5.108-5.108H39.071a5.122,5.122,0,0,1,5.108,5.108v8.721a1.422,1.422,0,0,1-2.844,0V49.116a2.276,2.276,0,0,0-2.264-2.264H12.119a2.274,2.274,0,0,0-1.6.667,2.251,2.251,0,0,0-.661,1.6V73a2.251,2.251,0,0,0,.661,1.6,2.275,2.275,0,0,0,1.6.667h7.1a1.419,1.419,0,0,1,1.172.624l5.2,7.656L30.727,76a1.419,1.419,0,0,1,1.247-.737h7.1A2.276,2.276,0,0,0,41.335,73Zm-3.7,33.91a1.422,1.422,0,1,1-.554,2.79q-2.3-.459-4.613-.688-2.274-.226-4.721-.226a46.585,46.585,0,0,0-13.828,2.054,38.368,38.368,0,0,0-11.07,5.436v14.027H62.771a23.089,23.089,0,0,0-5.979-10.446,35.312,35.312,0,0,0-13.7-8.511,1.42,1.42,0,1,1,.946-2.677,42.805,42.805,0,0,1,4.516,1.887,45.291,45.291,0,0,1,9.678-3.376,50.168,50.168,0,0,1,11.14-1.237,50.867,50.867,0,0,1,9.366.866,46.568,46.568,0,0,1,8.791,2.565,1.421,1.421,0,0,1-1.064,2.635,43.75,43.75,0,0,0-8.248-2.409,47.674,47.674,0,0,0-8.844-.812,47.179,47.179,0,0,0-10.516,1.161,42.816,42.816,0,0,0-7.173,2.3,35.017,35.017,0,0,1,7.151,5.64,25.665,25.665,0,0,1,6.839,12.414H94.267V107.548c-.28-.2-.543-.387-.8-.565-.441-.3-.925-.608-1.446-.925a1.42,1.42,0,0,1,1.478-2.425c.5.307,1.016.64,1.559,1.005s1.048.731,1.489,1.064a1.414,1.414,0,0,1,.565,1.129v16.173a1.418,1.418,0,0,1-1.419,1.419H1.425A1.423,1.423,0,0,1,0,123.006V106.833A1.419,1.419,0,0,1,.57,105.7a40.9,40.9,0,0,1,12.5-6.3,49.407,49.407,0,0,1,14.672-2.183c1.656,0,3.323.081,4.989.248q2.549.25,4.9.721ZM18.9,61.627a5.582,5.582,0,0,0-.075.946,6.573,6.573,0,0,0,13.146,0,3.462,3.462,0,0,0-1.64-3.247,8.495,8.495,0,0,0-3.774-.93,6.525,6.525,0,0,1-2.323,2.317,7.475,7.475,0,0,1-3.86,1.054A7.775,7.775,0,0,1,18.9,61.627Zm3.882-3.35a3.8,3.8,0,0,0,1.145-1.038A3.893,3.893,0,0,0,22.78,56.2a4.854,4.854,0,0,0-4.817,0,3.893,3.893,0,0,0-1.145,1.043,3.8,3.8,0,0,0,1.145,1.038,4.82,4.82,0,0,0,4.817,0Z"/>
  </g>
</svg>
