<svg xmlns="http://www.w3.org/2000/svg" xmlns:xlink="http://www.w3.org/1999/xlink" width="190" height="130" viewBox="0 0 190 130">
  <defs>
    <clipPath id="clip-path">
      <rect id="Rectángulo_404632" data-name="Rectángulo 404632" width="182.224" height="109.427" fill="none"/>
    </clipPath>
  </defs>
  <g id="Grupo_1104313" data-name="Grupo 1104313" transform="translate(-357.711 -984.703)">
    <g id="Grupo_108927" data-name="Grupo 108927" transform="translate(357.711 984.703)">
      <path id="Rectángulo_36179" data-name="Rectángulo 36179" d="M0,0H190V130H0Z" fill="#b1dbda"/>
    </g>
    <g id="Grupo_1104312" data-name="Grupo 1104312" transform="translate(361.599 994.99)">
      <g id="Grupo_1104311" data-name="Grupo 1104311" clip-path="url(#clip-path)">
        <path id="Trazado_884205" data-name="Trazado 884205" d="M123.059,51.549H106.908a1.052,1.052,0,1,1,0-2.1h16.151a1.052,1.052,0,1,1,0,2.1" transform="translate(-81.883 -38.247)" fill="#f5f9f7"/>
        <path id="Trazado_884206" data-name="Trazado 884206" d="M93.43,49.444h-.036a1.052,1.052,0,1,0,0,2.1h.036a1.052,1.052,0,1,0,0-2.1" transform="translate(-71.43 -38.247)" fill="#f5f9f7"/>
        <path id="Trazado_884207" data-name="Trazado 884207" d="M123.059,71.015H106.908a1.052,1.052,0,1,1,0-2.1h16.151a1.052,1.052,0,1,1,0,2.1" transform="translate(-81.883 -53.305)" fill="#f5f9f7"/>
        <path id="Trazado_884208" data-name="Trazado 884208" d="M93.43,68.909h-.036a1.052,1.052,0,1,0,0,2.1h.036a1.052,1.052,0,1,0,0-2.1" transform="translate(-71.43 -53.304)" fill="#f5f9f7"/>
        <path id="Trazado_884209" data-name="Trazado 884209" d="M123.059,90.48H106.908a1.052,1.052,0,1,1,0-2.1h16.151a1.052,1.052,0,1,1,0,2.1" transform="translate(-81.883 -68.361)" fill="#f5f9f7"/>
        <path id="Trazado_884210" data-name="Trazado 884210" d="M93.43,88.4h-.036a1.052,1.052,0,1,0,0,2.1h.036a1.052,1.052,0,1,0,0-2.1" transform="translate(-71.43 -68.38)" fill="#f5f9f7"/>
        <path id="Trazado_884211" data-name="Trazado 884211" d="M123.059,109.946H106.908a1.052,1.052,0,1,1,0-2.1h16.151a1.052,1.052,0,1,1,0,2.1" transform="translate(-81.883 -83.419)" fill="#f5f9f7"/>
        <path id="Trazado_884212" data-name="Trazado 884212" d="M93.43,107.84h-.036a1.052,1.052,0,1,0,0,2.1h.036a1.052,1.052,0,1,0,0-2.1" transform="translate(-71.43 -83.418)" fill="#f5f9f7"/>
        <path id="Trazado_884213" data-name="Trazado 884213" d="M123.059,129.411H106.908a1.052,1.052,0,1,1,0-2.1h16.151a1.052,1.052,0,1,1,0,2.1" transform="translate(-81.883 -98.476)" fill="#f5f9f7"/>
        <path id="Trazado_884214" data-name="Trazado 884214" d="M93.43,127.306h-.036a1.052,1.052,0,1,0,0,2.1h.036a1.052,1.052,0,1,0,0-2.1" transform="translate(-71.43 -98.476)" fill="#f5f9f7"/>
        <path id="Trazado_884215" data-name="Trazado 884215" d="M642.071,351.532h28.688l-6.162-7.374s7.353-9.959.977-17.846c-5.118-6.33-14.411-6.4-17.336.673,0,0,1.768-7.43-5.757-9.6-10.068-2.9-18.283,15.355-.4,34.143" transform="translate(-488.535 -245.277)" fill="#abcfbd"/>
        <line id="Línea_4381" data-name="Línea 4381" y1="24.832" x2="13.064" transform="translate(158.049 80.9)" fill="none" stroke="#66a786" stroke-linecap="round" stroke-miterlimit="10" stroke-width="2"/>
        <line id="Línea_4382" data-name="Línea 4382" x2="2.072" y2="30.845" transform="translate(152.526 75.041)" fill="none" stroke="#66a786" stroke-linecap="round" stroke-miterlimit="10" stroke-width="2"/>
        <path id="Trazado_884216" data-name="Trazado 884216" d="M721.595,321.609s-3.351-8.264,5.529-11.834c0,0,3.285,9.665-5.529,11.834" transform="translate(-557.701 -239.623)" fill="#66a786"/>
        <path id="Trazado_884217" data-name="Trazado 884217" d="M727.71,324.225a14.875,14.875,0,0,0-6.7,4.263,10.474,10.474,0,0,0,.591,4.307c5.451-1.342,6.273-5.548,6.108-8.564" transform="translate(-557.709 -250.8)" fill="#579f7a"/>
        <path id="Trazado_884218" data-name="Trazado 884218" d="M676.319,307.655l-.21-.507c12.746-5.265,4.782-28.4,4.7-28.642l.519-.182a53.552,53.552,0,0,1,2.513,12.53c.568,8.722-2.033,14.531-7.522,16.8" transform="translate(-522.996 -215.294)" fill="#cfe3d9"/>
        <path id="Trazado_884219" data-name="Trazado 884219" d="M692.116,270.825a2.177,2.177,0,1,1-2.177-2.177,2.177,2.177,0,0,1,2.177,2.177" transform="translate(-532.01 -207.809)" fill="#ffd786"/>
        <path id="Trazado_884220" data-name="Trazado 884220" d="M691.879,271.376a1.708,1.708,0,1,1-3.264-.76,2.178,2.178,0,1,0,3.264.76" transform="translate(-532.003 -209.332)" fill="#ffcb62"/>
        <path id="Trazado_884221" data-name="Trazado 884221" d="M672.871,327.127l-.257-.486c9.249-4.9,12.11-11.407,12.881-16a19.42,19.42,0,0,0-.539-8.877l.517-.186a19.643,19.643,0,0,1,.561,9.152c-.793,4.72-3.719,11.4-13.167,16.4" transform="translate(-520.292 -233.278)" fill="#cfe3d9"/>
        <path id="Trazado_884222" data-name="Trazado 884222" d="M722.85,289.03a2.177,2.177,0,1,1-2.177-2.177,2.177,2.177,0,0,1,2.177,2.177" transform="translate(-555.784 -221.892)" fill="#ffd786"/>
        <path id="Trazado_884223" data-name="Trazado 884223" d="M722.613,289.582a1.708,1.708,0,1,1-3.264-.76,2.178,2.178,0,1,0,3.264.76" transform="translate(-555.777 -223.415)" fill="#ffcb62"/>
        <path id="Trazado_884224" data-name="Trazado 884224" d="M723.612,332.365s.163-8.917,9.731-8.713c0,0-.774,10.179-9.731,8.713" transform="translate(-559.741 -250.355)" fill="#66a786"/>
        <path id="Trazado_884225" data-name="Trazado 884225" d="M28.688,351.532H0l6.162-7.374s-7.353-9.959-.977-17.846c5.118-6.33,14.411-6.4,17.336.673,0,0-1.768-7.43,5.757-9.6,10.068-2.9,18.283,15.355.4,34.143" transform="translate(0 -245.277)" fill="#abcfbd"/>
        <line id="Línea_4383" data-name="Línea 4383" x1="13.064" y1="24.832" transform="translate(11.112 80.9)" fill="none" stroke="#66a786" stroke-linecap="round" stroke-miterlimit="10" stroke-width="2"/>
        <line id="Línea_4384" data-name="Línea 4384" x1="2.072" y2="30.845" transform="translate(27.626 75.041)" fill="none" stroke="#66a786" stroke-linecap="round" stroke-miterlimit="10" stroke-width="2"/>
        <path id="Trazado_884226" data-name="Trazado 884226" d="M60.019,321.609s3.351-8.264-5.528-11.834c0,0-3.285,9.665,5.528,11.834" transform="translate(-41.687 -239.623)" fill="#66a786"/>
        <path id="Trazado_884227" data-name="Trazado 884227" d="M53.887,324.225a14.877,14.877,0,0,1,6.7,4.263,10.474,10.474,0,0,1-.591,4.307c-5.45-1.342-6.273-5.548-6.108-8.564" transform="translate(-41.669 -250.8)" fill="#579f7a"/>
        <path id="Trazado_884228" data-name="Trazado 884228" d="M101.664,307.655l.21-.507c-12.747-5.265-4.782-28.4-4.7-28.642l-.519-.182a53.553,53.553,0,0,0-2.513,12.53c-.569,8.722,2.033,14.531,7.522,16.8" transform="translate(-72.763 -215.294)" fill="#cfe3d9"/>
        <path id="Trazado_884229" data-name="Trazado 884229" d="M97.665,270.825a2.177,2.177,0,1,0,2.177-2.177,2.177,2.177,0,0,0-2.177,2.177" transform="translate(-75.548 -207.809)" fill="#ffd786"/>
        <path id="Trazado_884230" data-name="Trazado 884230" d="M97.894,271.376a1.708,1.708,0,1,0,3.264-.76,2.178,2.178,0,1,1-3.264.76" transform="translate(-75.546 -209.332)" fill="#ffcb62"/>
        <path id="Trazado_884231" data-name="Trazado 884231" d="M84.925,327.127l.257-.486c-9.249-4.9-12.11-11.407-12.881-16a19.416,19.416,0,0,1,.539-8.877l-.517-.186a19.646,19.646,0,0,0-.561,9.152c.793,4.72,3.719,11.4,13.167,16.4" transform="translate(-55.28 -233.278)" fill="#cfe3d9"/>
        <path id="Trazado_884232" data-name="Trazado 884232" d="M66.931,289.03a2.177,2.177,0,1,0,2.177-2.177,2.177,2.177,0,0,0-2.177,2.177" transform="translate(-51.774 -221.892)" fill="#ffd786"/>
        <path id="Trazado_884233" data-name="Trazado 884233" d="M67.16,289.582a1.708,1.708,0,1,0,3.264-.76,2.178,2.178,0,1,1-3.264.76" transform="translate(-51.772 -223.415)" fill="#ffcb62"/>
        <path id="Trazado_884234" data-name="Trazado 884234" d="M47.83,332.365s-.163-8.917-9.731-8.713c0,0,.773,10.179,9.731,8.713" transform="translate(-29.471 -250.355)" fill="#66a786"/>
        <path id="Trazado_884235" data-name="Trazado 884235" d="M215.509,402.431H72.423a4.092,4.092,0,0,1-2.635-7.226l19.529-16.42h109.29l19.529,16.42a4.092,4.092,0,0,1-2.635,7.226" transform="translate(-52.854 -293.005)" fill="#3d9066"/>
        <path id="Trazado_884236" data-name="Trazado 884236" d="M215.509,389.455H72.423a4.092,4.092,0,0,1-2.635-7.226l19.53-16.42h109.29l19.529,16.42a4.092,4.092,0,0,1-2.635,7.226" transform="translate(-52.854 -282.967)" fill="#f5f9f7"/>
        <path id="Trazado_884237" data-name="Trazado 884237" d="M154.921,135.094V72.942a2.625,2.625,0,0,1,2.625-2.625H264.352a2.625,2.625,0,0,1,2.625,2.625v62.152a2.625,2.625,0,0,1-2.625,2.625H157.546a2.625,2.625,0,0,1-2.625-2.625" transform="translate(-119.837 -54.393)" fill="#0f7642"/>
        <path id="Trazado_884238" data-name="Trazado 884238" d="M274,89.835h0v60.053h-106.2V89.835Z" transform="translate(-129.804 -69.49)" fill="#f5f9f7"/>
        <path id="Trazado_884239" data-name="Trazado 884239" d="M274.008,188.2v-8.6c-31.845,2.993-76.414-37.471-106.2-40.239V188.2Z" transform="translate(-129.808 -107.803)" fill="#e0ede7"/>
        <path id="Trazado_884240" data-name="Trazado 884240" d="M596.183,379.122h8.141L602.6,377.6a.276.276,0,0,1-.067-.089h-7.869Z" transform="translate(-459.997 -292.015)" fill="#3d9066"/>
        <path id="Trazado_884241" data-name="Trazado 884241" d="M519.112,379.122h8.275l-1.176-1.568a.251.251,0,0,1-.024-.048h-7.981Z" transform="translate(-400.852 -292.015)" fill="#3d9066"/>
        <path id="Trazado_884242" data-name="Trazado 884242" d="M538.59,397.714l-1.138-1.517h-8.771l.851,1.517Z" transform="translate(-408.955 -306.473)" fill="#3d9066"/>
        <path id="Trazado_884243" data-name="Trazado 884243" d="M580.576,397.714l-1.427-1.517H570.44l1.139,1.517Z" transform="translate(-441.257 -306.473)" fill="#3d9066"/>
        <path id="Trazado_884244" data-name="Trazado 884244" d="M622.581,397.714l-1.714-1.517H612.23l1.427,1.517Z" transform="translate(-473.583 -306.473)" fill="#3d9066"/>
        <path id="Trazado_884245" data-name="Trazado 884245" d="M557.639,379.122h8.216l-1.453-1.544a.27.27,0,0,1-.044-.072h-7.929Z" transform="translate(-430.419 -292.015)" fill="#3d9066"/>
        <path id="Trazado_884246" data-name="Trazado 884246" d="M239.2,388.585h8.661l.876-1.517h-8.374Z" transform="translate(-185.032 -299.412)" fill="#3d9066"/>
        <path id="Trazado_884247" data-name="Trazado 884247" d="M289.558,387.067h-8.422l-.876,1.517h8.709Z" transform="translate(-216.791 -299.411)" fill="#3d9066"/>
        <path id="Trazado_884248" data-name="Trazado 884248" d="M480.6,379.122h8.33l-.9-1.6a.157.157,0,0,1-.006-.018H480Z" transform="translate(-371.301 -292.015)" fill="#3d9066"/>
        <path id="Trazado_884249" data-name="Trazado 884249" d="M403.661,379.126h8.387l-.3-1.615h-8.076Z" transform="translate(-312.247 -292.019)" fill="#3d9066"/>
        <path id="Trazado_884250" data-name="Trazado 884250" d="M403.452,397.714h9.189l-.277-1.517h-8.895Z" transform="translate(-312.085 -306.473)" fill="#3d9066"/>
        <path id="Trazado_884251" data-name="Trazado 884251" d="M198.174,388.585h8.6l1.165-1.517h-8.31Z" transform="translate(-153.295 -299.412)" fill="#3d9066"/>
        <path id="Trazado_884252" data-name="Trazado 884252" d="M403.574,387.067l-.017,1.517h8.788l-.278-1.517Z" transform="translate(-312.166 -299.411)" fill="#3d9066"/>
        <path id="Trazado_884253" data-name="Trazado 884253" d="M496.59,397.714l-.851-1.517h-8.83l.558,1.517Z" transform="translate(-376.643 -306.473)" fill="#3d9066"/>
        <path id="Trazado_884254" data-name="Trazado 884254" d="M454.666,397.714l-.559-1.517h-8.838l.277,1.517Z" transform="translate(-344.433 -306.473)" fill="#3d9066"/>
        <path id="Trazado_884255" data-name="Trazado 884255" d="M442.15,379.126H450.5l-.6-1.615h-8.053Z" transform="translate(-341.792 -292.019)" fill="#3d9066"/>
        <path id="Trazado_884256" data-name="Trazado 884256" d="M333.206,379.126l.323-1.615h-8.051l-.63,1.615Z" transform="translate(-251.282 -292.019)" fill="#3d9066"/>
        <path id="Trazado_884257" data-name="Trazado 884257" d="M523.564,387.067l.851,1.517h8.667l-1.139-1.517Z" transform="translate(-404.997 -299.411)" fill="#3d9066"/>
        <path id="Trazado_884258" data-name="Trazado 884258" d="M613.607,388.585l-1.714-1.517h-8.246l1.427,1.517Z" transform="translate(-466.944 -299.412)" fill="#3d9066"/>
        <path id="Trazado_884259" data-name="Trazado 884259" d="M491.961,387.067h-8.436l.559,1.517h8.728Z" transform="translate(-374.025 -299.411)" fill="#3d9066"/>
        <path id="Trazado_884260" data-name="Trazado 884260" d="M563.594,387.067l1.138,1.517h8.6l-1.427-1.517Z" transform="translate(-435.961 -299.411)" fill="#3d9066"/>
        <path id="Trazado_884261" data-name="Trazado 884261" d="M452.619,388.585l-.559-1.517h-8.454l.277,1.517Z" transform="translate(-343.146 -299.412)" fill="#3d9066"/>
        <path id="Trazado_884262" data-name="Trazado 884262" d="M189.891,406.838l1.165-1.517h-9.1l-1.508,1.569h9.412a.245.245,0,0,1,.025-.052" transform="translate(-139.587 -313.531)" fill="#3d9066"/>
        <path id="Trazado_884263" data-name="Trazado 884263" d="M247.413,377.561l-1.2,1.565h8.27l.935-1.615h-7.977a.276.276,0,0,1-.025.052" transform="translate(-190.454 -292.019)" fill="#3d9066"/>
        <path id="Trazado_884264" data-name="Trazado 884264" d="M145.348,406.815l1.431-1.494h-9.023l-1.8,1.569H145.3a.27.27,0,0,1,.047-.074" transform="translate(-105.166 -313.531)" fill="#3d9066"/>
        <path id="Trazado_884265" data-name="Trazado 884265" d="M169.385,377.6l-1.75,1.525h8.134l1.549-1.615h-7.86a.276.276,0,0,1-.068.091" transform="translate(-129.672 -292.019)" fill="#3d9066"/>
        <path id="Trazado_884266" data-name="Trazado 884266" d="M208.4,377.6l-1.477,1.542h8.206l1.241-1.615h-7.924a.265.265,0,0,1-.048.074" transform="translate(-160.06 -292.03)" fill="#3d9066"/>
        <path id="Trazado_884267" data-name="Trazado 884267" d="M234.482,406.867l.895-1.547h-9.158l-1.205,1.569h9.461c0-.007,0-.014.008-.022" transform="translate(-174.057 -313.53)" fill="#3d9066"/>
        <path id="Trazado_884268" data-name="Trazado 884268" d="M328.813,405.305H309.519c-.006,0-.012.007-.018.008a.3.3,0,0,1-.049,0,.256.256,0,0,1-.067-.012h-9.674a.267.267,0,0,1-.059.012.287.287,0,0,1-.055-.012H270.525l-.907,1.569H329.7Z" transform="translate(-208.56 -313.516)" fill="#3d9066"/>
        <path id="Trazado_884269" data-name="Trazado 884269" d="M586.408,405.32h-9.1l1.14,1.52a.276.276,0,0,1,.024.049h9.413Z" transform="translate(-446.572 -313.53)" fill="#3d9066"/>
        <path id="Trazado_884270" data-name="Trazado 884270" d="M629.855,405.32h-9.03l1.407,1.5a.271.271,0,0,1,.044.072h9.35Z" transform="translate(-480.232 -313.53)" fill="#3d9066"/>
        <path id="Trazado_884271" data-name="Trazado 884271" d="M542.967,405.32h-9.161l.869,1.551a.02.02,0,0,0,.007.018h9.461Z" transform="translate(-412.919 -313.53)" fill="#3d9066"/>
        <path id="Trazado_884272" data-name="Trazado 884272" d="M146.691,397.714h8.922l1.453-1.517h-8.631Z" transform="translate(-113.471 -306.473)" fill="#3d9066"/>
        <path id="Trazado_884273" data-name="Trazado 884273" d="M242.121,396.192h-8.767l-1.165,1.517h9.054Z" transform="translate(-179.607 -306.469)" fill="#3d9066"/>
        <path id="Trazado_884274" data-name="Trazado 884274" d="M284.671,396.192h-8.813l-.876,1.517h9.1Z" transform="translate(-212.709 -306.469)" fill="#3d9066"/>
        <path id="Trazado_884275" data-name="Trazado 884275" d="M286.454,377.531l-.922,1.595h8.319l.63-1.615h-8.02a.185.185,0,0,1-.007.022" transform="translate(-220.87 -292.019)" fill="#3d9066"/>
        <path id="Trazado_884276" data-name="Trazado 884276" d="M199.59,396.192h-8.7l-1.453,1.517h8.991Z" transform="translate(-146.536 -306.469)" fill="#3d9066"/>
        <path id="Trazado_884277" data-name="Trazado 884277" d="M157.161,388.585h8.527l1.453-1.517H158.9Z" transform="translate(-121.57 -299.412)" fill="#3d9066"/>
        <path id="Trazado_884278" data-name="Trazado 884278" d="M327.208,396.192h-8.853l-.591,1.517h9.14Z" transform="translate(-245.802 -306.469)" fill="#3d9066"/>
        <path id="Trazado_884279" data-name="Trazado 884279" d="M371.2,387.067h-8.479l-.3,1.517h8.765Z" transform="translate(-280.345 -299.411)" fill="#3d9066"/>
        <path id="Trazado_884280" data-name="Trazado 884280" d="M372.63,377.506h-8.076l-.323,1.615h8.376Z" transform="translate(-281.747 -292.015)" fill="#3d9066"/>
        <path id="Trazado_884281" data-name="Trazado 884281" d="M369.771,396.192H360.9l-.3,1.517h9.152Z" transform="translate(-278.936 -306.469)" fill="#3d9066"/>
        <path id="Trazado_884282" data-name="Trazado 884282" d="M330.364,387.067H321.9l-.591,1.517h8.75Z" transform="translate(-248.546 -299.411)" fill="#3d9066"/>
        <path id="Trazado_884283" data-name="Trazado 884283" d="M316.762,422.309h-5.473l-14.068,4.515-1.714,2.282a.827.827,0,0,0-.095.165Z" transform="translate(-228.512 -326.672)" fill="#fff"/>
        <path id="Trazado_884284" data-name="Trazado 884284" d="M366.52,426.931l-3.223-4.289a.814.814,0,0,0-.651-.323H349.832l-22.854,8.1h30.444Z" transform="translate(-252.93 -326.68)" fill="#fff"/>
        <path id="Trazado_884285" data-name="Trazado 884285" d="M341.915,429.756H294.982a1.09,1.09,0,0,1-.871-1.745l4.863-6.47a1.1,1.1,0,0,1,.871-.431h37.206a1.1,1.1,0,0,1,.871.431l4.863,6.47a1.089,1.089,0,0,1-.871,1.745m-42.069-8.1a.538.538,0,0,0-.431.215l-4.863,6.47a.538.538,0,0,0,.431.861h46.931a.538.538,0,0,0,.431-.861l-4.863-6.47a.544.544,0,0,0-.431-.215Z" transform="translate(-227.337 -325.745)" fill="#3d9066"/>
        <circle id="Elipse_11674" data-name="Elipse 11674" cx="1.497" cy="1.497" r="1.497" transform="translate(89.156 17.467) rotate(-22.5)" fill="#3d9066"/>
        <path id="Trazado_884286" data-name="Trazado 884286" d="M400.413,78a.794.794,0,1,1-.794-.794.794.794,0,0,1,.794.794" transform="translate(-308.507 -59.722)" fill="#0f7642"/>
        <path id="Trazado_884287" data-name="Trazado 884287" d="M415.49,79.607a.323.323,0,1,1-.323-.323.323.323,0,0,1,.323.323" transform="translate(-320.898 -61.329)" fill="#d93a04"/>
        <path id="Trazado_884288" data-name="Trazado 884288" d="M39.991,187.793a9.349,9.349,0,1,1-9.35-9.351,9.35,9.35,0,0,1,9.35,9.351Z" transform="translate(-16.47 -138.032)" fill="#ffd786"/>
        <path id="Trazado_884289" data-name="Trazado 884289" d="M43.279,192.453a7.986,7.986,0,1,1-7.986-7.986,7.986,7.986,0,0,1,7.986,7.986" transform="translate(-21.122 -142.692)" fill="#fff"/>
        <path id="Trazado_884290" data-name="Trazado 884290" d="M45.417,195.463a7.107,7.107,0,1,1-7.107-7.107,7.107,7.107,0,0,1,7.107,7.107" transform="translate(-24.137 -145.701)" fill="#fff"/>
        <path id="Trazado_884291" data-name="Trazado 884291" d="M38.3,188.326a7.107,7.107,0,0,0-7.107,7.107c0,.131,0,.262.011.392,3.735-.478,8.931.532,14-2.135a7.111,7.111,0,0,0-6.891-5.366" transform="translate(-24.127 -145.675)" fill="#e0ede7"/>
        <path id="Trazado_884292" data-name="Trazado 884292" d="M60.925,217.4a.682.682,0,1,1-.682-.682.682.682,0,0,1,.682.682" transform="translate(-46.073 -167.643)" fill="#248152"/>
        <path id="Trazado_884293" data-name="Trazado 884293" d="M63.533,204.486a.256.256,0,0,1-.182-.075l-2.2-2.2V197.33a.257.257,0,0,1,.514,0V202l2.051,2.046a.256.256,0,0,1-.182.438" transform="translate(-47.301 -152.443)" fill="#248152"/>
        <path id="Trazado_884294" data-name="Trazado 884294" d="M564.779,26.43l-19.528-.095A19.529,19.529,0,0,1,564.436,6.9Z" transform="translate(-421.772 -5.341)" fill="#78b294"/>
        <path id="Trazado_884295" data-name="Trazado 884295" d="M575.622,82.525l4.7,15.667a16.356,16.356,0,0,1-20.76-18.77Z" transform="translate(-432.614 -61.436)" fill="#ffbd38"/>
        <path id="Trazado_884296" data-name="Trazado 884296" d="M618.678,73.644l12.591-5.7q.171.379.323.767A13.821,13.821,0,0,1,614.93,86.945Z" transform="translate(-475.672 -52.558)" fill="#ffd786"/>
        <path id="Trazado_884297" data-name="Trazado 884297" d="M605.978,54.269l-7.466-8.581a11.374,11.374,0,0,1,17.832,13.262Z" transform="translate(-462.972 -33.18)" fill="#aae882"/>
        <path id="Trazado_884298" data-name="Trazado 884298" d="M603.695,65.305l6.138-5.359a8.145,8.145,0,1,1-6.138-2.785h.089Z" transform="translate(-460.684 -44.216)" fill="#bad8c9"/>
        <path id="Trazado_884299" data-name="Trazado 884299" d="M623.816,82.294a3.171,3.171,0,1,1-3.171-3.171A3.171,3.171,0,0,1,623.816,82.294Z" transform="translate(-477.64 -61.205)"/>
        <rect id="Rectángulo_404607" data-name="Rectángulo 404607" width="6.417" height="45.324" transform="translate(59.024 26.16)" fill="#cfe3d9"/>
        <rect id="Rectángulo_404608" data-name="Rectángulo 404608" width="6.417" height="45.324" transform="translate(68.65 26.16)" fill="#cfe3d9"/>
        <rect id="Rectángulo_404609" data-name="Rectángulo 404609" width="6.417" height="45.324" transform="translate(78.277 26.16)" fill="#cfe3d9"/>
        <rect id="Rectángulo_404610" data-name="Rectángulo 404610" width="6.417" height="45.324" transform="translate(87.904 26.16)" fill="#cfe3d9"/>
        <rect id="Rectángulo_404611" data-name="Rectángulo 404611" width="6.417" height="45.324" transform="translate(97.53 26.16)" fill="#cfe3d9"/>
        <rect id="Rectángulo_404612" data-name="Rectángulo 404612" width="6.417" height="45.324" transform="translate(107.156 26.16)" fill="#cfe3d9"/>
        <rect id="Rectángulo_404613" data-name="Rectángulo 404613" width="6.417" height="45.324" transform="translate(116.783 26.16)" fill="#cfe3d9"/>
        <rect id="Rectángulo_404614" data-name="Rectángulo 404614" width="6.417" height="14.121" transform="translate(59.024 57.363)" fill="#ffd786"/>
        <rect id="Rectángulo_404615" data-name="Rectángulo 404615" width="6.417" height="35.144" transform="translate(68.65 36.339)" fill="#78b294"/>
        <rect id="Rectángulo_404616" data-name="Rectángulo 404616" width="6.417" height="39.46" transform="translate(78.277 32.024)" fill="#bad8c9"/>
        <rect id="Rectángulo_404617" data-name="Rectángulo 404617" width="6.417" height="8.146" transform="translate(87.904 63.338)" fill="#78b294"/>
        <rect id="Rectángulo_404618" data-name="Rectángulo 404618" width="6.417" height="19.875" transform="translate(97.53 51.609)" fill="#bad8c9"/>
        <rect id="Rectángulo_404619" data-name="Rectángulo 404619" width="6.417" height="28.505" transform="translate(107.156 42.978)" fill="#78b294"/>
        <rect id="Rectángulo_404620" data-name="Rectángulo 404620" width="6.417" height="16.334" transform="translate(116.783 55.15)" fill="#bad8c9"/>
        <path id="Trazado_884300" data-name="Trazado 884300" d="M272.727,166.549l10.106-21.1L292.5,140.8l9.664,31.425,9.813-11.735,9.59-8.631,9.295,12.467" transform="translate(-210.965 -108.918)" fill="none" stroke="#ffbd38" stroke-linecap="round" stroke-linejoin="round" stroke-width="4"/>
        <path id="Trazado_884301" data-name="Trazado 884301" d="M356.626,136.123a1.5,1.5,0,1,1-1.5-1.5,1.5,1.5,0,0,1,1.5,1.5" transform="translate(-273.545 -104.137)" fill="#f5f9f7"/>
        <path id="Trazado_884302" data-name="Trazado 884302" d="M313.32,156.345a1.5,1.5,0,1,1-1.5-1.5,1.5,1.5,0,0,1,1.5,1.5" transform="translate(-240.046 -119.779)" fill="#f5f9f7"/>
        <path id="Trazado_884303" data-name="Trazado 884303" d="M269.064,250.392a1.5,1.5,0,1,1-1.5-1.5,1.5,1.5,0,0,1,1.5,1.5" transform="translate(-205.812 -192.528)" fill="#f5f9f7"/>
        <path id="Trazado_884304" data-name="Trazado 884304" d="M399.361,273.856a1.5,1.5,0,1,1-1.5-1.5,1.5,1.5,0,0,1,1.5,1.5" transform="translate(-306.602 -210.678)" fill="#f5f9f7"/>
        <path id="Trazado_884305" data-name="Trazado 884305" d="M441.9,222.539a1.5,1.5,0,1,1-1.5-1.5,1.5,1.5,0,0,1,1.5,1.5" transform="translate(-339.504 -170.983)" fill="#f5f9f7"/>
        <path id="Trazado_884306" data-name="Trazado 884306" d="M484.436,186.3a1.5,1.5,0,1,1-1.5-1.5,1.5,1.5,0,0,1,1.5,1.5" transform="translate(-372.411 -142.95)" fill="#f5f9f7"/>
        <path id="Trazado_884307" data-name="Trazado 884307" d="M524.574,237.229l-3.292,2.649,3.481,1.054Z" transform="translate(-403.231 -183.506)" fill="#ffbd38"/>
        <rect id="Rectángulo_404621" data-name="Rectángulo 404621" width="27.27" height="4.404" transform="translate(87.656 3.854)" fill="#f5f9f7"/>
        <rect id="Rectángulo_404622" data-name="Rectángulo 404622" width="5.234" height="4.404" transform="translate(98.831 3.854)" fill="#78b294"/>
        <rect id="Rectángulo_404623" data-name="Rectángulo 404623" width="5.234" height="4.404" transform="translate(95.915 3.854)" fill="#bad8c9"/>
        <rect id="Rectángulo_404624" data-name="Rectángulo 404624" width="9.623" height="4.404" transform="translate(87.656 3.854)" fill="#ffd786"/>
        <path id="Trazado_884308" data-name="Trazado 884308" d="M727.1,198.732a1.384,1.384,0,0,0,1.918.389l1.235-.82-.294,1.453a1.384,1.384,0,0,0,1.077,1.63l.663.135a1.384,1.384,0,0,0,1.63-1.077l.294-1.453.819,1.235a1.382,1.382,0,0,0,1.916.389h0l.564-.375a1.382,1.382,0,0,0,.389-1.916v0l-.819-1.235,1.453.294a1.383,1.383,0,0,0,1.63-1.077l.135-.663a1.384,1.384,0,0,0-1.077-1.63l-1.453-.294,1.235-.819a1.384,1.384,0,0,0,.388-1.918l-.375-.564a1.384,1.384,0,0,0-1.918-.387l-1.235.819.294-1.453a1.384,1.384,0,0,0-1.077-1.63l-.663-.135a1.383,1.383,0,0,0-1.63,1.077l-.294,1.453-.82-1.235a1.383,1.383,0,0,0-1.916-.39h0l-.564.375a1.382,1.382,0,0,0-.389,1.916v0l.82,1.235-1.453-.294a1.384,1.384,0,0,0-1.63,1.077l-.135.663a1.383,1.383,0,0,0,1.077,1.63l1.453.294-1.235.82a1.382,1.382,0,0,0-.39,1.916v0Zm4.424-6.03a2.245,2.245,0,1,1-.63,3.112,2.245,2.245,0,0,1,.63-3.112" transform="translate(-561.426 -145.115)" fill="#78b294"/>
        <path id="Trazado_884309" data-name="Trazado 884309" d="M702.124,236.6a.538.538,0,0,0,.349.677h0l1.038.33a2.638,2.638,0,0,0,.081.983l-.969.5a.539.539,0,0,0,.5.957l.969-.5a2.626,2.626,0,0,0,.754.633l-.33,1.038a.538.538,0,1,0,1.027.323l.33-1.038a2.628,2.628,0,0,0,.983-.081l.5.969a.539.539,0,1,0,.957-.5l-.5-.969a2.62,2.62,0,0,0,.633-.754l1.038.33a.538.538,0,1,0,.323-1.027l-1.038-.329a2.627,2.627,0,0,0-.081-.983l.969-.5a.539.539,0,1,0-.5-.957l-.969.5a2.632,2.632,0,0,0-.754-.634l.329-1.038a.538.538,0,1,0-1.027-.323l-.33,1.037a2.629,2.629,0,0,0-.983.081l-.5-.969a.539.539,0,1,0-.957.5l.5.969a2.633,2.633,0,0,0-.633.754l-1.038-.329a.539.539,0,0,0-.677.349v0m3.343-.025a1.467,1.467,0,1,1-.627,1.977h0a1.467,1.467,0,0,1,.628-1.976" transform="translate(-543.099 -180.875)" fill="#78b294"/>
        <path id="Trazado_884310" data-name="Trazado 884310" d="M665.7,183.873a.936.936,0,0,0,1.11.718l1.847-.4a4.557,4.557,0,0,0,.969,1.41l-1.024,1.581a.935.935,0,0,0,1.57,1.015l1.024-1.581a4.563,4.563,0,0,0,1.683.3l.4,1.847a.936.936,0,0,0,1.831-.392l-.4-1.847a4.561,4.561,0,0,0,1.412-.969l1.581,1.024a.935.935,0,1,0,1.015-1.57L677.134,184a4.555,4.555,0,0,0,.3-1.683l1.847-.4a.936.936,0,1,0-.392-1.83l-1.847.4a4.566,4.566,0,0,0-.969-1.411l1.024-1.582a.935.935,0,0,0-1.57-1.015l-1.023,1.582a4.559,4.559,0,0,0-1.684-.3l-.4-1.847a.936.936,0,0,0-1.831.392l.4,1.847a4.556,4.556,0,0,0-1.41.969L668,178.088a.935.935,0,0,0-1.015,1.57l1.582,1.024a4.558,4.558,0,0,0-.3,1.683l-1.847.4a.935.935,0,0,0-.718,1.11h0m4.15-3.474a3.575,3.575,0,1,1,1.059,4.943h0a3.575,3.575,0,0,1-1.059-4.943" transform="translate(-514.928 -135.496)" fill="#78b294"/>
        <path id="Trazado_884311" data-name="Trazado 884311" d="M262.412,9.2a5.443,5.443,0,1,1-5.444-5.444A5.443,5.443,0,0,1,262.412,9.2Z" transform="translate(-194.565 -2.905)" fill="none" stroke="#f5f9f7" stroke-miterlimit="10" stroke-width="6"/>
        <path id="Trazado_884312" data-name="Trazado 884312" d="M281.856,6.295h-1.7A4.6,4.6,0,0,0,275.561,1.7V0a6.3,6.3,0,0,1,6.295,6.295" transform="translate(-213.157)" fill="#bad8c9"/>
        <path id="Trazado_884313" data-name="Trazado 884313" d="M334.906,9.2a5.443,5.443,0,1,1-5.443-5.444A5.443,5.443,0,0,1,334.906,9.2Z" transform="translate(-250.642 -2.905)" fill="none" stroke="#f5f9f7" stroke-miterlimit="10" stroke-width="6"/>
        <path id="Trazado_884314" data-name="Trazado 884314" d="M331.948,12.59a6.3,6.3,0,0,1-4.718-2.128L328.5,9.334A4.591,4.591,0,1,0,331.948,1.7V0a6.3,6.3,0,0,1,0,12.59" transform="translate(-253.125)" fill="#78b294"/>
        <path id="Trazado_884315" data-name="Trazado 884315" d="M228.967,280.207l-5.327-7.634a1.782,1.782,0,1,0-2.916,2.049l.034.046,5.327,7.634Z" transform="translate(-170.488 -210.259)" fill="#ffe1a6"/>
        <path id="Trazado_884316" data-name="Trazado 884316" d="M222.931,238.579l-2.331,9.013a1.782,1.782,0,0,0,3.467.825L226.4,239.4Z" transform="translate(-170.608 -184.55)" fill="#ffe1a6"/>
        <path id="Trazado_884317" data-name="Trazado 884317" d="M226.281,239.8l-.789-.625-2.571-.612-2.331,9.012a1.776,1.776,0,0,0,.143,1.214l3.671-1.73Z" transform="translate(-170.596 -184.539)" fill="#ffcd69"/>
        <path id="Trazado_884318" data-name="Trazado 884318" d="M228.754,238.135l1.275-4.656a2.455,2.455,0,0,0-4.794-1.065l-1.276,4.656Z" transform="translate(-173.241 -178.293)" fill="#66a786"/>
        <path id="Trazado_884319" data-name="Trazado 884319" d="M241.364,301.333l-.308.237a1.973,1.973,0,0,0,2.3,3.2q.054-.039.105-.081l.308-.237a1.973,1.973,0,1,0-2.3-3.2c-.036.026-.071.053-.105.081" transform="translate(-185.831 -232.743)" fill="#ffe1a6"/>
        <path id="Trazado_884320" data-name="Trazado 884320" d="M249.875,304.439l2.542-1.573s-1.387-2.063-2.281-1.507c-.983.606.209,1.7.209,1.7a1.088,1.088,0,0,0-.471,1.389" transform="translate(-193.19 -233.039)" fill="#ffe1a6"/>
        <path id="Trazado_884321" data-name="Trazado 884321" d="M249.772,301.669a.855.855,0,0,0-.3.381.689.689,0,0,0,.026.461,1.966,1.966,0,0,0,.584.754l.139.131-.167.1a1.156,1.156,0,0,0-.267.226.919.919,0,0,0-.177.3.793.793,0,0,0-.045.339,1.179,1.179,0,0,0,.082.346l-.206-.067a14.544,14.544,0,0,1,1.292-.754c.443-.233.881-.471,1.328-.7q-.6.451-1.215.878c-.408.287-.82.568-1.253.816l-.159.09-.047-.158a1.476,1.476,0,0,1-.1-.431,1.078,1.078,0,0,1,.06-.452,1.207,1.207,0,0,1,.229-.39,1.406,1.406,0,0,1,.347-.29l-.028.229a2.649,2.649,0,0,1-.323-.431,1.667,1.667,0,0,1-.208-.491.8.8,0,0,1,.045-.529.892.892,0,0,1,.37-.353" transform="translate(-192.825 -233.352)" fill="#ffcd69"/>
        <path id="Trazado_884322" data-name="Trazado 884322" d="M245.663,315.978h0a.487.487,0,0,0-.129.673l1.185,1.587a.485.485,0,1,0,.8-.544l-1.184-1.587a.487.487,0,0,0-.673-.129" transform="translate(-189.866 -244.357)" fill="#ffe1a6"/>
        <path id="Trazado_884323" data-name="Trazado 884323" d="M246.671,316.671c-.247-.247-.475-.507-.695-.775l-.158-.195a.378.378,0,0,0-.167-.108.371.371,0,0,0-.367.075.381.381,0,0,0-.121.356.422.422,0,0,0,.093.192l.144.215q.289.431.539.883-.363-.375-.691-.776l-.163-.2a.631.631,0,0,1-.142-.263.59.59,0,0,1,1.034-.512c.06.084.1.145.151.215a10.069,10.069,0,0,1,.538.885" transform="translate(-189.458 -243.928)" fill="#ffcd69"/>
        <path id="Trazado_884324" data-name="Trazado 884324" d="M249.422,313.924h0a.486.486,0,0,0-.13.673l1.185,1.587a.485.485,0,1,0,.8-.544l-1.184-1.587a.486.486,0,0,0-.673-.129" transform="translate(-192.773 -242.768)" fill="#ffe1a6"/>
        <path id="Trazado_884325" data-name="Trazado 884325" d="M250.432,314.641c-.247-.247-.475-.507-.695-.775l-.158-.195a.378.378,0,0,0-.167-.108.371.371,0,0,0-.367.075.381.381,0,0,0-.121.356.422.422,0,0,0,.093.192l.144.215q.289.431.539.883-.363-.375-.691-.776l-.163-.2a.631.631,0,0,1-.142-.263.59.59,0,0,1,1.034-.512c.06.084.1.145.151.215a10.069,10.069,0,0,1,.538.885" transform="translate(-192.367 -242.358)" fill="#ffcd69"/>
        <path id="Trazado_884326" data-name="Trazado 884326" d="M253.341,312.008h0a.487.487,0,0,0-.129.673l1.185,1.587a.485.485,0,1,0,.8-.544l-1.184-1.587a.487.487,0,0,0-.673-.129" transform="translate(-195.805 -241.286)" fill="#ffe1a6"/>
        <path id="Trazado_884327" data-name="Trazado 884327" d="M254.349,312.72c-.247-.247-.475-.507-.695-.775l-.158-.2a.378.378,0,0,0-.167-.108.371.371,0,0,0-.367.075.381.381,0,0,0-.121.356.424.424,0,0,0,.094.192l.144.215q.289.431.539.883-.363-.375-.691-.776l-.164-.2a.631.631,0,0,1-.142-.263.59.59,0,0,1,1.034-.512c.06.084.1.145.151.215a10.13,10.13,0,0,1,.538.885" transform="translate(-195.398 -240.872)" fill="#ffcd69"/>
        <path id="Trazado_884328" data-name="Trazado 884328" d="M255.8,308.295h0a.487.487,0,0,0-.129.673l1.185,1.587a.485.485,0,1,0,.8-.544l-1.184-1.587a.487.487,0,0,0-.673-.13" transform="translate(-197.707 -238.414)" fill="#ffe1a6"/>
        <path id="Trazado_884329" data-name="Trazado 884329" d="M256.8,309.011c-.247-.247-.475-.507-.695-.775l-.158-.195a.378.378,0,0,0-.167-.108.371.371,0,0,0-.367.075.381.381,0,0,0-.121.356.423.423,0,0,0,.093.193l.144.215q.289.431.539.883-.363-.375-.691-.776l-.163-.2a.631.631,0,0,1-.142-.263.59.59,0,0,1,1.034-.512c.06.083.1.144.151.215a10.073,10.073,0,0,1,.538.885" transform="translate(-197.296 -238.004)" fill="#ffcd69"/>
        <path id="Trazado_884330" data-name="Trazado 884330" d="M232.512,433.515h-.4a1.445,1.445,0,0,1-1.432-1.44V430.1a1.445,1.445,0,0,1,1.441-1.441h.4a1.445,1.445,0,0,1,1.441,1.441v1.978a1.445,1.445,0,0,1-1.441,1.441" transform="translate(-178.441 -331.582)" fill="#abcfbd"/>
        <path id="Trazado_884331" data-name="Trazado 884331" d="M229.343,438.622h.108a.2.2,0,0,1,.187.131,1.442,1.442,0,0,0,2.741,0,.2.2,0,0,1,.187-.131h1.061a.2.2,0,0,1,.1.025l2.75,1.5a2.284,2.284,0,0,1,.936.958l.388.754a.811.811,0,0,1-.72,1.184H229.9a.872.872,0,0,1-.871-.873c0-.025,0-.05,0-.074Z" transform="translate(-177.166 -339.291)" fill="#78b294"/>
        <path id="Trazado_884332" data-name="Trazado 884332" d="M231.241,440.764a1.425,1.425,0,0,1-1.438-.657q-.236-.081-.48-.149l-.278,3.167a.872.872,0,0,0,.794.944c.025,0,.049,0,.074,0h4.038a5.638,5.638,0,0,0-2.709-3.309" transform="translate(-177.172 -340.325)" fill="#579f7a"/>
        <path id="Trazado_884333" data-name="Trazado 884333" d="M233.379,446a.809.809,0,1,0,.785-1,.914.914,0,0,0-.785,1" transform="translate(-180.524 -344.219)" fill="#fff"/>
        <path id="Trazado_884334" data-name="Trazado 884334" d="M229.319,456.562h8.257a.4.4,0,0,0,0-.794h-8.257a.4.4,0,0,0,0,.794" transform="translate(-177.096 -352.554)" fill="#ffd582"/>
        <rect id="Rectángulo_404625" data-name="Rectángulo 404625" width="4.668" height="12.481" transform="translate(50.557 71.889) rotate(-5.979)" fill="#1f7f4e"/>
        <path id="Trazado_884335" data-name="Trazado 884335" d="M232.54,382.713l.191-15.828c-2.578-.031-4.693-.553-4.724,2.024l-.135,13.75Z" transform="translate(-176.268 -283.75)" fill="#1f7f4e"/>
        <rect id="Rectángulo_404626" data-name="Rectángulo 404626" width="5.118" height="1.916" transform="translate(51.347 97.185)" fill="#338a5e"/>
        <path id="Trazado_884336" data-name="Trazado 884336" d="M199.973,308.081h3.469a3.827,3.827,0,0,0,3.816-3.816,2.562,2.562,0,0,0-2.554-2.554h-5.992a2.562,2.562,0,0,0-2.554,2.554,3.828,3.828,0,0,0,3.815,3.816" transform="translate(-151.736 -233.385)" fill="#1f7f4e"/>
        <path id="Trazado_884337" data-name="Trazado 884337" d="M207.45,433.511h-.4a1.445,1.445,0,0,1-1.441-1.441v-1.978a1.445,1.445,0,0,1,1.441-1.441h.4a1.445,1.445,0,0,1,1.441,1.441v1.978a1.445,1.445,0,0,1-1.441,1.441" transform="translate(-159.048 -331.579)" fill="#abcfbd"/>
        <path id="Trazado_884338" data-name="Trazado 884338" d="M204.3,438.622h.108a.2.2,0,0,1,.188.131,1.442,1.442,0,0,0,2.741,0,.2.2,0,0,1,.187-.131h1.061a.2.2,0,0,1,.1.025l2.75,1.5a2.283,2.283,0,0,1,.936.958l.388.754a.811.811,0,0,1-.72,1.184h-7.172a.872.872,0,0,1-.871-.873c0-.025,0-.05,0-.074Z" transform="translate(-157.79 -339.291)" fill="#78b294"/>
        <path id="Trazado_884339" data-name="Trazado 884339" d="M208.35,446a.809.809,0,1,0,.785-1,.914.914,0,0,0-.785,1" transform="translate(-161.163 -344.219)" fill="#fff"/>
        <path id="Trazado_884340" data-name="Trazado 884340" d="M204.271,456.56h8.257a.4.4,0,1,0,.041-.794h-8.3a.4.4,0,0,0,0,.794" transform="translate(-157.72 -352.552)" fill="#ffe1a6"/>
        <rect id="Rectángulo_404627" data-name="Rectángulo 404627" width="4.668" height="12.481" transform="translate(45.155 71.889) rotate(-5.979)" fill="#1f7f4e"/>
        <path id="Trazado_884341" data-name="Trazado 884341" d="M208.681,382.713l.191-15.828c-2.578-.031-4.693-.553-4.724,2.024l-.135,13.75Z" transform="translate(-157.812 -283.75)" fill="#1f7f4e"/>
        <rect id="Rectángulo_404628" data-name="Rectángulo 404628" width="5.118" height="1.916" transform="translate(45.891 97.185)" fill="#338a5e"/>
        <path id="Trazado_884342" data-name="Trazado 884342" d="M198.555,301.712h6.259A2.427,2.427,0,0,1,206.951,303a12.009,12.009,0,0,1-10.7,2.362,3.571,3.571,0,0,1-.117-.895v-.333a2.428,2.428,0,0,1,2.422-2.422" transform="translate(-151.718 -233.386)" fill="#006d36"/>
        <path id="Trazado_884343" data-name="Trazado 884343" d="M206.229,244.991a22.367,22.367,0,0,1-8.258.7,21.946,21.946,0,0,1-3.677-.7V230.658a4.816,4.816,0,0,1,4.816-4.816h.91a6.208,6.208,0,0,1,6.208,6.208Z" transform="translate(-150.294 -174.697)" fill="#abcfbd"/>
        <path id="Trazado_884344" data-name="Trazado 884344" d="M206.222,243.528v-3.622l-5.339,1.938-4.307-5.6c-.615.808-2.291,1.389-2.291,2.021,3.559,11.364,10.031,6.9,11.935,5.264" transform="translate(-150.287 -182.744)" fill="#99c5af"/>
        <path id="Trazado_884345" data-name="Trazado 884345" d="M203.637,247.691l.29.05V228.713c-.1.057-.2.113-.29.177Z" transform="translate(-157.521 -176.918)" fill="#66a786"/>
        <path id="Trazado_884346" data-name="Trazado 884346" d="M209.062,226.034c-.138.785,1.163,1.67,2.907,1.977s3.268-.081,3.406-.861-1.162-1.67-2.907-1.977-3.268.081-3.406.861" transform="translate(-161.709 -174.098)" fill="#ffe1a6"/>
        <path id="Trazado_884347" data-name="Trazado 884347" d="M217.445,217.61c0-4.8-.938-2.306-2.094-2.306s-2.094-2.186-2.094,2.306c0,1.683.938,1.538,2.094,1.538s2.094.145,2.094-1.538" transform="translate(-164.962 -166.044)" fill="#ffe1a6"/>
        <path id="Trazado_884348" data-name="Trazado 884348" d="M213.431,216.205c.2-2.57,1.04-.9,2.046-.9,1.12,0,2.034-2.34,2.091,1.871a4.03,4.03,0,0,1-4.141-.969" transform="translate(-165.094 -166.043)" fill="#ffcd69"/>
        <path id="Trazado_884349" data-name="Trazado 884349" d="M235.917,197.378c-.243.658-.085,1.334.352,1.507s.989-.215,1.232-.875.085-1.334-.352-1.508-.988.215-1.232.875" transform="translate(-182.402 -151.97)" fill="#ffe1a6"/>
        <path id="Trazado_884350" data-name="Trazado 884350" d="M237.657,198.971a.393.393,0,0,0-.209-.022.1.1,0,0,1,.011-.034c.161-.43.525-.693.814-.578s.393.562.233,1a.874.874,0,0,1-.605.6c.143-.424.038-.851-.243-.964" transform="translate(-183.675 -153.401)" fill="#ffcd69"/>
        <path id="Trazado_884351" data-name="Trazado 884351" d="M211.231,179.327h1.863a2.651,2.651,0,0,1,2.643,2.643v3.848a3.692,3.692,0,1,1-7.383,0V182.2a2.884,2.884,0,0,1,2.876-2.876" transform="translate(-161.17 -138.716)" fill="#ffe1a6"/>
        <path id="Trazado_884352" data-name="Trazado 884352" d="M213.978,179.327h-1.863a2.884,2.884,0,0,0-2.62,1.7,7.86,7.86,0,0,0,7.126,2.246v-1.3a2.651,2.651,0,0,0-2.643-2.643" transform="translate(-162.052 -138.716)" fill="#ffcd69"/>
        <path id="Trazado_884353" data-name="Trazado 884353" d="M205.264,176.465c-1.615-3.954.468-5.74,2.255-5.506s2.752.323,2.752.323l-.439-1.465a2.621,2.621,0,0,1,1.723,1.552l-.024-2.142a5.168,5.168,0,0,1,2.343,3.954c.147,2.665-3.484,3.015-5.945.615,0,0-.117,3.193-2.665,2.665" transform="translate(-158.33 -130.904)" fill="#0f7642"/>
        <path id="Trazado_884354" data-name="Trazado 884354" d="M230.743,206.794s-.964.177-.969.356.464.267.593.19a2.285,2.285,0,0,0,.375-.546" transform="translate(-177.739 -159.963)" fill="#ffcd69"/>
        <path id="Trazado_884355" data-name="Trazado 884355" d="M235.12,199.265a.406.406,0,1,0,.431-.38.406.406,0,0,0-.431.38h0" transform="translate(-181.874 -153.845)" fill="#127744"/>
        <path id="Trazado_884356" data-name="Trazado 884356" d="M222.677,199.341a.406.406,0,1,0,.431-.38.406.406,0,0,0-.431.38h0" transform="translate(-172.249 -153.903)" fill="#127744"/>
        <path id="Trazado_884357" data-name="Trazado 884357" d="M230.624,197.556c.108.466.248.917.4,1.365.075.224.152.447.237.668l.016.042c.006.018-.007-.013,0-.028h0a.289.289,0,0,1-.041.052l-.122.12c-.084.083-.17.165-.25.26a1.642,1.642,0,0,0,.334-.149,1.279,1.279,0,0,0,.155-.108.45.45,0,0,0,.08-.08.157.157,0,0,0,.023-.043.136.136,0,0,0,0-.071l-.014-.042c-.076-.225-.161-.449-.248-.672-.173-.445-.358-.887-.572-1.315" transform="translate(-178.393 -152.817)" fill="#ffcd69"/>
        <path id="Trazado_884358" data-name="Trazado 884358" d="M224.181,208.667a8.7,8.7,0,0,1-1.651-.654c-.378-.2-.79.257-.635.719a1.581,1.581,0,0,0,1.184,1.124,1.466,1.466,0,0,0,1.2-.163.6.6,0,0,0-.108-1.027" transform="translate(-171.619 -160.868)" fill="#127744"/>
        <path id="Trazado_884359" data-name="Trazado 884359" d="M223.112,211.6a1.581,1.581,0,0,1-1.184-1.124.634.634,0,0,1-.032-.2,1.6,1.6,0,0,1,1.022.069,1.564,1.564,0,0,1,1.031,1.264,1.765,1.765,0,0,1-.83-.007" transform="translate(-171.644 -162.615)" fill="#ffd684"/>
        <path id="Trazado_884360" data-name="Trazado 884360" d="M226.024,211.675c-.083.108-.344.056-.58-.117s-.362-.4-.279-.509.342-.056.58.117.362.4.279.509" transform="translate(-174.153 -163.21)" fill="#ffdf9f"/>
        <path id="Trazado_884361" data-name="Trazado 884361" d="M224.432,208.684a8.7,8.7,0,0,1-1.651-.654.437.437,0,0,0-.585.2l-.011.024a3.213,3.213,0,0,0,1.443.884,3.6,3.6,0,0,0,1.14.175.553.553,0,0,0-.338-.627" transform="translate(-171.869 -160.885)" fill="#fff"/>
        <path id="Trazado_884362" data-name="Trazado 884362" d="M207.881,197.381c.215.666.036,1.336-.408,1.494s-.98-.253-1.2-.919-.036-1.336.407-1.494.98.253,1.2.919" transform="translate(-159.49 -151.944)" fill="#ffe1a6"/>
        <path id="Trazado_884363" data-name="Trazado 884363" d="M208.469,198.975a.4.4,0,0,1,.21-.014l-.01-.033c-.144-.44-.5-.713-.792-.607s-.414.547-.269.987a.873.873,0,0,0,.583.621c-.128-.431-.007-.852.279-.954" transform="translate(-160.545 -153.391)" fill="#ffcd69"/>
        <path id="Trazado_884364" data-name="Trazado 884364" d="M218.612,179.713a2.438,2.438,0,0,0,.053-.678,4.85,4.85,0,0,0-.072-.589,2.194,2.194,0,0,1-2.271,1.6c-1.734-.083-2.61-1.71-3.046-3.113-.29-.036-.611-.076-.969-.123a2.415,2.415,0,0,0-1.429.255c3.567,4.122,6.179,3.7,7.731,2.649" transform="translate(-163.122 -136.754)" fill="#45946c"/>
        <path id="Trazado_884365" data-name="Trazado 884365" d="M263.78,231.311v-1.044l.043-.575a.577.577,0,0,1,.619-.532l2.272.17c.007,0,.009.015.009.053a1.016,1.016,0,0,1-.466.849,2.19,2.19,0,0,1,.71,1.114.881.881,0,0,1-.8.952.9.9,0,0,1-.14,0l-1.429-.108a.88.88,0,0,1-.815-.88" transform="translate(-204.043 -177.262)" fill="#ffd684"/>
        <path id="Trazado_884366" data-name="Trazado 884366" d="M270.156,188.967l11.175-14.506a.142.142,0,0,1,.227.17L270.731,189.4a.36.36,0,1,1-.6-.4l.017-.024v-.007" transform="translate(-208.912 -134.913)" fill="#0f7642"/>
        <path id="Trazado_884367" data-name="Trazado 884367" d="M237.532,239.535l-6.589,4.092a1.782,1.782,0,0,0,2.022,2.934l6.589-4.092Z" transform="translate(-178.067 -185.289)" fill="#ffe1a6"/>
        <path id="Trazado_884368" data-name="Trazado 884368" d="M261.359,237l.248.323a2.082,2.082,0,0,0,2.917.4h0a2.083,2.083,0,0,0,.4-2.918h0l-.248-.323a2.083,2.083,0,0,0-3.32,2.516" transform="translate(-201.844 -180.747)" fill="#ffe1a6"/>
        <path id="Trazado_884369" data-name="Trazado 884369" d="M272.846,239.26h0a.545.545,0,0,0,.692.332l2.054-.826a.543.543,0,0,0-.36-1.024l-2.054.826a.545.545,0,0,0-.332.692" transform="translate(-211.034 -183.878)" fill="#ffe1a6"/>
        <path id="Trazado_884370" data-name="Trazado 884370" d="M273.609,243.619h0a.544.544,0,0,0,.67.376l2.1-.693a.543.543,0,0,0-.294-1.044l-2.1.693a.544.544,0,0,0-.376.67" transform="translate(-211.631 -187.379)" fill="#ffe1a6"/>
        <path id="Trazado_884371" data-name="Trazado 884371" d="M270.654,231.054h0a.545.545,0,0,0,.692.332l2.054-.826a.543.543,0,0,0-.36-1.024l-2.054.826a.545.545,0,0,0-.332.692" transform="translate(-209.338 -177.531)" fill="#ffe1a6"/>
        <path id="Trazado_884372" data-name="Trazado 884372" d="M271.417,235.393h0a.543.543,0,0,0,.669.376l2.1-.692a.543.543,0,1,0-.294-1.046l-2.1.693a.544.544,0,0,0-.376.67" transform="translate(-209.936 -181.016)" fill="#ffe1a6"/>
        <path id="Trazado_884373" data-name="Trazado 884373" d="M198.046,240.969l8.207,4.392a1.782,1.782,0,1,0,1.619-3.174l-8.207-4.392Z" transform="translate(-153.196 -183.943)" fill="#ffe1a6"/>
        <path id="Trazado_884374" data-name="Trazado 884374" d="M213.332,250.366a20.1,20.1,0,0,0-.131-4.112l-.942-.5-2.284,2.819Z" transform="translate(-162.424 -190.097)" fill="#ffcd69"/>
        <path id="Trazado_884375" data-name="Trazado 884375" d="M199.892,235.378l-4.224-2.339a2.456,2.456,0,0,0-2.166,4.408l4.224,2.338Z" transform="translate(-148.639 -180.079)" fill="#66a786"/>
        <path id="Trazado_884376" data-name="Trazado 884376" d="M562.582,184.014c0,7.753-4.528,9.314-1.094,14.249s14.121,1.416,11.03-5.193-2.919-10.558-2.919-10.558Z" transform="translate(-433.337 -141.18)" fill="#0f7642"/>
        <path id="Trazado_884377" data-name="Trazado 884377" d="M512.04,270.628l9.308-.069a1.782,1.782,0,1,1,.033,3.564h-.076l-9.308.069Z" transform="translate(-396.049 -209.288)" fill="#ffcd69"/>
        <path id="Trazado_884378" data-name="Trazado 884378" d="M553.6,240.947l-4.811,7.968a1.782,1.782,0,1,1-3.015-1.9l4.812-7.968Z" transform="translate(-421.962 -184.91)" fill="#ffcd69"/>
        <path id="Trazado_884379" data-name="Trazado 884379" d="M565.348,433.511h.4a1.445,1.445,0,0,0,1.441-1.441v-1.978a1.445,1.445,0,0,0-1.441-1.441h-.4a1.444,1.444,0,0,0-1.441,1.441v1.978a1.445,1.445,0,0,0,1.441,1.441" transform="translate(-436.203 -331.579)" fill="#ffd786"/>
        <path id="Trazado_884380" data-name="Trazado 884380" d="M549.441,438.622h-.108a.2.2,0,0,0-.187.131,1.442,1.442,0,0,1-2.741,0,.2.2,0,0,0-.187-.131h-1.061a.2.2,0,0,0-.1.025l-2.75,1.5a2.283,2.283,0,0,0-.936.958l-.388.754a.811.811,0,0,0,.72,1.184h7.172a.872.872,0,0,0,.871-.873c0-.025,0-.05,0-.074Z" transform="translate(-418.403 -339.291)" fill="#aae882"/>
        <path id="Trazado_884381" data-name="Trazado 884381" d="M570.208,446a.809.809,0,1,1-.785-1,.914.914,0,0,1,.785,1" transform="translate(-439.844 -344.219)" fill="#fff"/>
        <path id="Trazado_884382" data-name="Trazado 884382" d="M548.946,456.56h-8.258a.4.4,0,0,1,0-.794h8.257a.4.4,0,1,1,.042.794h-.042" transform="translate(-417.952 -352.552)" fill="#ffd582"/>
        <rect id="Rectángulo_404629" data-name="Rectángulo 404629" width="12.481" height="4.668" transform="matrix(0.104, -0.995, 0.995, 0.104, 126.72, 83.815)" fill="#78b294"/>
        <path id="Trazado_884383" data-name="Trazado 884383" d="M559.919,382.713l-.191-15.828c2.578-.031,4.693-.553,4.724,2.024l.135,13.75Z" transform="translate(-432.971 -283.75)" fill="#78b294"/>
        <path id="Trazado_884384" data-name="Trazado 884384" d="M571.178,308.081h-3.469a3.828,3.828,0,0,1-3.816-3.816,2.563,2.563,0,0,1,2.555-2.554h5.992a2.562,2.562,0,0,1,2.554,2.554,3.827,3.827,0,0,1-3.816,3.816" transform="translate(-436.193 -233.385)" fill="#78b294"/>
        <path id="Trazado_884385" data-name="Trazado 884385" d="M604.608,433.511h.4a1.445,1.445,0,0,0,1.441-1.441v-1.978a1.445,1.445,0,0,0-1.441-1.441h-.4a1.445,1.445,0,0,0-1.441,1.441v1.978a1.445,1.445,0,0,0,1.441,1.441" transform="translate(-466.573 -331.579)" fill="#ffd786"/>
        <path id="Trazado_884386" data-name="Trazado 884386" d="M588.719,438.622h-.108a.2.2,0,0,0-.187.131,1.442,1.442,0,0,1-2.742,0,.2.2,0,0,0-.187-.131h-1.061a.2.2,0,0,0-.1.025l-2.749,1.5a2.28,2.28,0,0,0-.936.958l-.388.754a.811.811,0,0,0,.721,1.184h7.17a.872.872,0,0,0,.871-.873c0-.025,0-.05,0-.074Z" transform="translate(-448.786 -339.291)" fill="#aae882"/>
        <path id="Trazado_884387" data-name="Trazado 884387" d="M609.467,446a.809.809,0,1,1-.785-1,.914.914,0,0,1,.785,1" transform="translate(-470.213 -344.219)" fill="#fff"/>
        <path id="Trazado_884388" data-name="Trazado 884388" d="M588.072,456.56h-8.257a.4.4,0,1,1-.041-.794h8.3a.4.4,0,0,1,0,.794" transform="translate(-448.186 -352.552)" fill="#ffe1a6"/>
        <path id="Trazado_884389" data-name="Trazado 884389" d="M597.151,316.223l-.046,12.641-4.621-.161v-12.48Z" transform="translate(-458.309 -244.61)" fill="#78b294"/>
        <path id="Trazado_884390" data-name="Trazado 884390" d="M593.993,384.187l-1.467-15.074c2.565-.253,4.54-1.637,4.793.929l1.32,13.688Z" transform="translate(-458.341 -285.059)" fill="#78b294"/>
        <path id="Trazado_884391" data-name="Trazado 884391" d="M573.563,301.712h-6.255A2.427,2.427,0,0,0,565.172,303a12.009,12.009,0,0,0,10.7,2.362,3.57,3.57,0,0,0,.117-.895v-.333a2.428,2.428,0,0,0-2.42-2.422" transform="translate(-437.182 -233.386)" fill="#47966e"/>
        <path id="Trazado_884392" data-name="Trazado 884392" d="M561.566,229.239l-.3-1.491c1.311-.873,2.514-1.274,5.208-1.274a21.6,21.6,0,0,1,2.893.538,3.4,3.4,0,0,1,2.541,3.594l-.952,4.565,1.777,10.311c-5.263,1.23-12.44,0-12.44,0l1.556-10.014c-1.615-1.442-1.071-3.493-.287-6.245" transform="translate(-433.413 -175.186)" fill="#ffbd38"/>
        <path id="Trazado_884393" data-name="Trazado 884393" d="M577.677,264.863c-3.182-2.032-4.783-.247-4.783-.247s3.161,1.047,4.783.247" transform="translate(-443.155 -204.13)" fill="#ffad09"/>
        <path id="Trazado_884394" data-name="Trazado 884394" d="M577.292,217.61c0-4.8.938-2.306,2.094-2.306s2.094-2.186,2.094,2.306c0,1.683-.938,1.538-2.094,1.538s-2.094.145-2.094-1.538" transform="translate(-446.557 -166.044)" fill="#ffe1a6"/>
        <path id="Trazado_884395" data-name="Trazado 884395" d="M581.467,216.205c-.2-2.57-1.04-.9-2.046-.9-1.12,0-2.034-2.34-2.091,1.871a4.03,4.03,0,0,0,4.141-.969" transform="translate(-446.587 -166.043)" fill="#ffcd69"/>
        <path id="Trazado_884396" data-name="Trazado 884396" d="M566.948,197.378c.243.658.085,1.334-.352,1.507s-.989-.215-1.232-.875-.085-1.334.352-1.508.988.215,1.232.875" transform="translate(-437.243 -151.97)" fill="#ffe1a6"/>
        <path id="Trazado_884397" data-name="Trazado 884397" d="M567.522,198.971a.393.393,0,0,1,.209-.022.1.1,0,0,0-.011-.034c-.161-.43-.524-.693-.814-.578s-.393.562-.233,1a.874.874,0,0,0,.605.6c-.143-.424-.038-.851.243-.964" transform="translate(-438.285 -153.401)" fill="#ffcd69"/>
        <path id="Trazado_884398" data-name="Trazado 884398" d="M572.6,179.327h-1.863a2.651,2.651,0,0,0-2.643,2.643v3.848a3.692,3.692,0,1,0,7.383,0V182.2a2.884,2.884,0,0,0-2.876-2.876" transform="translate(-439.441 -138.716)" fill="#ffe1a6"/>
        <path id="Trazado_884399" data-name="Trazado 884399" d="M570.73,179.327h1.863a2.884,2.884,0,0,1,2.62,1.7,7.86,7.86,0,0,1-7.126,2.246v-1.3a2.652,2.652,0,0,1,2.643-2.643" transform="translate(-439.437 -138.716)" fill="#ffcd69"/>
        <path id="Trazado_884400" data-name="Trazado 884400" d="M573.725,181.388c-2.692-.036-2.932-1.967-2.846-2.739,0,0-2.21,2.081-4.1,1.438a3.571,3.571,0,0,1-.172-3.026c.714-1.363,3.133-1.077,3.133-1.077s2.4-1.448,4.1.15c2.6,2.446-.116,5.25-.116,5.25" transform="translate(-438.094 -135.665)" fill="#0f7642"/>
        <path id="Trazado_884401" data-name="Trazado 884401" d="M574.977,206.794s.963.177.969.356-.464.267-.593.19a2.284,2.284,0,0,1-.375-.546" transform="translate(-444.766 -159.963)" fill="#ffcd69"/>
        <path id="Trazado_884402" data-name="Trazado 884402" d="M571.156,199.265a.406.406,0,1,1-.431-.38.406.406,0,0,1,.431.38h0" transform="translate(-441.183 -153.845)" fill="#127744"/>
        <path id="Trazado_884403" data-name="Trazado 884403" d="M583.6,199.341a.406.406,0,1,1-.431-.38.406.406,0,0,1,.431.38h0" transform="translate(-450.811 -153.903)" fill="#127744"/>
        <path id="Trazado_884404" data-name="Trazado 884404" d="M575.561,197.556c-.108.466-.248.917-.4,1.365-.075.224-.152.447-.237.668l-.016.042c-.006.018.007-.013,0-.028h0a.292.292,0,0,0,.041.052l.122.12c.084.083.17.165.25.26a1.642,1.642,0,0,1-.334-.149,1.256,1.256,0,0,1-.155-.108.449.449,0,0,1-.08-.08.156.156,0,0,1-.023-.043.135.135,0,0,1,0-.071l.014-.042c.076-.225.161-.449.247-.672.173-.445.358-.887.572-1.315" transform="translate(-444.573 -152.817)" fill="#ffcd69"/>
        <path id="Trazado_884405" data-name="Trazado 884405" d="M584.586,199.45a.529.529,0,0,0,.692-.477l-.73.054Z" transform="translate(-452.17 -153.913)" fill="#127744"/>
        <path id="Trazado_884406" data-name="Trazado 884406" d="M569.744,199.45a.529.529,0,0,1-.692-.477l.73.054Z" transform="translate(-440.183 -153.913)" fill="#127744"/>
        <path id="Trazado_884407" data-name="Trazado 884407" d="M574.763,210.018a4.246,4.246,0,0,0,2.3-.632,1.254,1.254,0,0,1-1.034,1.05,1.1,1.1,0,0,1-1.268-.418" transform="translate(-444.601 -161.968)" fill="#ffcd69"/>
        <path id="Trazado_884408" data-name="Trazado 884408" d="M574.763,210.018l2.3-.632a3.346,3.346,0,0,1-2.3.632" transform="translate(-444.601 -161.968)" fill="#ffd37a"/>
        <path id="Trazado_884409" data-name="Trazado 884409" d="M595.054,197.381c-.215.666-.037,1.336.407,1.494s.98-.253,1.2-.919.037-1.336-.407-1.494-.98.253-1.2.919" transform="translate(-460.226 -151.944)" fill="#ffe1a6"/>
        <path id="Trazado_884410" data-name="Trazado 884410" d="M596.716,198.975a.4.4,0,0,0-.215-.014.12.12,0,0,1,.01-.033c.144-.44.5-.713.792-.607s.414.547.269.987a.872.872,0,0,1-.582.621c.127-.431.006-.852-.279-.954" transform="translate(-461.416 -153.391)" fill="#ffcd69"/>
        <path id="Trazado_884411" data-name="Trazado 884411" d="M534.879,260.1l-.452-.942-.287-.5a.577.577,0,0,0-.787-.215l-1.977,1.133c-.007,0,0,.017.015.051a1.017,1.017,0,0,0,.786.564,2.19,2.19,0,0,0-.158,1.31.881.881,0,0,0,1.135.513.851.851,0,0,0,.127-.06l1.244-.713a.881.881,0,0,0,.356-1.145" transform="translate(-411.036 -199.852)" fill="#ffd684"/>
        <path id="Trazado_884412" data-name="Trazado 884412" d="M545.4,264.711l9.219,1.282a1.782,1.782,0,1,1-.56,3.52l-9.22-1.282Z" transform="translate(-421.456 -204.764)" fill="#ffe1a6"/>
        <path id="Trazado_884413" data-name="Trazado 884413" d="M536.589,264.273l-.083.4a2.083,2.083,0,1,1-4.08-.84l.083-.4a2.083,2.083,0,0,1,4.08.84" transform="translate(-411.819 -202.489)" fill="#ffe1a6"/>
        <path id="Trazado_884414" data-name="Trazado 884414" d="M531.206,271.922h0a.545.545,0,0,1-.481.6l-2.21.141a.542.542,0,0,1-.116-1.077l2.209-.141a.544.544,0,0,1,.6.481" transform="translate(-408.362 -209.969)" fill="#ffe1a6"/>
        <path id="Trazado_884415" data-name="Trazado 884415" d="M532.222,275.748h0a.545.545,0,0,1-.443.628l-2.2.281a.543.543,0,0,1-.185-1.069l2.2-.281a.545.545,0,0,1,.628.443" transform="translate(-409.161 -212.954)" fill="#ffe1a6"/>
        <path id="Trazado_884416" data-name="Trazado 884416" d="M525.43,263.35h0a.545.545,0,0,1-.481.6l-3.675.309a.541.541,0,1,1-.116-1.077l3.675-.31a.545.545,0,0,1,.6.481" transform="translate(-402.761 -203.337)" fill="#ffe1a6"/>
        <path id="Trazado_884417" data-name="Trazado 884417" d="M530.662,267.4h0a.545.545,0,0,1-.443.628l-2.2.281a.543.543,0,0,1-.185-1.069l2.2-.281a.545.545,0,0,1,.628.443" transform="translate(-407.954 -206.496)" fill="#ffe1a6"/>
        <path id="Trazado_884418" data-name="Trazado 884418" d="M584.933,230.976a1.781,1.781,0,0,1,.953,2.3l-3.594,8.937a1.782,1.782,0,0,1-3.277-1.4l3.565-8.868a1.782,1.782,0,0,1,2.321-.982l.032.013" transform="translate(-447.791 -178.56)" fill="#ffe1a6"/>
        <rect id="Rectángulo_404630" data-name="Rectángulo 404630" width="13.708" height="0.468" transform="translate(110.069 63.899)" fill="#f2f8f5"/>
        <rect id="Rectángulo_404631" data-name="Rectángulo 404631" width="9.372" height="0.468" transform="translate(110.069 63.899)" fill="#a8cdbb"/>
        <path id="Trazado_884419" data-name="Trazado 884419" d="M479.363,259.653h9.373l-1.958-6.591h-9.368Z" transform="translate(-369.295 -195.753)" fill="#a8cdbb"/>
        <path id="Trazado_884420" data-name="Trazado 884420" d="M518.776,253.062h.355l1.991,6.61-.384-.022Z" transform="translate(-401.293 -195.753)" fill="#f2f8f5"/>
        <path id="Trazado_884421" data-name="Trazado 884421" d="M495.931,264.848a.861.861,0,1,0,.505-1.217.937.937,0,0,0-.505,1.217" transform="translate(-383.568 -203.898)" fill="#f2f8f5"/>
        <path id="Trazado_884422" data-name="Trazado 884422" d="M495.835,277.718a1.372,1.372,0,0,1-1.82-.409,4.287,4.287,0,0,0-.277-.7l.884-1.253s.539.356.132,1.114c0,0,.923-.108,1.077,1.247" transform="translate(-381.926 -212.999)" fill="#ffcd69"/>
        <path id="Trazado_884423" data-name="Trazado 884423" d="M502.266,272.193s-3.086.277-3.679-.08-.811-3.876,1.253-4.074c2.757-.264,2.427,4.154,2.427,4.154" transform="translate(-385.359 -207.33)" fill="#ffe1a6"/>
      </g>
    </g>
  </g>
</svg>
