<svg id="Grupo_1103245" data-name="Grupo 1103245" xmlns="http://www.w3.org/2000/svg" width="72" height="96.284" viewBox="0 0 72 96.284">
  <rect id="Rectángulo_402033" data-name="Rectángulo 402033" width="72" height="96.284" rx="5" fill="#ffde9c"/>
  <g id="Grupo_1100438" data-name="Grupo 1100438" transform="translate(10.336 13.068)">
    <path id="Trazado_874995" data-name="Trazado 874995" d="M84.465,97.724H58.8s-3.517.635-3.517,4.063V137.3h45.477V126.529Z" transform="translate(-54.457 -88.622)" fill="#e5eaff"/>
    <path id="Trazado_874996" data-name="Trazado 874996" d="M284.07,53.472V86.933l1.3,2.051h17.3l1.894-.835V59.184l-5.226-7.56-13.309-.765Z" transform="translate(-254.062 -49.75)" fill="#4bf7ff"/>
    <path id="Trazado_874997" data-name="Trazado 874997" d="M284.07,198.841v4.564l1.3,2.051h17.3l1.894-.835V191.28C301.915,195.221,295.81,201.255,284.07,198.841Z" transform="translate(-254.061 -166.221)" fill="#62caf1"/>
    <path id="Trazado_874998" data-name="Trazado 874998" d="M399.251,60.128V66.54h5.219l-.512-1.7-3.525-4.714Z" transform="translate(-354.552 -57.438)" fill="#fecc00"/>
    <path id="Trazado_874999" data-name="Trazado 874999" d="M384.5,128.586v4.44h4.145S386.566,127.595,384.5,128.586Z" transform="translate(-341.685 -114.12)" fill="#09d069"/>
    <path id="Trazado_875000" data-name="Trazado 875000" d="M326.495,133.895v7.3h6.11s-1.3,5.788-4.937,6.059-6.02-2.759-5.842-6.438S324.755,132.38,326.495,133.895Z" transform="translate(-286.994 -118.384)" fill="#fe2640"/>
    <path id="Trazado_875001" data-name="Trazado 875001" d="M188.169,191.28h5.79v18.475h-5.79Z" transform="translate(-170.392 -166.221)" fill="#fee700"/>
    <path id="Trazado_875002" data-name="Trazado 875002" d="M138.445,227.479h5.517v12.3h-5.517Z" transform="translate(-127.01 -196.246)" fill="#fe2640"/>
    <path id="Trazado_875003" data-name="Trazado 875003" d="M90.589,264.057h5.757v6.062H90.589Z" transform="translate(-85.257 -226.586)" fill="#09d069"/>
    <path id="Trazado_875004" data-name="Trazado 875004" d="M193.959,235.873c-1.439,2.141-3.588,4.319-5.79,2.844v8.025h5.79Z" transform="translate(-170.392 -203.209)" fill="#fecc00"/>
    <path id="Trazado_875005" data-name="Trazado 875005" d="M143.962,248.14c-1.029,1.648-2.969,3.883-5.517,2.87v5.906h5.517Z" transform="translate(-127.01 -213.383)" fill="#d82140"/>
    <path id="Trazado_875006" data-name="Trazado 875006" d="M96.346,264.057H95.2c-.324,1.693-1.353,4.39-4.61,3.934v2.127h5.757v-6.062Z" transform="translate(-85.257 -226.586)" fill="#10af58"/>
    <path id="Trazado_875007" data-name="Trazado 875007" d="M53.976,329.785H99l.15,5.11a4.387,4.387,0,0,1-4.021,4.063h-39.3s-2.562-1.842-2.562-3.646a42.238,42.238,0,0,1,.714-5.527Z" transform="translate(-52.691 -281.103)" fill="#076082"/>
    <path id="Trazado_875008" data-name="Trazado 875008" d="M301.7,329.785h-9.986a14.694,14.694,0,0,1-6.116,9.172h12.231a4.387,4.387,0,0,0,4.021-4.063Z" transform="translate(-255.398 -281.103)" fill="#023140"/>
    <path id="Trazado_875009" data-name="Trazado 875009" d="M167.051,386.7h13.662l1.456,10.65h-17.26Z" transform="translate(-150.099 -328.31)" fill="#4bf7ff"/>
    <path id="Trazado_875010" data-name="Trazado 875010" d="M180.713,386.7H177.5c-1.1,3.247-4.038,7.664-11.938,7.424l-.649,3.226h17.26Z" transform="translate(-150.099 -328.31)" fill="#62caf1"/>
    <g id="Grupo_1100438-2" data-name="Grupo 1100438" transform="translate(0 0)">
      <path id="Trazado_875011" data-name="Trazado 875011" d="M92.675,44.358H80.748c-1.535,0-2.783,1.67-2.783,3.722v4.271H52.653c-2.132,0-3.867,2.32-3.867,5.171V98.15c0,2.852,1.735,5.171,3.867,5.171H64.694l-1.564,8.968H57.182c-.458,0-.829.5-.829,1.109s.371,1.109.829,1.109H87.674c.458,0,.829-.5.829-1.109s-.371-1.109-.829-1.109H81.726l-1.564-8.968H92.2c2.132,0,3.867-2.32,3.867-5.171V84.7h1.258c1.535,0,2.783-1.67,2.783-3.722V54.3a4.407,4.407,0,0,0-.815-2.632l-4.654-6.223a2.472,2.472,0,0,0-1.968-1.09Zm1.638,3.785,2.874,3.844H94.313Zm-14.29,64.145H64.832l1.564-8.968H78.46ZM92.2,101.1H52.653c-1.218,0-2.209-1.325-2.209-2.954v-4H94.412v4c0,1.629-.991,2.954-2.209,2.954Zm2.209-9.172H50.444V57.523c0-1.629.991-2.954,2.209-2.954H77.965V80.98c0,2.052,1.249,3.722,2.783,3.722H94.412ZM98.454,80.98c0,.83-.5,1.5-1.125,1.5H80.748c-.62,0-1.125-.675-1.125-1.5V48.08c0-.83.5-1.5,1.125-1.5H92.655V53.1c0,.612.371,1.109.829,1.109H98.45c0,.033,0,.066,0,.1Z" transform="translate(-48.786 -44.358)" fill="#070606"/>
      <path id="Trazado_875012" data-name="Trazado 875012" d="M103.228,181.621h-6.1c-.458,0-.829.5-.829,1.109v5.383H91.021c-.458,0-.829.5-.829,1.109v5.142H84.918c-.458,0-.829.5-.829,1.109v6.67c0,.612.371,1.109.829,1.109h18.311c.458,0,.829-.5.829-1.109V182.73c0-.612-.371-1.109-.829-1.109ZM85.747,196.58h4.446v4.453H85.747Zm6.1-1.109V190.33H96.3v10.7H91.85Zm10.549,5.561H97.954V183.838H102.4Z" transform="translate(-79.586 -158.21)" fill="#070606"/>
      <path id="Trazado_875013" data-name="Trazado 875013" d="M375.952,116.711a.692.692,0,0,0-.666.255,1.293,1.293,0,0,0-.289.841v6.056c0,.612.371,1.109.829,1.109h4.529a.763.763,0,0,0,.629-.387,1.383,1.383,0,0,0,.19-.89C380.759,120.073,378.66,117.266,375.952,116.711Zm.7,6.043v-3.508a5.693,5.693,0,0,1,2.623,3.508Z" transform="translate(-333.392 -104.36)" fill="#070606"/>
      <path id="Trazado_875014" data-name="Trazado 875014" d="M327,132.428h-5.358v-7.165a1.293,1.293,0,0,0-.289-.841.692.692,0,0,0-.666-.255c-3.019.62-5.295,4.171-5.295,8.26,0,4.608,2.8,8.358,6.25,8.358,3.058,0,5.714-3.044,6.177-7.081a1.382,1.382,0,0,0-.19-.89.763.763,0,0,0-.629-.387Zm-5.358,6.14c-2.532,0-4.592-2.755-4.592-6.14a6.423,6.423,0,0,1,2.934-5.726v5.726c0,1.223.744,2.217,1.658,2.217h4.282C325.246,136.951,323.55,138.568,321.639,138.568Z" transform="translate(-281.386 -110.544)" fill="#070606"/>
      <path id="Trazado_875015" data-name="Trazado 875015" d="M84.918,129.414h2.191c.458,0,.829-.5.829-1.109s-.371-1.109-.829-1.109H84.918c-.458,0-.829.5-.829,1.109S84.46,129.414,84.918,129.414Z" transform="translate(-79.586 -113.068)" fill="#070606"/>
      <path id="Trazado_875016" data-name="Trazado 875016" d="M84.918,179.432h8.016c.458,0,.829-.5.829-1.109s-.371-1.109-.829-1.109H84.918c-.458,0-.829.5-.829,1.109S84.46,179.432,84.918,179.432Z" transform="translate(-79.586 -154.555)" fill="#070606"/>
      <path id="Trazado_875017" data-name="Trazado 875017" d="M84.918,154.423h8.016c.458,0,.829-.5.829-1.109s-.371-1.109-.829-1.109H84.918c-.458,0-.829.5-.829,1.109S84.46,154.423,84.918,154.423Z" transform="translate(-79.586 -133.812)" fill="#070606"/>
      <path id="Trazado_875018" data-name="Trazado 875018" d="M385.695,238.528h-1.942c-.458,0-.829.5-.829,1.109s.371,1.109.829,1.109h1.942c.458,0,.829-.5.829-1.109S386.153,238.528,385.695,238.528Z" transform="translate(-340.308 -205.411)" fill="#070606"/>
      <path id="Trazado_875019" data-name="Trazado 875019" d="M230.427,127.2h-1.942c-.458,0-.829.5-.829,1.109s.371,1.109.829,1.109h1.942c.458,0,.829-.5.829-1.109S230.885,127.2,230.427,127.2Z" transform="translate(-204.843 -113.068)" fill="#070606"/>
    </g>
  </g>
</svg>
