<svg id="Grupo_1104147" data-name="Grupo 1104147" xmlns="http://www.w3.org/2000/svg" xmlns:xlink="http://www.w3.org/1999/xlink" width="292.238" height="258.849" viewBox="0 0 292.238 258.849">
  <defs>
    <clipPath id="clip-path">
      <rect id="Rectángulo_404532" data-name="Rectángulo 404532" width="292.238" height="258.849" fill="none"/>
    </clipPath>
    <clipPath id="clip-path-3">
      <rect id="Rectángulo_404506" data-name="Rectángulo 404506" width="23.979" height="23.979" fill="none"/>
    </clipPath>
    <clipPath id="clip-path-7">
      <rect id="Rectángulo_404512" data-name="Rectángulo 404512" width="85.758" height="24.46" fill="none"/>
    </clipPath>
    <clipPath id="clip-path-8">
      <rect id="Rectángulo_404514" data-name="Rectángulo 404514" width="7.814" height="8.277" fill="none"/>
    </clipPath>
    <clipPath id="clip-path-9">
      <rect id="Rectángulo_404515" data-name="Rectángulo 404515" width="21.439" height="29.02" fill="none"/>
    </clipPath>
    <clipPath id="clip-path-10">
      <rect id="Rectángulo_404516" data-name="Rectángulo 404516" width="8.307" height="5.221" fill="none"/>
    </clipPath>
    <clipPath id="clip-path-11">
      <rect id="Rectángulo_404517" data-name="Rectángulo 404517" width="10.736" height="14.918" fill="none"/>
    </clipPath>
    <clipPath id="clip-path-12">
      <rect id="Rectángulo_404518" data-name="Rectángulo 404518" width="26.691" height="105.394" fill="none"/>
    </clipPath>
    <clipPath id="clip-path-13">
      <rect id="Rectángulo_404519" data-name="Rectángulo 404519" width="23.432" height="111.203" fill="none"/>
    </clipPath>
    <clipPath id="clip-path-14">
      <rect id="Rectángulo_404520" data-name="Rectángulo 404520" width="32.496" height="111.06" fill="none"/>
    </clipPath>
    <clipPath id="clip-path-15">
      <rect id="Rectángulo_404521" data-name="Rectángulo 404521" width="11.957" height="12.598" fill="none"/>
    </clipPath>
    <clipPath id="clip-path-16">
      <rect id="Rectángulo_404522" data-name="Rectángulo 404522" width="8.267" height="13.178" fill="none"/>
    </clipPath>
    <clipPath id="clip-path-17">
      <rect id="Rectángulo_404523" data-name="Rectángulo 404523" width="2.92" height="11.161" fill="none"/>
    </clipPath>
    <clipPath id="clip-path-18">
      <rect id="Rectángulo_404524" data-name="Rectángulo 404524" width="20.114" height="7.114" fill="none"/>
    </clipPath>
    <clipPath id="clip-path-20">
      <rect id="Rectángulo_404526" data-name="Rectángulo 404526" width="19.2" height="15.97" fill="none"/>
    </clipPath>
    <clipPath id="clip-path-21">
      <rect id="Rectángulo_404527" data-name="Rectángulo 404527" width="23.073" height="45.982" fill="none"/>
    </clipPath>
    <clipPath id="clip-path-22">
      <rect id="Rectángulo_404528" data-name="Rectángulo 404528" width="29.276" height="9.843" fill="none"/>
    </clipPath>
    <clipPath id="clip-path-23">
      <rect id="Rectángulo_404529" data-name="Rectángulo 404529" width="6.906" height="9.029" fill="none"/>
    </clipPath>
    <clipPath id="clip-path-24">
      <rect id="Rectángulo_404530" data-name="Rectángulo 404530" width="6.325" height="9.61" fill="none"/>
    </clipPath>
  </defs>
  <g id="Grupo_1104146" data-name="Grupo 1104146" clip-path="url(#clip-path)">
    <g id="Grupo_1104145" data-name="Grupo 1104145">
      <g id="Grupo_1104144" data-name="Grupo 1104144" clip-path="url(#clip-path)">
        <path id="Trazado_883829" data-name="Trazado 883829" d="M286.9,371.171H5.335a5.335,5.335,0,0,1,0-10.671H286.9a5.335,5.335,0,1,1,0,10.671" transform="translate(0 -112.322)" fill="#bfd8d5"/>
        <path id="Trazado_883830" data-name="Trazado 883830" d="M177.387,111.213c-1.859-2.045,2.29-7.483,3.339-9.48q2.907-5.538,5.815-11.075c2.478-4.72,5.328-14.466,10.056-17.015,5.461-2.944,18.233-.7,24.231-.157,4.3.388,9.659,5.934,5.027,9.876-1.36,1.158-3.5,1.116-5.177,1.035a70.23,70.23,0,0,1-7.482-.969,39.656,39.656,0,0,0-7.3-.722,9.274,9.274,0,0,0-2.75.465c-1.5.513-2.626,2.016-3.474,3.319a39.88,39.88,0,0,0-1.729,3.6c-1.568,3.024-3.044,6.1-4.567,9.144l-4.508,9.025c-.62,1.241-2.424,6.411-3.512,6.749a2.44,2.44,0,0,1-1.442-.118,24.33,24.33,0,0,1-6.2-3.393,1.821,1.821,0,0,1-.325-.28" transform="translate(-55.121 -22.482)" fill="#0f4e62"/>
        <path id="Trazado_883831" data-name="Trazado 883831" d="M251.528,272.754a7.564,7.564,0,0,1-7.481,7.748H115.715a7.741,7.741,0,0,1-7.69-7.748V99.693a7.69,7.69,0,0,1,7.69-7.69H244.047a7.514,7.514,0,0,1,7.481,7.69Z" transform="translate(-33.658 -28.666)" fill="#734444"/>
        <path id="Trazado_883832" data-name="Trazado 883832" d="M118.511,274.441V99.753H250.393l.277,174.735Z" transform="translate(-36.925 -31.08)" fill="#fae3e3"/>
        <path id="Trazado_883833" data-name="Trazado 883833" d="M112.57,278.679V103.991H244.452l.277,174.735Z" transform="translate(-35.074 -32.4)" fill="#a1eae2"/>
        <path id="Trazado_883834" data-name="Trazado 883834" d="M117.57,279.179V104.491H249.452l.277,174.735Z" transform="translate(-36.631 -32.556)" fill="#f4d9a1"/>
        <path id="Trazado_883835" data-name="Trazado 883835" d="M116.264,276.688V102H248.146l.277,174.735Z" transform="translate(-36.225 -31.78)" fill="#f9fff9"/>
        <path id="Trazado_883836" data-name="Trazado 883836" d="M215.553,168.045h42.534V166.4H215.553Zm17.985,4.211h24.549v-1.648H233.538Z" transform="translate(-67.16 -51.845)" fill="#3fa9a8"/>
        <rect id="Rectángulo_404498" data-name="Rectángulo 404498" width="42.534" height="1.648" transform="translate(148.393 109.525)" fill="#3fa9a8"/>
        <rect id="Rectángulo_404499" data-name="Rectángulo 404499" width="42.534" height="1.648" transform="translate(148.393 104.28)" fill="#3fa9a8"/>
        <rect id="Rectángulo_404500" data-name="Rectángulo 404500" width="42.534" height="1.648" transform="translate(148.393 140.079)" fill="#3fa9a8"/>
        <rect id="Rectángulo_404501" data-name="Rectángulo 404501" width="42.534" height="1.648" transform="translate(148.393 134.834)" fill="#3fa9a8"/>
        <rect id="Rectángulo_404502" data-name="Rectángulo 404502" width="42.534" height="1.648" transform="translate(148.393 171.019)" fill="#3fa9a8"/>
        <rect id="Rectángulo_404503" data-name="Rectángulo 404503" width="42.534" height="1.648" transform="translate(148.393 165.774)" fill="#3fa9a8"/>
        <rect id="Rectángulo_404504" data-name="Rectángulo 404504" width="42.534" height="1.648" transform="translate(148.393 200.026)" fill="#3fa9a8"/>
        <rect id="Rectángulo_404505" data-name="Rectángulo 404505" width="42.534" height="1.648" transform="translate(148.393 194.781)" fill="#3fa9a8"/>
        <path id="Trazado_883837" data-name="Trazado 883837" d="M215.553,212.881h42.534v-1.648H215.553Zm17.985,4.211h24.549v-1.648H233.538Z" transform="translate(-67.16 -65.814)" fill="#3fa9a8"/>
        <path id="Trazado_883838" data-name="Trazado 883838" d="M215.553,257.717h42.534v-1.648H215.553Zm17.985,4.211h24.549V260.28H233.538Z" transform="translate(-67.16 -79.784)" fill="#3fa9a8"/>
        <path id="Trazado_883839" data-name="Trazado 883839" d="M215.553,302.553h42.534V300.9H215.553Zm17.985,4.211h24.549v-1.648H233.538Z" transform="translate(-67.16 -93.754)" fill="#3fa9a8"/>
        <g id="Grupo_1104080" data-name="Grupo 1104080" transform="translate(102.596 99.665)" opacity="0.2">
          <g id="Grupo_1104079" data-name="Grupo 1104079">
            <g id="Grupo_1104078" data-name="Grupo 1104078" clip-path="url(#clip-path-3)">
              <path id="Trazado_883840" data-name="Trazado 883840" d="M173.008,156.761a11.99,11.99,0,1,1-11.99-11.99,11.99,11.99,0,0,1,11.99,11.99" transform="translate(-149.029 -144.772)" fill="#bb6576"/>
            </g>
          </g>
        </g>
        <g id="Grupo_1104083" data-name="Grupo 1104083" transform="translate(102.596 130.992)" opacity="0.2">
          <g id="Grupo_1104082" data-name="Grupo 1104082">
            <g id="Grupo_1104081" data-name="Grupo 1104081" clip-path="url(#clip-path-3)">
              <path id="Trazado_883841" data-name="Trazado 883841" d="M173.008,202.267a11.99,11.99,0,1,1-11.99-11.99,11.99,11.99,0,0,1,11.99,11.99" transform="translate(-149.029 -190.277)" fill="#bb6576"/>
            </g>
          </g>
        </g>
        <g id="Grupo_1104086" data-name="Grupo 1104086" transform="translate(102.596 162.32)" opacity="0.2">
          <g id="Grupo_1104085" data-name="Grupo 1104085">
            <g id="Grupo_1104084" data-name="Grupo 1104084" clip-path="url(#clip-path-3)">
              <path id="Trazado_883842" data-name="Trazado 883842" d="M173.008,247.773a11.99,11.99,0,1,1-11.99-11.99,11.99,11.99,0,0,1,11.99,11.99" transform="translate(-149.029 -235.783)" fill="#bb6576"/>
            </g>
          </g>
        </g>
        <g id="Grupo_1104089" data-name="Grupo 1104089" transform="translate(102.596 193.647)" opacity="0.2">
          <g id="Grupo_1104088" data-name="Grupo 1104088">
            <g id="Grupo_1104087" data-name="Grupo 1104087" clip-path="url(#clip-path-3)">
              <path id="Trazado_883843" data-name="Trazado 883843" d="M173.008,293.278a11.99,11.99,0,1,1-11.99-11.99,11.99,11.99,0,0,1,11.99,11.99" transform="translate(-149.029 -281.288)" fill="#bb6576"/>
            </g>
          </g>
        </g>
        <path id="Trazado_883844" data-name="Trazado 883844" d="M178.326,154.824l-4.312-4.307-11.3,11.3-4.372-4.373-4.312,4.314,8.678,8.68.006-.012.013.012Z" transform="translate(-47.991 -46.897)" fill="#3fa9a8"/>
        <path id="Trazado_883845" data-name="Trazado 883845" d="M178.326,199.985l-4.312-4.308-11.3,11.3-4.372-4.373-4.312,4.313,8.678,8.681.006-.012.013.012Z" transform="translate(-47.991 -60.967)" fill="#3fa9a8"/>
        <path id="Trazado_883846" data-name="Trazado 883846" d="M178.326,246.023l-4.312-4.307-11.3,11.3-4.372-4.373-4.312,4.314,8.678,8.68.006-.012.013.012Z" transform="translate(-47.991 -75.312)" fill="#3fa9a8"/>
        <path id="Trazado_883847" data-name="Trazado 883847" d="M178.326,290.307,174.014,286l-11.3,11.3-4.372-4.373-4.312,4.313,8.678,8.68.006-.012.013.012Z" transform="translate(-47.991 -89.109)" fill="#3fa9a8"/>
        <rect id="Rectángulo_404510" data-name="Rectángulo 404510" width="46.125" height="52.569" transform="translate(163.686 69.121)" fill="#bfd8d5"/>
        <rect id="Rectángulo_404511" data-name="Rectángulo 404511" width="38.382" height="45.036" transform="translate(167.557 72.888)" fill="#f4f3f3"/>
        <path id="Trazado_883848" data-name="Trazado 883848" d="M276.672,121.359a10.576,10.576,0,0,1-7.471,12.874,10.4,10.4,0,0,1-12.859-7.3,10.576,10.576,0,0,1,7.471-12.874,10.4,10.4,0,0,1,12.859,7.3" transform="translate(-79.759 -35.42)" fill="#0f5d62"/>
        <path id="Trazado_883849" data-name="Trazado 883849" d="M256.343,129.142a10.335,10.335,0,0,0,.686,1.833l9.507-4.246-8.839-5.972a10.431,10.431,0,0,0-1.354,8.386" transform="translate(-79.76 -37.624)" fill="#822d58"/>
        <path id="Trazado_883850" data-name="Trazado 883850" d="M282.09,126.859l-9.549,1.72,6.4,7.151a10.529,10.529,0,0,0,3.152-8.871" transform="translate(-84.916 -39.526)" fill="#a1eae2"/>
        <path id="Trazado_883851" data-name="Trazado 883851" d="M273.111,139.226c.281-.053.561-.109.842-.187a9.7,9.7,0,0,0,6.955-6.278l-9.668-3.655Z" transform="translate(-84.511 -40.226)" fill="#3fa9a8"/>
        <path id="Trazado_883852" data-name="Trazado 883852" d="M274.5,114.581l-4.54,11.181,11.4-2.051a10.441,10.441,0,0,0-.335-2.071,10.311,10.311,0,0,0-6.524-7.058" transform="translate(-84.112 -35.7)" fill="#f4d9a1"/>
        <path id="Trazado_883853" data-name="Trazado 883853" d="M261.966,115.916l6.609,8.11,3.441-9.723a10.49,10.49,0,0,0-6.341-.24,10.624,10.624,0,0,0-3.709,1.853" transform="translate(-81.621 -35.421)" fill="#f0a48e"/>
        <path id="Trazado_883854" data-name="Trazado 883854" d="M256.586,121.472l11.258,3.408L265.032,113.9q-.516.088-1.034.229a10.63,10.63,0,0,0-7.412,7.34" transform="translate(-79.945 -35.489)" fill="#bb6576"/>
        <path id="Trazado_883855" data-name="Trazado 883855" d="M272.426,127.272a2.267,2.267,0,0,1-1.6,2.759,2.229,2.229,0,0,1-2.756-1.563,2.267,2.267,0,0,1,1.6-2.759,2.23,2.23,0,0,1,2.756,1.563" transform="translate(-83.499 -39.142)" fill="#0f5d62"/>
        <path id="Trazado_883856" data-name="Trazado 883856" d="M262.116,152.9h0a1.373,1.373,0,0,1-1.374,1.373h-.032a1.373,1.373,0,0,1,0-2.747h.032a1.373,1.373,0,0,1,1.374,1.373" transform="translate(-80.802 -47.213)" fill="#f0a48e"/>
        <path id="Trazado_883857" data-name="Trazado 883857" d="M268.724,152.9h0a1.373,1.373,0,0,1-1.373,1.373h-.033a1.373,1.373,0,0,1,0-2.747h.033a1.373,1.373,0,0,1,1.373,1.373" transform="translate(-82.861 -47.213)" fill="#bb6576"/>
        <path id="Trazado_883858" data-name="Trazado 883858" d="M275.333,152.9h0a1.373,1.373,0,0,1-1.374,1.373h-.033a1.373,1.373,0,0,1,0-2.747h.033a1.373,1.373,0,0,1,1.374,1.373" transform="translate(-84.92 -47.213)" fill="#822d58"/>
        <path id="Trazado_883859" data-name="Trazado 883859" d="M281.94,152.9h0a1.373,1.373,0,0,1-1.373,1.373h-.033a1.373,1.373,0,0,1,0-2.747h.033a1.373,1.373,0,0,1,1.373,1.373" transform="translate(-86.978 -47.213)" fill="#f4d9a1"/>
        <path id="Trazado_883860" data-name="Trazado 883860" d="M262.116,160.871h0a1.373,1.373,0,0,1-1.374,1.373h-.032a1.373,1.373,0,0,1,0-2.747h.032a1.373,1.373,0,0,1,1.374,1.373" transform="translate(-80.802 -49.695)" fill="#a1eae2"/>
        <path id="Trazado_883861" data-name="Trazado 883861" d="M268.724,160.871h0a1.373,1.373,0,0,1-1.373,1.373h-.033a1.373,1.373,0,0,1,0-2.747h.033a1.373,1.373,0,0,1,1.373,1.373" transform="translate(-82.861 -49.695)" fill="#3fa9a8"/>
        <path id="Trazado_883862" data-name="Trazado 883862" d="M275.333,160.871h0a1.373,1.373,0,0,1-1.374,1.373h-.033a1.373,1.373,0,0,1,0-2.747h.033a1.373,1.373,0,0,1,1.374,1.373" transform="translate(-84.92 -49.695)" fill="#0f5d62"/>
        <path id="Trazado_883863" data-name="Trazado 883863" d="M281.94,160.871h0a1.373,1.373,0,0,1-1.373,1.373h-.033a1.373,1.373,0,0,1,0-2.747h.033a1.373,1.373,0,0,1,1.373,1.373" transform="translate(-86.978 -49.695)" fill="#bfd8d5"/>
        <g id="Grupo_1104092" data-name="Grupo 1104092" transform="translate(101.349 63.806)" opacity="0.5" style="mix-blend-mode: multiply;isolation: isolate">
          <g id="Grupo_1104091" data-name="Grupo 1104091">
            <g id="Grupo_1104090" data-name="Grupo 1104090" clip-path="url(#clip-path-7)">
              <path id="Trazado_883864" data-name="Trazado 883864" d="M198.8,114.28a21.627,21.627,0,0,1-8.7,1.612,27.351,27.351,0,0,1-9.35-1.612h-21.01v-1.252h-9.445c-.062,0-.257.034-.257-.129v-9.26H149.1V97.6a1.505,1.505,0,0,1,1.346-1.469h1.471v1.252h76.681V96.127h.835a1.514,1.514,0,0,1,1.356,1.469v6.042h-.626v9.26c0,.158-.235.129-.258.129h-9.445v1.252Zm33.235-10.642V97.6a2.732,2.732,0,0,0-2.608-2.721h-.835V92.684H151.913v2.191h-1.471a2.724,2.724,0,0,0-2.6,2.721v6.042h-.626v9.26a2.972,2.972,0,0,0,3.075,2.946h9.445v-.313h21.036s3.09,1.612,9.027,1.612,9-1.612,9-1.612h21.655v.313H229.9a2.972,2.972,0,0,0,3.075-2.946v-9.26Z" transform="translate(-147.218 -92.683)" fill="#b1bed5"/>
            </g>
          </g>
        </g>
        <path id="Trazado_883865" data-name="Trazado 883865" d="M231.524,112.618H201.791s-2.974-1.251-8.738-1.251-8.764,1.251-8.764,1.251H154.843a2.506,2.506,0,0,1-2.5-2.5V95.091a2.507,2.507,0,0,1,2.5-2.5h76.681a2.507,2.507,0,0,1,2.5,2.5v15.024a2.506,2.506,0,0,1-2.5,2.5M154.843,93.839a1.253,1.253,0,0,0-1.252,1.252v15.024a1.254,1.254,0,0,0,1.252,1.252h29.421a32.421,32.421,0,0,1,9.077-1.252,25.5,25.5,0,0,1,8.45,1.252h29.733a1.254,1.254,0,0,0,1.252-1.252V95.091a1.254,1.254,0,0,0-1.252-1.252Z" transform="translate(-47.465 -28.847)" fill="#c37857"/>
        <path id="Trazado_883866" data-name="Trazado 883866" d="M230.5,95.977H160.178a1.928,1.928,0,0,1-1.928-1.928V91.333a1.927,1.927,0,0,1,1.928-1.928H230.5a1.928,1.928,0,0,1,1.928,1.928V94.05a1.928,1.928,0,0,1-1.928,1.928" transform="translate(-49.306 -27.856)" fill="#137083"/>
        <path id="Trazado_883867" data-name="Trazado 883867" d="M154.246,114.672V107.18a1.408,1.408,0,1,0-2.816,0V113.4a4.267,4.267,0,0,0,4.268,4.268h6.53a1.408,1.408,0,1,0,0-2.816h-7.813a.155.155,0,0,1-.169-.176m78.716-8.9a1.409,1.409,0,0,0-1.409,1.409v7.511c0,.154-.063.157-.136.157h-7.845a1.408,1.408,0,1,0,0,2.816h6.436a4.362,4.362,0,0,0,4.362-4.362V107.18a1.408,1.408,0,0,0-1.409-1.409" transform="translate(-47.181 -32.955)" fill="#137083"/>
        <path id="Trazado_883868" data-name="Trazado 883868" d="M340.717,294.766c-1.948-4.365-4.855-8.26-6.667-12.682a23.749,23.749,0,0,1-.717-16.84,40.3,40.3,0,0,1,3.644-7.059L342.511,249q4.216,7.422,7.81,15.176c1.933,4.173,3.759,8.555,3.78,13.154.036,7.938-5.2,14.814-7.7,22.348a33.4,33.4,0,0,0-1.2,16.133c-.023-.131-2.066.074-2.377-.338-.378-.5.151-1.809.235-2.336a33.481,33.481,0,0,0,.417-6.237,32.229,32.229,0,0,0-2.754-12.136" transform="translate(-103.477 -77.582)" fill="#0f5d62"/>
        <path id="Trazado_883869" data-name="Trazado 883869" d="M344.279,258.543q-1-2.15-2.05-4.273l-3.848,6.387a35.864,35.864,0,0,0-3.236,6.267,21.088,21.088,0,0,0,.637,14.953,99.9,99.9,0,0,0,4.778,8.949q.115-.382.239-.761c2.22-6.689,6.87-12.8,6.837-19.843-.019-4.083-1.639-7.974-3.356-11.679" transform="translate(-104.084 -79.223)" fill="#3fa9a8"/>
        <path id="Trazado_883870" data-name="Trazado 883870" d="M353.329,317.712c.448-1.249.612-2.588,1.1-3.823a6.594,6.594,0,0,1,3.089-3.514,11.2,11.2,0,0,1,2.085-.716l2.872-.779q-.579,2.3-1.347,4.542a8.956,8.956,0,0,1-1.766,3.363c-1.516,1.6-3.886,1.972-5.834,3a9.276,9.276,0,0,0-3.338,3c.021-.03-.428-.381-.412-.524.021-.173.378-.334.5-.423a9.3,9.3,0,0,0,1.28-1.17,8.951,8.951,0,0,0,1.777-2.962" transform="translate(-108.98 -96.238)" fill="#0f5d62"/>
        <path id="Trazado_883871" data-name="Trazado 883871" d="M352.16,330.773c.21-.971.2-1.981.441-2.945a4.935,4.935,0,0,1,1.949-2.911,8.454,8.454,0,0,1,1.478-.737l2.056-.86q-.2,1.764-.556,3.5a6.7,6.7,0,0,1-.982,2.671c-.969,1.335-2.692,1.844-4.037,2.8a6.947,6.947,0,0,0-2.184,2.557c.012-.024-.355-.241-.357-.348,0-.132.247-.285.326-.363a6.956,6.956,0,0,0,.836-.995,6.7,6.7,0,0,0,1.029-2.374" transform="translate(-109.04 -100.737)" fill="#0f5d62"/>
        <path id="Trazado_883872" data-name="Trazado 883872" d="M338.519,324.207c-.861-.843-1.9-1.487-2.739-2.357a5.987,5.987,0,0,1-1.729-3.883,10.126,10.126,0,0,1,.2-1.993q.223-1.333.447-2.666,1.676,1.351,3.238,2.836a8.14,8.14,0,0,1,2.105,2.734c.744,1.858.154,3.956.265,5.954a8.422,8.422,0,0,0,1.213,3.894c-.018-.028-.478.209-.589.141-.136-.083-.133-.438-.162-.569a8.493,8.493,0,0,0-.48-1.5,8.138,8.138,0,0,0-1.771-2.591" transform="translate(-104.08 -97.618)" fill="#0f5d62"/>
        <path id="Trazado_883873" data-name="Trazado 883873" d="M336.357,315.855q-.361-.293-.732-.578-.141.728-.282,1.456a6.637,6.637,0,0,0-.169,1.382,3.618,3.618,0,0,0,1.262,2.58,18.687,18.687,0,0,0,1.631,1.168q-.006-.077-.01-.155c-.065-1.369.4-2.844-.145-4.083a5.043,5.043,0,0,0-1.555-1.771" transform="translate(-104.431 -98.231)" fill="#3fa9a8"/>
        <path id="Trazado_883874" data-name="Trazado 883874" d="M362.8,312.428c.1-.293.2-.589.291-.886l-1.464.234a6.622,6.622,0,0,0-1.356.315,3.619,3.619,0,0,0-1.993,2.069,18.551,18.551,0,0,0-.538,1.932c.047-.021.094-.042.142-.062,1.264-.531,2.807-.6,3.786-1.534a5.038,5.038,0,0,0,1.131-2.067" transform="translate(-111.46 -97.068)" fill="#3fa9a8"/>
        <path id="Trazado_883875" data-name="Trazado 883875" d="M350.567,356.255H339.131l-3.764-21.121H354.33Z" transform="translate(-104.491 -104.418)" fill="#5f2929"/>
        <path id="Trazado_883876" data-name="Trazado 883876" d="M353.572,337.626h-18.3a1.277,1.277,0,0,1,0-2.554h18.3a1.277,1.277,0,0,1,0,2.554" transform="translate(-104.063 -104.399)" fill="#734444"/>
        <rect id="Rectángulo_404513" data-name="Rectángulo 404513" width="18.446" height="2.066" transform="translate(123.846 59.461)" fill="#3f0040"/>
        <path id="Trazado_883877" data-name="Trazado 883877" d="M164.606,81.643h20.936a1.515,1.515,0,0,0,1.515-1.515V66.078a1.516,1.516,0,0,0-1.515-1.515H164.606a1.515,1.515,0,0,0-1.515,1.515V80.128a1.515,1.515,0,0,0,1.515,1.515" transform="translate(-50.815 -20.116)" fill="#3f0040"/>
        <path id="Trazado_883878" data-name="Trazado 883878" d="M166.215,67.349a1.384,1.384,0,1,0,1.958,0,1.385,1.385,0,0,0-1.958,0" transform="translate(-51.661 -20.858)" fill="#137083"/>
        <path id="Trazado_883879" data-name="Trazado 883879" d="M179.445,127.635a46.743,46.743,0,0,1-5.43,3.164c-2.564,1.2-7.087.449-7.239,1.655s.752,2.866,6.332,2.567,8.9-.147,10.857-.146,2.715-1.808,2.264-3.618a4.654,4.654,0,0,1-.149-2.564Z" transform="translate(-51.958 -39.767)" fill="#734544"/>
        <path id="Trazado_883880" data-name="Trazado 883880" d="M232.325,40.721s-5.037,4.484-6.693,6.892-7.98,10.913-7.98,10.913l-3.492,2.407,1.466,1.435,6.464.126,9.578-9.848Z" transform="translate(-66.726 -12.688)" fill="#7ae1d6"/>
        <path id="Trazado_883881" data-name="Trazado 883881" d="M181.887,113.713c-1.859-2.045,2.29-7.483,3.339-9.48q2.907-5.538,5.815-11.075c2.478-4.72,5.328-14.466,10.056-17.015,5.461-2.944,18.233-.7,24.231-.157,4.3.388,9.66,5.934,5.027,9.876-1.36,1.158-3.5,1.116-5.177,1.035a70.23,70.23,0,0,1-7.482-.969,39.655,39.655,0,0,0-7.3-.722,9.274,9.274,0,0,0-2.75.465c-1.5.513-2.626,2.016-3.474,3.319a39.876,39.876,0,0,0-1.729,3.6c-1.568,3.024-3.044,6.1-4.567,9.144l-4.508,9.025c-.62,1.241-2.424,6.411-3.512,6.749a2.44,2.44,0,0,1-1.442-.118,24.33,24.33,0,0,1-6.2-3.393,1.821,1.821,0,0,1-.325-.28" transform="translate(-56.523 -23.261)" fill="#0f5d62"/>
        <path id="Trazado_883882" data-name="Trazado 883882" d="M243.622,17.867a.712.712,0,0,1,.028.072,43.987,43.987,0,0,0,1.808,5.348l1.433,2.871-7.733,5c-.467-1.886-.839-3.824-1.406-5.682-.394-1.291-1.1-2.453-1.555-3.72-.273-.76-.459-1.128.256-1.629A7.338,7.338,0,0,1,238,19.359a34.831,34.831,0,0,1,5.3-1.615.324.324,0,0,1,.229.007.237.237,0,0,1,.094.116" transform="translate(-73.517 -5.523)" fill="#f2d392"/>
        <g id="Grupo_1104095" data-name="Grupo 1104095" transform="translate(164.015 12.203)" opacity="0.5" style="mix-blend-mode: multiply;isolation: isolate">
          <g id="Grupo_1104094" data-name="Grupo 1104094">
            <g id="Grupo_1104093" data-name="Grupo 1104093" clip-path="url(#clip-path-8)">
              <path id="Trazado_883883" data-name="Trazado 883883" d="M246.059,23.048v-.01a52.954,52.954,0,0,1-1.695-5.1c-.008-.023-.017-.048-.028-.072a.237.237,0,0,0-.094-.116.323.323,0,0,0-.229-.007l-.048.012-1.033,1.932-4.685,4.958.253.941c.5,1.741,7.561-2.538,7.561-2.538" transform="translate(-238.245 -17.726)" fill="#d8a87d"/>
            </g>
          </g>
        </g>
        <path id="Trazado_883884" data-name="Trazado 883884" d="M241.818,23.454s2.721,5.87,2.8,6.365c.465,2.948,3.4,2.286,3.567,5.264a77.624,77.624,0,0,1-.656,14.391c-.4,3.018-.8,6.035-1.188,9.054-.445,3.449.306,6.928-.135,10.376-.25,1.959-.672,2.219-2.674,2.166-3.632-.1-7.6-2.13-10.522-4.177a25.065,25.065,0,0,1-7.317-7.952,2.544,2.544,0,0,1-.4-1.052,2.913,2.913,0,0,1,.582-1.614,33.415,33.415,0,0,0,3.153-8.605c.843-3.239.554-6.681,1.586-9.906a22.514,22.514,0,0,1,1.893-5.727,23.681,23.681,0,0,1,3.726-3.4c.648-.576,5.589-5.179,5.589-5.179" transform="translate(-70.192 -7.308)" fill="#a1eae2"/>
        <path id="Trazado_883885" data-name="Trazado 883885" d="M234.222,36.21a10.059,10.059,0,0,0-2.119,5c-.492,3.238-1.933,11.956-1.933,11.956l1.059-.285a77.074,77.074,0,0,0,2.565-9.324c1.011-4.968.428-7.352.428-7.352" transform="translate(-71.714 -11.282)" fill="#0f5d62"/>
        <path id="Trazado_883886" data-name="Trazado 883886" d="M238.26,32.014l.587,1.184s.428,1.388-1.327,2.45a9.006,9.006,0,0,1-2.368,1.174,4.764,4.764,0,0,1,3.108-4.809" transform="translate(-73.263 -9.975)" fill="#0f5d62"/>
        <path id="Trazado_883887" data-name="Trazado 883887" d="M221.488,5.092c.007.1.065.176.13.171s.112-.089.1-.188-.065-.176-.129-.171-.112.089-.1.188" transform="translate(-69.009 -1.528)" fill="#fff"/>
        <path id="Trazado_883888" data-name="Trazado 883888" d="M211.582,60.86l6.123-.951.4-10.691L207.96,50.793Z" transform="translate(-64.795 -15.335)" fill="#166f83"/>
        <path id="Trazado_883889" data-name="Trazado 883889" d="M248.324,13.668c-.1,1.274-.711,2.266-1.373,2.215s-1.122-1.123-1.026-2.4.71-2.266,1.373-2.215,1.122,1.122,1.026,2.4" transform="translate(-76.619 -3.512)" fill="#f2d392"/>
        <path id="Trazado_883890" data-name="Trazado 883890" d="M214.305,61.924h0a1.24,1.24,0,0,0,1.035-1.415l-.887-5.715a1.239,1.239,0,0,0-2.449.381l.887,5.714a1.24,1.24,0,0,0,1.415,1.035" transform="translate(-66.05 -16.746)" fill="#5479a2"/>
        <path id="Trazado_883891" data-name="Trazado 883891" d="M242.014,13c.485,4.283-1.486,7.35-4.447,8.413-2.738.983-5.913-4.862-6.4-9.146s2.247-5.66,5.131-5.986S241.53,8.716,242.014,13" transform="translate(-72.008 -1.949)" fill="#f4d9a1"/>
        <path id="Trazado_883892" data-name="Trazado 883892" d="M232.926,51.689c2.73-1.429,3.548-12.97,6.114-14.8a5.087,5.087,0,0,1,3.114-1.176c2.043.112,3.425,2.416,3.176,4.453a20.6,20.6,0,0,1-2.75,9.131c-.878,1.645-4.14,8.437-5.652,9.526a5.786,5.786,0,0,1-2.39,1.208c-1.751.272-3.645-.556-5.3-.972a47.833,47.833,0,0,0-6.02-1.048c-1.4-.167-2.887-.458-4.279-.515-1.146-.046-2.281.333-3.354-.286a14.441,14.441,0,0,1-2.292-1.494,6.087,6.087,0,0,1-.142-2.955,2.166,2.166,0,0,0,.465-.5s-.582.107-.743-.284a1.391,1.391,0,0,1,.819-1.509c2.089.075,3.748-.462,5.432,1.061,1.042.942,1.029,1.2,2.6,1.285,1.685.085,3.4-.008,5.088-.011a16.159,16.159,0,0,0,4.327-.4,9.113,9.113,0,0,0,1.786-.716" transform="translate(-66.314 -11.125)" fill="#f4d9a1"/>
        <path id="Trazado_883893" data-name="Trazado 883893" d="M236.419,35.643a30.163,30.163,0,0,0-2.255,5.379q-1.736,5.034-3.472,10.068c-.818,2.372-1.637,4.747-2.225,7.185a3.325,3.325,0,0,0-.105,1.6c.3,1.15,1.616,1.643,2.724,2.074,3.5,1.361,6.433,3.812,9.581,5.79a23.885,23.885,0,0,0,4.8,2.429c1.979.69,2.51.262,2.8-1.885q1.2-8.974,1.711-18.023c.3-5.443,1.134-11.661,0-17-.587-2.763-3.564-5.081-6.434-4.023a15.148,15.148,0,0,0-7.126,6.4" transform="translate(-71.132 -9.029)" fill="#0f5d62"/>
        <g id="Grupo_1104098" data-name="Grupo 1104098" transform="translate(157.774 21.41)" opacity="0.3" style="mix-blend-mode: multiply;isolation: isolate">
          <g id="Grupo_1104097" data-name="Grupo 1104097">
            <g id="Grupo_1104096" data-name="Grupo 1104096" clip-path="url(#clip-path-9)">
              <path id="Trazado_883894" data-name="Trazado 883894" d="M231.15,53.07q-.654.021-1.307,0c-.282.913-1,3.094-.482,4,.415.728,1.822.854,2.574,1.077,2.867.854,9.779,3.928,11.745.08,1.34-2.622,2.542-5.326,3.81-7.984,1.163-2.438,2.678-4.938,3.081-7.652a11.135,11.135,0,0,0-.215-2.849c-.112-1.3.157-2.514-.317-3.79-.556-1.5-2.966-5.225-4.511-4.823a9.961,9.961,0,0,0-3.629,2.807c-2.4,3.459-4.238,11.119-5.361,15.132-.4,1.431-4.724,1.311-5.969,2.189-1.47,1.037,2.312,1.758.581,1.813" transform="translate(-229.18 -31.1)" fill="#6fb589"/>
            </g>
          </g>
        </g>
        <path id="Trazado_883895" data-name="Trazado 883895" d="M241.819,29.01a3.507,3.507,0,0,0-2.5,1.767c-.777,1.543-3.786,18.745-3.786,18.745s-1.257-.5-1.992.042a6.552,6.552,0,0,1-2.313.774l-3.576.3-4.788-.135-1.656,4.843,5.765,1.266,1.435-.233,6.35,1.515c1.7.2,4.411.16,5.147-.385s6.677-13.661,7.306-15.066.788-8.247,0-9.846-2.779-4.775-5.394-3.584" transform="translate(-68.923 -8.957)" fill="#a1eae2"/>
        <g id="Grupo_1104101" data-name="Grupo 1104101" transform="translate(144.073 48.803)" style="mix-blend-mode: multiply;isolation: isolate">
          <g id="Grupo_1104100" data-name="Grupo 1104100">
            <g id="Grupo_1104099" data-name="Grupo 1104099" clip-path="url(#clip-path-10)">
              <path id="Trazado_883896" data-name="Trazado 883896" d="M212.7,71.243s1.165-.6,1.634-.235c.074-.012.331.308.38.357.178.183.365.37.525.569a1.732,1.732,0,0,0,.348.407c.227.161.467.3.7.456a1.033,1.033,0,0,1,.314.273c.077.117,1.064,1.01.98,1.121-.3.393-1.874-.476-2.213-.714-.406-.285-1.621-1.243-1.621-1.243s-.591.359-.468.856,1.12,2.649.983,2.935c-.155.323-.675-.379-.839-.216-.034.034-.059.081-.1.1a.182.182,0,0,1-.1.008,1.236,1.236,0,0,1-.5-.239l-1.276-.869a6.618,6.618,0,0,1-1.112-.783q-.315-.336-.6-.7c-.228-.3-.609-.688-.4-1.1a.874.874,0,0,1,.478-.346,2.454,2.454,0,0,1,.383-.152,4.055,4.055,0,0,1,.439-.045,5.516,5.516,0,0,0,.868-.149l1.19-.294" transform="translate(-209.278 -70.891)" fill="#d29a68"/>
            </g>
          </g>
        </g>
        <path id="Trazado_883897" data-name="Trazado 883897" d="M213.8,69.728s1.218-.562,1.649-.062,2.5,3.969,2.352,4.181-1.186-.662-1.563-1.062-1.492-1.719-1.492-1.719a1.082,1.082,0,0,0-.549.97,20.2,20.2,0,0,1,.4,3.508c-.166.33-.629.109-.754-.454s-1.049-3.31-1.049-3.31.951,3.5.75,3.665-.546.175-.8-.634c-.159-.507-1.518-2.945-1.518-2.945A10.185,10.185,0,0,1,211.7,74.3c-.143.315-.626-.052-.8-.665a7.9,7.9,0,0,0-1-1.705s-.418-.386-.122-.758a1.248,1.248,0,0,1,.706-.44s.241-.474.653-.489a3.6,3.6,0,0,0,.971-.243Z" transform="translate(-65.328 -21.641)" fill="#f4d9a1"/>
        <path id="Trazado_883898" data-name="Trazado 883898" d="M242.014,20.257a5.757,5.757,0,0,1-5.057,3.693,2.9,2.9,0,0,1-1.368-.3,4.215,4.215,0,0,1-1.262-1.247,13.643,13.643,0,0,1-2.43-5.319c-.035-.161-.045-.372.1-.445.121.655.531,2.346,1.229,2.625.578.231,2.358-.474,2.989-.6a6.815,6.815,0,0,0,5.654-4.954,8.458,8.458,0,0,1,.143,6.551" transform="translate(-72.246 -4.27)" fill="#734544"/>
        <path id="Trazado_883899" data-name="Trazado 883899" d="M228.015,8.737c.03.045.061.09.092.134.657.916.794,2.222,1.471,3.179a1.235,1.235,0,0,0,.471.443c1,.445.293-3.415.357-3.873a1.125,1.125,0,0,0,.812,1.16,1.621,1.621,0,0,0,1.443-.344,2.966,2.966,0,0,0,.849-1.267,7.336,7.336,0,0,1,.453-1.126,2.472,2.472,0,0,1,1.91-1.148,3.7,3.7,0,0,1,2.246.6,3.525,3.525,0,0,1,.845,1.286c.3.568.975,2.327,1.848,2.173.892-.157.8-1.75.913-2.4.151-.861.621-1.952.374-2.827-.26-.92-1.194-1.466-1.719-2.266a3.827,3.827,0,0,0-.741-1.045c-.551-.42-1.387-.277-1.941-.694-.218-.163-.373-.4-.6-.546a1.86,1.86,0,0,0-1.117-.158,13.546,13.546,0,0,0-3.624.273c-.822.323-1.2.979-2.078,1.266-.642.212-.348.715-.609,1.073a2.03,2.03,0,0,1-.732.8,1.844,1.844,0,0,0-.779,1.636c.03.376.173.777,0,1.113a2.968,2.968,0,0,1-.352.434,1.806,1.806,0,0,0,.215,2.121" transform="translate(-70.892 0)" fill="#734544"/>
        <path id="Trazado_883900" data-name="Trazado 883900" d="M239.846,21.246a.352.352,0,0,0-.114-.006c-.683.056-1.1.572-1.733.775a6.514,6.514,0,0,1-2.058.338,1.863,1.863,0,0,0,2.095,1.35c.85-.232,2.127-1.347,1.922-2.313a.218.218,0,0,0-.05-.112.14.14,0,0,0-.061-.033" transform="translate(-73.513 -6.617)" fill="#f0a48e"/>
        <path id="Trazado_883901" data-name="Trazado 883901" d="M62.825,197.663c2.079.129,4.123,4.594,4.67,6.36.806,2.605.384,5.32.217,7.983-.163,2.593-.063,5.234-.109,7.84a4.377,4.377,0,0,1-.213,1.538,1.316,1.316,0,0,1-2.39.363,4.378,4.378,0,0,1-.63-1.321c-1.711-4.96-3.8-9.805-4.447-15.012-.173-2.188-.139-4.518.993-6.4.61-1.013,1.261-1.393,1.909-1.353" transform="translate(-18.646 -61.585)" fill="#c37a57"/>
        <path id="Trazado_883902" data-name="Trazado 883902" d="M66.547,250.809c.071.1.3.176.4.236q.547.326,1.1.651,1.735,1.025,3.479,2.035a47.656,47.656,0,0,0,6.94,3.439,12.055,12.055,0,0,0,2.363.706c1.118.172,2.594.085,3.166-1.032l1.046-2.043a.151.151,0,0,1,.068-.078c.081-.032.137.083.149.17a22.981,22.981,0,0,0,.579,3.645c.446,1.468,1.616,1.152,2.708,1.063a.419.419,0,0,1,.251.034c.234.139.037.51-.2.639-1.35.719-2.934.511-4.4.519-2.515.012-5.079.483-7.605.6-2.679.12-3.907-2.235-5.313-4.151l-4.716-6.429" transform="translate(-20.734 -78.145)" fill="#fed6a1"/>
        <path id="Trazado_883903" data-name="Trazado 883903" d="M60.475,207.471s.363,7.892.622,9.968,7.46,10.108,7.46,10.108l-6.5,3.705c-1.555.887-3.245,1.68-4.721,2.692-.993.68-2.629,2.963-3.62,1.387-1.874-2.981-2.579-6.539-3.014-10.032a10.826,10.826,0,0,1-.033-3.463,4.661,4.661,0,0,1,2.582-3.256c.169-.092,2.778-.987,2.776-1.006s-.7-6.61-.7-6.61Z" transform="translate(-15.747 -64.642)" fill="#f4d9a1"/>
        <g id="Grupo_1104104" data-name="Grupo 1104104" transform="translate(36.635 140.965)" opacity="0.3" style="mix-blend-mode: multiply;isolation: isolate">
          <g id="Grupo_1104103" data-name="Grupo 1104103">
            <g id="Grupo_1104102" data-name="Grupo 1104102" clip-path="url(#clip-path-11)">
              <path id="Trazado_883904" data-name="Trazado 883904" d="M62.9,214.233c-.048.07-.1.14-.149.207a22.58,22.58,0,0,1-4.212,4.595c-1.862,1.362-2.8.4-3.882-1.261a8.538,8.538,0,0,1,.041-9.541c1.272-1.738,5.158-4.221,7.432-3.25a3.37,3.37,0,0,1,1.616,2.748c.337,2.131.372,4.7-.847,6.5" transform="translate(-53.216 -204.764)" fill="#b53940"/>
            </g>
          </g>
        </g>
        <path id="Trazado_883905" data-name="Trazado 883905" d="M65.508,204.842c.611,3.929-.33,9.372-3.114,9.241-3.193-.15-5.109-3.086-5.6-7.031s.3-6.313,3.07-6.657,4.669-1.83,5.644,4.447" transform="translate(-17.653 -62.313)" fill="#f4d9a1"/>
        <path id="Trazado_883906" data-name="Trazado 883906" d="M49.249,355.087c.021.1,3.624,4.458,4.082,4.853a9.293,9.293,0,0,0,2.5,1.364c.687.188,3.136.9,3.065,2.01s-1.859,1.594-4.3,1.051-6.573-1.842-7.344-1.906a19.06,19.06,0,0,1-4.011-.945c-.766-.367,1.068-6.174,1.068-6.174Z" transform="translate(-13.417 -110.635)" fill="#f7d4d4"/>
        <path id="Trazado_883907" data-name="Trazado 883907" d="M70.083,270.957s1.6,2.834-.576,11.133a154.593,154.593,0,0,1-8.1,20.47c-.684,1.214-1.6,1.644-2.389,2.609-1.414,1.726-1.779,4.635-2.634,6.691-2.085,5.012-4.787,9.832-5.887,15.2-.262,1.281-.208,2.819-1.793,2.982-.965.1-2.644,1.188-3.563.87-1.409-.488-.353-3.457-.147-4.833a130.854,130.854,0,0,1,2.607-12.894c.719-2.817,1.548-5.6,2.434-8.368.657-2.052,2.106-4.37,2.372-6.472.132-1.057,1.594-11.61,1.777-13.064S55.5,269.473,55.5,269.473Z" transform="translate(-13.841 -83.96)" fill="#9babc9"/>
        <path id="Trazado_883908" data-name="Trazado 883908" d="M72.037,357.3c.05.1,4.83,3.329,5.392,3.585a9.5,9.5,0,0,0,2.844.618c.727-.012,3.332-.015,3.58,1.091s-1.364,2.1-3.908,2.262-6.969.081-7.743.24a19.542,19.542,0,0,1-4.2.225c-.856-.14-.724-6.356-.724-6.356Z" transform="translate(-20.959 -111.326)" fill="#fae3e3"/>
        <path id="Trazado_883909" data-name="Trazado 883909" d="M72.646,267.021s2.382,2.317,2.629,11.075a157.661,157.661,0,0,1-2.06,22.381c-.323,1.386-1.095,2.069-1.592,3.242-.891,2.1-.414,5.052-.662,7.311-.605,5.51-1.87,11.007-1.409,16.581.11,1.331.6,2.823-.9,3.437-.918.375-2.25,1.922-3.242,1.874-1.52-.074-1.338-3.287-1.53-4.694a133.558,133.558,0,0,1-1.144-13.382c-.1-2.966-.089-5.931-.015-8.9.056-2.2.811-4.887.467-7.022-.173-1.074-1.769-11.835-2.006-13.311s-3.244-15.866-3.244-15.866Z" transform="translate(-18.051 -83.196)" fill="#b1bed5"/>
        <path id="Trazado_883910" data-name="Trazado 883910" d="M86.252,259.2l1.378,4.041a12.1,12.1,0,0,0-3.4.184c-1.561.368-3.583.827-3.583.827l-1.285-7.256s5.511,2.113,6.888,2.2" transform="translate(-24.728 -80.072)" fill="#b2bdd5"/>
        <path id="Trazado_883911" data-name="Trazado 883911" d="M95.974,196.493,81.1,171.774l-.688.1-3.593,28.775,17.821,77.4,15.618-3.877Z" transform="translate(-23.934 -53.52)" fill="#f5d7a1"/>
        <path id="Trazado_883912" data-name="Trazado 883912" d="M80.216,181.664l1.162-10.249s.07-.4.324-.471c.3-.084.534.348.534.348l5.091,8.8a1.672,1.672,0,0,0-2.014-.567c-.8.273-5.1,2.141-5.1,2.141" transform="translate(-24.993 -53.258)" fill="#812d58"/>
        <g id="Grupo_1104107" data-name="Grupo 1104107" transform="translate(56.476 118.353)" opacity="0.3" style="mix-blend-mode: screen;isolation: isolate">
          <g id="Grupo_1104106" data-name="Grupo 1104106">
            <g id="Grupo_1104105" data-name="Grupo 1104105" clip-path="url(#clip-path-12)">
              <path id="Trazado_883913" data-name="Trazado 883913" d="M92.682,197.324,83.274,175.5l-1.237-3.583.983,27.4,13.585,77.994,12.122-2.884Z" transform="translate(-82.037 -171.918)" fill="#f4f3f3"/>
            </g>
          </g>
        </g>
        <path id="Trazado_883914" data-name="Trazado 883914" d="M96.019,207.122a1.877,1.877,0,0,0-2.261-.812,6.241,6.241,0,0,0-2.532,1.92,7.341,7.341,0,0,0-5.28-.7,8.4,8.4,0,0,0-4.407,2.52,9.4,9.4,0,0,0-3.409-.1c-1.4.337-1.311,1.417-1.311,1.417L98.651,316.29l5.905,2.1,9.476-2.058,4.722-4.48Z" transform="translate(-23.934 -64.241)" fill="#ba6476"/>
        <g id="Grupo_1104110" data-name="Grupo 1104110" transform="translate(57.206 142.938)" opacity="0.7" style="mix-blend-mode: soft-light;isolation: isolate">
          <g id="Grupo_1104109" data-name="Grupo 1104109">
            <g id="Grupo_1104108" data-name="Grupo 1104108" clip-path="url(#clip-path-13)">
              <path id="Trazado_883915" data-name="Trazado 883915" d="M87.9,207.983A8.4,8.4,0,0,0,83.5,210.5h-.006l23.038,108.332-.408-.143L83.1,210.352H83.1a8.4,8.4,0,0,1,4.408-2.519,7.5,7.5,0,0,1,4.606.366,7.517,7.517,0,0,0-4.214-.216" transform="translate(-83.096 -207.63)" fill="#dee8cd"/>
            </g>
          </g>
        </g>
        <g id="Grupo_1104113" data-name="Grupo 1104113" transform="translate(57.599 143.088)" opacity="0.8" style="mix-blend-mode: soft-light;isolation: isolate">
          <g id="Grupo_1104112" data-name="Grupo 1104112">
            <g id="Grupo_1104111" data-name="Grupo 1104111" clip-path="url(#clip-path-14)">
              <path id="Trazado_883916" data-name="Trazado 883916" d="M83.673,210.57a8.4,8.4,0,0,1,4.407-2.519,7.337,7.337,0,0,1,5.28.7.174.174,0,0,1,.015-.019l22.788,108.119-5.78,1.242-3.693.817L83.667,210.568h.006" transform="translate(-83.667 -207.847)" fill="#9ac2f0"/>
            </g>
          </g>
        </g>
        <path id="Trazado_883917" data-name="Trazado 883917" d="M110.859,350.112l9.476-2.058,4.659-4.42,2.547,11.042s-1.066,5.695-8.973,7.394c-7.507,1.613-11.13-2.955-11.13-2.955l-2.414-11.077Z" transform="translate(-32.723 -107.067)" fill="#812d58"/>
        <g id="Grupo_1104116" data-name="Grupo 1104116" transform="translate(78.137 240.973)" opacity="0.2" style="mix-blend-mode: screen;isolation: isolate">
          <g id="Grupo_1104115" data-name="Grupo 1104115">
            <g id="Grupo_1104114" data-name="Grupo 1104114" clip-path="url(#clip-path-15)">
              <path id="Trazado_883918" data-name="Trazado 883918" d="M115.905,362.631,113.5,352.106l9.524-2.072,2.433,10.685Z" transform="translate(-113.5 -350.033)" fill="#3a4244"/>
            </g>
          </g>
        </g>
        <g id="Grupo_1104119" data-name="Grupo 1104119" transform="translate(72.332 240.971)" opacity="0.3" style="mix-blend-mode: screen;isolation: isolate">
          <g id="Grupo_1104118" data-name="Grupo 1104118">
            <g id="Grupo_1104117" data-name="Grupo 1104117" clip-path="url(#clip-path-16)">
              <path id="Trazado_883919" data-name="Trazado 883919" d="M107.369,360.964l-2.3-10.933,5.784,2.09,2.483,11.089Z" transform="translate(-105.068 -350.031)" fill="#6a7072"/>
            </g>
          </g>
        </g>
        <g id="Grupo_1104122" data-name="Grupo 1104122" transform="translate(77.75 242.908)" opacity="0.4" style="mix-blend-mode: screen;isolation: isolate">
          <g id="Grupo_1104121" data-name="Grupo 1104121">
            <g id="Grupo_1104120" data-name="Grupo 1104120" clip-path="url(#clip-path-17)">
              <path id="Trazado_883920" data-name="Trazado 883920" d="M115.463,363.915l-2.523-11.071.386.138.018,0,2.516,11.028c-.134-.028-.266-.058-.4-.09" transform="translate(-112.939 -352.844)" fill="#3a4244"/>
            </g>
          </g>
        </g>
        <g id="Grupo_1104125" data-name="Grupo 1104125" transform="translate(72.246 236.285)" opacity="0.2" style="mix-blend-mode: screen;isolation: isolate">
          <g id="Grupo_1104124" data-name="Grupo 1104124">
            <g id="Grupo_1104123" data-name="Grupo 1104123" clip-path="url(#clip-path-18)">
              <path id="Trazado_883921" data-name="Trazado 883921" d="M120.354,348.275l-9.43,2.063-5.874-2.087-.107-.493,5.848,2.012,9.321-2.036,4.818-4.511.127.577Z" transform="translate(-104.943 -343.224)" fill="#3a4244"/>
            </g>
          </g>
        </g>
        <g id="Grupo_1104128" data-name="Grupo 1104128" transform="translate(72.189 235.994)" opacity="0.2" style="mix-blend-mode: multiply;isolation: isolate">
          <g id="Grupo_1104127" data-name="Grupo 1104127">
            <g id="Grupo_1104126" data-name="Grupo 1104126" clip-path="url(#clip-path-18)">
              <path id="Trazado_883922" data-name="Trazado 883922" d="M120.272,347.852l-9.43,2.063-5.874-2.087-.107-.493,5.848,2.012,9.321-2.037,4.818-4.51.127.577Z" transform="translate(-104.861 -342.801)" fill="#3a4244"/>
            </g>
          </g>
        </g>
        <path id="Trazado_883923" data-name="Trazado 883923" d="M62.6,225.192s7.582,7.542,7.871,8.87a16.435,16.435,0,0,1-.262,4.869c-.2,1.389,1.614,9.968,2.1,11.892s.622,8.976.622,8.976a10.88,10.88,0,0,1-5.633,1.57c-2.338.04-11.058-.33-11.837-2.872-.456-1.486,1.028-4.989,1.093-6.7a16.142,16.142,0,0,0-1.085-6.75l-3.152-7.7a.331.331,0,0,1,.279-.538c1.619-.372-.034-2.479.028-4.535.047-1.618,3.605-4.416,1.087-5.714s-2.246-.678-2.246-.678l.6-1.188s2.465-.591,6.044,2.719c1.481,1.371,5.2,3.941,6.3,3.8s1.8-.472.718-2.2-2.531-3.83-2.531-3.83" transform="translate(-16.034 -69.997)" fill="#822d58"/>
        <path id="Trazado_883924" data-name="Trazado 883924" d="M54.4,228.351a3.692,3.692,0,0,1,.511.278c6.22,4.068,11.74,8.931,19.157,10.726,3.753.908,10.276,3.711,13.643,1.019.487-.388,1.243-1.27,1.9-1.267.063,0,.139.019.16.08a.163.163,0,0,1-.011.1c-.273.819-1.045,1.4-1.3,2.225-.589,1.9,4.141,1.7,5.263,1.869a3.321,3.321,0,0,1,1,.277c.127.065.735.467.629.649a.22.22,0,0,1-.153.085,2.626,2.626,0,0,1-.77.008,26.122,26.122,0,0,0-3.4-.064c-.049.078.048.164.13.2.62.308,1.225.646,1.839.963.316.163,1.641.555,1.549,1.044a.232.232,0,0,1-.2.169.671.671,0,0,1-.273-.026,17.319,17.319,0,0,0-3.4-.644c-.257-.008-.569.027-.68.259a.574.574,0,0,0,.1.544,3.764,3.764,0,0,0,1.656,1.078,2.439,2.439,0,0,1,1.039.83c.316.508.1.789-.466.549a23.123,23.123,0,0,1-3.3-1.717,1.583,1.583,0,0,0-1.04-.357c-.071.136.055.29.169.392l1.5,1.34a.326.326,0,0,1,.139.22.222.222,0,0,1-.238.192.644.644,0,0,1-.313-.127,20.132,20.132,0,0,1-2.186-1.545c-4.641-3.862-11.867-3.479-17.507-3.956a17.419,17.419,0,0,1-3.981-.65,16.007,16.007,0,0,1-3.668-1.925c-1.754-1.142-3.556-2.21-5.275-3.4-2.226-1.548-4.5-3.395-4.946-6.175-.326-2.055.142-4.413,2.733-3.249" transform="translate(-16.069 -71.052)" fill="#f4d9a1"/>
        <path id="Trazado_883925" data-name="Trazado 883925" d="M67.648,225.435l.591.592q2.145,2.15,4.256,4.333c.7.728,1.4,1.457,2.076,2.208a4.558,4.558,0,0,1,.958,1.184c.275.735,0,3.214.183,4.225s1.929,12.4,2.48,15.706,1.378,20.024,1.378,20.024l-5.164-.036s2.317-8.23,1.49-14.659c-.347-2.7-.64-5.412-.968-8.117-.369-3.038-.752-6.08-1.294-9.092-.208-1.152-.432-2.308-.752-3.435a6.316,6.316,0,0,0-.531-1.53c-.233-.387-1.477-2.1-1.943-2.105a1.013,1.013,0,0,0,.852-.549,2.211,2.211,0,0,0,.231-1.029,7.9,7.9,0,0,0-1.546-4.547,21.348,21.348,0,0,0-2.3-3.172" transform="translate(-21.077 -70.239)" fill="#fae3e3"/>
        <path id="Trazado_883926" data-name="Trazado 883926" d="M56.862,224.974s1.378.643,3.765,3.581c.878,1.081,1.045,2.25,1.72,3.3.927,1.442,2.407,2.168,3.673,3.265,2.44,2.113,3.3,5.479,3.989,8.632,2.139,9.744,3.933,19.681,3.364,29.642-.009.153-16.862-.129-18.08-1.534a5.561,5.561,0,0,1-.907-3.788,112.769,112.769,0,0,1,.257-11.378c.4-3.38,2.579-7.361,1.026-10.779-.919-2.021-3.031-9.736-3.123-12.4s3.031-8.542,4.317-8.542" transform="translate(-16.371 -70.096)" fill="#fae3e3"/>
        <g id="Grupo_1104131" data-name="Grupo 1104131" transform="translate(36.412 158.557)" style="mix-blend-mode: multiply;isolation: isolate">
          <g id="Grupo_1104130" data-name="Grupo 1104130">
            <g id="Grupo_1104129" data-name="Grupo 1104129" clip-path="url(#clip-path-20)">
              <path id="Trazado_883927" data-name="Trazado 883927" d="M72.039,245.573c0,.019.008.039.012.059a.8.8,0,0,1-.032.591c-.157.246-2.195-.273-2.6-.333q-1.492-.214-2.982-.448c-1.547-.242-3.1-.476-4.633-.814-2.728-.6-7.374-3.235-8.157-5.851s-1.225-6.5.052-8.091c.991-1.232,3.718.971,4.514,1.548.856.621,1.664,1.3,2.493,1.956a24.656,24.656,0,0,0,3.1,1.7,18.138,18.138,0,0,1,1.5,1.143,18.407,18.407,0,0,0,1.744,1.053c.9.523,1.762,1.119,2.62,1.715a3.277,3.277,0,0,1,1.74,2.672l.636,3.1" transform="translate(-52.891 -230.318)" fill="#fae3e3"/>
            </g>
          </g>
        </g>
        <path id="Trazado_883928" data-name="Trazado 883928" d="M84.9,241.795a5.306,5.306,0,0,1,.734,2.021,17.154,17.154,0,0,1-.275,3.123s-5.512-1.561-7.256-1.469-11.481-.827-14.237-1.286-7.531-2.847-8.45-5.419-1.562-6.429-.368-8.083,6.7,2.847,8.174,3.858S84.9,241.795,84.9,241.795" transform="translate(-16.95 -71.761)" fill="#fae3e3"/>
        <path id="Trazado_883929" data-name="Trazado 883929" d="M59.448,197.75a5.594,5.594,0,0,1,1.437,2.7c-2.047-2.031-5.17-1.716-6.286.742a11.911,11.911,0,0,0-1.166,7.576,25.258,25.258,0,0,1,.191,10.913c-.78,3.438-3.879,6.175-3.021,9.754a26.2,26.2,0,0,0,1.563,4.045,17.768,17.768,0,0,1,1.267,4.367,3.388,3.388,0,0,1-.3,2.246c-.178.308-1.384,1.063-1.405,1.159a7.691,7.691,0,0,0-1.728-6.151,32.593,32.593,0,0,0-4.769-4.539c-1.155-1-2.336-2.193-2.5-3.713a5.327,5.327,0,0,1,1.249-3.587,24.811,24.811,0,0,0,2.273-3.147,6.485,6.485,0,0,0,.605-4.042,16.082,16.082,0,0,0-1.223-3.4,20.029,20.029,0,0,1-1.806-8.09,11.361,11.361,0,0,1,2.882-7.634,9.011,9.011,0,0,1,9.434-2.142,8.9,8.9,0,0,1,3.149,2.766l.153.185" transform="translate(-13.308 -60.52)" fill="#c37a57"/>
        <path id="Trazado_883930" data-name="Trazado 883930" d="M65.6,214.792a.372.372,0,0,0-.7-.1c-.078.158-.04.362-.145.5a.307.307,0,0,1-.373.089,1.62,1.62,0,0,0,.793.905,1.076,1.076,0,0,0,1.085-.337,2.53,2.53,0,0,0,.548-1.032c-.43.032-.269-.35-.549-.5a.44.44,0,0,0-.661.465" transform="translate(-20.06 -66.76)" fill="#ba6476"/>
        <path id="Trazado_883931" data-name="Trazado 883931" d="M284.02,304.969c-.123.351-.246,7.486.123,8.773a6.46,6.46,0,0,0,.614,1.638,73.767,73.767,0,0,0-.123,8.07c.246,2.339,2.455,9.708,2.577,10.878s2.455,10.059,2.455,10.059l3.068.117s-.368-8.539.123-11.814,2.577-9.123,1.718-12.749-1.718-4.679-1.841-6.2.368-4.328.123-6.9-.492-5.614-.492-5.614Z" transform="translate(-88.454 -93.854)" fill="#d8a87d"/>
        <path id="Trazado_883932" data-name="Trazado 883932" d="M287.172,322.486a73.98,73.98,0,0,1,1.161-8,6.4,6.4,0,0,1-.4-1.7c-.2-1.32.842-8.386,1.009-8.72l3.566-1.115c-.087-1.021-.144-1.732-.144-1.732l-8.346,3.743c-.123.35-.245,7.486.123,8.773a6.431,6.431,0,0,0,.613,1.637,73.641,73.641,0,0,0-.123,8.07c.245,2.34,2.454,9.709,2.577,10.878.1.93,1.591,6.736,2.2,9.079-.233-1.837-1.108-8.806-1.083-9.825.029-1.174-1.214-8.747-1.156-11.1m5.5,20.05c-.109,1.083-.17,1.791-.17,1.791l-2.968-.465c.085.328.137.525.137.525l3.068.117s-.034-.786-.067-1.968" transform="translate(-88.455 -93.854)" fill="#d09764"/>
        <path id="Trazado_883933" data-name="Trazado 883933" d="M294.458,360.536s-.18-4.177-.12-7.809a12.833,12.833,0,0,1-1.957.135,25.157,25.157,0,0,1-2.949-.18c.719,3.014,1.958,7.737,1.958,7.737Z" transform="translate(-90.179 -109.886)" fill="#fff"/>
        <path id="Trazado_883934" data-name="Trazado 883934" d="M298.339,364.333a2.783,2.783,0,0,0-.807-2.26,16.4,16.4,0,0,1-1.946-2.717l-1.18-4.391-4.873.063c-.073.866-.22,1.846-.189,2.094a14.96,14.96,0,0,1,.451,3.861,9.011,9.011,0,0,0,.9,3.885c.237.432,1.139,1.244,4.343,1.117s3.251-1.371,3.3-1.651" transform="translate(-90.15 -110.597)" fill="#137083"/>
        <path id="Trazado_883935" data-name="Trazado 883935" d="M270.293,304.969c.123.351.246,7.486-.123,8.773a6.459,6.459,0,0,1-.614,1.638,73.767,73.767,0,0,1,.123,8.07c-.246,2.339-2.455,9.708-2.577,10.878s-2.454,10.059-2.454,10.059l-3.068.117s.368-8.539-.123-11.814-2.577-9.123-1.718-12.749,1.718-4.679,1.841-6.2-.368-4.328-.123-6.9.491-5.614.491-5.614Z" transform="translate(-80.864 -93.854)" fill="#d8a87d"/>
        <path id="Trazado_883936" data-name="Trazado 883936" d="M266.913,333.583c.025,1.019-.85,7.986-1.083,9.823.609-2.342,2.1-8.148,2.2-9.078.123-1.17,2.332-8.539,2.577-10.878a73.812,73.812,0,0,0-.123-8.07,6.486,6.486,0,0,0,.613-1.638c.368-1.287.245-8.422.123-8.773l-8.345-3.743s-.057.711-.144,1.733l3.565,1.114c.167.334,3.459,5.894,3.26,7.213s-.814,4.515-.814,4.515a47.944,47.944,0,0,0-.673,6.684c.058,2.35-1.185,9.922-1.156,11.1M262.506,344.5l3.068-.117.137-.525-2.968.466s-.061-.709-.169-1.792c-.034,1.182-.067,1.968-.067,1.968" transform="translate(-81.789 -93.854)" fill="#d09764"/>
        <path id="Trazado_883937" data-name="Trazado 883937" d="M262.506,360.536s.18-4.177.12-7.809a12.832,12.832,0,0,0,1.957.135,25.158,25.158,0,0,0,2.949-.18c-.719,3.014-1.958,7.737-1.958,7.737Z" transform="translate(-81.789 -109.886)" fill="#fff"/>
        <path id="Trazado_883938" data-name="Trazado 883938" d="M256.8,364.321a2.791,2.791,0,0,1,.81-2.268,16.427,16.427,0,0,0,1.952-2.726l1.183-4.405,4.889.063c.074.869.22,1.851.189,2.1a15.044,15.044,0,0,0-.452,3.872,9.029,9.029,0,0,1-.905,3.9c-.238.433-1.142,1.249-4.356,1.121s-3.261-1.376-3.309-1.656" transform="translate(-80.005 -110.584)" fill="#137083"/>
        <path id="Trazado_883939" data-name="Trazado 883939" d="M271.387,192.487s.245,8.534.246,8.539c.01.366-3.225,1.6-3.553,1.857-1.628,1.263-1.359,2.847.242,4.378a11.456,11.456,0,0,0,3.6,2.089,19.228,19.228,0,0,0,2.948,1.02,11.334,11.334,0,0,0,7.792-.984c1.5-.79,4.385-2.9,4.565-4.707.195-1.961-2.888-2.049-4.549-3.067-1.718-1.053-2.209-1.287-2.209-1.287l-.123-7.6Z" transform="translate(-83.184 -59.974)" fill="#f0cc81"/>
        <path id="Trazado_883940" data-name="Trazado 883940" d="M259.455,265.886c-.246.351.612,11.723.366,14.53s-.337,51.436-.337,51.436,1.315-.235,4.9.83c1.8.536,2.416-.5,2.416-.5s3.013-19.254,3.136-20.424,3.645-33.713,3.645-33.713L278.528,331s.642,2.012,1.784,1.638a29.675,29.675,0,0,1,6.35-1.121s.734-45.332.488-50.011-.205-15.038-.205-15.038Z" transform="translate(-80.825 -82.843)" fill="#3f0040"/>
        <g id="Grupo_1104134" data-name="Grupo 1104134" transform="translate(182.312 142.28)" opacity="0.6" style="mix-blend-mode: multiply;isolation: isolate">
          <g id="Grupo_1104133" data-name="Grupo 1104133">
            <g id="Grupo_1104132" data-name="Grupo 1104132" clip-path="url(#clip-path-21)">
              <path id="Trazado_883941" data-name="Trazado 883941" d="M264.823,250.888s6.013,1.17,10.8,1.638a71,71,0,0,0,12.273-.468l-2.209-41.406-5.277-3.978a4.987,4.987,0,0,1-4.786,2.808,6.819,6.819,0,0,1-5.4-2.339l-5.4,4.678Z" transform="translate(-264.823 -206.674)" fill="#90bcaa"/>
            </g>
          </g>
        </g>
        <path id="Trazado_883942" data-name="Trazado 883942" d="M264.823,249.1s6.013,1.17,10.8,1.638a71,71,0,0,0,12.273-.468l-2.209-41.406-5.277-3.977a4.987,4.987,0,0,1-4.786,2.807,6.819,6.819,0,0,1-5.4-2.339l-5.4,4.679Z" transform="translate(-82.511 -63.838)" fill="#137083"/>
        <path id="Trazado_883943" data-name="Trazado 883943" d="M295.384,257.127l-5.351,4.007H282.2s-.313-19.017.792-25.8,2.169-9.32,1.31-12.946-1.911-8.2-1.911-8.2l2.58-7.054.163-5.9a8.565,8.565,0,0,0,4.364,3.8c1.459.556,7.536,3.053,7.956,4.564.2.714-2.308,3.37-2.744,4.333-.814,1.795.664,5.515.425,7.449-.732,5.955-1.728,10.159.252,15.819.123.35,0,19.922,0,19.922" transform="translate(-87.912 -62.699)" fill="#3f0040"/>
        <path id="Trazado_883944" data-name="Trazado 883944" d="M258.342,256.628l7.071,4.189h7.072s-.107-18.653-1.212-25.437-.793-9.138.066-12.764,1.911-8.925,1.911-8.925l-3.955-6.715-.38-5.589a7.6,7.6,0,0,1-4.146,3.7c-1.264.482-4.1,1.486-4.738,2.675-.609,1.14.181,4.1.255,5.381q.375,6.447.749,12.894c.23,3.95-.851,7.48-2.158,11.216-.122.351-.535,19.376-.535,19.376" transform="translate(-80.492 -62.746)" fill="#3f0040"/>
        <path id="Trazado_883945" data-name="Trazado 883945" d="M260.569,210.2a1.463,1.463,0,0,0-.461-.789,1.6,1.6,0,0,0-1.807.024c-4.042,2.585-4.52,8.174-5.291,12.3-1.009,5.4-1.939,9.838-1.576,15.28.029.43.6.407,1.005.324.483-.1,1.455-1.57,1.945-2.094a18.789,18.789,0,0,0,4.859-7.826,41.312,41.312,0,0,0,1.433-16.588,4.481,4.481,0,0,0-.109-.627" transform="translate(-78.315 -65.163)" fill="#3f0040"/>
        <path id="Trazado_883946" data-name="Trazado 883946" d="M272.851,190.834a8.049,8.049,0,0,0,4.509,3.941,3.808,3.808,0,0,0,3.268-.312,8.756,8.756,0,0,0,2.13-2.836c1.784-4.532,2.754-13.225-5.032-13.225-7.18,0-7.425,7.782-4.875,12.432" transform="translate(-84.553 -55.585)" fill="#f4d9a1"/>
        <path id="Trazado_883947" data-name="Trazado 883947" d="M297.265,225.444a35.036,35.036,0,0,0,1.784,6.727c.737,1.965,2.208,3.933,4.37,4.268a40.9,40.9,0,0,0,3.5-2.189c2.147-.816-.647-6.126-.8-7.8-.321-3.611-1.979-7.149-2.761-10.693-.3-1.367-2.23-6.267-4.617-4.776a3.4,3.4,0,0,0-1.26,2.343,33.71,33.71,0,0,0-.215,12.117" transform="translate(-92.481 -65.65)" fill="#3f0040"/>
        <g id="Grupo_1104137" data-name="Grupo 1104137" transform="translate(177.93 167.488)" style="mix-blend-mode: multiply;isolation: isolate">
          <g id="Grupo_1104136" data-name="Grupo 1104136">
            <g id="Grupo_1104135" data-name="Grupo 1104135" clip-path="url(#clip-path-22)">
              <path id="Trazado_883948" data-name="Trazado 883948" d="M262.488,252.978l23.132.156a1.1,1.1,0,0,0,.763-.184.712.712,0,0,0,.165-.472c.155-1.762.178-3.574.468-5.324.209-1.265.893-2.56.675-3.848-.025-.146-3.555.858-3.735.737a2.336,2.336,0,0,0-.827-.25c-3.393-.579-7.164-.037-10.514.593q-3.031.569-5.969,1.236a22.437,22.437,0,0,0-4.475,1.357c-2.462,1.174-3.609,2.682-3.712,5.114a.783.783,0,0,0,.251.724,1.265,1.265,0,0,0,.706.142l3.072.021" transform="translate(-258.458 -243.291)" fill="#aacce5"/>
            </g>
          </g>
        </g>
        <path id="Trazado_883949" data-name="Trazado 883949" d="M250.144,242.495c1.58-1.8,7.2-4.5,7.2-4.5.666,1.906,1.487,3.494,1.635,5.55a3.327,3.327,0,0,1-.165,1.634c-.583,1.278-3.768,3.046-5.09,3.5a2.9,2.9,0,0,1-3.446-.935c-.084-.148-.556-1.157-1.165-2.535a3.9,3.9,0,0,1,1.026-2.716" transform="translate(-77.618 -74.153)" fill="#f0cc81"/>
        <path id="Trazado_883950" data-name="Trazado 883950" d="M282.424,181.064c-1.32-.8-2.142-2.026-3.629-2.656a7.54,7.54,0,0,0-4.608-.428,3.71,3.71,0,0,0-1.143.441,3.905,3.905,0,0,0-1.342,1.715,6.707,6.707,0,0,0-.388,5.342c-2.033-4.344-2.664-10.988,2.906-13.147,1.61-.624,3.4-.742,5.013-1.331.038.281-.155.767.089.953.39.3,1.154-.346,1.317-.643a5.569,5.569,0,0,0-.533,1.226,6.871,6.871,0,0,1,2,.615,5.235,5.235,0,0,1,1.49,1.442,6.733,6.733,0,0,1,.852,2.812c.131.665.372,1.167,1.123,1.257.41.05,1.229-.111,1.058-.687a2.477,2.477,0,0,1,.107,2.5,2.575,2.575,0,0,1-2.18,1.305,4.044,4.044,0,0,1-2.137-.717" transform="translate(-84.078 -53.279)" fill="#734444"/>
        <path id="Trazado_883951" data-name="Trazado 883951" d="M302.638,240.811c-1.563.49-4.475,1.747-5.473,3.069-1.015,1.344,1.011,4.836,2.938,5.193a3.146,3.146,0,0,0,1.8-.4c1.632-.726,3.532-1.1,4.786-2.379a3.264,3.264,0,0,0,.716-3.954,4.2,4.2,0,0,0-4.77-1.531" transform="translate(-92.504 -74.968)" fill="#f0cc81"/>
        <path id="Trazado_883952" data-name="Trazado 883952" d="M286.4,248.461h-22.74a1.9,1.9,0,0,1-1.9-1.9V231.87a1.9,1.9,0,0,1,1.9-1.9H286.4a1.9,1.9,0,0,1,1.9,1.9v14.688a1.9,1.9,0,0,1-1.9,1.9" transform="translate(-81.558 -71.652)" fill="#f4f3f3"/>
        <path id="Trazado_883953" data-name="Trazado 883953" d="M295.507,232.948a1.691,1.691,0,1,1-1.684-1.534,1.614,1.614,0,0,1,1.684,1.534" transform="translate(-91.022 -72.102)" fill="#0f5d62"/>
        <g id="Grupo_1104140" data-name="Grupo 1104140" transform="translate(200.696 167.457)" opacity="0.5" style="mix-blend-mode: multiply;isolation: isolate">
          <g id="Grupo_1104139" data-name="Grupo 1104139">
            <g id="Grupo_1104138" data-name="Grupo 1104138" clip-path="url(#clip-path-23)">
              <path id="Trazado_883954" data-name="Trazado 883954" d="M297.816,247.637s.249-1.526-.358-1.917c-.014-.087-.489-.257-.567-.293-.285-.132-.576-.272-.873-.377a2.218,2.218,0,0,1-.613-.24c-.277-.193-.539-.41-.808-.614a1.281,1.281,0,0,0-.443-.251c-.167-.043-1.6-.819-1.7-.683-.348.476,1.287,1.923,1.7,2.215.492.349,2.089,1.355,2.089,1.355s-.192.8-.825.841-3.547-.275-3.83-.015c-.319.293.707.616.58.86a.473.473,0,0,0-.078.151.2.2,0,0,0,.03.114,1.482,1.482,0,0,0,.474.47l1.515,1.106a8.164,8.164,0,0,0,1.351.956q.517.229,1.055.41c.262.087.527.167.792.245l.987.294c.043.013.1.022.124-.012a.1.1,0,0,0,.011-.071,11.886,11.886,0,0,0-.215-1.539,9.39,9.39,0,0,1-.285-1.563q-.058-.721-.116-1.442" transform="translate(-291.528 -243.246)" fill="#d29a68"/>
            </g>
          </g>
        </g>
        <path id="Trazado_883955" data-name="Trazado 883955" d="M298.651,246.1s.188-1.572-.567-1.87-5.633-1.33-5.825-1.087,1.239,1.084,1.854,1.358,2.6,1.036,2.6,1.036a1.29,1.29,0,0,1-.926.973c-.754.145-3.958.546-4.276.85s.116.746.826.677,4.3-.05,4.3-.05-4.484.231-4.6.516.005.676,1.055.662c.657-.009,4.05.611,4.05.611a13.164,13.164,0,0,0-3.044.367c-.315.277.3.682,1.093.654a10.192,10.192,0,0,1,2.392.488s.615.325.938-.144a1.414,1.414,0,0,0,.242-.953,1.042,1.042,0,0,0,.322-.912,4.043,4.043,0,0,1-.092-1.178Z" transform="translate(-90.792 -75.745)" fill="#f4d9a1"/>
        <g id="Grupo_1104143" data-name="Grupo 1104143" transform="translate(178.884 161.096)" opacity="0.5" style="mix-blend-mode: multiply;isolation: isolate">
          <g id="Grupo_1104142" data-name="Grupo 1104142">
            <g id="Grupo_1104141" data-name="Grupo 1104141" clip-path="url(#clip-path-24)">
              <path id="Trazado_883956" data-name="Trazado 883956" d="M260.049,239.038s-.487-1.442.039-1.91c0-.087.433-.32.5-.366.255-.17.514-.348.785-.493a2.147,2.147,0,0,0,.556-.322c.237-.229.456-.476.684-.713a1.239,1.239,0,0,1,.389-.308c.155-.066,1.419-1.027,1.536-.91.413.411-.938,2.051-1.29,2.394-.421.41-1.807,1.618-1.807,1.618s.315.743.935.695,3.395-.784,3.71-.574c.357.238-.587.7-.424.918.034.045.085.082.1.136a.2.2,0,0,1-.011.115,1.435,1.435,0,0,1-.384.525l-1.291,1.294a7.854,7.854,0,0,1-1.156,1.124c-.31.2-.629.382-.958.551-.239.123-.483.238-.727.353l-.91.43c-.039.019-.091.035-.122.006a.1.1,0,0,1-.022-.067,11.593,11.593,0,0,1-.039-1.523,9.253,9.253,0,0,0,.025-1.557q-.06-.707-.119-1.414" transform="translate(-259.844 -234.005)" fill="#d29a68"/>
            </g>
          </g>
        </g>
        <path id="Trazado_883957" data-name="Trazado 883957" d="M258.5,237.671s-.436-1.5.249-1.9,5.246-2.112,5.472-1.9-1.027,1.232-1.579,1.587-2.353,1.383-2.353,1.383a1.293,1.293,0,0,0,1.055.809c.754.03,3.923-.049,4.282.2s.007.739-.693.777-4.173.58-4.173.58,4.384-.431,4.539-.172.1.656-.916.8c-.638.087-3.827,1.183-3.827,1.183a12.9,12.9,0,0,1,3.009-.089c.35.222-.185.7-.955.794a9.889,9.889,0,0,0-2.239.822s-.545.405-.933,0a1.406,1.406,0,0,1-.388-.889s-.52-.363-.458-.837a3.959,3.959,0,0,0-.1-1.155Z" transform="translate(-80.499 -72.862)" fill="#f4d9a1"/>
      </g>
    </g>
  </g>
</svg>
