<svg xmlns="http://www.w3.org/2000/svg" xmlns:xlink="http://www.w3.org/1999/xlink" width="190" height="130" viewBox="0 0 190 130">
  <defs>
    <clipPath id="clip-path">
      <rect id="Rectángulo_404689" data-name="Rectángulo 404689" width="136.558" height="126.268" fill="none"/>
    </clipPath>
    <clipPath id="clip-path-3">
      <rect id="Rectángulo_404687" data-name="Rectángulo 404687" width="28.473" height="28.473" fill="none"/>
    </clipPath>
    <clipPath id="clip-path-4">
      <rect id="Rectángulo_404686" data-name="Rectángulo 404686" width="28.472" height="28.472" fill="none"/>
    </clipPath>
  </defs>
  <g id="Grupo_1104323" data-name="Grupo 1104323" transform="translate(-357.711 -1388.703)">
    <g id="Grupo_108927" data-name="Grupo 108927" transform="translate(-32.289 -3078.297)">
      <path id="Rectángulo_36179" data-name="Rectángulo 36179" d="M0,0H190V130H0Z" transform="translate(390 4467)" fill="#b1dbda"/>
    </g>
    <g id="Grupo_1104322" data-name="Grupo 1104322" transform="translate(384.432 1390.569)">
      <g id="Grupo_1104321" data-name="Grupo 1104321" clip-path="url(#clip-path)">
        <g id="Grupo_1104320" data-name="Grupo 1104320">
          <g id="Grupo_1104319" data-name="Grupo 1104319" clip-path="url(#clip-path)">
            <path id="Trazado_884424" data-name="Trazado 884424" d="M42.215,146.763s-23.733,4.816-28.6-6.951c-3.8-9.193-2.185-13.5-7.546-17.084s-8.937-11.322-2.979-19.264,11.12-9.135,10.128-16.882S6.57,61.47,19.375,58.19s28.3,1.489,34.556-8.341,15.789-14.3,27.109-4.171,19.066,1.489,28.9,5.958,12.81,12.512,7.15,25.619,27.109,25.023,16.983,51.238-43.195,7.745-56.6,10.426-35.251,7.844-35.251,7.844" transform="translate(0 -32.128)" fill="#edf5f1"/>
            <path id="Trazado_884425" data-name="Trazado 884425" d="M178.935,49.014c.584,2.721-3.27,5.857-8.61,7s-10.141-.131-10.725-2.851,3.27-5.857,8.609-7,10.141.131,10.725,2.854" transform="translate(-128.338 -36.796)" fill="#edf5f1"/>
            <path id="Trazado_884426" data-name="Trazado 884426" d="M88.2,66.16c.322,1.5-1.8,3.218-4.73,3.847s-5.571-.067-5.891-1.567,1.8-3.217,4.73-3.847,5.572.072,5.892,1.568" transform="translate(-62.377 -51.774)" fill="#edf5f1"/>
            <path id="Trazado_884427" data-name="Trazado 884427" d="M387.682,562.451c-.008,2.344-3.74,4.232-8.342,4.215s-8.321-1.931-8.311-4.275,3.74-4.232,8.343-4.215,8.32,1.931,8.311,4.275" transform="translate(-298.463 -449.007)" fill="#edf5f1"/>
            <path id="Trazado_884428" data-name="Trazado 884428" d="M640.118,233.6c-2.672,1.353-6.988-1.8-9.641-7.042s-2.636-10.586.035-11.938,6.988,1.8,9.642,7.042,2.637,10.586-.035,11.938" transform="translate(-505.576 -172.396)" fill="#edf5f1"/>
            <path id="Trazado_884429" data-name="Trazado 884429" d="M99.762,594.521c0,1.2-6.276,2.181-14.018,2.181s-14.017-.977-14.017-2.181,6.275-2.18,14.018-2.18,14.018.977,14.018,2.18" transform="translate(-57.699 -476.49)" fill="#edf5f1"/>
            <path id="Trazado_884430" data-name="Trazado 884430" d="M546.653,625.486c0,1.2-6.277,2.181-14.018,2.181s-14.018-.977-14.018-2.181,6.276-2.181,14.018-2.181,14.018.977,14.018,2.181" transform="translate(-417.185 -501.398)" fill="#edf5f1"/>
            <path id="Trazado_884431" data-name="Trazado 884431" d="M541.044,320.891s-3.4-.9-3.841-4.012.628-5.358.857-5.473,6,5.641,2.982,9.485" transform="translate(-432.051 -250.5)" fill="#e16136" fill-rule="evenodd"/>
            <path id="Trazado_884432" data-name="Trazado 884432" d="M579.044,307.432s1.381-3.248,4.5-3.617,4.93.6,5.043.835a7.639,7.639,0,0,1-3.73,3.33,5.964,5.964,0,0,1-5.811-.548" transform="translate(-465.794 -244.328)" fill="#e16136" fill-rule="evenodd"/>
            <path id="Trazado_884433" data-name="Trazado 884433" d="M559.274,283.88s-3.46-.625-4.145-3.69.194-5.387.417-5.52,6.435,5.143,3.729,9.209" transform="translate(-446.351 -220.948)" fill="#e16136" fill-rule="evenodd"/>
            <path id="Trazado_884434" data-name="Trazado 884434" d="M556.728,347.894s1.853-3.005,4.992-2.906,4.783,1.346,4.852,1.591a7.638,7.638,0,0,1-4.19,2.729,5.964,5.964,0,0,1-5.661-1.415" transform="translate(-447.837 -277.513)" fill="#e16136" fill-rule="evenodd"/>
            <path id="Trazado_884435" data-name="Trazado 884435" d="M600.638,260.595s1.38-3.247,4.5-3.616,4.929.607,5.042.835a7.6,7.6,0,0,1-3.73,3.33,5.964,5.964,0,0,1-5.81-.548" transform="translate(-483.165 -206.653)" fill="#e16136" fill-rule="evenodd"/>
            <path id="Trazado_884436" data-name="Trazado 884436" d="M580.858,237.037s-3.46-.618-4.145-3.684.194-5.394.417-5.527,6.434,5.145,3.729,9.21" transform="translate(-463.713 -183.266)" fill="#e16136" fill-rule="evenodd"/>
            <path id="Trazado_884437" data-name="Trazado 884437" d="M618.583,200.337s.638-3.473,3.6-4.509,4.953-.482,5.109-.278a7.651,7.651,0,0,1-2.915,4.058,5.976,5.976,0,0,1-5.793.729" transform="translate(-497.6 -157.038)" fill="#e16136" fill-rule="evenodd"/>
            <path id="Trazado_884438" data-name="Trazado 884438" d="M592.787,187.248s-3.515.15-4.843-2.693-.984-5.308-.8-5.481,7.394,3.62,5.641,8.175" transform="translate(-472.164 -144.046)" fill="#e16136" fill-rule="evenodd"/>
            <path id="Trazado_884439" data-name="Trazado 884439" d="M615.271,129.459s-3.257-2.195-2.577-5.635,2.628-5.42,2.909-5.459a10.226,10.226,0,0,1,2.277,5.746,6.044,6.044,0,0,1-2.61,5.344" transform="translate(-492.787 -95.216)" fill="#e16136" fill-rule="evenodd"/>
            <path id="Trazado_884440" data-name="Trazado 884440" d="M544.1,209.546c.039-.057,14.186-18.573,15.916-40.358l.506.045c-1.743,21.936-15.972,40.56-16.016,40.617Z" transform="translate(-437.684 -136.098)" fill="#e16136"/>
            <path id="Trazado_884441" data-name="Trazado 884441" d="M231.983,268.14s3.4-.9,3.841-4.012-.628-5.358-.857-5.473-6,5.641-2.982,9.485" transform="translate(-185.912 -208.066)" fill="#e16136" fill-rule="evenodd"/>
            <path id="Trazado_884442" data-name="Trazado 884442" d="M174.546,254.677s-1.381-3.248-4.5-3.617-4.93.6-5.043.835a7.64,7.64,0,0,0,3.73,3.33,5.964,5.964,0,0,0,5.811-.548" transform="translate(-132.732 -201.891)" fill="#e16136" fill-rule="evenodd"/>
            <path id="Trazado_884443" data-name="Trazado 884443" d="M212.654,231.119s3.46-.625,4.145-3.69-.194-5.387-.417-5.52-6.435,5.143-3.729,9.209" transform="translate(-170.513 -178.506)" fill="#e16136" fill-rule="evenodd"/>
            <path id="Trazado_884444" data-name="Trazado 884444" d="M195.589,295.138s-1.853-3.005-4.992-2.906-4.783,1.346-4.852,1.591a7.638,7.638,0,0,0,4.19,2.729,5.965,5.965,0,0,0,5.661-1.415" transform="translate(-149.417 -235.075)" fill="#e16136" fill-rule="evenodd"/>
            <path id="Trazado_884445" data-name="Trazado 884445" d="M152.965,207.835s-1.38-3.247-4.5-3.616-4.929.606-5.042.835a7.6,7.6,0,0,0,3.73,3.33,5.964,5.964,0,0,0,5.81-.548" transform="translate(-115.374 -164.211)" fill="#e16136" fill-rule="evenodd"/>
            <path id="Trazado_884446" data-name="Trazado 884446" d="M191.072,184.276s3.46-.618,4.145-3.684-.194-5.394-.417-5.527-6.434,5.145-3.729,9.21" transform="translate(-153.152 -140.824)" fill="#e16136" fill-rule="evenodd"/>
            <path id="Trazado_884447" data-name="Trazado 884447" d="M138.432,147.6s-.638-3.473-3.6-4.5-4.953-.482-5.109-.278a7.651,7.651,0,0,0,2.915,4.058,5.976,5.976,0,0,0,5.793.729" transform="translate(-104.352 -114.62)" fill="#e16136" fill-rule="evenodd"/>
            <path id="Trazado_884448" data-name="Trazado 884448" d="M174.967,134.487s3.515.15,4.843-2.693.984-5.308.8-5.481-7.394,3.62-5.641,8.175" transform="translate(-140.526 -101.604)" fill="#e16136" fill-rule="evenodd"/>
            <path id="Trazado_884449" data-name="Trazado 884449" d="M155.809,76.7s3.257-2.195,2.577-5.635-2.628-5.42-2.909-5.459a10.226,10.226,0,0,0-2.277,5.746,6.045,6.045,0,0,0,2.61,5.344" transform="translate(-123.228 -52.779)" fill="#e16136" fill-rule="evenodd"/>
            <path id="Trazado_884450" data-name="Trazado 884450" d="M181.2,156.792c-.04-.057-14.186-18.573-15.916-40.358l-.506.044c1.744,21.936,15.972,40.56,16.017,40.617Z" transform="translate(-132.549 -93.662)" fill="#e16136"/>
            <path id="Trazado_884451" data-name="Trazado 884451" d="M588.068,324.207a12.434,12.434,0,0,1,3.2-9.561c7.9-8.828,18.358-.095,7.353,8.9-5.439,4.448-10.265.636-10.558.662" transform="translate(-473.009 -250.153)" fill="#e16136" fill-rule="evenodd"/>
            <path id="Trazado_884452" data-name="Trazado 884452" d="M598.8,328.836s.377-.439,1.264-1.282c-.073,0-.268-.133-.464-.965a10.773,10.773,0,0,1-.078-2.581l.558,3.528c.461-.433,1.059-.979,1.82-1.627a2.78,2.78,0,0,1-.066-1.5,16.079,16.079,0,0,1,1.206-3.663l-.967,5.019c.553-.477,1.194-1.006,1.915-1.586.157-.119.3-.24.456-.354a4.065,4.065,0,0,1-.006-1.332,16.089,16.089,0,0,1,1.208-3.669l-.924,4.782c3.3-2.514,4.858-2.932,4.858-2.932s-2.031,1.371-4.908,3.526l5.06.365a16.13,16.13,0,0,1-3.854.211,2.988,2.988,0,0,1-1.408-.426c-.691.521-1.436,1.091-2.206,1.69l4.973,1.011a16.128,16.128,0,0,1-3.848-.28,3.262,3.262,0,0,1-1.314-.581q-.875.689-1.79,1.428l3.016,1.9a10.983,10.983,0,0,1-2.345-1.091c-.607-.456-.717-.689-.708-.78q-.708.576-1.439,1.183" transform="translate(-481.689 -256.469)" fill="#d93a04" fill-rule="evenodd"/>
            <path id="Trazado_884453" data-name="Trazado 884453" d="M39.725,287.049a12.434,12.434,0,0,1-8.647-5.187c-6.92-9.613,3.858-17.947,10.272-5.266,3.169,6.267-1.589,10.162-1.625,10.452" transform="translate(-23.202 -217.314)" fill="#e16136" fill-rule="evenodd"/>
            <path id="Trazado_884454" data-name="Trazado 884454" d="M44.16,293.935s-.347-.463-.979-1.51c-.014.071-.188.233-1.042.246a10.789,10.789,0,0,1-2.536-.479l3.565.214c-.322-.544-.729-1.244-1.2-2.123a2.782,2.782,0,0,1-1.477-.258,16.1,16.1,0,0,1-3.323-1.967l4.693,2.022q-.52-.965-1.137-2.211c-.083-.179-.169-.352-.248-.522a4.056,4.056,0,0,1-1.3-.281,16.074,16.074,0,0,1-3.32-1.966l4.471,1.932c-1.745-3.763-1.82-5.375-1.82-5.375s.9,2.279,2.387,5.551l1.446-4.863a16.138,16.138,0,0,1-.623,3.809A3,3,0,0,1,41,287.437c.36.788.755,1.638,1.176,2.518l2.054-4.639a16.126,16.126,0,0,1-1.1,3.7,3.259,3.259,0,0,1-.851,1.162q.484,1,1.011,2.056L45.8,289.7a10.983,10.983,0,0,1-1.57,2.055c-.577.5-.828.552-.91.525.273.545.556,1.1.845,1.659" transform="translate(-28.843 -226.57)" fill="#d93a04" fill-rule="evenodd"/>
            <rect id="Rectángulo_404633" data-name="Rectángulo 404633" width="47.532" height="28.124" transform="translate(10.346 73.893)" fill="#b5b5b5"/>
            <path id="Trazado_884455" data-name="Trazado 884455" d="M52.9,309.071l23.766-16.715,23.767,16.715Z" transform="translate(-42.552 -235.177)" fill="#b5b5b5"/>
            <rect id="Rectángulo_404634" data-name="Rectángulo 404634" width="39.213" height="48.284" transform="translate(14.505 51.015)" fill="#fff"/>
            <rect id="Rectángulo_404635" data-name="Rectángulo 404635" width="33.96" height="0.881" transform="translate(17.132 59.038)" fill="#c7dfd3"/>
            <rect id="Rectángulo_404636" data-name="Rectángulo 404636" width="33.96" height="0.881" transform="translate(17.132 62.245)" fill="#c7dfd3"/>
            <rect id="Rectángulo_404637" data-name="Rectángulo 404637" width="33.96" height="0.881" transform="translate(17.132 65.45)" fill="#c7dfd3"/>
            <rect id="Rectángulo_404638" data-name="Rectángulo 404638" width="33.96" height="0.881" transform="translate(17.132 68.657)" fill="#c7dfd3"/>
            <rect id="Rectángulo_404639" data-name="Rectángulo 404639" width="33.96" height="0.881" transform="translate(17.132 71.86)" fill="#c7dfd3"/>
            <rect id="Rectángulo_404640" data-name="Rectángulo 404640" width="33.96" height="0.881" transform="translate(17.132 75.066)" fill="#c7dfd3"/>
            <rect id="Rectángulo_404641" data-name="Rectángulo 404641" width="33.96" height="0.881" transform="translate(17.132 78.271)" fill="#c7dfd3"/>
            <rect id="Rectángulo_404642" data-name="Rectángulo 404642" width="33.96" height="0.881" transform="translate(17.132 81.477)" fill="#c7dfd3"/>
            <rect id="Rectángulo_404643" data-name="Rectángulo 404643" width="33.96" height="0.882" transform="translate(17.132 84.681)" fill="#c7dfd3"/>
            <path id="Trazado_884456" data-name="Trazado 884456" d="M52.9,377.819,83.07,405.943H52.9Z" transform="translate(-42.552 -303.925)" fill="#9e9e9e"/>
            <path id="Trazado_884457" data-name="Trazado 884457" d="M171.834,377.819l-30.172,28.125h30.172Z" transform="translate(-113.956 -303.925)" fill="#9e9e9e"/>
            <path id="Trazado_884458" data-name="Trazado 884458" d="M52.9,453.386,76.663,436.8l23.767,16.588Z" transform="translate(-42.552 -351.369)" fill="#b5b5b5"/>
            <path id="Trazado_884459" data-name="Trazado 884459" d="M169.573,52.882s2.391,4.072,1.192,7.316c.978,2.022,17.311-7.581,16.324-9.677a9.054,9.054,0,0,1-6.042-4.778Z" transform="translate(-136.408 -36.796)" fill="#121212"/>
            <path id="Trazado_884460" data-name="Trazado 884460" d="M179.942,56.667a6.435,6.435,0,0,0,2.247-8.795l-.606-1.019-10.9,6.782.463.782a6.435,6.435,0,0,0,8.795,2.247" transform="translate(-137.301 -37.689)" fill="#080808"/>
            <rect id="Rectángulo_404644" data-name="Rectángulo 404644" width="10.201" height="1.105" transform="matrix(0.86, -0.51, 0.51, 0.86, 46.875, 36.069)" fill="#aae882"/>
            <path id="Trazado_884461" data-name="Trazado 884461" d="M170.971,112.975l-7.75,17.054,2.319,1.415,6.553-12.862Z" transform="translate(-131.297 -90.88)" fill="#eb977a"/>
            <path id="Trazado_884462" data-name="Trazado 884462" d="M191.033,131.116l-.51-2.558-3.753,10.928Z" transform="translate(-150.24 -103.415)" fill="#eb977a"/>
            <path id="Trazado_884463" data-name="Trazado 884463" d="M155.855,200.159s-1.829.938-1.79,1.468.661.3.661.3a2.552,2.552,0,0,0-.462,2.335c.505,1.12,2.685.451,3.91-2.688Z" transform="translate(-123.932 -161.012)" fill="#cfcfcf"/>
            <path id="Trazado_884464" data-name="Trazado 884464" d="M158.328,208.121a1.067,1.067,0,0,1-.552.16,1.185,1.185,0,0,1-.856-.437.108.108,0,1,1,.17-.132.982.982,0,0,0,.689.353,1.256,1.256,0,0,0,.931-.585.108.108,0,1,1,.169.133,2.066,2.066,0,0,1-.551.506" transform="translate(-126.211 -166.859)" fill="#b8b8b8"/>
            <path id="Trazado_884465" data-name="Trazado 884465" d="M154.373,215.48a.108.108,0,0,1-.146-.15l.68-1.095a.108.108,0,0,1,.183.113l-.68,1.095a.109.109,0,0,1-.036.035" transform="translate(-124.05 -172.301)" fill="#b8b8b8"/>
            <path id="Trazado_884466" data-name="Trazado 884466" d="M156.521,217.918a.108.108,0,0,1-.146-.152l.773-1.2a.108.108,0,0,1,.181.116l-.773,1.2a.106.106,0,0,1-.035.034" transform="translate(-125.778 -174.172)" fill="#b8b8b8"/>
            <path id="Trazado_884467" data-name="Trazado 884467" d="M160.24,219.42a.107.107,0,0,1-.146-.148l.562-.933a.107.107,0,0,1,.184.11l-.561.933a.1.1,0,0,1-.037.036" transform="translate(-128.77 -175.594)" fill="#b8b8b8"/>
            <path id="Trazado_884468" data-name="Trazado 884468" d="M158.376,214.607a.107.107,0,0,1-.117,0l-1.465-1.042a.108.108,0,0,1,.125-.176l1.465,1.042a.107.107,0,0,1,.026.149h0a.1.1,0,0,1-.032.03" transform="translate(-126.096 -171.641)" fill="#b8b8b8"/>
            <path id="Trazado_884469" data-name="Trazado 884469" d="M189.954,112.975l-3.134,4.612,4.311,3.072,1.88-2.022Z" transform="translate(-150.282 -90.88)" fill="#aae882"/>
            <path id="Trazado_884470" data-name="Trazado 884470" d="M299.666,160.976s.449,2.005.97,2.1.46-.564.46-.564a2.552,2.552,0,0,0,2.144,1.034c1.213-.2,1.112-2.486-1.617-4.46Z" transform="translate(-241.057 -127.974)" fill="#cfcfcf"/>
            <path id="Trazado_884471" data-name="Trazado 884471" d="M313.009,177.809a.107.107,0,0,1-.132-.018l-.889-.934a.108.108,0,0,1,.157-.149l.889.933a.107.107,0,0,1,0,.152.11.11,0,0,1-.02.015" transform="translate(-250.948 -142.124)" fill="#b8b8b8"/>
            <path id="Trazado_884472" data-name="Trazado 884472" d="M316,175.972a.107.107,0,0,1-.133-.02L314.9,174.9a.108.108,0,1,1,.159-.146l.966,1.049a.108.108,0,0,1-.007.152.1.1,0,0,1-.018.014" transform="translate(-253.289 -140.55)" fill="#b8b8b8"/>
            <path id="Trazado_884473" data-name="Trazado 884473" d="M318.187,173.595a.107.107,0,0,1-.132-.017l-.761-.778a.108.108,0,1,1,.154-.151l.761.778a.107.107,0,0,1,0,.152.138.138,0,0,1-.02.015" transform="translate(-255.212 -138.856)" fill="#b8b8b8"/>
            <path id="Trazado_884474" data-name="Trazado 884474" d="M239.53,90.876s2.637-.477,3.922.862,9.8,12.441,9.8,12.441l-1.954,1.892-8.7-10.775Z" transform="translate(-192.683 -73.036)" fill="#cfcfcf"/>
            <path id="Trazado_884475" data-name="Trazado 884475" d="M243.171,96.395l-.044.006,2.358,3.4,3.361,4.2c-.085-.453-.184-.91-.293-1.5-.809-4.421-5.383-6.1-5.383-6.1" transform="translate(-195.576 -77.542)" fill="#b8b8b8"/>
            <path id="Trazado_884476" data-name="Trazado 884476" d="M239.53,90.222a4.2,4.2,0,0,1,4.822,1.516l2.419,2.571L243.7,97.3Z" transform="translate(-192.683 -72.381)" fill="#aae882"/>
            <path id="Trazado_884477" data-name="Trazado 884477" d="M209.548,91.216a10.412,10.412,0,0,0-7.177,4.253s-1,5.834,3.033,7.856c3.724,1.867,2.709,3.206,4.035,6.278l4.56-2.7,4.56-2.7c-2.059-2.636-3.119-1.494-3.773-6.861-.555-4.549-5.236-6.12-5.236-6.12" transform="translate(-162.701 -73.376)" fill="#b8ec96"/>
            <path id="Trazado_884478" data-name="Trazado 884478" d="M210.677,91.67a10.314,10.314,0,0,0-3.379,1.271c-.1.059-.2.119-.294.181a10.142,10.142,0,0,0-2.569,2.293c.275.737,1.213,2.379,3.91.959,3.134-1.65,3.1-3.58,2.333-4.7" transform="translate(-164.451 -73.741)" fill="#eb977a"/>
            <path id="Trazado_884479" data-name="Trazado 884479" d="M210.385,105.493a.143.143,0,0,1-.133.007,4.877,4.877,0,0,0-1.982.821.144.144,0,0,1-.146-.247c.417-.247,1.812-1.036,2.249-.835a.144.144,0,0,1,.013.254" transform="translate(-167.364 -84.63)" fill="#eb977a"/>
            <path id="Trazado_884480" data-name="Trazado 884480" d="M223.65,96.865a.142.142,0,0,1-.083.019.143.143,0,0,1-.133-.153c.032-.479,1.4-1.325,1.811-1.573a.144.144,0,0,1,.147.247c-.793.47-1.657,1.119-1.672,1.345a.145.145,0,0,1-.07.114" transform="translate(-179.734 -76.533)" fill="#eb977a"/>
            <rect id="Rectángulo_404645" data-name="Rectángulo 404645" width="4.127" height="2.894" transform="matrix(0.86, -0.51, 0.51, 0.86, 39.751, 18.464)" fill="#eb977a"/>
            <path id="Trazado_884481" data-name="Trazado 884481" d="M207.624,85.052l-3.255,2.6-1.128-1.9,3.55-2.1Z" transform="translate(-163.491 -67.289)" fill="#b8b8b8"/>
            <path id="Trazado_884482" data-name="Trazado 884482" d="M223.576,43.2a1.3,1.3,0,1,1-1.778-.455h0a1.3,1.3,0,0,1,1.778.455" transform="translate(-177.906 -34.237)" fill="#eb977a"/>
            <path id="Trazado_884483" data-name="Trazado 884483" d="M167.135,76.659a1.3,1.3,0,1,1-1.778-.455h0a1.3,1.3,0,0,1,1.778.455" transform="translate(-132.504 -61.154)" fill="#eb977a"/>
            <path id="Trazado_884484" data-name="Trazado 884484" d="M171.863,37.276h0a6.435,6.435,0,0,1-8.795-2.247l-1.112-1.885A6.416,6.416,0,0,1,173,26.6l1.117,1.885a6.435,6.435,0,0,1-2.247,8.795" transform="translate(-129.558 -18.867)" fill="#eb977a"/>
            <path id="Trazado_884485" data-name="Trazado 884485" d="M201.558,73.315c.112.188-.136.542-.554.79s-.847.3-.958.106.137-.542.554-.789.847-.3.958-.107" transform="translate(-160.899 -58.883)" fill="#c66f58"/>
            <path id="Trazado_884486" data-name="Trazado 884486" d="M156.93,22.809a6.353,6.353,0,0,1,1.51-2.474,9.76,9.76,0,0,1,6.229-2.134c2.123.153,3.56,1.415,5.779,5.383,0,0-1.9,1.658-10.156,1.042,0,0,1.165,4.319-1.3,6.131,0,0-4.01-4.556-2.064-7.949" transform="translate(-125.809 -14.641)" fill="#121212"/>
            <path id="Trazado_884487" data-name="Trazado 884487" d="M173.788,48.575s6.633.689,8.795.166a28.035,28.035,0,0,1-8.307.322,1.237,1.237,0,0,0-.49-.488" transform="translate(-139.796 -39.075)" fill="#080808"/>
            <path id="Trazado_884488" data-name="Trazado 884488" d="M218.823,60.8c.145.243.694.183,1.228-.133s.85-.77.708-1.011-.694-.183-1.228.133-.85.77-.708,1.011" transform="translate(-175.998 -47.865)" fill="#c66f58"/>
            <path id="Trazado_884489" data-name="Trazado 884489" d="M178,85c.145.243.694.183,1.228-.133s.85-.77.708-1.011-.694-.183-1.228.133-.85.77-.708,1.011" transform="translate(-143.156 -67.336)" fill="#c66f58"/>
            <path id="Trazado_884490" data-name="Trazado 884490" d="M233.429,51.986h60.1a5.606,5.606,0,0,1,5.606,5.606v85.743a5.606,5.606,0,0,1-5.606,5.606h-60.1a5.606,5.606,0,0,1-5.606-5.606V57.592a5.606,5.606,0,0,1,5.606-5.606" transform="translate(-183.265 -41.819)" fill="#8abca3"/>
            <path id="Trazado_884491" data-name="Trazado 884491" d="M304.944,152.886a1.689,1.689,0,0,1-1.675,1.7H239.035a1.689,1.689,0,0,1-1.676-1.7V62.96a1.689,1.689,0,0,1,1.676-1.7h64.234a1.689,1.689,0,0,1,1.675,1.7Z" transform="translate(-190.936 -49.277)" fill="#7ab396"/>
            <rect id="Rectángulo_404646" data-name="Rectángulo 404646" width="58.155" height="81.73" transform="translate(51.139 17.392)" fill="#fff"/>
            <rect id="Rectángulo_404647" data-name="Rectángulo 404647" width="58.155" height="15.957" transform="translate(51.139 17.392)" fill="#5c5c5c"/>
            <path id="Trazado_884492" data-name="Trazado 884492" d="M323.6,34.806h27.467a3.972,3.972,0,0,1,3.971,3.972v5.515a3.973,3.973,0,0,1-3.973,3.973H323.6a3.973,3.973,0,0,1-3.972-3.973V38.778a3.972,3.972,0,0,1,3.972-3.972" transform="translate(-257.115 -27.999)" fill="#05703a"/>
            <path id="Trazado_884493" data-name="Trazado 884493" d="M353.78,34.806h-32.9a1.253,1.253,0,0,0-1.253,1.253v5.477h35.405V36.059a1.252,1.252,0,0,0-1.253-1.253" transform="translate(-257.114 -27.999)" fill="#006d36"/>
            <path id="Trazado_884494" data-name="Trazado 884494" d="M381.5,1.6a3.719,3.719,0,1,1-3.719,3.72A3.719,3.719,0,0,1,381.5,1.6M381.5,0a5.313,5.313,0,1,0,5.313,5.313A5.313,5.313,0,0,0,381.5,0" transform="translate(-302.608 -0.001)" fill="#006d36"/>
            <rect id="Rectángulo_404648" data-name="Rectángulo 404648" width="36.862" height="1.768" transform="translate(61.785 24.35)" fill="#424242"/>
            <rect id="Rectángulo_404649" data-name="Rectángulo 404649" width="21.216" height="1.768" transform="translate(69.607 28.279)" fill="#424242"/>
            <rect id="Rectángulo_404650" data-name="Rectángulo 404650" width="36.862" height="1.768" transform="translate(57.668 40.024)" fill="#c7dfd3"/>
            <rect id="Rectángulo_404651" data-name="Rectángulo 404651" width="21.216" height="1.768" transform="translate(57.668 43.953)" fill="#c7dfd3"/>
            <rect id="Rectángulo_404652" data-name="Rectángulo 404652" width="33.61" height="1.594" transform="translate(69.466 52.742)" fill="#c7dfd3"/>
            <rect id="Rectángulo_404653" data-name="Rectángulo 404653" width="33.61" height="1.594" transform="translate(69.466 56.351)" fill="#c7dfd3"/>
            <rect id="Rectángulo_404654" data-name="Rectángulo 404654" width="18.867" height="1.594" transform="translate(69.466 59.962)" fill="#c7dfd3"/>
            <rect id="Rectángulo_404655" data-name="Rectángulo 404655" width="8.814" height="8.814" transform="translate(57.668 52.742)" fill="#c7dfd3"/>
            <rect id="Rectángulo_404656" data-name="Rectángulo 404656" width="33.61" height="1.594" transform="translate(69.466 67.497)" fill="#c7dfd3"/>
            <rect id="Rectángulo_404657" data-name="Rectángulo 404657" width="33.61" height="1.593" transform="translate(69.466 71.108)" fill="#c7dfd3"/>
            <rect id="Rectángulo_404658" data-name="Rectángulo 404658" width="18.867" height="1.593" transform="translate(69.466 74.718)" fill="#c7dfd3"/>
            <rect id="Rectángulo_404659" data-name="Rectángulo 404659" width="8.814" height="8.814" transform="translate(57.668 67.498)" fill="#c7dfd3"/>
            <rect id="Rectángulo_404660" data-name="Rectángulo 404660" width="33.61" height="1.594" transform="translate(69.466 82.254)" fill="#c7dfd3"/>
            <rect id="Rectángulo_404661" data-name="Rectángulo 404661" width="33.61" height="1.595" transform="translate(69.466 85.863)" fill="#c7dfd3"/>
            <rect id="Rectángulo_404662" data-name="Rectángulo 404662" width="18.867" height="1.594" transform="translate(69.466 89.474)" fill="#c7dfd3"/>
            <rect id="Rectángulo_404663" data-name="Rectángulo 404663" width="8.814" height="8.814" transform="translate(57.668 82.254)" fill="#c7dfd3"/>
            <path id="Trazado_884495" data-name="Trazado 884495" d="M303.765,273.421l2.505,2.017,4.936-5.626" transform="translate(-244.354 -217.041)" fill="none" stroke="#474747" stroke-miterlimit="10" stroke-width="5.546"/>
            <path id="Trazado_884496" data-name="Trazado 884496" d="M303.765,349.068l2.505,2.022,4.936-5.626" transform="translate(-244.354 -277.897)" fill="none" stroke="#474747" stroke-miterlimit="10" stroke-width="5.546"/>
            <rect id="Rectángulo_404664" data-name="Rectángulo 404664" width="4.289" height="3.007" transform="translate(25.492 67.192)" fill="#c47965"/>
            <path id="Trazado_884497" data-name="Trazado 884497" d="M111.313,442.132a1.678,1.678,0,0,0,1.667,1.689h8.6a1.679,1.679,0,0,0,1.668-1.689v-3.169a1.679,1.679,0,0,0-1.668-1.69h-8.6a1.678,1.678,0,0,0-1.667,1.689h0Z" transform="translate(-89.542 -351.751)" fill="#171717"/>
            <path id="Trazado_884498" data-name="Trazado 884498" d="M146.707,521.859V509.274a2.544,2.544,0,0,1,5.037,0v12.585Z" transform="translate(-118.014 -407.913)" fill="#171717"/>
            <rect id="Rectángulo_404665" data-name="Rectángulo 404665" width="5.037" height="1.652" transform="translate(28.692 112.294)"/>
            <path id="Trazado_884499" data-name="Trazado 884499" d="M152.838,582.6v2.533a.475.475,0,0,1-.505.437h-3.745a.474.474,0,0,1-.505-.437V582.6Z" transform="translate(-119.12 -468.657)" fill="#ffae0b"/>
            <path id="Trazado_884500" data-name="Trazado 884500" d="M152.769,577.135a3.747,3.747,0,0,1,3.648,3.841h-7.3a3.747,3.747,0,0,1,3.648-3.841" transform="translate(-119.955 -464.258)" fill="#05703a"/>
            <path id="Trazado_884501" data-name="Trazado 884501" d="M147.6,595.618h6.652a.77.77,0,0,1,0,1.541H147.6a.77.77,0,0,1,0-1.541" transform="translate(-118.11 -479.127)" fill="#ffad09"/>
            <path id="Trazado_884502" data-name="Trazado 884502" d="M111.209,521.849V509.263a2.543,2.543,0,0,1,5.036,0v12.585Z" transform="translate(-89.459 -407.903)" fill="#171717"/>
            <rect id="Rectángulo_404666" data-name="Rectángulo 404666" width="5.036" height="1.652" transform="translate(21.75 112.294)"/>
            <path id="Trazado_884503" data-name="Trazado 884503" d="M111.209,582.6v2.533a.474.474,0,0,0,.505.437h3.74a.475.475,0,0,0,.505-.437V582.6Z" transform="translate(-89.459 -468.657)" fill="#ffae0b"/>
            <path id="Trazado_884504" data-name="Trazado 884504" d="M100.82,577.135a3.747,3.747,0,0,0-3.648,3.841h7.3a3.747,3.747,0,0,0-3.647-3.841" transform="translate(-78.166 -464.258)" fill="#05703a"/>
            <path id="Trazado_884505" data-name="Trazado 884505" d="M95.666,595.618h6.654a.77.77,0,0,1-.005,1.54H95.666a.77.77,0,0,1,0-1.54h0" transform="translate(-76.337 -479.127)" fill="#ffad09"/>
            <rect id="Rectángulo_404667" data-name="Rectángulo 404667" width="5.017" height="12.51" transform="translate(28.692 89.865)" fill="#171717"/>
            <rect id="Rectángulo_404668" data-name="Rectángulo 404668" width="5.016" height="12.51" transform="translate(21.771 89.865)" fill="#171717"/>
            <path id="Trazado_884506" data-name="Trazado 884506" d="M205.443,392.686l6.672-1.692.771,3.69-6.76,1.559Z" transform="translate(-165.262 -314.523)" fill="#eb977a"/>
            <path id="Trazado_884507" data-name="Trazado 884507" d="M211.328,401.2l-.876-3.538.664-.169,2.426,3.19Z" transform="translate(-169.291 -319.753)" fill="#c47965"/>
            <path id="Trazado_884508" data-name="Trazado 884508" d="M229.379,391.682a2.666,2.666,0,1,0,2.1-3.128h0a2.666,2.666,0,0,0-2.1,3.128" transform="translate(-184.477 -312.52)" fill="#eb977a"/>
            <path id="Trazado_884509" data-name="Trazado 884509" d="M230.949,389.629a2.664,2.664,0,0,0,2.7,4.542,2.664,2.664,0,1,1-2.7-4.542" transform="translate(-184.491 -313.425)" fill="#c47965"/>
            <path id="Trazado_884510" data-name="Trazado 884510" d="M244.383,390.815h0a1.242,1.242,0,0,0-1.617.626l-1.089,2.418a1.236,1.236,0,0,0,2.254,1.011l1.089-2.418a1.235,1.235,0,0,0-.618-1.634l-.015-.007" transform="translate(-194.338 -314.298)" fill="#eb977a"/>
            <path id="Trazado_884511" data-name="Trazado 884511" d="M243.2,391.751l-1.011,2.234a1.277,1.277,0,0,0,.526,1.678,1.165,1.165,0,0,1-.494-.094,1.274,1.274,0,0,1-.589-1.7l.005-.01,1.011-2.234a1.314,1.314,0,0,1,1.682-.726c.021.01.039.024.06.034a1.368,1.368,0,0,0-1.189.82" transform="translate(-194.267 -314.375)" fill="#c47965"/>
            <path id="Trazado_884512" data-name="Trazado 884512" d="M237.255,390.871a1.2,1.2,0,1,1-.967-1.4h0a1.2,1.2,0,0,1,.966,1.4" transform="translate(-188.93 -313.28)" fill="#c47965"/>
            <path id="Trazado_884513" data-name="Trazado 884513" d="M238.491,389.939a1.2,1.2,0,0,1-.95,2.141,1.226,1.226,0,0,1-.249-.074,1.2,1.2,0,1,0,1.2-2.066" transform="translate(-190.882 -313.674)" fill="#c47965"/>
            <path id="Trazado_884514" data-name="Trazado 884514" d="M169.573,362.871s.761.426,1.466,2.649,1.789,4.91,1.789,4.91l3.134-.6.694,3.6-6,1.757L168,370.414Z" transform="translate(-135.139 -291.9)" fill="#5c5c5c"/>
            <path id="Trazado_884515" data-name="Trazado 884515" d="M192.707,399.03l.512.594,2.618-1.194Z" transform="translate(-155.018 -320.506)" fill="#424242"/>
            <path id="Trazado_884516" data-name="Trazado 884516" d="M204.963,395.96l-1.774.393.833,4.178,1.966-.434Z" transform="translate(-163.449 -318.518)" fill="#fefefe"/>
            <path id="Trazado_884517" data-name="Trazado 884517" d="M107.436,372.34h13.445V356.624l-6.722-1.516-6.722,1.516Z" transform="translate(-86.424 -285.656)" fill="#5c5c5c"/>
            <path id="Trazado_884518" data-name="Trazado 884518" d="M120.881,358.633l-3.143-1.029-3.518,8.92-3.59-8.919-3.194,1.029V374.35h13.445Z" transform="translate(-86.424 -287.664)" fill="#05703a"/>
            <rect id="Rectángulo_404669" data-name="Rectángulo 404669" width="0.361" height="7.825" transform="translate(27.435 78.86)" fill="#ffad09"/>
            <rect id="Rectángulo_404670" data-name="Rectángulo 404670" width="12.631" height="1.148" transform="translate(21.48 86.685)" fill="#ffad09"/>
            <path id="Trazado_884519" data-name="Trazado 884519" d="M144.92,355.092h-3.134l1.023,1.7h2.161Z" transform="translate(-114.056 -285.643)" fill="#fefefe"/>
            <path id="Trazado_884520" data-name="Trazado 884520" d="M125.559,355.092h3.134l-1.023,1.7H125.5Z" transform="translate(-100.955 -285.643)" fill="#fefefe"/>
            <path id="Trazado_884521" data-name="Trazado 884521" d="M51.27,423.1l4.043-4.549-6.026-1.73c-1.87.59.112,6.874,1.982,6.279" transform="translate(-39.043 -335.303)" fill="#05703a"/>
            <path id="Trazado_884522" data-name="Trazado 884522" d="M52.417,367.048l1.982,6.279,38.522-12.1-1.982-6.279Z" transform="translate(-42.165 -285.527)" fill="#e16136"/>
            <path id="Trazado_884523" data-name="Trazado 884523" d="M52.417,367.048l1.252,3.964,38.522-12.1-1.252-3.964Z" transform="translate(-42.165 -285.527)" fill="#d93a04"/>
            <path id="Trazado_884524" data-name="Trazado 884524" d="M52.417,367.048l.571,1.81,38.523-12.1-.571-1.81Z" transform="translate(-42.165 -285.527)" fill="#e16136"/>
            <path id="Trazado_884525" data-name="Trazado 884525" d="M248.269,361.247l4.043-4.549-6.026-1.724c-1.871.59.112,6.874,1.982,6.279" transform="translate(-197.512 -285.548)" fill="#c7c7c7"/>
            <path id="Trazado_884526" data-name="Trazado 884526" d="M270.161,362.956a2.074,2.074,0,0,1-.63-2.147l2.022.578Z" transform="translate(-216.749 -290.242)" fill="#05703a"/>
            <path id="Trazado_884527" data-name="Trazado 884527" d="M75.315,411.042l3.792,4.816-1.6,2.613-3.948-4.53Z" transform="translate(-59.17 -330.65)" fill="#eb977a"/>
            <path id="Trazado_884528" data-name="Trazado 884528" d="M80.615,418.129l-1.829,2.684,1.152,1.322,1.15-3.407Z" transform="translate(-63.377 -336.351)" fill="#c47965"/>
            <path id="Trazado_884529" data-name="Trazado 884529" d="M63.9,362.84s-2.712,1.254-10.586,7.657l4.273,5.536,1.957-3.227-.737-1.09,5.093-3.065Z" transform="translate(-42.884 -291.875)" fill="#5c5c5c"/>
            <path id="Trazado_884530" data-name="Trazado 884530" d="M79.144,408.257l-.548.517,1.285.573Z" transform="translate(-63.224 -328.409)" fill="#424242"/>
            <path id="Trazado_884531" data-name="Trazado 884531" d="M74.4,412.377c-.23-.264-1.195-1.335-1.195-1.335L70.3,414.634l1.622,1.382Z" transform="translate(-56.551 -330.65)" fill="#fefefe"/>
            <path id="Trazado_884532" data-name="Trazado 884532" d="M92.458,435.4a2.26,2.26,0,1,0,2.26-2.26,2.26,2.26,0,0,0-2.26,2.26" transform="translate(-74.375 -348.429)" fill="#eb977a"/>
            <path id="Trazado_884533" data-name="Trazado 884533" d="M94.241,433.417a2.259,2.259,0,0,0,1.508,4.22,2.259,2.259,0,1,1-1.508-4.22" transform="translate(-74.38 -348.649)" fill="#c47965"/>
            <path id="Trazado_884534" data-name="Trazado 884534" d="M104.064,429.431l.19-1.516a.557.557,0,0,0-1.106-.138l-.19,1.516a.557.557,0,0,0,1.106.138" transform="translate(-82.818 -343.719)" fill="#eb977a"/>
            <path id="Trazado_884535" data-name="Trazado 884535" d="M109.081,434.293l1.972-.534a.52.52,0,0,0-.242-1.011l-.029.008-1.972.533a.52.52,0,0,0,.271,1" transform="translate(-87.232 -348.1)" fill="#eb977a"/>
            <path id="Trazado_884536" data-name="Trazado 884536" d="M109.532,441.683l2.043-.006a.52.52,0,0,0,0-1.039l-2.043.006a.52.52,0,1,0,0,1.039" transform="translate(-87.691 -354.458)" fill="#eb977a"/>
            <path id="Trazado_884537" data-name="Trazado 884537" d="M108.891,445.718l1.9.751a.52.52,0,1,0,.382-.966l-1.9-.751a.52.52,0,1,0-.382.966" transform="translate(-87.33 -357.737)" fill="#eb977a"/>
            <path id="Trazado_884538" data-name="Trazado 884538" d="M106.627,449.219l1.177,1.3a.446.446,0,1,0,.682-.574l-.022-.024-1.177-1.3a.446.446,0,0,0-.661.6" transform="translate(-85.679 -360.761)" fill="#eb977a"/>
            <path id="Trazado_884539" data-name="Trazado 884539" d="M168.3,305.622a1.776,1.776,0,1,0,1.776-1.776,1.776,1.776,0,0,0-1.776,1.776" transform="translate(-135.385 -244.42)" fill="#c47965"/>
            <path id="Trazado_884540" data-name="Trazado 884540" d="M96.148,306.889a1.776,1.776,0,1,0,1.776-1.776,1.776,1.776,0,0,0-1.776,1.776" transform="translate(-77.343 -245.439)" fill="#c47965"/>
            <path id="Trazado_884541" data-name="Trazado 884541" d="M111.581,284.04h1.408a6.368,6.368,0,0,0,6.351-6.352v-2.909a6.368,6.368,0,0,0-6.351-6.352h-1.408a6.368,6.368,0,0,0-6.352,6.352v2.909a6.368,6.368,0,0,0,6.352,6.352" transform="translate(-84.648 -215.927)" fill="#eb977a"/>
            <path id="Trazado_884542" data-name="Trazado 884542" d="M100.605,274.906a1.789,1.789,0,0,1,2.8-.682c1.866,1.292-1.167,7.872-2.417,7.2a18.154,18.154,0,0,1-.382-6.513" transform="translate(-80.82 -220.255)" fill="#121212"/>
            <path id="Trazado_884543" data-name="Trazado 884543" d="M104.173,276.163l-.261-2.064a1.678,1.678,0,0,1,2.264.011c1.2.835.384,3.841-.7,5.705a7.8,7.8,0,0,1-1.306-3.652" transform="translate(-83.589 -220.141)" fill="#080808"/>
            <path id="Trazado_884544" data-name="Trazado 884544" d="M167.665,274.909a1.79,1.79,0,0,0-2.8-.682c-1.866,1.292,1.086,7.695,2.417,7.2.5-.186.721-3.775.382-6.513" transform="translate(-132.138 -220.258)" fill="#121212"/>
            <path id="Trazado_884545" data-name="Trazado 884545" d="M164.891,274.155a1.733,1.733,0,0,1,1.933-.248c.01,1.543.032,3.1.032,3.1a2.92,2.92,0,0,1-1.976,1.358c-.649-1.688-.9-3.578.012-4.212" transform="translate(-132.163 -220.186)" fill="#080808"/>
            <path id="Trazado_884546" data-name="Trazado 884546" d="M115.711,256.153a6.438,6.438,0,0,1-1.913,1.185l.366-1.4a14.248,14.248,0,0,1-4.385,1.777l.918-1.516a12.277,12.277,0,0,1-4.795,1.516c-1.9-1.568-2.56-3.244-2.061-5.021,0,0,.393-2.738,1.921-2.461s1.032-1.974,2.481-2.132,1.632,1.264,2.455.79,1.433-1.762,2.617-.8.85,1.591,1.933,1.552,1.8-.315,2.123.789,1.292.948,1.718,1.658a4.189,4.189,0,0,1,.048,2.325c-.37,2.636-2.8,2.477-3.427,1.741" transform="translate(-83.403 -199.287)" fill="#121212"/>
            <path id="Trazado_884547" data-name="Trazado 884547" d="M138.05,322.638c0,.227.4.412.91.412s.91-.185.91-.412-.4-.413-.91-.413-.91.185-.91.413" transform="translate(-111.05 -259.204)" fill="#c47965"/>
            <rect id="Rectángulo_404671" data-name="Rectángulo 404671" width="4.289" height="3.007" transform="translate(113.21 73.966)" fill="#c47965"/>
            <path id="Trazado_884548" data-name="Trazado 884548" d="M571.326,473.092a1.678,1.678,0,0,1-1.666,1.69h-8.6a1.679,1.679,0,0,1-1.668-1.69v-3.169a1.679,1.679,0,0,1,1.668-1.69h8.6a1.678,1.678,0,0,1,1.667,1.689h0Z" transform="translate(-449.982 -376.656)" fill="#171717"/>
            <path id="Trazado_884549" data-name="Trazado 884549" d="M564.322,552.81V540.224a2.544,2.544,0,0,0-5.038,0V552.81Z" transform="translate(-449.899 -432.807)" fill="#171717"/>
            <rect id="Rectángulo_404672" data-name="Rectángulo 404672" width="5.038" height="1.652" transform="translate(109.385 118.349)"/>
            <path id="Trazado_884550" data-name="Trazado 884550" d="M559.346,613.558v2.533a.475.475,0,0,0,.505.437H563.6a.474.474,0,0,0,.505-.437v-2.533Z" transform="translate(-449.949 -493.558)" fill="#ffae0b"/>
            <path id="Trazado_884551" data-name="Trazado 884551" d="M548.956,608.095a3.747,3.747,0,0,0-3.648,3.841h7.3a3.747,3.747,0,0,0-3.648-3.841" transform="translate(-438.655 -489.163)" fill="#05703a"/>
            <path id="Trazado_884552" data-name="Trazado 884552" d="M551.225,627.73a.388.388,0,0,1-.389.387h-7.414a.387.387,0,0,1-.388-.386h0v-.764a.387.387,0,0,1,.386-.388h7.417a.388.388,0,0,1,.389.387h0Z" transform="translate(-436.827 -504.031)" fill="#ffad09"/>
            <path id="Trazado_884553" data-name="Trazado 884553" d="M599.818,552.813V540.228a2.543,2.543,0,0,0-5.036,0v12.585Z" transform="translate(-478.454 -432.811)" fill="#171717"/>
            <rect id="Rectángulo_404673" data-name="Rectángulo 404673" width="5.036" height="1.652" transform="translate(116.328 118.349)"/>
            <path id="Trazado_884554" data-name="Trazado 884554" d="M600.991,613.558v2.533a.475.475,0,0,1-.505.437h-3.74a.475.475,0,0,1-.505-.437v-2.533Z" transform="translate(-479.627 -493.558)" fill="#ffae0b"/>
            <path id="Trazado_884555" data-name="Trazado 884555" d="M600.889,608.095a3.747,3.747,0,0,1,3.647,3.841h-7.3a3.747,3.747,0,0,1,3.647-3.841" transform="translate(-480.428 -489.163)" fill="#05703a"/>
            <path id="Trazado_884556" data-name="Trazado 884556" d="M595.732,626.577h6.652a.77.77,0,0,1,0,1.54h-6.649a.77.77,0,0,1,0-1.54h0" transform="translate(-478.6 -504.031)" fill="#ffad09"/>
            <rect id="Rectángulo_404674" data-name="Rectángulo 404674" width="5.017" height="12.51" transform="translate(109.407 95.921)" fill="#171717"/>
            <rect id="Rectángulo_404675" data-name="Rectángulo 404675" width="5.016" height="12.51" transform="translate(116.329 95.921)" fill="#171717"/>
            <path id="Trazado_884557" data-name="Trazado 884557" d="M509.464,393.545a2.036,2.036,0,0,0-2.159,1.9h0a11.768,11.768,0,0,1-9.771,11.322l.955,3.613c5.627-1.15,9.271-3.711,11.232-8.188a21.191,21.191,0,0,0,1.648-6.492,2.036,2.036,0,0,0-1.9-2.159" transform="translate(-400.226 -316.572)" fill="#6baa8a"/>
            <path id="Trazado_884558" data-name="Trazado 884558" d="M477.484,463.017a2.293,2.293,0,1,1-3.242,0h0a2.293,2.293,0,0,1,3.242,0" transform="translate(-380.949 -371.92)" fill="#eb977a"/>
            <path id="Trazado_884559" data-name="Trazado 884559" d="M478.975,462.694a2.291,2.291,0,0,1,1.941,4.11,2.292,2.292,0,1,0-1.941-4.11" transform="translate(-385.297 -371.908)" fill="#c47965"/>
            <path id="Trazado_884560" data-name="Trazado 884560" d="M465.455,469.127l-2.4.533a.627.627,0,0,1-.272-1.223l2.4-.533a.627.627,0,0,1,.271,1.223" transform="translate(-371.888 -376.382)" fill="#cfcfcf"/>
            <path id="Trazado_884561" data-name="Trazado 884561" d="M475.526,459.308l-1.051-1.516a.671.671,0,0,1,1.1-.765l1.051,1.516a.672.672,0,1,1-1.1.765" transform="translate(-381.584 -367.414)" fill="#cfcfcf"/>
            <path id="Trazado_884562" data-name="Trazado 884562" d="M468.721,474.951l-2.184,1.135a.627.627,0,0,1-.577-1.112l2.185-1.134a.626.626,0,1,1,.577,1.112" transform="translate(-374.569 -381.109)" fill="#eb977a"/>
            <path id="Trazado_884563" data-name="Trazado 884563" d="M473.977,478.911l-1.609,1.863a.627.627,0,0,1-.948-.819l1.608-1.863a.627.627,0,0,1,.948.819" transform="translate(-379.107 -384.424)" fill="#eb977a"/>
            <path id="Trazado_884564" data-name="Trazado 884564" d="M483.264,481.223l-.531,2.043a.537.537,0,0,1-1.039-.27l.53-2.043a.537.537,0,1,1,1.039.27" transform="translate(-387.47 -386.565)" fill="#eb977a"/>
            <path id="Trazado_884565" data-name="Trazado 884565" d="M492.754,459.818l-1.463.463,1.119,3.9,1.529-.417Z" transform="translate(-395.204 -369.887)" fill="#549d78"/>
            <path id="Trazado_884566" data-name="Trazado 884566" d="M569.012,409.333H555.568V393.618l6.846-.05,6.6.05Z" transform="translate(-446.909 -316.593)" fill="#6baa8a"/>
            <rect id="Rectángulo_404676" data-name="Rectángulo 404676" width="12.631" height="1.148" transform="translate(109.003 92.74)" fill="#549d78"/>
            <path id="Trazado_884567" data-name="Trazado 884567" d="M555.573,390.227a26.329,26.329,0,0,1,13.445,0l-7.513,2.8Z" transform="translate(-446.914 -313.204)" fill="#6baa8a"/>
            <rect id="Rectángulo_404677" data-name="Rectángulo 404677" width="4.26" height="6.777" transform="matrix(0.596, -0.803, 0.803, 0.596, 105.188, 86.897)" fill="#05703a"/>
            <rect id="Rectángulo_404678" data-name="Rectángulo 404678" width="4.261" height="2.278" transform="matrix(0.596, -0.803, 0.803, 0.596, 105.188, 86.897)" fill="#ffad09"/>
            <rect id="Rectángulo_404679" data-name="Rectángulo 404679" width="5.416" height="13.899" transform="translate(110.18 91.321) rotate(-53.417)" fill="#b5b5b5"/>
            <rect id="Rectángulo_404680" data-name="Rectángulo 404680" width="5.416" height="2.287" transform="translate(119.505 98.239) rotate(-53.417)" fill="#9e9e9e"/>
            <rect id="Rectángulo_404681" data-name="Rectángulo 404681" width="5.416" height="2.198" transform="translate(110.18 91.321) rotate(-53.426)" fill="#9e9e9e"/>
            <rect id="Rectángulo_404682" data-name="Rectángulo 404682" width="7.975" height="2.599" transform="matrix(0.596, -0.803, 0.803, 0.596, 107.909, 91.23)" fill="#05703a"/>
            <rect id="Rectángulo_404683" data-name="Rectángulo 404683" width="7.975" height="1.295" transform="matrix(0.596, -0.803, 0.803, 0.596, 108.957, 92.006)" fill="#ffad09"/>
            <rect id="Rectángulo_404684" data-name="Rectángulo 404684" width="7.975" height="2.599" transform="matrix(0.596, -0.803, 0.803, 0.596, 119.838, 100.079)" fill="#05703a"/>
            <rect id="Rectángulo_404685" data-name="Rectángulo 404685" width="7.975" height="1.385" transform="matrix(0.596, -0.803, 0.803, 0.596, 120.813, 100.803)" fill="#ffad09"/>
            <path id="Trazado_884568" data-name="Trazado 884568" d="M383.392,296.683a18.354,18.354,0,1,0,25.677-3.8h0a18.353,18.353,0,0,0-25.676,3.8h0M410.375,316.7a15.245,15.245,0,1,1-3.16-21.329,15.245,15.245,0,0,1,3.16,21.329l0,0" transform="translate(-305.499 -232.689)" fill="#05703a"/>
            <g id="Grupo_1104318" data-name="Grupo 1104318" transform="translate(78.396 60.692)" opacity="0.5">
              <g id="Grupo_1104317" data-name="Grupo 1104317">
                <g id="Grupo_1104316" data-name="Grupo 1104316" clip-path="url(#clip-path-3)">
                  <g id="Grupo_1104315" data-name="Grupo 1104315" transform="translate(0.001 0.001)">
                    <g id="Grupo_1104314" data-name="Grupo 1104314" clip-path="url(#clip-path-4)">
                      <path id="Trazado_884569" data-name="Trazado 884569" d="M423.555,313.122a14.235,14.235,0,1,1-19.914,2.95,14.235,14.235,0,0,1,19.914-2.95" transform="translate(-400.838 -310.319)" fill="#e0ede7"/>
                    </g>
                  </g>
                </g>
              </g>
            </g>
            <path id="Trazado_884570" data-name="Trazado 884570" d="M398.655,311.318a15.245,15.245,0,1,0,21.329-3.159,15.245,15.245,0,0,0-21.329,3.159l0,0m23.676,17.566a14.235,14.235,0,1,1-2.951-19.914,14.235,14.235,0,0,1,2.951,19.914h0" transform="translate(-318.271 -245.472)" fill="#ffad09"/>
            <path id="Trazado_884571" data-name="Trazado 884571" d="M612.354,394.038a2.037,2.037,0,0,0-.284,2.866,11.768,11.768,0,0,1,.551,14.943l3.16,2c3.336-4.674,4.263-9.03,2.651-13.647a21.176,21.176,0,0,0-3.213-5.876,2.037,2.037,0,0,0-2.866-.285" transform="translate(-491.99 -316.597)" fill="#6baa8a"/>
            <path id="Trazado_884572" data-name="Trazado 884572" d="M607.241,493.035a2.292,2.292,0,1,1-2.377,2.2,2.292,2.292,0,0,1,2.377-2.2" transform="translate(-486.563 -396.606)" fill="#eb977a"/>
            <path id="Trazado_884573" data-name="Trazado 884573" d="M605.238,494.774a2.291,2.291,0,0,1,4.219,1.689,2.291,2.291,0,1,0-4.219-1.689" transform="translate(-486.865 -396.627)" fill="#c47965"/>
            <path id="Trazado_884574" data-name="Trazado 884574" d="M601.258,505.336l-1.4,2.022a.626.626,0,0,1-1.031-.708l1.4-2.028a.627.627,0,1,1,1.08.637.618.618,0,0,1-.048.071" transform="translate(-481.632 -405.68)" fill="#eb977a"/>
            <path id="Trazado_884575" data-name="Trazado 884575" d="M600.5,497.962l-1.8-.393a.673.673,0,0,1,.287-1.314l1.8.393a.673.673,0,1,1-.287,1.314" transform="translate(-481.18 -399.184)" fill="#eb977a"/>
            <path id="Trazado_884576" data-name="Trazado 884576" d="M609.25,508.172l-.827,2.318a.626.626,0,0,1-1.18-.42l.827-2.318a.626.626,0,0,1,1.18.421" transform="translate(-488.449 -408.11)" fill="#eb977a"/>
            <path id="Trazado_884577" data-name="Trazado 884577" d="M617.428,508.932l.091,2.46a.627.627,0,0,1-1.252.046l-.091-2.459a.627.627,0,1,1,1.25-.1c0,.018,0,.036,0,.054" transform="translate(-495.663 -408.888)" fill="#eb977a"/>
            <path id="Trazado_884578" data-name="Trazado 884578" d="M622.553,507.9l1,1.857a.537.537,0,0,1-.944.505l-1-1.857a.537.537,0,0,1,.945-.505" transform="translate(-499.993 -408.356)" fill="#eb977a"/>
            <path id="Trazado_884579" data-name="Trazado 884579" d="M613.654,485.144l-.756,1.335,3.477,2.1.837-1.347Z" transform="translate(-493.027 -390.259)" fill="#549d78"/>
            <path id="Trazado_884580" data-name="Trazado 884580" d="M548.024,339.991a1.789,1.789,0,1,1-1.789-1.789,1.789,1.789,0,0,1,1.789,1.789" transform="translate(-437.962 -272.056)" fill="#c47965"/>
            <path id="Trazado_884581" data-name="Trazado 884581" d="M620.714,341.268a1.789,1.789,0,1,1-1.789-1.789,1.789,1.789,0,0,1,1.789,1.789" transform="translate(-496.436 -273.083)" fill="#c47965"/>
            <path id="Trazado_884582" data-name="Trazado 884582" d="M561.428,318.247h-1.415a6.418,6.418,0,0,1-6.4-6.4v-2.932a6.418,6.418,0,0,1,6.4-6.4h1.415a6.418,6.418,0,0,1,6.4,6.4v2.932a6.418,6.418,0,0,1-6.4,6.4" transform="translate(-445.338 -243.351)" fill="#eb977a"/>
            <path id="Trazado_884583" data-name="Trazado 884583" d="M587.127,357.272c0,.227-.4.412-.91.412s-.91-.185-.91-.412.4-.412.91-.412.91.185.91.412" transform="translate(-470.833 -287.065)" fill="#c47965"/>
            <path id="Trazado_884584" data-name="Trazado 884584" d="M616.311,309.048a1.8,1.8,0,0,0-2.819-.686c-1.879,1.3,1.133,7.845,2.435,7.248s1.128-4.13.384-6.562" transform="translate(-493.021 -247.714)" fill="#121212"/>
            <path id="Trazado_884585" data-name="Trazado 884585" d="M546.933,309.048a1.8,1.8,0,0,1,2.82-.686c1.88,1.3-1.133,7.845-2.434,7.248s-1.128-4.13-.385-6.562" transform="translate(-439.501 -247.713)" fill="#121212"/>
            <path id="Trazado_884586" data-name="Trazado 884586" d="M556.871,308.672a2.721,2.721,0,0,0-.661-.345l-1,3.286a2.5,2.5,0,0,0,1.516,1.7c.769-1.792,1.148-3.955.152-4.65" transform="translate(-446.618 -248.024)" fill="#080808"/>
            <path id="Trazado_884587" data-name="Trazado 884587" d="M614.5,310.41v-2.231l-.139-.167a2.431,2.431,0,0,0-.89.4c-.942.652-.655,2.618.027,4.347a3.712,3.712,0,0,0,1-2.353" transform="translate(-493.007 -247.771)" fill="#080808"/>
            <path id="Trazado_884588" data-name="Trazado 884588" d="M554.924,296.561s.788.174,1.705-1.225c0,0,4.122,2.169,8.12.651,0,0,2.743-1.443,1.588-3.861-1.9-3.971-8.941-5.224-12.914,0,0,0-2.485,3.865,1.5,4.439" transform="translate(-444.569 -232.205)" fill="#121212"/>
            <path id="Trazado_884589" data-name="Trazado 884589" d="M552.808,300.837s-.838-1.605.213-1.845a1.011,1.011,0,1,1-.213,1.845" transform="translate(-444.435 -240.48)" fill="#121212"/>
            <path id="Trazado_884590" data-name="Trazado 884590" d="M75.323,124.6a8.39,8.39,0,0,0,5.5,14.658l1.66,1.849a1.378,1.378,0,0,0,1.944.108l6.4-5.722a1.378,1.378,0,0,0,.109-1.944l-1.659-1.853a8.39,8.39,0,0,0-13.95-7.1" transform="translate(-58.328 -98.504)" fill="#9e9e9e"/>
            <path id="Trazado_884591" data-name="Trazado 884591" d="M104.744,155.538a4.394,4.394,0,0,0,2.876,7.67l2.06,2.3a.722.722,0,0,0,1.017.057l3.351-3a.721.721,0,0,0,.057-1.017l-2.06-2.3a4.394,4.394,0,0,0-7.3-3.714" transform="translate(-83.08 -124.218)" fill="#858585"/>
            <path id="Trazado_884592" data-name="Trazado 884592" d="M79.321,146.785c1.155.1,1.962,1.719,1.8,3.61s-1.226,3.355-2.381,3.258-1.961-1.718-1.8-3.611,1.226-3.355,2.381-3.257" transform="translate(-61.877 -118.073)" fill="#b5b5b5"/>
            <path id="Trazado_884593" data-name="Trazado 884593" d="M97.171,174.011c.654.055,1.112.969,1.02,2.043s-.695,1.9-1.348,1.844-1.112-.97-1.019-2.044.694-1.9,1.347-1.843" transform="translate(-77.074 -139.976)" fill="#b5b5b5"/>
            <path id="Trazado_884594" data-name="Trazado 884594" d="M137.233,197.07l2.36,2.64a.472.472,0,0,0,.667.038h0l4.58-4.094a.473.473,0,0,0,.037-.667l-2.36-2.642Z" transform="translate(-110.393 -154.725)" fill="#05703a"/>
            <path id="Trazado_884595" data-name="Trazado 884595" d="M153.9,205.708a2.218,2.218,0,1,1-3.134-.175,2.218,2.218,0,0,1,3.134.175" transform="translate(-120.686 -164.882)" fill="#05703a"/>
            <path id="Trazado_884596" data-name="Trazado 884596" d="M164.456,214.036c.292.153.3.708.025,1.242s-.742.84-1.035.687-.3-.708-.023-1.241.741-.841,1.033-.688" transform="translate(-131.297 -172.143)" fill="#006d36"/>
            <path id="Trazado_884597" data-name="Trazado 884597" d="M141.5,190.806a.308.308,0,0,1-.025.435h0l-5.459,4.878a.308.308,0,1,1-.411-.46l5.459-4.879a.309.309,0,0,1,.436.024" transform="translate(-109.001 -153.406)" fill="#006d36"/>
            <path id="Trazado_884598" data-name="Trazado 884598" d="M145.339,195.076a.31.31,0,0,1-.024.436l-5.459,4.878a.309.309,0,0,1-.412-.461l5.459-4.878a.31.31,0,0,1,.437.025" transform="translate(-112.091 -156.84)" fill="#006d36"/>
            <path id="Trazado_884599" data-name="Trazado 884599" d="M149.145,199.358a.308.308,0,0,1-.023.435h0l-5.459,4.878a.309.309,0,0,1-.411-.46l5.459-4.879a.308.308,0,0,1,.435.024h0" transform="translate(-115.15 -160.285)" fill="#006d36"/>
          </g>
        </g>
      </g>
    </g>
  </g>
</svg>
