<svg xmlns="http://www.w3.org/2000/svg" xmlns:xlink="http://www.w3.org/1999/xlink" width="295" height="247" viewBox="0 0 295 247">
  <defs>
    <clipPath id="clip-path">
      <rect id="Rectángulo_404496" data-name="Rectángulo 404496" width="295" height="195.543" fill="none"/>
    </clipPath>
    <clipPath id="clip-path-3">
      <rect id="Rectángulo_404463" data-name="Rectángulo 404463" width="72.874" height="25.359" fill="none"/>
    </clipPath>
    <clipPath id="clip-path-4">
      <rect id="Rectángulo_404464" data-name="Rectángulo 404464" width="32.374" height="11.266" fill="none"/>
    </clipPath>
    <clipPath id="clip-path-5">
      <rect id="Rectángulo_404465" data-name="Rectángulo 404465" width="32.815" height="13.317" fill="none"/>
    </clipPath>
    <clipPath id="clip-path-6">
      <rect id="Rectángulo_404466" data-name="Rectángulo 404466" width="44.746" height="18.16" fill="none"/>
    </clipPath>
    <clipPath id="clip-path-7">
      <rect id="Rectángulo_404467" data-name="Rectángulo 404467" width="26.718" height="10.844" fill="none"/>
    </clipPath>
    <clipPath id="clip-path-8">
      <rect id="Rectángulo_404468" data-name="Rectángulo 404468" width="10.148" height="16.803" fill="none"/>
    </clipPath>
    <clipPath id="clip-path-9">
      <rect id="Rectángulo_404469" data-name="Rectángulo 404469" width="7.862" height="7.572" fill="none"/>
    </clipPath>
    <clipPath id="clip-path-10">
      <rect id="Rectángulo_404482" data-name="Rectángulo 404482" width="121.804" height="79.172" fill="none"/>
    </clipPath>
  </defs>
  <g id="Grupo_1104327" data-name="Grupo 1104327" transform="translate(-705 -9517.588)">
    <g id="Grupo_1104326" data-name="Grupo 1104326">
      <g id="Grupo_1100184" data-name="Grupo 1100184" transform="translate(104.744 9223.245)">
        <rect id="Rectángulo_35929" data-name="Rectángulo 35929" width="295" height="137.343" transform="translate(600.256 404)" fill="#eefbe6"/>
      </g>
      <g id="Grupo_1104068" data-name="Grupo 1104068" transform="translate(705 9517.588)">
        <g id="Grupo_1104067" data-name="Grupo 1104067" clip-path="url(#clip-path)">
          <g id="Grupo_1104066" data-name="Grupo 1104066" transform="translate(0 0)">
            <g id="Grupo_1104065" data-name="Grupo 1104065" clip-path="url(#clip-path)">
              <path id="Trazado_883541" data-name="Trazado 883541" d="M295,36.667V158.424c0,19.523-17.416,32.693-38.459,35.35a238.805,238.805,0,0,1-29.082,1.764c-17.208.1-38.124-1.055-68.3-2.937l-4.173-.262c-14.415-.906-36.066-.617-57.779-.068-22.009.558-44.083,1.383-58.749,1.5A39.248,39.248,0,0,1,8.58,180.737,33.676,33.676,0,0,1,0,158.424V36.667C0,17.144,17.256.168,38.459,1.315,58.15,2.382,87.113,6.6,117.306,4.019c35.909-3.074,104.066-5.688,139.235-2.7C277.692,3.111,295,17.144,295,36.667" transform="translate(0 -0.001)" fill="#deebe9"/>
              <path id="Trazado_883542" data-name="Trazado 883542" d="M113.679,488.293l2.7-46.533a.856.856,0,0,1,.454-.709l.005,0a.482.482,0,0,1,.707.446l-1.918,46.822Z" transform="translate(-100.092 -388.286)" fill="#74a1bd"/>
              <path id="Trazado_883543" data-name="Trazado 883543" d="M50.243,449.247l10.908-5.731s-3.346-.934-4.715-.621-7.04,5.549-6.193,6.353" transform="translate(-44.163 -389.904)" fill="#74a1bd"/>
              <path id="Trazado_883544" data-name="Trazado 883544" d="M96.149,355.933l5.521,11.016s1-3.328.712-4.7-5.412-7.145-6.232-6.313" transform="translate(-84.657 -313.321)" fill="#74a1bd"/>
              <path id="Trazado_883545" data-name="Trazado 883545" d="M153.638,451.924l-11.5-4.431s1.5,3.133,2.638,3.957,8.812,1.642,8.859.475" transform="translate(-125.153 -394.01)" fill="#74a1bd"/>
              <path id="Trazado_883546" data-name="Trazado 883546" d="M200.787,610.317l1.758-30.247a.556.556,0,0,1,.3-.461l0,0a.313.313,0,0,1,.46.29l-1.247,30.435Z" transform="translate(-176.789 -510.301)" fill="#74a1bd"/>
              <path id="Trazado_883547" data-name="Trazado 883547" d="M159.553,584.935l7.09-3.726a9.667,9.667,0,0,0-3.065-.4c-.89.2-4.576,3.607-4.025,4.129" transform="translate(-140.434 -511.353)" fill="#74a1bd"/>
              <path id="Trazado_883548" data-name="Trazado 883548" d="M189.392,524.278l3.588,7.161a9.667,9.667,0,0,0,.463-3.057c-.186-.893-3.518-4.644-4.051-4.1" transform="translate(-166.756 -461.571)" fill="#74a1bd"/>
              <path id="Trazado_883549" data-name="Trazado 883549" d="M226.76,586.675l-7.473-2.881A9.669,9.669,0,0,0,221,586.366c.739.536,5.728,1.067,5.758.308" transform="translate(-193.078 -514.02)" fill="#74a1bd"/>
              <path id="Trazado_883550" data-name="Trazado 883550" d="M1947.087,610.169l2.271-39.081a.719.719,0,0,1,.381-.6l0,0a.4.4,0,0,1,.594.374l-1.611,39.324Z" transform="translate(-1714.375 -502.265)" fill="#74a1bd"/>
              <path id="Trazado_883551" data-name="Trazado 883551" d="M1893.81,577.375l9.161-4.813s-2.81-.784-3.96-.522-5.913,4.66-5.2,5.335" transform="translate(-1667.402 -503.624)" fill="#74a1bd"/>
              <path id="Trazado_883552" data-name="Trazado 883552" d="M1932.364,499l4.636,9.252s.838-2.795.6-3.949-4.546-6-5.234-5.3" transform="translate(-1701.412 -439.303)" fill="#74a1bd"/>
              <path id="Trazado_883553" data-name="Trazado 883553" d="M1980.647,579.623l-9.656-3.722s1.261,2.631,2.216,3.323,7.4,1.379,7.44.4" transform="translate(-1735.422 -507.071)" fill="#74a1bd"/>
              <path id="Trazado_883554" data-name="Trazado 883554" d="M2038.117,700.32l5.785-2.529h-15.11l-5.943,2.529,4.552,1.644,5.974-1.075Z" transform="translate(-1781.082 -614.392)" fill="#6f4975"/>
              <path id="Trazado_883555" data-name="Trazado 883555" d="M2003.673,718.951H1988.4l-4.675,8.129,15.486-.38Z" transform="translate(-1746.638 -633.023)" fill="#6f4975"/>
              <path id="Trazado_883556" data-name="Trazado 883556" d="M2042.908,705.138l5.358-4.173h-15.111l-5.943,2.529,4.552,1.644,5.975-1.075Z" transform="translate(-1784.925 -617.188)" fill="#e28569"/>
              <path id="Trazado_883557" data-name="Trazado 883557" d="M2020.44,723.39l-26.064-1.264-4.457,7.75h34.125Z" transform="translate(-1752.088 -635.819)" fill="#e28569"/>
              <rect id="Rectángulo_404451" data-name="Rectángulo 404451" width="34.125" height="20.638" transform="translate(237.831 94.057)" fill="#e28569"/>
              <path id="Trazado_883558" data-name="Trazado 883558" d="M2078.226,700.32l-5.785-2.529h15.111l5.943,2.529-4.552,1.644-5.975-1.075Z" transform="translate(-1824.748 -614.392)" fill="#6f4975"/>
              <rect id="Rectángulo_404452" data-name="Rectángulo 404452" width="14.352" height="21.875" transform="translate(257.604 92.819)" fill="#ce6e57"/>
              <path id="Trazado_883559" data-name="Trazado 883559" d="M2120.843,718.951h15.269l4.457,7.75H2125.3Z" transform="translate(-1867.364 -633.023)" fill="#6f4975"/>
              <path id="Trazado_883560" data-name="Trazado 883560" d="M2055.352,755.479h2.724a.262.262,0,0,0,.268-.246l.153-3.959a.261.261,0,0,0-.256-.265l-2.98-.123a.262.262,0,0,0-.28.261l.1,4.082a.262.262,0,0,0,.268.249" transform="translate(-1809.375 -661.142)" fill="#6f4975"/>
              <path id="Trazado_883561" data-name="Trazado 883561" d="M2056.84,757h2.442a.235.235,0,0,0,.24-.221l.137-3.548a.234.234,0,0,0-.23-.237l-2.671-.111a.235.235,0,0,0-.25.234l.092,3.658a.235.235,0,0,0,.24.224" transform="translate(-1810.719 -662.897)" fill="#b2c9c6"/>
              <path id="Trazado_883562" data-name="Trazado 883562" d="M2068.986,752.35l-.044,4.2.179.056-.016-4.258Z" transform="translate(-1821.666 -662.431)" fill="#6f4975"/>
              <path id="Trazado_883563" data-name="Trazado 883563" d="M2149.241,736.194l4.441-.321a.286.286,0,0,0,.227-.429l-2.2-3.788a.63.63,0,0,0-.546-.313l-4.814.011a.205.205,0,0,0-.176.311l2.528,4.245a.584.584,0,0,0,.544.284" transform="translate(-1889.638 -643.935)" fill="#b2c9c6"/>
              <rect id="Rectángulo_404453" data-name="Rectángulo 404453" width="0.094" height="5.54" transform="translate(257.705 87.441) rotate(-30.509)" fill="#74a1bd"/>
              <rect id="Rectángulo_404454" data-name="Rectángulo 404454" width="0.094" height="5.415" transform="matrix(0.865, -0.502, 0.502, 0.865, 259.097, 87.437)" fill="#74a1bd"/>
              <rect id="Rectángulo_404455" data-name="Rectángulo 404455" width="0.094" height="5.217" transform="matrix(0.881, -0.474, 0.474, 0.881, 260.607, 87.433)" fill="#74a1bd"/>
              <rect id="Rectángulo_404456" data-name="Rectángulo 404456" width="5.413" height="0.094" transform="translate(256.985 88.448) rotate(-2.196)" fill="#74a1bd"/>
              <rect id="Rectángulo_404457" data-name="Rectángulo 404457" width="5.227" height="0.094" transform="translate(257.78 89.789) rotate(-5.933)" fill="#74a1bd"/>
              <path id="Trazado_883564" data-name="Trazado 883564" d="M2162.953,757.363l-.01-.093,5.159-.577.01.093Z" transform="translate(-1904.433 -666.254)" fill="#74a1bd"/>
              <path id="Trazado_883565" data-name="Trazado 883565" d="M2204.205,735.789l4.452-.1a.286.286,0,0,0,.248-.417l-2.01-3.894a.629.629,0,0,0-.53-.34l-4.808-.231a.206.206,0,0,0-.192.3l2.312,4.367a.584.584,0,0,0,.529.311" transform="translate(-1938.241 -643.465)" fill="#b2c9c6"/>
              <path id="Trazado_883566" data-name="Trazado 883566" d="M2214.04,736l-2.569-4.908.083-.044,2.569,4.909Z" transform="translate(-1947.161 -643.673)" fill="#74a1bd"/>
              <rect id="Rectángulo_404458" data-name="Rectángulo 404458" width="0.094" height="5.415" transform="translate(265.701 87.483) rotate(-27.26)" fill="#74a1bd"/>
              <rect id="Rectángulo_404459" data-name="Rectángulo 404459" width="0.094" height="5.217" transform="translate(267.21 87.554) rotate(-25.38)" fill="#74a1bd"/>
              <rect id="Rectángulo_404460" data-name="Rectángulo 404460" width="0.094" height="5.413" transform="translate(263.54 88.48) rotate(-89.322)" fill="#74a1bd"/>
              <rect id="Rectángulo_404461" data-name="Rectángulo 404461" width="5.227" height="0.094" transform="translate(264.267 89.767) rotate(-3.088)" fill="#74a1bd"/>
              <rect id="Rectángulo_404462" data-name="Rectángulo 404462" width="5.192" height="0.094" transform="matrix(0.998, -0.063, 0.063, 0.998, 264.935, 91.031)" fill="#74a1bd"/>
              <path id="Trazado_883567" data-name="Trazado 883567" d="M1009.08,875.29v56.517c0,15.212-12.624,26.208-29.362,30.642a64.4,64.4,0,0,1-9.1,1.709,260.55,260.55,0,0,1-29.082,1.615c-17.208.091-38.224-1.224-68.4-2.946L811.01,895.576S940.4,871,1009.08,875.29" transform="translate(-714.08 -770.235)" fill="#cfd3a3"/>
              <path id="Trazado_883568" data-name="Trazado 883568" d="M227.459,920.056c-9.431.055-19.975-.267-32.548-.88-10.393-.506-22.171-1.211-35.852-2.065l-4.073-.254c-7.578-.476-17.155-.622-27.689-.573-9.371.043-19.5.24-29.653.5h0c-11.645.293-23.322.662-33.924.966-9.567.272-18.258.49-25.26.548q-1.361.012-2.7-.065C15.779,917.092,0,901.63,0,882.942v-59.55s1.335-.112,3.786-.232c2.236-.111,5.4-.228,9.325-.274,5.942-.069,13.631.025,22.494.556h.039c32.384,1.937,80.4,9.692,116.041,36.521,44.483,33.487,67.274,52.69,75.774,60.091" transform="translate(0 -724.519)" fill="#b2c9c6"/>
              <path id="Trazado_883569" data-name="Trazado 883569" d="M335.345,923.414c-10.393-.506-22.171-1.211-35.852-2.065-4.637-7.843-13.763-19.339-30.866-29.372-29.336-17.21-35.985-37.745-61.8-46.057A471.944,471.944,0,0,1,159.5,827.68h16.582c1.271.2,64.189,10.018,83.162,31.765,19.166,21.97,33.958,26.663,49.64,36.834,11.351,7.361,21.645,20.46,26.465,27.134" transform="translate(-140.434 -728.758)" fill="#bed5dc"/>
              <path id="Trazado_883570" data-name="Trazado 883570" d="M155.188,916.43c-9.371.043-19.5.24-29.653.5h0a41.694,41.694,0,0,0-16.1-14.291c-14.341-7.04-14.6-29.464-31.81-39.632-15.874-9.38-39.514-28.924-45.95-39.7,2.236-.111,5.4-.228,9.325-.274,7.13,5.7,27.1,20.819,47.576,28.757,25.553,9.908,26.856,32.592,45.108,40.936,11.754,5.374,18.318,16.479,21.5,23.7" transform="translate(-27.891 -724.666)" fill="#bed5dc"/>
              <path id="Trazado_883571" data-name="Trazado 883571" d="M63.72,1018.949c-9.567.272-18.258.49-25.26.547q-1.361.012-2.7-.065a39.542,39.542,0,0,0-6.8-7.641c-12.088-10.446-6.654-32.2-20.722-46.4-2.6-2.623-5.4-5.721-8.237-9.093V937.808a156.629,156.629,0,0,0,21.673,19.511c22.2,16.061,17.715,38.335,33.255,51.035a37.2,37.2,0,0,1,8.792,10.6" transform="translate(0 -825.723)" fill="#bed5dc"/>
              <g id="Grupo_1104043" data-name="Grupo 1104043" transform="translate(199.809 16.938)" opacity="0.4">
                <g id="Grupo_1104042" data-name="Grupo 1104042">
                  <g id="Grupo_1104041" data-name="Grupo 1104041" clip-path="url(#clip-path-3)">
                    <path id="Trazado_883572" data-name="Trazado 883572" d="M1723.031,148.834s-4.177-8.034-14.747-7.028-9.312,9.06-14.345,8.305-12.08,0-13.59,5.033-8.305,2.265-8.557,6.543,7.8,7.3,17.114,3.523,13.842,2.933,26.928,1.718,14.708-2.725,22.454-1.97,7.562-4.549,4.039-8.072-17.786-3.188-19.3-8.054" transform="translate(-1671.786 -141.719)" fill="#fff"/>
                  </g>
                </g>
              </g>
              <g id="Grupo_1104046" data-name="Grupo 1104046" transform="translate(242.548 49.105)" opacity="0.4">
                <g id="Grupo_1104045" data-name="Grupo 1104045">
                  <g id="Grupo_1104044" data-name="Grupo 1104044" clip-path="url(#clip-path-4)">
                    <path id="Trazado_883573" data-name="Trazado 883573" d="M2052.153,414.023a6.607,6.607,0,0,0-6.551-3.122c-4.7.447-4.137,4.025-6.373,3.689s-5.366,0-6.037,2.236-3.69,1.006-3.8,2.907,3.466,3.242,7.6,1.565,6.149,1.3,11.963.763,6.534-1.21,9.975-.875,3.359-2.021,1.794-3.586-7.9-1.416-8.572-3.578" transform="translate(-2029.388 -410.862)" fill="#fff"/>
                  </g>
                </g>
              </g>
              <g id="Grupo_1104049" data-name="Grupo 1104049" transform="translate(190.776 48.525)" opacity="0.4">
                <g id="Grupo_1104048" data-name="Grupo 1104048">
                  <g id="Grupo_1104047" data-name="Grupo 1104047" clip-path="url(#clip-path-5)">
                    <path id="Trazado_883574" data-name="Trazado 883574" d="M1625.57,411.688s-3.84-6.651-10.866-5.559-.156,4.092-9.367,5.559-11.241,4.589-7.026,7.087,11.085-4.527,18.578-1.093,17.516.5,8.68-5.994" transform="translate(-1596.212 -406.009)" fill="#fff"/>
                  </g>
                </g>
              </g>
              <g id="Grupo_1104052" data-name="Grupo 1104052" transform="translate(17.492 15.381)" opacity="0.4">
                <g id="Grupo_1104051" data-name="Grupo 1104051">
                  <g id="Grupo_1104050" data-name="Grupo 1104050" clip-path="url(#clip-path-6)">
                    <path id="Trazado_883575" data-name="Trazado 883575" d="M186.388,136.436s-5.236-9.07-14.817-7.58-.213,5.579-12.773,7.58-15.328,6.258-9.58,9.664,15.115-6.174,25.334-1.49,23.885.683,11.836-8.174" transform="translate(-146.355 -128.691)" fill="#fff"/>
                  </g>
                </g>
              </g>
              <g id="Grupo_1104055" data-name="Grupo 1104055" transform="translate(160.322 17.949)" opacity="0.4">
                <g id="Grupo_1104054" data-name="Grupo 1104054">
                  <g id="Grupo_1104053" data-name="Grupo 1104053" clip-path="url(#clip-path-7)">
                    <path id="Trazado_883576" data-name="Trazado 883576" d="M1365.31,154.8s-3.127-5.416-8.848-4.526-.127,3.331-7.627,4.526-9.153,3.737-5.721,5.771,9.026-3.687,15.128-.89,14.263.408,7.068-4.881" transform="translate(-1341.406 -150.18)" fill="#fff"/>
                  </g>
                </g>
              </g>
              <path id="Trazado_883577" data-name="Trazado 883577" d="M633.089,516.577a3.521,3.521,0,0,1-1.939-.593c-2.631-1.71-3.566-6.742-2.086-11.216.911-2.755,2.569-4.79,4.435-5.445a3.523,3.523,0,0,1,3.192.371c2.631,1.71,3.567,6.742,2.086,11.216-.911,2.755-2.569,4.79-4.435,5.445a3.776,3.776,0,0,1-1.253.221M629.6,504.946c-1.405,4.246-.572,8.985,1.857,10.564a2.977,2.977,0,0,0,2.7.312c1.7-.6,3.229-2.5,4.086-5.088,1.405-4.246.572-8.985-1.857-10.564a2.978,2.978,0,0,0-2.7-.312c-1.7.6-3.229,2.5-4.086,5.088" transform="translate(-553.261 -439.451)" fill="#2f1a31"/>
              <g id="Grupo_1104058" data-name="Grupo 1104058" transform="translate(75.321 60.044)" opacity="0.1">
                <g id="Grupo_1104057" data-name="Grupo 1104057">
                  <g id="Grupo_1104056" data-name="Grupo 1104056" clip-path="url(#clip-path-8)">
                    <path id="Trazado_883578" data-name="Trazado 883578" d="M630.576,508.024c-1.048,4.379.209,9.169,2.807,10.7s5.554-.781,6.6-5.161-.209-9.169-2.807-10.7-5.554.781-6.6,5.16" transform="translate(-630.207 -502.391)" fill="#2f1a31"/>
                  </g>
                </g>
              </g>
              <path id="Trazado_883579" data-name="Trazado 883579" d="M861.934,1090.919s9.236-.643,10.367-6.212-1.682-8.454-1.831-8.331-13.249,3.357-13.249,3.357Z" transform="translate(-754.769 -947.727)" fill="#e8a679"/>
              <path id="Trazado_883580" data-name="Trazado 883580" d="M935.7,1058.761l-26.868-4.876a1.337,1.337,0,0,1-.768-2.2l8.461-9.677a2.725,2.725,0,0,1,2.224-.926l29.09,1.847a1.322,1.322,0,0,1,.933,2.165l-10.616,12.77a2.593,2.593,0,0,1-2.457.894" transform="translate(-799.243 -916.653)" fill="#2f1a31"/>
              <path id="Trazado_883581" data-name="Trazado 883581" d="M947.138,1062.6l-24.292-4.266a1.159,1.159,0,0,1-.694-1.921l7.65-8.466a2.5,2.5,0,0,1,2.011-.81l26.3,1.616a1.151,1.151,0,0,1,.843,1.893l-9.6,11.172a2.387,2.387,0,0,1-2.221.782" transform="translate(-811.674 -921.981)" fill="#96b4e0"/>
              <path id="Trazado_883582" data-name="Trazado 883582" d="M1078.8,1058.118a.318.318,0,0,0-.27-.26l-11.534-.812a.516.516,0,0,0-.494.341l-.265.592a.6.6,0,0,0,0,.473.4.4,0,0,0,.317.259l10.586,1.026a.753.753,0,0,0,.094,0,.782.782,0,0,0,.533-.248l.943-.967a.426.426,0,0,0,.091-.407m-.134.342-.943.967a.707.707,0,0,1-.58.227l-10.586-1.026a.333.333,0,0,1-.263-.215.5.5,0,0,1,0-.392l.265-.592a.463.463,0,0,1,.394-.3h.04l11.534.812a.249.249,0,0,1,.21.2.331.331,0,0,1-.072.316" transform="translate(-938.756 -930.71)" fill="#2f1a31"/>
              <path id="Trazado_883583" data-name="Trazado 883583" d="M1074.252,1059.312l-1.071,1.284-4.673-.422a.351.351,0,0,1-.262-.523l.257-.458a.47.47,0,0,1,.441-.243Z" transform="translate(-940.531 -932.387)" fill="#2f1a31"/>
              <path id="Trazado_883584" data-name="Trazado 883584" d="M1098.055,1082.491a.194.194,0,0,0-.165-.159l-7.09-.5a.316.316,0,0,0-.3.21l-.163.364a.369.369,0,0,0,0,.291.247.247,0,0,0,.2.159l6.507.631a.286.286,0,0,0,.059,0,.475.475,0,0,0,.327-.153l.579-.594a.258.258,0,0,0,.056-.249m-.082.21-.579.594a.44.44,0,0,1-.357.14l-6.508-.631a.2.2,0,0,1-.16-.133.3.3,0,0,1,0-.24l.163-.365a.283.283,0,0,1,.241-.184h.026l7.089.5a.154.154,0,0,1,.129.124.2.2,0,0,1-.044.194" transform="translate(-959.992 -952.533)" fill="#2f1a31"/>
              <path id="Trazado_883585" data-name="Trazado 883585" d="M1095.266,1083.229l-.658.79-2.872-.259a.216.216,0,0,1-.161-.321l.158-.281a.289.289,0,0,1,.271-.149Z" transform="translate(-961.087 -953.568)" fill="#2f1a31"/>
              <path id="Trazado_883586" data-name="Trazado 883586" d="M1043.134,1072.086l-.682.682a.2.2,0,0,0,.12.345l1.245.148a.2.2,0,0,0,.154-.046l.842-.709a.2.2,0,0,0-.113-.357l-1.4-.121a.2.2,0,0,0-.161.059" transform="translate(-917.807 -943.9)" fill="#e28569"/>
              <path id="Trazado_883587" data-name="Trazado 883587" d="M1031.469,1083.458l-.682.682a.2.2,0,0,0,.12.345l1.244.147a.2.2,0,0,0,.155-.046l.842-.709a.2.2,0,0,0-.113-.357l-1.4-.121a.2.2,0,0,0-.161.059" transform="translate(-907.536 -953.913)" fill="#e28569"/>
              <path id="Trazado_883588" data-name="Trazado 883588" d="M1020.251,1094.471l-.682.682a.2.2,0,0,0,.12.345l1.245.148a.2.2,0,0,0,.154-.046l.842-.709a.2.2,0,0,0-.113-.357l-1.4-.121a.2.2,0,0,0-.161.059" transform="translate(-897.659 -963.61)" fill="#e28569"/>
              <path id="Trazado_883589" data-name="Trazado 883589" d="M1008.966,1105.756l-.682.682a.2.2,0,0,0,.12.345l1.245.148a.2.2,0,0,0,.154-.046l.842-.709a.2.2,0,0,0-.113-.357l-1.4-.121a.2.2,0,0,0-.161.059" transform="translate(-887.723 -973.546)" fill="#e28569"/>
              <path id="Trazado_883590" data-name="Trazado 883590" d="M996.792,1117.932l-.682.682a.2.2,0,0,0,.12.345l1.245.148a.2.2,0,0,0,.155-.047l.842-.708a.2.2,0,0,0-.113-.357l-1.4-.121a.2.2,0,0,0-.161.059" transform="translate(-877.004 -984.267)" fill="#e28569"/>
              <path id="Trazado_883591" data-name="Trazado 883591" d="M984.9,1129.818l-.682.682a.2.2,0,0,0,.12.345l1.245.147a.2.2,0,0,0,.154-.046l.842-.709a.2.2,0,0,0-.113-.357l-1.4-.121a.2.2,0,0,0-.161.059" transform="translate(-866.537 -994.733)" fill="#e28569"/>
              <path id="Trazado_883592" data-name="Trazado 883592" d="M1036.653,1110.561l-.682.682a.2.2,0,0,0,.12.344l1.245.148a.2.2,0,0,0,.154-.046l.842-.708a.2.2,0,0,0-.113-.357l-1.4-.121a.2.2,0,0,0-.161.059" transform="translate(-912.101 -977.777)" fill="#436e8e"/>
              <path id="Trazado_883593" data-name="Trazado 883593" d="M1024.478,1122.735l-.682.682a.2.2,0,0,0,.12.345l1.245.148a.2.2,0,0,0,.154-.046l.842-.709a.2.2,0,0,0-.113-.357l-1.4-.121a.2.2,0,0,0-.161.059" transform="translate(-901.381 -988.496)" fill="#436e8e"/>
              <path id="Trazado_883594" data-name="Trazado 883594" d="M1012.591,1134.622l-.682.682a.2.2,0,0,0,.12.345l1.245.147a.2.2,0,0,0,.154-.046l.842-.709a.2.2,0,0,0-.113-.357l-1.4-.121a.2.2,0,0,0-.161.059" transform="translate(-890.916 -998.962)" fill="#436e8e"/>
              <path id="Trazado_883595" data-name="Trazado 883595" d="M1065.036,1114.527l-.682.682a.2.2,0,0,0,.12.345l1.244.147a.2.2,0,0,0,.155-.047l.842-.708a.2.2,0,0,0-.113-.357l-1.4-.121a.2.2,0,0,0-.161.059" transform="translate(-937.092 -981.269)" fill="#2f1a31"/>
              <path id="Trazado_883596" data-name="Trazado 883596" d="M1078.615,1100.948l-.682.682a.2.2,0,0,0,.119.345l1.245.147a.2.2,0,0,0,.154-.046l.842-.709a.2.2,0,0,0-.113-.357l-1.4-.121a.2.2,0,0,0-.161.058" transform="translate(-949.048 -969.313)" fill="#2f1a31"/>
              <path id="Trazado_883597" data-name="Trazado 883597" d="M1052.861,1126.7l-.682.682a.2.2,0,0,0,.12.345l1.245.147a.2.2,0,0,0,.155-.046l.842-.709a.2.2,0,0,0-.113-.357l-1.4-.121a.2.2,0,0,0-.161.059" transform="translate(-926.372 -991.988)" fill="#2f1a31"/>
              <path id="Trazado_883598" data-name="Trazado 883598" d="M1040.973,1138.59l-.682.682a.2.2,0,0,0,.12.345l1.245.147a.2.2,0,0,0,.154-.046l.842-.709a.2.2,0,0,0-.113-.357l-1.4-.121a.2.2,0,0,0-.161.059" transform="translate(-915.905 -1002.456)" fill="#2f1a31"/>
              <path id="Trazado_883599" data-name="Trazado 883599" d="M1074.72,1123.279l3.41-4.105,1.024-.005-3.7,4.32Z" transform="translate(-946.271 -985.408)" fill="#e28569"/>
              <path id="Trazado_883600" data-name="Trazado 883600" d="M1088.951,1118.779l4.346-5.012.576.27-3.991,4.97Z" transform="translate(-958.802 -980.652)" fill="#e28569"/>
              <path id="Trazado_883601" data-name="Trazado 883601" d="M1102.12,1134.832l2.815-3.24.65.49-2.447,2.988Z" transform="translate(-970.397 -996.346)" fill="#e28569"/>
              <path id="Trazado_883602" data-name="Trazado 883602" d="M439.334,543.162l2.18-9.439.634-2.748,3.73-16.157,1.8,15.666,1.08,9.4.342,2.976c.232,2.021,1.5,2.355,3.132,4.006.662.669,4.878,4.708.6,6.988-5.331,2.841-15.905-.087-20.178-4.628.03-.009,5.976-3.017,6.68-6.068" transform="translate(-380.944 -453.288)" fill="#f7b686"/>
              <path id="Trazado_883603" data-name="Trazado 883603" d="M449.785,437.5c-1.9-9.18-9.611-15.344-17.224-13.769s-12.244,10.294-10.345,19.474,9.611,15.344,17.224,13.768,12.244-10.294,10.345-19.474" transform="translate(-371.379 -372.872)" fill="#f7b686"/>
              <path id="Trazado_883604" data-name="Trazado 883604" d="M392.444,360.426c8.049-.29,11.6-5.208,11.377-9.5-.286-5.507-4.108-10.123-7.989-7.782s-2.52-2.8-6.436-3.045c-7.318-.461-8.3,4.792-14.208,5.479-7.8.907-15.753,14.594-8.5,23.622,0,0,19.4-8.542,25.753-8.771" transform="translate(-320.351 -299.423)" fill="#2f1a31"/>
              <path id="Trazado_883605" data-name="Trazado 883605" d="M415.168,447.039s-7.967,8.889-6.494,13.452,1.321,6.4-3.505,9.251-.107,6.546-6.76,7.328S383,470.566,382.044,457.6a19.513,19.513,0,0,1,3.272-12.266Z" transform="translate(-336.338 -392.108)" fill="#2f1a31"/>
              <path id="Trazado_883606" data-name="Trazado 883606" d="M604.589,558.931a2.754,2.754,0,1,0-.172,4.1,2.913,2.913,0,0,0,.172-4.1" transform="translate(-527.939 -491.073)" fill="#f7b686"/>
              <path id="Trazado_883607" data-name="Trazado 883607" d="M400.358,546.392a.2.2,0,0,1-.073-.013.207.207,0,0,1-.121-.267,5.2,5.2,0,0,1,2.677-2.688.207.207,0,0,1,.159.383,4.865,4.865,0,0,0-2.447,2.451.207.207,0,0,1-.194.135" transform="translate(-352.326 -478.461)" fill="#2f1a31"/>
              <path id="Trazado_883608" data-name="Trazado 883608" d="M405.387,518.019a.215.215,0,0,1-.042,0c-.025-.005-2.466-.529-2.553-2.563a.207.207,0,0,1,.415-.018c.073,1.715,2.2,2.17,2.222,2.174a.207.207,0,0,1-.041.411" transform="translate(-354.651 -453.656)" fill="#2f1a31"/>
              <path id="Trazado_883609" data-name="Trazado 883609" d="M842.238,1060.1s10.516-3.813,15.814-3.583,7.243,1.7,5.187,2.993-9.223,1.624-9.223,1.624l-6.659,2.677Z" transform="translate(-741.576 -930.233)" fill="#e8a679"/>
              <path id="Trazado_883610" data-name="Trazado 883610" d="M600.184,590.489a3.959,3.959,0,0,1-3.474-2.11.283.283,0,0,1,.486-.29,3.281,3.281,0,0,0,3.456,1.8.283.283,0,0,1,.13.55,2.925,2.925,0,0,1-.6.053" transform="translate(-525.357 -517.681)" fill="#e29c6d"/>
              <path id="Trazado_883611" data-name="Trazado 883611" d="M151.967,790.846c.1,9.131,4.237,30.376,5.864,49.633a131.4,131.4,0,0,1,.43,19.995s-.328.547-.965,1.5c-22.009.558-44.083,1.383-58.749,1.5a39.248,39.248,0,0,1-29.88-13.037c-1.975-31.235,1.171-87.684,49.349-89.77q1.367-.06,2.785-.06a72.1,72.1,0,0,1,8.151.446c27.32,3.11,33.742,21.49,34.18,22.845l.02.063a.086.086,0,0,1,.005.017s-1.975.564-4.264,1.489a20.371,20.371,0,0,0-5.685,3.176,3.121,3.121,0,0,0-1.241,2.2" transform="translate(-60.089 -669.701)" fill="#436e8e"/>
              <path id="Trazado_883612" data-name="Trazado 883612" d="M597.286,955.857c.3,1.461,7.64,1.173,16.387-.644s15.591-4.475,15.287-5.936-7.64-1.173-16.387.644-15.591,4.475-15.287,5.936" transform="translate(-525.891 -835.001)" fill="#2f1a31"/>
              <path id="Trazado_883613" data-name="Trazado 883613" d="M705.359,997.736c3.792-1.841-18.435-6.338-18.435-6.338-2.2,2.519-15.329,11.178-23.411,4.461-6.295-5.233-11.107-25.622-11.195-27.793-.006-.143-4.862-1.2-12.817.34a45.865,45.865,0,0,0-13.122,5.318c.159,3.932,2.684,25.848,8.167,35.86,11.343,20.712,46.133,24.81,70.812-11.848" transform="translate(-551.516 -851.938)" fill="#f7b686"/>
              <g id="Grupo_1104061" data-name="Grupo 1104061" transform="translate(103.231 152.907)" opacity="0.5">
                <g id="Grupo_1104060" data-name="Grupo 1104060">
                  <g id="Grupo_1104059" data-name="Grupo 1104059" clip-path="url(#clip-path-9)">
                    <path id="Trazado_883614" data-name="Trazado 883614" d="M868.948,1286.939a5.267,5.267,0,0,1-3.4-1.431,5.52,5.52,0,0,1-1.714-2.71,2.791,2.791,0,0,1,.508-2.611c1.162-1.3,3.594-1.024,5.422.612s2.368,4.023,1.206,5.321a2.644,2.644,0,0,1-2.026.82m-2.58-6.739a1.822,1.822,0,0,0-1.4.544,1.989,1.989,0,0,0-.32,1.853,4.685,4.685,0,0,0,1.461,2.289c1.459,1.306,3.4,1.616,4.242.676s.318-2.836-1.141-4.142a4.482,4.482,0,0,0-2.843-1.221" transform="translate(-863.724 -1279.367)" fill="#e08b65"/>
                  </g>
                </g>
              </g>
              <path id="Trazado_883615" data-name="Trazado 883615" d="M1137.747,1063.034l.568.283a2.164,2.164,0,0,0,2.894-.968l5.159-10.345c.53-1.062,1.781-4.67-.693-4.945-1.133-.126-2.457.944-3.737,2.736l-5.159,10.345a2.164,2.164,0,0,0,.968,2.894" transform="translate(-1000.715 -921.908)" fill="#f7b686"/>
              <path id="Trazado_883616" data-name="Trazado 883616" d="M1141.478,1109.048a42.521,42.521,0,0,0,9.833-10.932c2.021-3.441.316-15.945-4.479-16.457-3.334-.356-7.6,2.54-10.117,4.483a24.131,24.131,0,0,0-4.314,4.446c-4.2,6.41,9.078,18.46,9.078,18.46" transform="translate(-996.336 -952.355)" fill="#f7b686"/>
              <path id="Trazado_883617" data-name="Trazado 883617" d="M596.138,554.123l-.453-.338c2.243-3.006,14.279-1.156,14.79-1.075l-.088.559c-3.389-.532-12.556-1.414-14.249.855" transform="translate(-524.49 -486.091)" fill="#2f1a31"/>
              <path id="Trazado_883618" data-name="Trazado 883618" d="M332.677,329.222c-8.259,12.23-22.954,17.165-29.08,9.593-2.327-2.876-.945-16.694,8.9-27.689,3.691-4.123,6.732-9.778,10.993-11.687,7.1-3.182,13.018-2.577,15.753-.442,4.793,3.741,3.52,15.294-6.564,30.225" transform="translate(-266.448 -261.7)" fill="#e28569"/>
              <path id="Trazado_883619" data-name="Trazado 883619" d="M311.2,335.121s-10.856-3.918-16.39-2.172-11.082,7.771-9.153,12.508,3.832,12.24,7.663,12.979,12.518-5.153,15.732-9.551,4.49-9.294,2.149-13.764" transform="translate(-251.167 -292.761)" fill="#e28569"/>
              <path id="Trazado_883620" data-name="Trazado 883620" d="M295.852,364.077a3.849,3.849,0,0,1-.726-.064c-1.417-.273-2.695-1.454-3.9-3.612a46.151,46.151,0,0,1-2.751-6.513c-.383-1.049-.745-2.039-1.112-2.94a.141.141,0,0,1,.262-.107c.369.905.731,1.9,1.115,2.949a45.955,45.955,0,0,0,2.732,6.471c1.167,2.08,2.38,3.216,3.711,3.472,3.663.706,12.284-4.969,15.591-9.5a17.651,17.651,0,0,0,2.934-5.9,7.4,7.4,0,0,0-5.344-9.027c-.5-.127-1-.245-1.478-.353a.141.141,0,1,1,.062-.276c.484.108.984.228,1.486.355a7.685,7.685,0,0,1,5.548,9.372,17.922,17.922,0,0,1-2.98,6,29.873,29.873,0,0,1-7.672,6.738c-3,1.9-5.659,2.933-7.474,2.933" transform="translate(-253.005 -298.199)" fill="#2f1a31"/>
              <path id="Trazado_883621" data-name="Trazado 883621" d="M300.759,358.036a3.086,3.086,0,0,1-1.684-.429,2.291,2.291,0,0,1-1.037-1.738.141.141,0,0,1,.283-.011,2.041,2.041,0,0,0,.91,1.513c1.01.638,2.754.463,5.044-.507,5.844-2.475,5.363-7.579,5.358-7.63a.141.141,0,0,1,.281-.03,7.107,7.107,0,0,1-.476,3,8.694,8.694,0,0,1-5.052,4.923,9.694,9.694,0,0,1-3.625.911" transform="translate(-262.416 -307.357)" fill="#2f1a31"/>
              <path id="Trazado_883622" data-name="Trazado 883622" d="M2070.222,892.86s.781,3.929.531,4.019a2.063,2.063,0,0,1-.854,0c-.123-.026-.38-3.657-.38-3.657Z" transform="translate(-1822.174 -786.147)" fill="#2f1a31"/>
              <path id="Trazado_883623" data-name="Trazado 883623" d="M2069.184,923.048s-.187-.495-.539-.518a9.242,9.242,0,0,0-2.167.259c-.164.127-.21.315-.176.326s2.881-.067,2.881-.067" transform="translate(-1819.334 -812.269)" fill="#2f1a31"/>
              <path id="Trazado_883624" data-name="Trazado 883624" d="M2039.042,828.682l-7.758.139a.541.541,0,0,1-.469-.764l3.141-7.447a1.085,1.085,0,0,1,.891-.677l8.348-.78a.387.387,0,0,1,.361.552l-3.622,8.356a1,1,0,0,1-.892.621" transform="translate(-1788.056 -721.248)" fill="#96a7e2"/>
              <rect id="Rectángulo_404470" data-name="Rectángulo 404470" width="10.215" height="0.17" transform="translate(249.24 107.43) rotate(-66.823)" fill="#7188c6"/>
              <rect id="Rectángulo_404471" data-name="Rectángulo 404471" width="9.987" height="0.17" transform="translate(246.971 107.471) rotate(-67.177)" fill="#7188c6"/>
              <rect id="Rectángulo_404472" data-name="Rectángulo 404472" width="9.642" height="0.17" transform="matrix(0.359, -0.933, 0.933, 0.359, 244.766, 107.513)" fill="#7188c6"/>
              <rect id="Rectángulo_404473" data-name="Rectángulo 404473" width="9.43" height="0.169" transform="translate(245.426 100.389) rotate(-3.119)" fill="#7188c6"/>
              <rect id="Rectángulo_404474" data-name="Rectángulo 404474" width="0.17" height="9.112" transform="translate(244.592 102.54) rotate(-89.073)" fill="#7188c6"/>
              <rect id="Rectángulo_404475" data-name="Rectángulo 404475" width="0.169" height="9.051" transform="translate(243.606 104.881) rotate(-88.629)" fill="#7188c6"/>
              <path id="Trazado_883625" data-name="Trazado 883625" d="M2313.822,900.075s1.37,6.889.931,7.048a3.63,3.63,0,0,1-1.5,0c-.215-.046-.667-6.412-.667-6.412Z" transform="translate(-2036.194 -792.5)" fill="#2f1a31"/>
              <path id="Trazado_883626" data-name="Trazado 883626" d="M2312,953.012s-.329-.868-.945-.909a16.178,16.178,0,0,0-3.8.454c-.287.223-.369.552-.308.572s5.051-.118,5.051-.118" transform="translate(-2031.212 -838.306)" fill="#2f1a31"/>
              <path id="Trazado_883627" data-name="Trazado 883627" d="M2259.148,787.542l-13.6.244a.949.949,0,0,1-.823-1.339l5.508-13.058a1.9,1.9,0,0,1,1.562-1.186l14.638-1.368a.679.679,0,0,1,.633.967l-6.35,14.653a1.753,1.753,0,0,1-1.564,1.088" transform="translate(-1976.368 -678.703)" fill="#96a7e2"/>
              <rect id="Rectángulo_404476" data-name="Rectángulo 404476" width="17.911" height="0.297" transform="translate(279.72 108.833) rotate(-66.823)" fill="#7188c6"/>
              <rect id="Rectángulo_404477" data-name="Rectángulo 404477" width="17.513" height="0.297" transform="translate(275.741 108.905) rotate(-67.177)" fill="#7188c6"/>
              <rect id="Rectángulo_404478" data-name="Rectángulo 404478" width="16.906" height="0.297" transform="matrix(0.359, -0.933, 0.933, 0.359, 271.874, 108.979)" fill="#7188c6"/>
              <rect id="Rectángulo_404479" data-name="Rectángulo 404479" width="16.535" height="0.297" transform="matrix(0.999, -0.054, 0.054, 0.999, 273.032, 96.486)" fill="#7188c6"/>
              <rect id="Rectángulo_404480" data-name="Rectángulo 404480" width="0.297" height="15.978" transform="matrix(0.015, -1, 1, 0.015, 271.569, 100.265)" fill="#7188c6"/>
              <rect id="Rectángulo_404481" data-name="Rectángulo 404481" width="0.297" height="15.872" transform="translate(269.84 104.358) rotate(-88.598)" fill="#7188c6"/>
              <g id="Grupo_1104064" data-name="Grupo 1104064" transform="translate(95.861 17.606)" opacity="0.7">
                <g id="Grupo_1104063" data-name="Grupo 1104063">
                  <g id="Grupo_1104062" data-name="Grupo 1104062" clip-path="url(#clip-path-10)">
                    <path id="Trazado_883628" data-name="Trazado 883628" d="M912.164,226.48H813.777a11.709,11.709,0,0,1-11.709-11.709V159.017a11.709,11.709,0,0,1,11.709-11.709h98.387a11.709,11.709,0,0,1,11.709,11.709v55.755a11.709,11.709,0,0,1-11.709,11.709" transform="translate(-802.068 -147.308)" fill="#96a7e2"/>
                    <path id="Trazado_883629" data-name="Trazado 883629" d="M1615.183,657.306l1.782-4.195a.98.98,0,0,1,1.477-.41l2.381,1.727a.98.98,0,0,0,1.511-.5l1.371-4.416a.98.98,0,0,1,1.259-.634l1.313.459a.98.98,0,0,0,1.111-.342l.209-.282a.98.98,0,0,1,1.767.583v8.4a.98.98,0,0,1-.98.98h-12.3a.98.98,0,0,1-.9-1.363" transform="translate(-1517.931 -588.433)" fill="#e28569"/>
                    <path id="Trazado_883630" data-name="Trazado 883630" d="M1451.724,642.908h-.031l-36.669-.6a1.829,1.829,0,0,1-1.805-1.711l-.744-10.651a1.84,1.84,0,0,1,1.8-1.968l37.413-.708a1.84,1.84,0,0,1,1.875,1.839v11.961a1.84,1.84,0,0,1-1.839,1.84m0-15.283h-.029l-37.413.708a1.483,1.483,0,0,0-1.451,1.586l.744,10.651a1.474,1.474,0,0,0,1.455,1.38l36.669.6a1.483,1.483,0,0,0,1.507-1.483V629.107a1.483,1.483,0,0,0-1.482-1.483" transform="translate(-1339.516 -569.904)" fill="#deebe9"/>
                    <path id="Trazado_883631" data-name="Trazado 883631" d="M1047.407,313.276h-.028l-36.669-.267c-.942-.007-1.676-.338-1.747-.787l-.314-4.411a1.054,1.054,0,0,1,.251-.81,1.336,1.336,0,0,1,1.062-.44l37.413-.315a2.452,2.452,0,0,1,1.633.471.546.546,0,0,1,.18.386v5.315a.547.547,0,0,1-.179.386,2.428,2.428,0,0,1-1.6.472m-.026-.238a2.255,2.255,0,0,0,1.46-.4.312.312,0,0,0,.109-.217V307.1a.313.313,0,0,0-.109-.217,2.247,2.247,0,0,0-1.463-.4l-37.413.315a1.106,1.106,0,0,0-.882.356.811.811,0,0,0-.2.629l.314,4.411c.042.267.634.57,1.512.576Z" transform="translate(-983.95 -287.25)" fill="#deebe9"/>
                    <path id="Trazado_883632" data-name="Trazado 883632" d="M1036.344,319.21a1.182,1.182,0,0,1-1.163.935l-14.11-.086c-.783,0-1.425-.231-1.48-.521l-.284-3.341c-.061-.321.222-.847,1.085-.853l15.33-.1a1.182,1.182,0,0,1,1.163,1.429Z" transform="translate(-993.336 -295.174)" fill="#deebe9"/>
                    <path id="Trazado_883633" data-name="Trazado 883633" d="M893.6,634.434c-.134-3,1.954-6.31,3.1-7.376a1.219,1.219,0,0,1,1.755,0c1.735,1.508,3.389,3.989,3.48,5.393.238,3.687-2.454,4.8-4.51,4.8s-3.729-.761-3.822-2.815" transform="translate(-882.655 -569.391)" fill="#deebe9"/>
                    <path id="Trazado_883634" data-name="Trazado 883634" d="M1461.341,691.5h-13.252a.906.906,0,0,1-.779-.593c-.079-.593.487-.763.778-.763l13.253.295a.53.53,0,0,1,0,1.061" transform="translate(-1370.185 -625.262)" fill="#deebe9"/>
                    <path id="Trazado_883635" data-name="Trazado 883635" d="M1457.9,672.625h-10a.692.692,0,0,1-.588-.476.546.546,0,0,1,.588-.613l10,.237a.427.427,0,0,1,0,.852" transform="translate(-1370.185 -608.882)" fill="#deebe9"/>
                    <path id="Trazado_883636" data-name="Trazado 883636" d="M1457.9,714.446h-10a.692.692,0,0,1-.588-.476.546.546,0,0,1,.588-.613l10,.237a.427.427,0,0,1,0,.852" transform="translate(-1370.185 -645.704)" fill="#deebe9"/>
                    <path id="Trazado_883637" data-name="Trazado 883637" d="M1615.5,234.832l-.019-.221c-.005-.058-.494-5.895-.358-12.361.183-8.711,1.353-14.358,3.477-16.782a3.59,3.59,0,0,1,2.568-1.341,2.74,2.74,0,0,1,2.409.923c1.81,2.249.2,8.227-1.5,14.557l-.07.26-.344-.092.07-.26c1.6-5.965,3.262-12.132,1.566-14.24a2.374,2.374,0,0,0-2.114-.791,3.247,3.247,0,0,0-2.316,1.219c-4.686,5.348-3.233,26.266-3.049,28.657l3.487-1.079a12.025,12.025,0,0,1-.051-1.437l.357.007a11.339,11.339,0,0,0,.064,1.536l.017.147Z" transform="translate(-1517.929 -197.332)" fill="#3d2042"/>
                    <path id="Trazado_883638" data-name="Trazado 883638" d="M1630.433,298.78l.05-.224a84.675,84.675,0,0,1,3.316-10.774c2.8-7.114,5.7-10.435,8.628-9.869a2.3,2.3,0,0,1,1.872,1.281c.824,2.03-1.879,5.909-4.74,10.015-2.348,3.369-4.775,6.852-5.238,9.329l-.027.142Zm11.362-20.571c-5.935,0-10.384,17.977-10.912,20.2l3.115-.081c.539-2.54,2.942-5.988,5.268-9.325,2.681-3.847,5.454-7.826,4.7-9.677a1.95,1.95,0,0,0-1.609-1.065,2.972,2.972,0,0,0-.564-.054" transform="translate(-1531.429 -262.249)" fill="#3d2042"/>
                    <path id="Trazado_883639" data-name="Trazado 883639" d="M1410.59,323.138a4.944,4.944,0,0,1-2.411-.745c-1.363-.764-1.187-2.616-1.146-2.936l-.009-.027a3.9,3.9,0,0,0-.845-1.772,6.068,6.068,0,0,0-2.175-.789c-.386-.1-.824-.219-1.336-.362-2.249-.628-2.292-2.336-2.333-3.988-.033-1.34-.068-2.725-1.184-3.723h0c-2.465-2.2-3.351-4.631-3.135-6.063a2.725,2.725,0,0,1,1.714-2.122c2.857-1.307,4.567-.044,6.376,1.294.3.221.609.45.927.67.739.51,2.116.379,3.574.241,1.8-.171,3.85-.366,5.092.679a3.605,3.605,0,0,1,1.144,2.631c.313,4.05,1.39,4.637,3.174,5.609a15.392,15.392,0,0,1,2.386,1.522,5.933,5.933,0,0,1,1.369,1.508,5.154,5.154,0,0,1,.663,3.712l-.021.111-.109.029c-1.246.333-2.589.637-3.991.9a10.6,10.6,0,0,0-4.5,2.167,5.558,5.558,0,0,1-3.222,1.452m-10.585-22.719a5.088,5.088,0,0,0-2.128.518,2.388,2.388,0,0,0-1.509,1.85c-.278,1.846,1.37,4.271,3.02,5.744h0c1.231,1.1,1.269,2.63,1.3,3.98.042,1.661.078,3.1,2.073,3.653.51.142.947.258,1.332.36,2.514.667,2.575.72,3.266,2.793l.036.108-.007.043c0,.019-.283,1.915.961,2.613,2.426,1.361,3.611.5,5.25-.684a10.892,10.892,0,0,1,4.643-2.229c1.352-.256,2.649-.548,3.856-.867a4.782,4.782,0,0,0-.635-3.348,5.582,5.582,0,0,0-1.288-1.417,15.1,15.1,0,0,0-2.334-1.488c-1.826-.994-3.031-1.651-3.359-5.895a3.273,3.273,0,0,0-1.018-2.385c-1.128-.949-3.009-.77-4.828-.6-1.525.145-2.965.282-3.811-.3-.322-.223-.634-.453-.936-.676-1.26-.931-2.4-1.774-3.888-1.774" transform="translate(-1325 -281.806)" fill="#3d2042"/>
                    <path id="Trazado_883640" data-name="Trazado 883640" d="M1423.232,328.41l.2-.1c-.045-.091-4.728-9.223-19.936-18.319l-.117.2c15.151,9.061,19.8,18.133,19.848,18.224" transform="translate(-1331.516 -290.544)" fill="#3d2042"/>
                    <path id="Trazado_883641" data-name="Trazado 883641" d="M1516.8,352.424a8.449,8.449,0,0,0,4.28-2.012l-.169-.156a8.419,8.419,0,0,1-4.161,1.943Z" transform="translate(-1431.334 -325.999)" fill="#3d2042"/>
                    <path id="Trazado_883642" data-name="Trazado 883642" d="M1503.226,330.787c1.136-.693,1.9-2.188,2.2-4.324a15.624,15.624,0,0,0,.116-3.03l-.228.019c0,.055.408,5.544-2.2,7.137Z" transform="translate(-1419.32 -302.384)" fill="#3d2042"/>
                    <path id="Trazado_883643" data-name="Trazado 883643" d="M1413.116,351.492c.356-.067.56-.126.569-.129l-.065-.222a11.37,11.37,0,0,1-8.352-1.183l-.118.2a11.542,11.542,0,0,0,7.966,1.336" transform="translate(-1333.071 -325.738)" fill="#3d2042"/>
                    <path id="Trazado_883644" data-name="Trazado 883644" d="M1432.822,366.95a5.415,5.415,0,0,0,2.8-2.074,4.061,4.061,0,0,0,.61-1.332l-.225-.046a4.815,4.815,0,0,1-3.259,3.233Z" transform="translate(-1357.37 -337.659)" fill="#3d2042"/>
                    <path id="Trazado_883645" data-name="Trazado 883645" d="M1452.983,434.332a6.491,6.491,0,0,1,6.556-1.164c3.973,1.383,5.418-3.581,8.629-2.4s4.111-3.335,7.766-1.232.348,3.147,3.046,4.366,5.31,4.613.783,4.352-4.526,2.35-10.1,1.741-3.456-1.48-10.128-1.045-9.615-2.358-6.556-4.613" transform="translate(-1374.122 -395.301)" fill="#3d2042"/>
                    <path id="Trazado_883646" data-name="Trazado 883646" d="M1400.411,219.978h-13.252a.906.906,0,0,1-.779-.593c-.079-.593.487-.763.778-.763l13.253.295a.53.53,0,1,1,0,1.061" transform="translate(-1316.538 -210.099)" fill="#deebe9"/>
                    <path id="Trazado_883647" data-name="Trazado 883647" d="M1396.969,242.929h-10a.691.691,0,0,1-.588-.476.546.546,0,0,1,.587-.613l10,.237a.427.427,0,0,1,0,.852" transform="translate(-1316.537 -230.542)" fill="#deebe9"/>
                    <path id="Trazado_883648" data-name="Trazado 883648" d="M1431.471,571.14h-13.252a.905.905,0,0,1-.779-.593c-.08-.593.487-.762.778-.762l13.253.295a.53.53,0,0,1,0,1.06" transform="translate(-1343.885 -519.292)" fill="#deebe9"/>
                    <path id="Trazado_883649" data-name="Trazado 883649" d="M1428.03,594.091h-10a.691.691,0,0,1-.588-.477.546.546,0,0,1,.587-.612l10,.237a.427.427,0,0,1,0,.852" transform="translate(-1343.886 -539.734)" fill="#deebe9"/>
                    <path id="Trazado_883650" data-name="Trazado 883650" d="M1030.964,256.388h-13.252a.906.906,0,0,1-.779-.593c-.079-.593.487-.763.778-.763l13.253.295a.53.53,0,0,1,0,1.061" transform="translate(-991.246 -242.157)" fill="#deebe9"/>
                    <path id="Trazado_883651" data-name="Trazado 883651" d="M1027.521,279.338h-10a.691.691,0,0,1-.588-.476.546.546,0,0,1,.587-.613l10,.237a.427.427,0,0,1,0,.852" transform="translate(-991.246 -262.599)" fill="#deebe9"/>
                    <path id="Trazado_883652" data-name="Trazado 883652" d="M1047.407,491.6h-.028l-36.669-.267c-.942-.007-1.676-.338-1.747-.787l-.314-4.411a1.053,1.053,0,0,1,.251-.81,1.336,1.336,0,0,1,1.062-.44l37.413-.315a2.465,2.465,0,0,1,1.633.471.547.547,0,0,1,.18.386v5.315a.547.547,0,0,1-.179.386,2.428,2.428,0,0,1-1.6.471m-.026-.238a2.244,2.244,0,0,0,1.46-.4.312.312,0,0,0,.109-.217v-5.315a.314.314,0,0,0-.109-.217,2.234,2.234,0,0,0-1.434-.4h-.03l-37.413.315a1.106,1.106,0,0,0-.882.356.811.811,0,0,0-.2.629l.314,4.411c.042.267.634.57,1.512.576Z" transform="translate(-983.95 -444.261)" fill="#deebe9"/>
                    <path id="Trazado_883653" data-name="Trazado 883653" d="M1046.7,497.535a1.917,1.917,0,0,1-1.87.935l-22.688-.086c-1.258,0-2.291-.231-2.379-.521l-.457-3.341c-.1-.321.358-.847,1.744-.853l24.65-.1c1.214,0,2.124.69,1.871,1.429Z" transform="translate(-993.335 -452.186)" fill="#e28569"/>
                    <path id="Trazado_883654" data-name="Trazado 883654" d="M1030.964,434.713h-13.252a.906.906,0,0,1-.779-.593c-.079-.593.487-.762.778-.762l13.253.295a.53.53,0,0,1,0,1.061" transform="translate(-991.246 -399.169)" fill="#deebe9"/>
                    <path id="Trazado_883655" data-name="Trazado 883655" d="M1027.521,457.663h-10a.691.691,0,0,1-.588-.476.546.546,0,0,1,.587-.613l10,.237a.427.427,0,0,1,0,.852" transform="translate(-991.246 -419.611)" fill="#deebe9"/>
                    <path id="Trazado_883656" data-name="Trazado 883656" d="M1047.407,658.977h-.028l-36.669-.267c-.942-.007-1.676-.338-1.747-.787l-.314-4.411a1.054,1.054,0,0,1,.251-.81,1.337,1.337,0,0,1,1.062-.44l37.413-.315a2.454,2.454,0,0,1,1.633.471.546.546,0,0,1,.18.386v5.315a.547.547,0,0,1-.179.386,2.429,2.429,0,0,1-1.6.471m0-6.792h-.03l-37.413.315a1.107,1.107,0,0,0-.882.356.811.811,0,0,0-.2.629l.314,4.411c.042.267.634.57,1.512.576l36.669.267a2.258,2.258,0,0,0,1.46-.4.312.312,0,0,0,.109-.217V652.8a.313.313,0,0,0-.109-.217,2.234,2.234,0,0,0-1.434-.4" transform="translate(-983.95 -591.634)" fill="#deebe9"/>
                    <path id="Trazado_883657" data-name="Trazado 883657" d="M1036.344,664.913a1.182,1.182,0,0,1-1.163.935l-14.11-.086c-.783,0-1.425-.231-1.48-.521l-.284-3.341c-.061-.321.222-.847,1.085-.853l15.33-.1a1.182,1.182,0,0,1,1.163,1.429Z" transform="translate(-993.336 -599.559)" fill="#deebe9"/>
                    <path id="Trazado_883658" data-name="Trazado 883658" d="M1030.964,602.09h-13.252a.906.906,0,0,1-.779-.593c-.079-.593.487-.763.778-.763l13.253.295a.53.53,0,0,1,0,1.061" transform="translate(-991.246 -546.543)" fill="#deebe9"/>
                    <path id="Trazado_883659" data-name="Trazado 883659" d="M1027.521,625.041h-10a.691.691,0,0,1-.588-.476.546.546,0,0,1,.587-.613l10,.237a.427.427,0,0,1,0,.852" transform="translate(-991.246 -566.985)" fill="#deebe9"/>
                    <path id="Trazado_883660" data-name="Trazado 883660" d="M933.622,683.482a.119.119,0,0,1-.049-.228c2.316-1.039,2.083-2.595,2.072-2.661a.119.119,0,0,1,.234-.041c.013.073.284,1.8-2.209,2.919a.12.12,0,0,1-.049.01" transform="translate(-917.794 -616.734)" fill="#96a7e2"/>
                    <path id="Trazado_883661" data-name="Trazado 883661" d="M899.916,472.054a3,3,0,0,1,2.575-2.64,2.775,2.775,0,0,1,2.967,2.848,2.892,2.892,0,0,1-2.883,2.565c-1.392,0-2.914-.657-2.66-2.772" transform="translate(-888.197 -430.892)" fill="#deebe9"/>
                    <path id="Trazado_883662" data-name="Trazado 883662" d="M860.775,491.425s-4.139-.281-4.274.209.014.483.444.55a15.045,15.045,0,0,0,3.835-.368c.308-.329,0-.391,0-.391" transform="translate(-849.953 -450.227)" fill="#deebe9"/>
                    <path id="Trazado_883663" data-name="Trazado 883663" d="M867.526,446.289s-2.795-3.066-3.231-2.806-.323.359-.06.7a15.054,15.054,0,0,0,3.024,2.388c.45-.025.267-.286.267-.286" transform="translate(-856.6 -408.071)" fill="#deebe9"/>
                    <path id="Trazado_883664" data-name="Trazado 883664" d="M920.385,429.128s.253-4.141-.238-4.272-.483.018-.547.448a15.05,15.05,0,0,0,.393,3.832c.331.305.391-.008.391-.008" transform="translate(-905.543 -391.643)" fill="#deebe9"/>
                    <path id="Trazado_883665" data-name="Trazado 883665" d="M919.735,525.155s-.253,4.141.238,4.273.483-.018.547-.448a15.04,15.04,0,0,0-.393-3.833c-.331-.305-.391.008-.391.008" transform="translate(-905.615 -479.871)" fill="#deebe9"/>
                    <path id="Trazado_883666" data-name="Trazado 883666" d="M950.455,495.382s4.06.855,4.261.389.053-.48-.363-.606a15.062,15.062,0,0,0-3.849-.171c-.351.283-.05.388-.05.388" transform="translate(-932.615 -453.368)" fill="#deebe9"/>
                    <path id="Trazado_883667" data-name="Trazado 883667" d="M952.566,446.618s3.484-2.253,3.3-2.726-.3-.378-.685-.175a15.053,15.053,0,0,0-2.852,2.59c-.05.448.238.31.238.31" transform="translate(-934.364 -408.145)" fill="#deebe9"/>
                    <path id="Trazado_883668" data-name="Trazado 883668" d="M952.452,517.956s2.795,3.066,3.231,2.806.323-.359.06-.7a15.043,15.043,0,0,0-3.023-2.388c-.45.025-.267.286-.267.286" transform="translate(-934.446 -473.405)" fill="#deebe9"/>
                    <path id="Trazado_883669" data-name="Trazado 883669" d="M867.49,517.773s-3.484,2.253-3.3,2.726.3.378.685.175a15.043,15.043,0,0,0,2.852-2.59c.05-.448-.238-.311-.238-.311" transform="translate(-856.76 -473.479)" fill="#deebe9"/>
                    <path id="Trazado_883670" data-name="Trazado 883670" d="M889.6,227.182a3.252,3.252,0,0,1-2.511-1.212,3.349,3.349,0,0,1-.718-2.781,4.653,4.653,0,0,1,1.694-3.049l.278-9.472a2.169,2.169,0,0,1,1.689-1.928,1.93,1.93,0,0,1,1.589.43,1.6,1.6,0,0,1,.7,1.2l-.142,9.737a3.225,3.225,0,0,1,1.556,2.735,3.78,3.78,0,0,1-4.138,4.336m.76-18a.8.8,0,0,0-.2.025,1.722,1.722,0,0,0-1.332,1.47l-.285,9.729-.106.068a4.108,4.108,0,0,0-1.589,2.81,2.87,2.87,0,0,0,.618,2.382,2.774,2.774,0,0,0,2.14,1.037,3.307,3.307,0,0,0,3.658-3.837,2.76,2.76,0,0,0-1.435-2.405l-.126-.07.146-10.018a1.148,1.148,0,0,0-.516-.82,1.687,1.687,0,0,0-.968-.371" transform="translate(-876.236 -201.361)" fill="#deebe9"/>
                    <path id="Trazado_883671" data-name="Trazado 883671" d="M901.239,281.152a2.588,2.588,0,0,1-2.846,2.984,2.282,2.282,0,0,1-2.186-2.707,3.843,3.843,0,0,1,1.63-2.282l.079-3.884a.458.458,0,0,1,.468-.447,3.564,3.564,0,0,1,1.144.328.577.577,0,0,1,.373.543l-.04,3.5a2.527,2.527,0,0,1,1.378,1.965" transform="translate(-884.919 -259.577)" fill="#deebe9"/>
                  </g>
                </g>
              </g>
              <path id="Trazado_883672" data-name="Trazado 883672" d="M1425.068,1087.427a12.36,12.36,0,0,1-1.407-1.81c-.859-1.373-1.064-2.462-.608-3.238.17-.29.373-.423.607-.4.471.053,1,.772,1.621,2.2.186.427.35.854.479,1.207-.148-1.54-.32-4.605.522-5.633a.9.9,0,0,1,.656-.357.689.689,0,0,1,.606.264c.758.936.077,4.268-.3,5.827.279-.456.675-.963,1.079-1.022a.393.393,0,0,1,.429.2c.247.451-.088,1.6-1.078,2.755l-.15-.129c.973-1.132,1.237-2.2,1.054-2.531a.2.2,0,0,0-.227-.1c-.521.075-1.128,1.215-1.318,1.648l-.186-.066c0-.013.372-1.354.619-2.822.323-1.919.3-3.176-.077-3.637a.5.5,0,0,0-.44-.191.7.7,0,0,0-.515.285c-1.064,1.3-.384,6.327-.377,6.378l-.192.043c-.351-1.116-1.436-4.033-2.228-4.122-.15-.018-.285.081-.414.3-1,1.7,1.957,4.78,1.987,4.811Z" transform="translate(-1252.765 -950.389)" fill="#42428e"/>
              <path id="Trazado_883673" data-name="Trazado 883673" d="M1563.565,1201a17.261,17.261,0,0,1-1.963-2.526c-1.2-1.915-1.484-3.435-.849-4.518.237-.4.522-.59.847-.553,1.1.125,2.308,3.02,2.931,4.741-.065-.69-.134-1.6-.16-2.551-.072-2.71.227-4.492.886-5.3a1.258,1.258,0,0,1,.915-.5.961.961,0,0,1,.845.368c1.058,1.305.107,5.954-.416,8.13.389-.636.941-1.344,1.505-1.425a.549.549,0,0,1,.6.28c.345.629-.123,2.238-1.5,3.844l-.209-.18c1.358-1.579,1.726-3.065,1.471-3.531a.275.275,0,0,0-.317-.139c-.726.1-1.573,1.7-1.839,2.3l-.26-.092c.005-.019.519-1.89.864-3.937.45-2.677.413-4.431-.108-5.074a.69.69,0,0,0-.614-.267.981.981,0,0,0-.719.4c-1.484,1.81-.536,8.828-.526,8.9l-.268.06c-.49-1.557-2-5.626-3.108-5.752-.209-.023-.4.113-.578.419-1.395,2.377,2.73,6.669,2.772,6.712Z" transform="translate(-1373.925 -1047.598)" fill="#42428e"/>
              <path id="Trazado_883674" data-name="Trazado 883674" d="M2251.095,953.135c-.1-.1-2.361-2.456-1.539-3.856.13-.221.286-.322.464-.3.359.041.764.59,1.238,1.679.142.326.267.652.366.922-.113-1.176-.244-3.517.4-4.3a.689.689,0,0,1,.5-.272.523.523,0,0,1,.463.2c.579.714.059,3.259-.228,4.45.213-.348.515-.736.824-.78a.3.3,0,0,1,.327.153c.189.344-.067,1.225-.823,2.1l-.115-.1c.743-.864.945-1.678.8-1.933a.151.151,0,0,0-.173-.076c-.4.057-.861.928-1.006,1.259l-.142-.051c.011-.041,1.113-4.069.414-4.932a.377.377,0,0,0-.336-.146.537.537,0,0,0-.393.217c-.812.991-.293,4.832-.288,4.871l-.147.033c-.269-.853-1.1-3.08-1.7-3.148-.114-.013-.218.062-.316.229-.764,1.3,1.494,3.65,1.517,3.674Z" transform="translate(-1980.536 -833.818)" fill="#42428e"/>
              <path id="Trazado_883675" data-name="Trazado 883675" d="M1332.117,1042.161s-1.591,8-1.081,8.184a4.221,4.221,0,0,0,1.738,0c.249-.054.774-7.445.774-7.445Z" transform="translate(-1171.865 -917.604)" fill="#2f1a31"/>
              <path id="Trazado_883676" data-name="Trazado 883676" d="M1310.1,1103.624s.381-1.007,1.1-1.055a18.779,18.779,0,0,1,4.411.527c.334.259.429.641.358.664s-5.865-.137-5.865-.137" transform="translate(-1153.523 -970.788)" fill="#2f1a31"/>
              <path id="Trazado_883677" data-name="Trazado 883677" d="M1222.566,911.5l15.795.283a1.1,1.1,0,0,0,.956-1.555l-6.4-15.162a2.209,2.209,0,0,0-1.813-1.377l-17-1.589a.788.788,0,0,0-.735,1.123l7.374,17.014a2.034,2.034,0,0,0,1.816,1.264" transform="translate(-1068.295 -785.471)" fill="#96a7e2"/>
              <rect id="Rectángulo_404483" data-name="Rectángulo 404483" width="0.345" height="20.797" transform="matrix(0.919, -0.394, 0.394, 0.919, 149.321, 107.034)" fill="#7188c6"/>
              <rect id="Rectángulo_404484" data-name="Rectángulo 404484" width="0.345" height="20.334" transform="translate(154.238 107.493) rotate(-22.823)" fill="#7188c6"/>
              <rect id="Rectángulo_404485" data-name="Rectángulo 404485" width="0.345" height="19.631" transform="translate(159.57 107.986) rotate(-21.021)" fill="#7188c6"/>
              <rect id="Rectángulo_404486" data-name="Rectángulo 404486" width="0.345" height="19.199" transform="translate(146.4 110.983) rotate(-86.883)" fill="#7188c6"/>
              <rect id="Rectángulo_404487" data-name="Rectángulo 404487" width="18.552" height="0.345" transform="translate(148.733 116.01) rotate(-0.894)" fill="#7188c6"/>
              <rect id="Rectángulo_404488" data-name="Rectángulo 404488" width="18.429" height="0.345" transform="translate(150.864 120.923) rotate(-1.371)" fill="#7188c6"/>
              <path id="Trazado_883678" data-name="Trazado 883678" d="M1472.3,987.822s-1.149,5.781-.781,5.915a3.044,3.044,0,0,0,1.256,0c.18-.039.559-5.38.559-5.38Z" transform="translate(-1295.583 -869.76)" fill="#2f1a31"/>
              <path id="Trazado_883679" data-name="Trazado 883679" d="M1456.392,1032.242s.276-.728.793-.763a13.593,13.593,0,0,1,3.188.381c.241.188.31.463.258.48s-4.239-.1-4.239-.1" transform="translate(-1282.327 -908.196)" fill="#2f1a31"/>
              <path id="Trazado_883680" data-name="Trazado 883680" d="M1393.128,893.39l11.415.2a.8.8,0,0,0,.691-1.124l-4.622-10.958a1.6,1.6,0,0,0-1.311-1l-12.283-1.148a.57.57,0,0,0-.531.812l5.329,12.3a1.47,1.47,0,0,0,1.312.913" transform="translate(-1220.733 -774.267)" fill="#96a7e2"/>
              <rect id="Rectángulo_404489" data-name="Rectángulo 404489" width="0.249" height="15.03" transform="translate(168.818 105.399) rotate(-23.177)" fill="#7188c6"/>
              <rect id="Rectángulo_404490" data-name="Rectángulo 404490" width="0.249" height="14.696" transform="translate(172.372 105.73) rotate(-22.823)" fill="#7188c6"/>
              <rect id="Rectángulo_404491" data-name="Rectángulo 404491" width="0.249" height="14.187" transform="translate(176.225 106.087) rotate(-21.021)" fill="#7188c6"/>
              <rect id="Rectángulo_404492" data-name="Rectángulo 404492" width="0.249" height="13.875" transform="translate(166.707 108.254) rotate(-86.897)" fill="#7188c6"/>
              <rect id="Rectángulo_404493" data-name="Rectángulo 404493" width="13.408" height="0.25" transform="matrix(1, -0.015, 0.015, 1, 168.393, 111.884)" fill="#7188c6"/>
              <rect id="Rectángulo_404494" data-name="Rectángulo 404494" width="13.318" height="0.249" transform="translate(169.933 115.44) rotate(-1.402)" fill="#7188c6"/>
              <path id="Trazado_883681" data-name="Trazado 883681" d="M2187.432,838.941s-2.264-2.331-1.485-3.659,2.094,2.852,2.094,2.852-.682-4.943.73-5.028,0,5.028,0,5.028.524-1.193,1.035-1.266.365,1.011-.548,2.073Z" transform="translate(-1924.544 -733.534)" fill="#cfd3a3"/>
              <path id="Trazado_883682" data-name="Trazado 883682" d="M2184.277,835.492c-.094-.1-2.294-2.387-1.5-3.747.126-.215.278-.314.451-.294.35.04.743.573,1.2,1.632.138.317.26.634.355.9-.11-1.143-.238-3.418.387-4.181a.669.669,0,0,1,.487-.265.508.508,0,0,1,.45.2c.563.695.057,3.168-.221,4.325.207-.338.5-.715.8-.758a.292.292,0,0,1,.318.149c.184.335-.066,1.191-.8,2.045l-.111-.1c.722-.84.918-1.631.782-1.879a.147.147,0,0,0-.168-.074c-.386.056-.837.9-.978,1.223l-.138-.049c0-.01.276-1.005.459-2.094.239-1.424.22-2.358-.058-2.7a.369.369,0,0,0-.327-.142.522.522,0,0,0-.382.211c-.789.963-.285,4.7-.28,4.734l-.143.032c-.261-.828-1.066-2.993-1.654-3.06-.114-.013-.212.06-.307.223-.742,1.264,1.452,3.548,1.475,3.571Z" transform="translate(-1921.746 -730.387)" fill="#42428e"/>
              <path id="Trazado_883683" data-name="Trazado 883683" d="M1872.7,846.034s-3.705-3.814-2.43-5.987,3.426,4.667,3.426,4.667-1.115-8.087,1.2-8.228,0,8.228,0,8.228.856-1.951,1.693-2.072.6,1.655-.9,3.392Z" transform="translate(-1646.501 -736.51)" fill="#cfd3a3"/>
              <path id="Trazado_883684" data-name="Trazado 883684" d="M1867.523,840.393a15.008,15.008,0,0,1-1.709-2.2c-1.043-1.667-1.292-2.99-.739-3.933.207-.352.455-.512.737-.482.959.109,2.009,2.629,2.551,4.127-.057-.6-.117-1.39-.139-2.221-.062-2.359.2-3.91.772-4.611a1.094,1.094,0,0,1,.8-.433.834.834,0,0,1,.736.32c.921,1.136.093,5.183-.362,7.077.339-.554.819-1.17,1.31-1.241a.477.477,0,0,1,.521.243c.3.547-.107,1.948-1.309,3.346l-.182-.156c1.182-1.374,1.5-2.668,1.28-3.074a.24.24,0,0,0-.276-.121c-.632.091-1.37,1.476-1.6,2l-.226-.08c0-.016.452-1.645.752-3.427.392-2.33.359-3.857-.094-4.417a.6.6,0,0,0-.534-.232.853.853,0,0,0-.625.346c-1.292,1.576-.467,7.684-.458,7.746l-.233.053c-.427-1.356-1.744-4.9-2.705-5.007-.182-.02-.347.1-.5.365-1.214,2.07,2.376,5.8,2.413,5.843Z" transform="translate(-1641.913 -731.363)" fill="#42428e"/>
              <path id="Trazado_883685" data-name="Trazado 883685" d="M1682,1066.372s-3.914-4.029-2.567-6.323,3.619,4.929,3.619,4.929-1.178-8.542,1.262-8.69,0,8.69,0,8.69.9-2.061,1.789-2.188.631,1.748-.947,3.583Z" transform="translate(-1478.466 -930.041)" fill="#cfd3a3"/>
              <path id="Trazado_883686" data-name="Trazado 883686" d="M1676.538,1060.413a15.821,15.821,0,0,1-1.805-2.322c-1.1-1.76-1.365-3.158-.78-4.154.218-.371.48-.543.779-.509,1.013.115,2.122,2.776,2.695,4.359-.061-.634-.123-1.468-.147-2.345-.066-2.491.208-4.13.815-4.871a1.156,1.156,0,0,1,.841-.457.883.883,0,0,1,.777.339c.973,1.2.1,5.474-.382,7.474.358-.585.865-1.235,1.384-1.31a.5.5,0,0,1,.55.257c.317.578-.113,2.058-1.382,3.534l-.193-.165c1.248-1.451,1.587-2.818,1.352-3.246a.253.253,0,0,0-.291-.128c-.668.1-1.447,1.559-1.69,2.114l-.239-.085c0-.017.478-1.738.794-3.619.414-2.461.379-4.074-.1-4.665a.632.632,0,0,0-.565-.245.9.9,0,0,0-.66.365c-1.364,1.665-.493,8.116-.484,8.181l-.247.055c-.451-1.432-1.842-5.173-2.857-5.288-.193-.023-.366.1-.531.385-1.283,2.186,2.51,6.131,2.549,6.171Z" transform="translate(-1473.619 -924.605)" fill="#42428e"/>
              <path id="Trazado_883687" data-name="Trazado 883687" d="M1848.994,1068.828s-1.083,5.464-3.587,8.27a1.021,1.021,0,0,1-.753.336l-.806.009a.329.329,0,0,1-.312-.445c.5-1.328,1.821-5.341.856-8.616,0,0,1.184-.315,4.6.447" transform="translate(-1623.182 -940.634)" fill="#3d2042"/>
              <path id="Trazado_883688" data-name="Trazado 883688" d="M1989.322,1068.828s-1.083,5.464-3.587,8.27a1.021,1.021,0,0,1-.753.336l-.806.009a.329.329,0,0,1-.312-.445c.5-1.328,1.821-5.341.856-8.616,0,0,1.184-.315,4.6.447" transform="translate(-1746.738 -940.634)" fill="#3d2042"/>
              <path id="Trazado_883689" data-name="Trazado 883689" d="M1828.519,950.662a9.612,9.612,0,0,0,2.584,1.708c.908.217,2.4-1.006,4.367-.914s3.865,1.506,5.677,1.563,6.787-.449,9.063.734,2.092,5.109,1.974,8.2-.7,4.988-.24,5.814c.354.634-.146,4.569-.4,6.362a1.037,1.037,0,0,1-1.021.893l-.667,0a.6.6,0,0,1-.607-.594,22.781,22.781,0,0,0-.455-4.949,19.819,19.819,0,0,0-1.371-2.592.423.423,0,0,0-.479-.188,22.794,22.794,0,0,1-12.094.074.423.423,0,0,0-.533.31c-.31,1.329-1.365,5.3-3.339,7.651a1.448,1.448,0,0,1-1.094.509.756.756,0,0,1-.725-1c.55-1.61,1.431-4.867.754-7.686a.432.432,0,0,0-.429-.333c-.727.022-2.5-.259-3.7-3.24a62.263,62.263,0,0,1-2.2-6.321.423.423,0,0,1,.088-.392Z" transform="translate(-1605.62 -837.041)" fill="#56335b"/>
              <path id="Trazado_883690" data-name="Trazado 883690" d="M1951.665,1065.75c-1.653-1.019-6.514-.727-7.3,1.18s5.759,6.733,10.309,2.46a8.766,8.766,0,0,0-3.012-3.64" transform="translate(-1711.924 -937.865)" fill="#e28569"/>
              <path id="Trazado_883691" data-name="Trazado 883691" d="M1996.258,1104.059a.451.451,0,0,1-.48-.42l-.13-1.943a.451.451,0,0,1,.9-.06l.13,1.943a.451.451,0,0,1-.42.48" transform="translate(-1757.132 -969.601)" fill="#e28569"/>
              <path id="Trazado_883692" data-name="Trazado 883692" d="M1960.93,1098.43a.451.451,0,0,1-.154-.619l1-1.669a.451.451,0,1,1,.773.464l-1,1.669a.451.451,0,0,1-.618.154" transform="translate(-1726.371 -964.941)" fill="#e28569"/>
              <path id="Trazado_883693" data-name="Trazado 883693" d="M2017.648,1096.148a.451.451,0,0,1-.6-.209l-.848-1.754a.451.451,0,1,1,.812-.393l.848,1.754a.451.451,0,0,1-.21.6" transform="translate(-1775.187 -962.84)" fill="#e28569"/>
              <path id="Trazado_883694" data-name="Trazado 883694" d="M2046.473,976.516c3.054,1.609,3.3,3.7,3.722,5.847s.606,3.771,1.915,4.415l-.56.551a7.137,7.137,0,0,1-2.232-3.259c-.814-2.254-.671-3.728-1.64-4.284s-1.2-3.27-1.2-3.27" transform="translate(-1801.883 -859.805)" fill="#56335b"/>
              <path id="Trazado_883695" data-name="Trazado 883695" d="M1917.868,959.532c-2.307-1.138-7.252-.777-9.046-.832-1.811-.056-3.66-1.338-5.622-1.43a6.765,6.765,0,0,0-2.7.549c.262.27.831.532,1.021.816a12.178,12.178,0,0,1,.838,1.947,2.171,2.171,0,0,0,1.482,1.395c.5.078,1.027-.124,1.5.044a1.634,1.634,0,0,1,.906,1.3,9.764,9.764,0,0,0,.287,1.635,2.569,2.569,0,0,0,2.627,1.506,3.794,3.794,0,0,0,2.659-1.693c.347-.5.6-1.07,1-1.537.979-1.161,2.594-1.491,4.054-1.909a1.414,1.414,0,0,0,.579-.269,1.479,1.479,0,0,0,.363-.9,3.916,3.916,0,0,0,.058-.622" transform="translate(-1673.352 -842.855)" fill="#fff"/>
              <path id="Trazado_883696" data-name="Trazado 883696" d="M1858.371,981.4c.019-.568-.322-1.209.025-1.661a1.154,1.154,0,0,1,.934-.343,1.2,1.2,0,0,1,1.016.383c.256.362.118.862.214,1.295a1.815,1.815,0,0,0,.934,1.1c.43.247.908.4,1.338.651a1.207,1.207,0,0,1,.415.35,1.447,1.447,0,0,1,.168.792,2.017,2.017,0,0,1-.227,1.2,1.7,1.7,0,0,1-1.937.363,3.242,3.242,0,0,0-3.949.258,1.694,1.694,0,0,1-1.951-.1,1.456,1.456,0,0,1,.291-1.94c.8-.748,2.684-.968,2.73-2.347" transform="translate(-1633.372 -862.34)" fill="#fff"/>
              <path id="Trazado_883697" data-name="Trazado 883697" d="M2088.278,1059.736a.96.96,0,0,1,1.625.226c.232.563.236.9.765.935s1.222,1.382.468,1.485-1.431.223-1.814-.339-2.158-.691-1.043-2.307" transform="translate(-1838.372 -932.759)" fill="#e28569"/>
              <path id="Trazado_883698" data-name="Trazado 883698" d="M1850.026,937.1a1.749,1.749,0,0,0,1.078-1.23,1.1,1.1,0,0,1,.253,1.092,1.379,1.379,0,0,1-.876.814c-.036-.034-.455-.676-.455-.676" transform="translate(-1628.915 -824.016)" fill="#e28569"/>
              <path id="Trazado_883699" data-name="Trazado 883699" d="M1814.758,935.705a1.864,1.864,0,0,1-1-1.43,1.179,1.179,0,0,0-.4,1.127,1.471,1.471,0,0,0,.834.965c.042-.032.561-.662.561-.662" transform="translate(-1596.603 -822.613)" fill="#e28569"/>
              <path id="Trazado_883700" data-name="Trazado 883700" d="M1817.355,937.635c1.753-.089,3.03,1.771,2.823,3.488s-1.086,2.266-1.024,2.655-1.349.14-1.349.14l-3.162-.183a.643.643,0,0,0,.426-.822c-.131-.689-.87-2.013-.483-3.2a3.243,3.243,0,0,1,2.768-2.081" transform="translate(-1597.613 -825.568)" fill="#3d2042"/>
              <path id="Trazado_883701" data-name="Trazado 883701" d="M1817.8,978.284s.815,1.213-.248,1.94c-.979.671-3.682.591-4.575-.757a.677.677,0,0,1,.454-1.037l.02,0c.672-.1,1.311-.108,1.528-.588s.321-.811.493-.7.125.685.392.86a2.452,2.452,0,0,0,1.935.288" transform="translate(-1596.194 -860.332)" fill="#e28569"/>
              <path id="Trazado_883702" data-name="Trazado 883702" d="M1855.15,941.683s.931-1.341,4.082-.947a3.066,3.066,0,0,1-3.92,1.643Z" transform="translate(-1633.426 -828.237)" fill="#3d2042"/>
              <path id="Trazado_883703" data-name="Trazado 883703" d="M1787.852,945.613s-.227-1.386-4.137-.981c0,0,1.575,3.135,3.86,2.154Z" transform="translate(-1570.529 -831.666)" fill="#3d2042"/>
              <path id="Trazado_883704" data-name="Trazado 883704" d="M1821.162,992.252a.305.305,0,1,0-.229.367.3.3,0,0,0,.229-.367" transform="translate(-1602.97 -873.453)" fill="#060633"/>
              <path id="Trazado_883705" data-name="Trazado 883705" d="M1838.1,995.208a.3.3,0,1,0-.229.367.3.3,0,0,0,.229-.367" transform="translate(-1617.885 -876.056)" fill="#060633"/>
              <path id="Trazado_883706" data-name="Trazado 883706" d="M1814.557,951.016c-.387,1.183.311,2.474.442,3.162.014.071.053.195.06.253a1.961,1.961,0,0,0,1.445-1.595c.127-1.018-1-1.922-1.689-2.371a2.591,2.591,0,0,0-.258.55" transform="translate(-1597.583 -836.868)" fill="#fff"/>
              <path id="Trazado_883707" data-name="Trazado 883707" d="M1842.314,953.238c-.843.2-2.538.761-2.437,2.128a1.7,1.7,0,0,0,1.879,1.6,4.584,4.584,0,0,0,.784-2.1,3.327,3.327,0,0,0-.226-1.626" transform="translate(-1619.974 -839.309)" fill="#fff"/>
              <path id="Trazado_883708" data-name="Trazado 883708" d="M1849.357,967.816a.289.289,0,1,0-.216.347.289.289,0,0,0,.216-.347" transform="translate(-1627.823 -851.948)" fill="#060633"/>
              <path id="Trazado_883709" data-name="Trazado 883709" d="M1823.469,965.22a.289.289,0,1,0-.217.347.289.289,0,0,0,.217-.347" transform="translate(-1605.029 -849.662)" fill="#060633"/>
              <path id="Trazado_883710" data-name="Trazado 883710" d="M1826.277,932.527a1.008,1.008,0,0,0-.644-.223,3,3,0,0,0-.688.093c.008.137.155.224.29.244a2.343,2.343,0,0,1,.408.044,5.006,5.006,0,0,0-1.1.429.987.987,0,0,0-.527.433.274.274,0,0,0,.009.263.346.346,0,0,0,.321.093,1.964,1.964,0,0,0,.751-.225.68.68,0,0,0-.267.615.233.233,0,0,0,.047.129.243.243,0,0,0,.1.063.945.945,0,0,0,.86-.163,1.651,1.651,0,0,0,.519-.735,1.136,1.136,0,0,0,.123.522.391.391,0,0,0,.4-.255,1.14,1.14,0,0,0,.054-.5,1.071,1.071,0,0,0-.062-.377c-.1-.224-.413-.291-.591-.448" transform="translate(-1605.985 -820.877)" fill="#e28569"/>
              <path id="Trazado_883711" data-name="Trazado 883711" d="M1713.306,937.317a9.828,9.828,0,0,0,1.663,3.835.474.474,0,0,0,.349.156l.373,0a.153.153,0,0,0,.145-.207,6.994,6.994,0,0,1-.4-3.995,5.331,5.331,0,0,0-2.134.207" transform="translate(-1508.535 -825.082)" fill="#3d2042"/>
              <path id="Trazado_883712" data-name="Trazado 883712" d="M1648.237,937.317a9.822,9.822,0,0,0,1.663,3.835.473.473,0,0,0,.349.156l.373,0a.153.153,0,0,0,.145-.207,7,7,0,0,1-.4-3.995,5.329,5.329,0,0,0-2.133.207" transform="translate(-1451.243 -825.082)" fill="#3d2042"/>
              <path id="Trazado_883713" data-name="Trazado 883713" d="M1643.558,882.523a4.46,4.46,0,0,1-1.2.792c-.421.1-1.115-.467-2.025-.424s-1.792.7-2.632.725-3.147-.209-4.2.34-.97,2.369-.916,3.8.326,2.313.111,2.7a11.624,11.624,0,0,0,.185,2.95.481.481,0,0,0,.474.414l.309,0a.28.28,0,0,0,.282-.276,10.574,10.574,0,0,1,.211-2.295,9.183,9.183,0,0,1,.636-1.2.2.2,0,0,1,.222-.087,10.569,10.569,0,0,0,5.608.034.2.2,0,0,1,.247.144,9.536,9.536,0,0,0,1.548,3.547.671.671,0,0,0,.507.236.35.35,0,0,0,.336-.463,6.929,6.929,0,0,1-.35-3.564.2.2,0,0,1,.2-.154c.337.01,1.158-.12,1.717-1.5a28.891,28.891,0,0,0,1.019-2.931.2.2,0,0,0-.041-.182Z" transform="translate(-1437.436 -777.046)" fill="#56335b"/>
              <path id="Trazado_883714" data-name="Trazado 883714" d="M1648.977,935.89c.766-.473,3.021-.337,3.384.547s-2.671,3.122-4.781,1.141a4.066,4.066,0,0,1,1.4-1.688" transform="translate(-1450.665 -823.798)" fill="#e28569"/>
              <path id="Trazado_883715" data-name="Trazado 883715" d="M1660.213,953.654a.209.209,0,0,0,.222-.195l.06-.9a.209.209,0,0,0-.417-.028l-.06.9a.209.209,0,0,0,.195.223" transform="translate(-1461.616 -838.514)" fill="#e28569"/>
              <path id="Trazado_883716" data-name="Trazado 883716" d="M1673.61,951.043a.209.209,0,0,0,.072-.287l-.465-.774a.209.209,0,1,0-.358.215l.465.774a.209.209,0,0,0,.286.072" transform="translate(-1472.896 -836.353)" fill="#e28569"/>
              <path id="Trazado_883717" data-name="Trazado 883717" d="M1647.843,949.984a.209.209,0,0,0,.279-.1l.393-.813a.209.209,0,1,0-.376-.182l-.393.813a.209.209,0,0,0,.1.279" transform="translate(-1450.792 -835.378)" fill="#e28569"/>
              <path id="Trazado_883718" data-name="Trazado 883718" d="M1621.2,894.512a3.146,3.146,0,0,0-1.726,2.711c-.194,1-.281,1.748-.888,2.047l.26.255a3.306,3.306,0,0,0,1.035-1.511c.378-1.045.312-1.729.76-1.987s.558-1.516.558-1.516" transform="translate(-1425.135 -787.602)" fill="#56335b"/>
              <path id="Trazado_883719" data-name="Trazado 883719" d="M1640.742,886.637c1.07-.528,3.363-.36,4.194-.386s1.7-.62,2.607-.663a3.138,3.138,0,0,1,1.254.255c-.122.125-.385.247-.474.378a5.633,5.633,0,0,0-.388.9,1.007,1.007,0,0,1-.687.647c-.231.036-.476-.058-.7.02a.758.758,0,0,0-.42.6,4.5,4.5,0,0,1-.133.758,1.191,1.191,0,0,1-1.218.7,1.759,1.759,0,0,1-1.233-.785c-.161-.233-.28-.5-.463-.713a3.614,3.614,0,0,0-1.88-.885.657.657,0,0,1-.268-.125.684.684,0,0,1-.168-.419,1.792,1.792,0,0,1-.027-.289" transform="translate(-1444.644 -779.742)" fill="#fff"/>
              <path id="Trazado_883720" data-name="Trazado 883720" d="M1699.227,896.776c-.009-.264.149-.561-.012-.77a.535.535,0,0,0-.433-.159.558.558,0,0,0-.471.178c-.119.168-.055.4-.1.6a.841.841,0,0,1-.433.512c-.2.115-.421.187-.621.3a.559.559,0,0,0-.192.162.669.669,0,0,0-.078.367.934.934,0,0,0,.105.556.789.789,0,0,0,.9.168,1.5,1.5,0,0,1,1.831.119.786.786,0,0,0,.9-.047.675.675,0,0,0-.135-.9c-.37-.347-1.244-.449-1.266-1.088" transform="translate(-1494.079 -788.777)" fill="#fff"/>
              <path id="Trazado_883721" data-name="Trazado 883721" d="M1608.932,933.1a.445.445,0,0,0-.754.105c-.108.261-.109.419-.354.434s-.567.641-.217.688.664.1.842-.157,1-.32.484-1.07" transform="translate(-1415.334 -821.43)" fill="#e28569"/>
              <path id="Trazado_883722" data-name="Trazado 883722" d="M1726.778,876.234a.81.81,0,0,1-.5-.57.512.512,0,0,0-.117.506.637.637,0,0,0,.406.377c.017-.016.211-.313.211-.313" transform="translate(-1519.828 -771.007)" fill="#e28569"/>
              <path id="Trazado_883723" data-name="Trazado 883723" d="M1743.014,875.588a.864.864,0,0,0,.463-.663.547.547,0,0,1,.184.523.681.681,0,0,1-.386.448c-.02-.015-.26-.307-.26-.307" transform="translate(-1534.693 -770.356)" fill="#e28569"/>
              <path id="Trazado_883724" data-name="Trazado 883724" d="M1727.139,876.483a1.4,1.4,0,0,0-1.309,1.617c.1.8.5,1.051.474,1.231s.626.065.626.065l1.466-.085a.3.3,0,0,1-.2-.381c.061-.319.4-.934.224-1.482a1.5,1.5,0,0,0-1.284-.965" transform="translate(-1519.554 -771.726)" fill="#3d2042"/>
              <path id="Trazado_883725" data-name="Trazado 883725" d="M1728.616,895.331s-.378.563.115.9a1.83,1.83,0,0,0,2.121-.351.314.314,0,0,0-.21-.481h-.009c-.312-.044-.608-.05-.709-.273s-.149-.376-.229-.326-.058.318-.182.4a1.136,1.136,0,0,1-.9.133" transform="translate(-1521.894 -787.846)" fill="#e28569"/>
              <path id="Trazado_883726" data-name="Trazado 883726" d="M1715.225,878.36s-.432-.622-1.893-.439a1.422,1.422,0,0,0,1.818.762Z" transform="translate(-1508.558 -772.964)" fill="#3d2042"/>
              <path id="Trazado_883727" data-name="Trazado 883727" d="M1746.242,880.183s.105-.643,1.918-.455c0,0-.73,1.454-1.79,1Z" transform="translate(-1537.535 -774.555)" fill="#3d2042"/>
              <path id="Trazado_883728" data-name="Trazado 883728" d="M1742.844,901.808a.142.142,0,1,1,.106.17.141.141,0,0,1-.106-.17" transform="translate(-1534.54 -793.93)" fill="#060633"/>
              <path id="Trazado_883729" data-name="Trazado 883729" d="M1734.99,903.179a.141.141,0,1,1,.106.17.141.141,0,0,1-.106-.17" transform="translate(-1527.624 -795.137)" fill="#060633"/>
              <path id="Trazado_883730" data-name="Trazado 883730" d="M1740.909,882.687a2.735,2.735,0,0,1-.2,1.466c-.006.033-.024.09-.028.118a.91.91,0,0,1-.671-.74c-.059-.472.465-.891.783-1.1a1.2,1.2,0,0,1,.12.255" transform="translate(-1532.04 -776.966)" fill="#fff"/>
              <path id="Trazado_883731" data-name="Trazado 883731" d="M1725.932,883.718c.391.091,1.177.353,1.13.987a.79.79,0,0,1-.871.741,2.126,2.126,0,0,1-.364-.974,1.541,1.541,0,0,1,.1-.754" transform="translate(-1519.551 -778.098)" fill="#fff"/>
              <path id="Trazado_883732" data-name="Trazado 883732" d="M1729.877,890.478a.134.134,0,1,1,.1.161.134.134,0,0,1-.1-.161" transform="translate(-1523.123 -783.959)" fill="#060633"/>
              <path id="Trazado_883733" data-name="Trazado 883733" d="M1741.881,889.274a.134.134,0,1,1,.1.161.134.134,0,0,1-.1-.161" transform="translate(-1533.692 -782.899)" fill="#060633"/>
              <path id="Trazado_883734" data-name="Trazado 883734" d="M1732.476,874.115a.467.467,0,0,1,.3-.1,1.394,1.394,0,0,1,.319.043c0,.063-.072.1-.135.113a1.091,1.091,0,0,0-.189.02,2.347,2.347,0,0,1,.512.2.458.458,0,0,1,.245.2.127.127,0,0,1,0,.122.16.16,0,0,1-.149.043.911.911,0,0,1-.348-.1.315.315,0,0,1,.124.285.09.09,0,0,1-.07.089.438.438,0,0,1-.4-.076.767.767,0,0,1-.241-.341.53.53,0,0,1-.057.242.181.181,0,0,1-.184-.118.526.526,0,0,1-.025-.233.487.487,0,0,1,.029-.175c.045-.1.192-.135.274-.208" transform="translate(-1525.146 -769.552)" fill="#e28569"/>
              <path id="Trazado_883735" data-name="Trazado 883735" d="M1839.9,1134.377v17.459c0,15.211-12.624,26.208-29.362,30.642-15.031-2.905-3.988-5.926-16.749-10.335-12.83-4.432-6.206-.521-21.43-11.212s-19.975-12.776-16.833-16.687,12.763-1.564,25.619-7.035,9.829-5.481,18.287-6.689,15.637-5.522,18.825-5.8c6.824-.588,16.02,5.383,21.643,9.653" transform="translate(-1544.901 -990.264)" fill="#56335b"/>
              <path id="Trazado_883736" data-name="Trazado 883736" d="M1919.355,1277.205s-.115-9.07-2.551-8.946,1.411,6.06,1.361,8.7Z" transform="translate(-1687 -1116.679)" fill="#b2c9c6"/>
              <path id="Trazado_883737" data-name="Trazado 883737" d="M1907.492,1288.081s-1.732-7.7-4.139-7.233,2.487,4.947,2.909,7.2Z" transform="translate(-1675.285 -1127.746)" fill="#9bbcb6"/>
              <path id="Trazado_883738" data-name="Trazado 883738" d="M1914.63,1295.713a12.953,12.953,0,0,0-1.717-4.216,19.045,19.045,0,0,0-1.335-1.948l.049-.04a19.042,19.042,0,0,1,1.34,1.955,13.012,13.012,0,0,1,1.725,4.238Z" transform="translate(-1683.11 -1135.39)" fill="#74a1bd"/>
              <path id="Trazado_883739" data-name="Trazado 883739" d="M1863.6,1291.626c.921.823-.144,2.326,1.216,2.706s1.3.246,1.587,1.1c0,0-.113.715.37.986,1.515.849,1.749-.682,3.532-1.021.5-.095.973-.2,1.4-.317a1.763,1.763,0,0,0-.226-1.265,2.024,2.024,0,0,0-.469-.516c-1.126-.894-1.829-.54-1.985-2.56s-2.646-.662-3.433-1.205-1.376-1.208-2.514-.687-.4,1.96.517,2.783" transform="translate(-1639.905 -1134.637)" fill="#cfd3a3"/>
              <path id="Trazado_883740" data-name="Trazado 883740" d="M1871.6,1298.13l.072-.037c-.016-.032-1.668-3.253-7.032-6.461l-.041.07c5.344,3.2,6.985,6.4,7,6.428" transform="translate(-1641.749 -1137.259)" fill="#c4c695"/>
              <path id="Trazado_883741" data-name="Trazado 883741" d="M1904.6,1306.6a2.979,2.979,0,0,0,1.51-.71l-.06-.055a2.971,2.971,0,0,1-1.468.685Z" transform="translate(-1676.954 -1149.764)" fill="#c4c695"/>
              <path id="Trazado_883742" data-name="Trazado 883742" d="M1899.816,1298.969a2.035,2.035,0,0,0,.775-1.525,5.5,5.5,0,0,0,.041-1.068l-.081.006c0,.02.144,1.955-.777,2.517Z" transform="translate(-1672.717 -1141.435)" fill="#c4c695"/>
              <path id="Trazado_883743" data-name="Trazado 883743" d="M1868.034,1306.271c.125-.024.2-.044.2-.045l-.022-.078a4.011,4.011,0,0,1-2.946-.417l-.042.07a4.071,4.071,0,0,0,2.81.471" transform="translate(-1642.296 -1149.672)" fill="#c4c695"/>
              <path id="Trazado_883744" data-name="Trazado 883744" d="M1874.985,1311.724a1.909,1.909,0,0,0,.987-.732,1.428,1.428,0,0,0,.215-.47l-.079-.016a1.7,1.7,0,0,1-1.149,1.141Z" transform="translate(-1650.868 -1153.877)" fill="#c4c695"/>
              <path id="Trazado_883745" data-name="Trazado 883745" d="M1882.1,1335.489a2.289,2.289,0,0,1,2.313-.411c1.4.488,1.911-1.263,3.044-.848s1.449-1.176,2.739-.434.123,1.11,1.075,1.54,1.873,1.627.276,1.535-1.6.829-3.562.614-1.219-.522-3.572-.368-3.391-.832-2.312-1.627" transform="translate(-1656.776 -1174.207)" fill="#3d2042"/>
              <path id="Trazado_883746" data-name="Trazado 883746" d="M2171.344,1337.981s-.115-9.069-2.551-8.946,1.411,6.06,1.361,8.7Z" transform="translate(-1908.871 -1170.191)" fill="#b2c9c6"/>
              <path id="Trazado_883747" data-name="Trazado 883747" d="M2159.481,1348.857s-1.732-7.7-4.14-7.233,2.487,4.947,2.909,7.2Z" transform="translate(-1897.156 -1181.258)" fill="#9bbcb6"/>
              <path id="Trazado_883748" data-name="Trazado 883748" d="M2166.618,1356.49a12.956,12.956,0,0,0-1.717-4.216,18.959,18.959,0,0,0-1.335-1.948l.048-.04a19.024,19.024,0,0,1,1.34,1.955,13.01,13.01,0,0,1,1.725,4.238Z" transform="translate(-1904.981 -1188.903)" fill="#74a1bd"/>
              <path id="Trazado_883749" data-name="Trazado 883749" d="M2198.775,1347.845s.729-7.857,3.177-7.7-1.832,5.226-1.961,7.515Z" transform="translate(-1935.982 -1179.967)" fill="#9bbcb6"/>
              <path id="Trazado_883750" data-name="Trazado 883750" d="M2204.012,1355.617a12.951,12.951,0,0,1,1.161-4.4,19.006,19.006,0,0,1,1.074-2.1l-.053-.033a19.04,19.04,0,0,0-1.078,2.111,13.012,13.012,0,0,0-1.167,4.424Z" transform="translate(-1940.539 -1187.84)" fill="#74a1bd"/>
              <path id="Trazado_883751" data-name="Trazado 883751" d="M2160.973,1380.673a2.29,2.29,0,0,1,2.313-.411c1.4.488,1.911-1.263,3.043-.848s1.45-1.176,2.739-.435.123,1.11,1.075,1.54,1.873,1.627.276,1.535-1.6.829-3.561.614-1.219-.522-3.572-.369-3.391-.832-2.312-1.627" transform="translate(-1902.322 -1213.991)" fill="#3d2042"/>
              <path id="Trazado_883752" data-name="Trazado 883752" d="M2032.628,1375.41s-.115-9.069-2.551-8.946,1.411,6.06,1.361,8.7Z" transform="translate(-1786.734 -1203.147)" fill="#b2c9c6"/>
              <path id="Trazado_883753" data-name="Trazado 883753" d="M2020.765,1386.285s-1.732-7.7-4.14-7.233,2.488,4.947,2.909,7.2Z" transform="translate(-1775.019 -1214.213)" fill="#9bbcb6"/>
              <path id="Trazado_883754" data-name="Trazado 883754" d="M2027.9,1393.918a12.953,12.953,0,0,0-1.717-4.216,18.965,18.965,0,0,0-1.335-1.948l.049-.04a19.089,19.089,0,0,1,1.34,1.955,13.016,13.016,0,0,1,1.725,4.238Z" transform="translate(-1782.844 -1221.857)" fill="#74a1bd"/>
              <path id="Trazado_883755" data-name="Trazado 883755" d="M2060.06,1385.273s.729-7.857,3.176-7.7-1.832,5.225-1.96,7.515Z" transform="translate(-1813.846 -1212.922)" fill="#9bbcb6"/>
              <path id="Trazado_883756" data-name="Trazado 883756" d="M2065.3,1393.045a12.948,12.948,0,0,1,1.162-4.4,19.114,19.114,0,0,1,1.073-2.1l-.053-.033a19.063,19.063,0,0,0-1.078,2.111,13.007,13.007,0,0,0-1.167,4.424Z" transform="translate(-1818.402 -1220.795)" fill="#74a1bd"/>
              <path id="Trazado_883757" data-name="Trazado 883757" d="M2022.256,1418.1a2.29,2.29,0,0,1,2.313-.411c1.4.488,1.911-1.263,3.043-.848s1.45-1.176,2.739-.435.123,1.11,1.075,1.54,1.873,1.627.276,1.535-1.6.829-3.561.614-1.219-.522-3.572-.369-3.391-.832-2.313-1.627" transform="translate(-1780.184 -1246.946)" fill="#3d2042"/>
              <path id="Trazado_883758" data-name="Trazado 883758" d="M2307.67,1389.835s-.115-9.069-2.551-8.946,1.41,6.06,1.361,8.7Z" transform="translate(-2028.904 -1215.848)" fill="#b2c9c6"/>
              <path id="Trazado_883759" data-name="Trazado 883759" d="M2295.807,1400.71s-1.731-7.7-4.139-7.233,2.487,4.947,2.909,7.2Z" transform="translate(-2017.189 -1226.914)" fill="#9bbcb6"/>
              <path id="Trazado_883760" data-name="Trazado 883760" d="M2302.944,1408.342a12.953,12.953,0,0,0-1.717-4.216,18.989,18.989,0,0,0-1.335-1.948l.048-.04a19.076,19.076,0,0,1,1.34,1.955,13.005,13.005,0,0,1,1.725,4.238Z" transform="translate(-2025.014 -1234.558)" fill="#74a1bd"/>
              <path id="Trazado_883761" data-name="Trazado 883761" d="M2335.1,1399.7s.729-7.857,3.176-7.7-1.832,5.225-1.96,7.515Z" transform="translate(-2056.015 -1225.623)" fill="#9bbcb6"/>
              <path id="Trazado_883762" data-name="Trazado 883762" d="M2340.34,1407.469a12.943,12.943,0,0,1,1.161-4.4,19,19,0,0,1,1.074-2.1l-.053-.033a19.067,19.067,0,0,0-1.078,2.111,13.008,13.008,0,0,0-1.167,4.425Z" transform="translate(-2060.572 -1233.495)" fill="#74a1bd"/>
              <path id="Trazado_883763" data-name="Trazado 883763" d="M2297.3,1432.526a2.29,2.29,0,0,1,2.313-.411c1.4.488,1.911-1.263,3.043-.848s1.45-1.176,2.739-.435.123,1.11,1.074,1.54,1.873,1.627.277,1.535-1.6.829-3.562.614-1.219-.522-3.572-.368-3.391-.832-2.312-1.627" transform="translate(-2022.354 -1259.647)" fill="#3d2042"/>
              <path id="Trazado_883764" data-name="Trazado 883764" d="M2045.553,1252.858s-.115-9.07-2.551-8.946,1.41,6.06,1.361,8.7Z" transform="translate(-1798.114 -1095.241)" fill="#b2c9c6"/>
              <path id="Trazado_883765" data-name="Trazado 883765" d="M2033.688,1263.732s-1.732-7.7-4.139-7.233,2.488,4.947,2.909,7.2Z" transform="translate(-1786.398 -1106.307)" fill="#9bbcb6"/>
              <path id="Trazado_883766" data-name="Trazado 883766" d="M2040.826,1271.365a12.951,12.951,0,0,0-1.717-4.216,18.987,18.987,0,0,0-1.335-1.948l.049-.04a19.059,19.059,0,0,1,1.34,1.955,13.011,13.011,0,0,1,1.725,4.238Z" transform="translate(-1794.224 -1113.952)" fill="#74a1bd"/>
              <path id="Trazado_883767" data-name="Trazado 883767" d="M2072.983,1262.721s.729-7.857,3.177-7.7-1.832,5.225-1.961,7.515Z" transform="translate(-1825.224 -1105.017)" fill="#9bbcb6"/>
              <path id="Trazado_883768" data-name="Trazado 883768" d="M2078.22,1270.492a12.954,12.954,0,0,1,1.161-4.4,18.969,18.969,0,0,1,1.074-2.1l-.053-.033a19.155,19.155,0,0,0-1.078,2.111,13.008,13.008,0,0,0-1.167,4.424Z" transform="translate(-1829.781 -1112.889)" fill="#74a1bd"/>
              <path id="Trazado_883769" data-name="Trazado 883769" d="M2035.18,1295.549a2.29,2.29,0,0,1,2.313-.411c1.4.488,1.911-1.263,3.043-.848s1.45-1.176,2.739-.435.123,1.11,1.075,1.54,1.873,1.627.276,1.535-1.6.829-3.562.614-1.219-.522-3.572-.368-3.391-.832-2.312-1.627" transform="translate(-1791.564 -1139.041)" fill="#3d2042"/>
              <path id="Trazado_883770" data-name="Trazado 883770" d="M2272,1150.817s-.115-9.07-2.551-8.946,1.411,6.06,1.361,8.7Z" transform="translate(-1997.498 -1005.397)" fill="#b2c9c6"/>
              <path id="Trazado_883771" data-name="Trazado 883771" d="M2260.139,1161.692s-1.732-7.7-4.139-7.234,2.488,4.947,2.909,7.2Z" transform="translate(-1985.784 -1016.463)" fill="#9bbcb6"/>
              <path id="Trazado_883772" data-name="Trazado 883772" d="M2267.275,1169.325a12.948,12.948,0,0,0-1.717-4.216,18.976,18.976,0,0,0-1.335-1.948l.048-.04a19.011,19.011,0,0,1,1.34,1.956,13.016,13.016,0,0,1,1.725,4.238Z" transform="translate(-1993.608 -1024.107)" fill="#74a1bd"/>
              <path id="Trazado_883773" data-name="Trazado 883773" d="M2299.432,1160.681s.729-7.857,3.177-7.7-1.832,5.226-1.961,7.515Z" transform="translate(-2024.609 -1015.173)" fill="#9bbcb6"/>
              <path id="Trazado_883774" data-name="Trazado 883774" d="M2304.669,1168.452a12.946,12.946,0,0,1,1.161-4.4,19.023,19.023,0,0,1,1.074-2.1l-.053-.033a19.054,19.054,0,0,0-1.078,2.111,13.013,13.013,0,0,0-1.167,4.425Z" transform="translate(-2029.165 -1023.045)" fill="#74a1bd"/>
              <path id="Trazado_883775" data-name="Trazado 883775" d="M2261.628,1193.509a2.29,2.29,0,0,1,2.313-.411c1.4.488,1.911-1.263,3.043-.848s1.45-1.176,2.739-.435.123,1.11,1.075,1.54,1.873,1.627.276,1.535-1.6.829-3.562.614-1.219-.522-3.572-.368-3.391-.832-2.312-1.627" transform="translate(-1990.948 -1049.196)" fill="#3d2042"/>
              <path id="Trazado_883776" data-name="Trazado 883776" d="M2347.244,1251.221s-.115-9.069-2.551-8.945,1.41,6.06,1.361,8.7Z" transform="translate(-2063.748 -1093.801)" fill="#b2c9c6"/>
              <path id="Trazado_883777" data-name="Trazado 883777" d="M2335.382,1262.1s-1.732-7.7-4.139-7.233,2.487,4.947,2.909,7.2Z" transform="translate(-2052.034 -1104.867)" fill="#9bbcb6"/>
              <path id="Trazado_883778" data-name="Trazado 883778" d="M2342.518,1269.729a12.955,12.955,0,0,0-1.717-4.216,18.816,18.816,0,0,0-1.335-1.948l.049-.04a19.042,19.042,0,0,1,1.34,1.955,13.02,13.02,0,0,1,1.725,4.238Z" transform="translate(-2059.857 -1112.511)" fill="#74a1bd"/>
              <path id="Trazado_883779" data-name="Trazado 883779" d="M2291.494,1265.643c.921.823-.144,2.326,1.215,2.706s1.3.246,1.587,1.095c0,0-.113.715.371.987,1.515.849,1.749-.683,3.532-1.021.5-.095.973-.2,1.4-.317a1.764,1.764,0,0,0-.226-1.265,2.03,2.03,0,0,0-.468-.516c-1.126-.894-1.829-.54-1.985-2.56s-2.646-.662-3.433-1.205-1.376-1.207-2.514-.687-.4,1.96.518,2.783" transform="translate(-2016.653 -1111.76)" fill="#cfd3a3"/>
              <path id="Trazado_883780" data-name="Trazado 883780" d="M2299.49,1272.146l.072-.037c-.016-.032-1.667-3.253-7.031-6.461l-.041.07c5.344,3.2,6.985,6.4,7,6.428" transform="translate(-2018.496 -1114.38)" fill="#c4c695"/>
              <path id="Trazado_883781" data-name="Trazado 883781" d="M2332.495,1280.616a2.981,2.981,0,0,0,1.51-.71l-.06-.055a2.971,2.971,0,0,1-1.468.685Z" transform="translate(-2053.704 -1126.886)" fill="#c4c695"/>
              <path id="Trazado_883782" data-name="Trazado 883782" d="M2327.705,1272.984a2.036,2.036,0,0,0,.775-1.525,5.525,5.525,0,0,0,.041-1.069l-.081.006c0,.02.144,1.956-.778,2.517Z" transform="translate(-2049.466 -1118.556)" fill="#c4c695"/>
              <path id="Trazado_883783" data-name="Trazado 883783" d="M2295.922,1280.287c.125-.024.2-.044.2-.045l-.023-.078a4.008,4.008,0,0,1-2.946-.417l-.042.07a4.072,4.072,0,0,0,2.81.471" transform="translate(-2019.045 -1126.793)" fill="#c4c695"/>
              <path id="Trazado_883784" data-name="Trazado 883784" d="M2302.872,1285.74a1.908,1.908,0,0,0,.987-.732,1.424,1.424,0,0,0,.215-.47l-.079-.016a1.7,1.7,0,0,1-1.15,1.141Z" transform="translate(-2027.614 -1130.999)" fill="#c4c695"/>
              <path id="Trazado_883785" data-name="Trazado 883785" d="M2309.983,1309.506a2.291,2.291,0,0,1,2.313-.411c1.4.488,1.911-1.263,3.043-.848s1.45-1.176,2.739-.435.124,1.11,1.075,1.54,1.873,1.627.276,1.535-1.6.829-3.562.614-1.219-.522-3.572-.368-3.392-.832-2.313-1.627" transform="translate(-2033.523 -1151.329)" fill="#3d2042"/>
              <path id="Trazado_883786" data-name="Trazado 883786" d="M2238.948,1456.086s-.115-9.069-2.551-8.945,1.411,6.06,1.361,8.7Z" transform="translate(-1968.395 -1274.181)" fill="#b2c9c6"/>
              <path id="Trazado_883787" data-name="Trazado 883787" d="M2227.085,1466.962s-1.732-7.7-4.139-7.233,2.488,4.947,2.909,7.2Z" transform="translate(-1956.68 -1285.247)" fill="#9bbcb6"/>
              <path id="Trazado_883788" data-name="Trazado 883788" d="M2234.222,1474.593a12.955,12.955,0,0,0-1.717-4.216,18.937,18.937,0,0,0-1.335-1.948l.048-.04a19.024,19.024,0,0,1,1.34,1.955,13.012,13.012,0,0,1,1.725,4.238Z" transform="translate(-1964.505 -1292.89)" fill="#74a1bd"/>
              <path id="Trazado_883789" data-name="Trazado 883789" d="M2183.2,1470.506c.921.823-.144,2.326,1.216,2.706s1.3.245,1.587,1.1c0,0-.113.715.371.986,1.515.849,1.749-.682,3.532-1.02.5-.094.973-.2,1.4-.317a1.76,1.76,0,0,0-.226-1.265,2.018,2.018,0,0,0-.469-.516c-1.126-.894-1.829-.54-1.985-2.56s-2.647-.662-3.433-1.205-1.377-1.207-2.514-.687-.4,1.96.517,2.783" transform="translate(-1921.3 -1292.139)" fill="#cfd3a3"/>
              <path id="Trazado_883790" data-name="Trazado 883790" d="M2191.194,1477.01l.072-.037c-.016-.032-1.668-3.253-7.032-6.461l-.041.07c5.344,3.2,6.985,6.4,7,6.428" transform="translate(-1923.143 -1294.76)" fill="#c4c695"/>
              <path id="Trazado_883791" data-name="Trazado 883791" d="M2224.2,1485.48a2.978,2.978,0,0,0,1.51-.71l-.06-.055a2.969,2.969,0,0,1-1.468.685Z" transform="translate(-1958.351 -1307.265)" fill="#c4c695"/>
              <path id="Trazado_883792" data-name="Trazado 883792" d="M2219.409,1477.849a2.038,2.038,0,0,0,.775-1.525,5.457,5.457,0,0,0,.041-1.069l-.081.007c0,.019.144,1.955-.777,2.517Z" transform="translate(-1954.113 -1298.936)" fill="#c4c695"/>
              <path id="Trazado_883793" data-name="Trazado 883793" d="M2187.625,1485.151c.125-.024.2-.044.2-.045l-.023-.078a4.009,4.009,0,0,1-2.946-.417l-.042.07a4.072,4.072,0,0,0,2.81.471" transform="translate(-1923.691 -1307.173)" fill="#c4c695"/>
              <path id="Trazado_883794" data-name="Trazado 883794" d="M2194.575,1490.6a1.91,1.91,0,0,0,.987-.732,1.432,1.432,0,0,0,.215-.47l-.079-.016a1.7,1.7,0,0,1-1.149,1.14Z" transform="translate(-1932.261 -1311.378)" fill="#c4c695"/>
              <path id="Trazado_883795" data-name="Trazado 883795" d="M2201.688,1514.37a2.29,2.29,0,0,1,2.313-.411c1.4.488,1.911-1.263,3.043-.848s1.449-1.176,2.739-.434.123,1.11,1.075,1.54,1.873,1.627.276,1.535-1.6.829-3.561.614-1.219-.522-3.572-.369-3.391-.832-2.313-1.627" transform="translate(-1938.171 -1331.709)" fill="#3d2042"/>
              <path id="Trazado_883796" data-name="Trazado 883796" d="M2214.644,1210s-.115-9.069-2.551-8.946,1.41,6.06,1.361,8.7Z" transform="translate(-1946.996 -1057.505)" fill="#b2c9c6"/>
              <path id="Trazado_883797" data-name="Trazado 883797" d="M2202.782,1220.874s-1.732-7.7-4.14-7.233,2.488,4.947,2.909,7.2Z" transform="translate(-1935.282 -1068.571)" fill="#9bbcb6"/>
              <path id="Trazado_883798" data-name="Trazado 883798" d="M2209.918,1228.506a12.951,12.951,0,0,0-1.717-4.216,18.976,18.976,0,0,0-1.335-1.948l.048-.04a18.985,18.985,0,0,1,1.34,1.955,13.022,13.022,0,0,1,1.725,4.238Z" transform="translate(-1943.107 -1076.215)" fill="#74a1bd"/>
              <path id="Trazado_883799" data-name="Trazado 883799" d="M2158.895,1224.42c.92.823-.144,2.326,1.216,2.706s1.3.246,1.587,1.1c0,0-.113.715.37.986,1.515.849,1.749-.683,3.532-1.021.5-.095.973-.2,1.4-.317a1.76,1.76,0,0,0-.226-1.265,2.018,2.018,0,0,0-.469-.516c-1.126-.894-1.829-.54-1.985-2.56s-2.646-.662-3.433-1.205-1.376-1.208-2.514-.687-.4,1.96.517,2.782" transform="translate(-1899.902 -1075.464)" fill="#cfd3a3"/>
              <path id="Trazado_883800" data-name="Trazado 883800" d="M2166.892,1230.924l.072-.037c-.016-.032-1.668-3.253-7.031-6.461l-.042.07c5.344,3.2,6.985,6.4,7,6.428" transform="translate(-1901.745 -1078.085)" fill="#c4c695"/>
              <path id="Trazado_883801" data-name="Trazado 883801" d="M2199.9,1239.394a2.978,2.978,0,0,0,1.509-.71l-.06-.055a2.97,2.97,0,0,1-1.468.685Z" transform="translate(-1936.953 -1090.591)" fill="#c4c695"/>
              <path id="Trazado_883802" data-name="Trazado 883802" d="M2195.106,1231.762a2.035,2.035,0,0,0,.775-1.525,5.478,5.478,0,0,0,.041-1.069l-.08.007c0,.019.144,1.955-.778,2.517Z" transform="translate(-1932.714 -1082.261)" fill="#c4c695"/>
              <path id="Trazado_883803" data-name="Trazado 883803" d="M2163.323,1239.065c.125-.024.2-.044.2-.045l-.023-.079a4.009,4.009,0,0,1-2.946-.417l-.042.07a4.073,4.073,0,0,0,2.81.471" transform="translate(-1902.293 -1090.498)" fill="#c4c695"/>
              <path id="Trazado_883804" data-name="Trazado 883804" d="M2170.274,1244.519a1.911,1.911,0,0,0,.988-.732,1.43,1.43,0,0,0,.215-.47l-.079-.016a1.7,1.7,0,0,1-1.149,1.14Z" transform="translate(-1910.865 -1094.704)" fill="#c4c695"/>
              <path id="Trazado_883805" data-name="Trazado 883805" d="M2177.385,1268.283a2.29,2.29,0,0,1,2.313-.411c1.4.488,1.911-1.263,3.043-.848s1.45-1.176,2.739-.435.123,1.11,1.075,1.54,1.873,1.627.276,1.535-1.6.829-3.562.614-1.219-.522-3.572-.368-3.391-.832-2.312-1.627" transform="translate(-1916.773 -1115.034)" fill="#3d2042"/>
              <path id="Trazado_883806" data-name="Trazado 883806" d="M2252.942,1053.282s-.686-.988-1.478-.93a1.354,1.354,0,0,0-1.062.479,1.26,1.26,0,0,0-.754.321.72.72,0,0,0-.026.651s-.477.315-.36.662,1.4.767,2.43.04a3.626,3.626,0,0,0,1.249-1.223" transform="translate(-1980.419 -926.576)" fill="#2f1a31"/>
              <path id="Trazado_883807" data-name="Trazado 883807" d="M2291.2,1018.971c.52-.353,2.739-1.753,2.739-1.753.365,1.4,2.381,4.978-.094,5.966-.579.231-3.357.5-4.6-1.174-.961-1.294.629-2.139,1.954-3.039" transform="translate(-2015.382 -895.642)" fill="#e28569"/>
              <path id="Trazado_883808" data-name="Trazado 883808" d="M2315.921,995.28s2.831-5.52,4.205-4.887.055,1.984,1,2.716.007,1.465-.09,2.131.352,1.77-.225,2.334a1.98,1.98,0,0,1-2.775.323,11.72,11.72,0,0,1-2.119-2.618" transform="translate(-2039.127 -871.979)" fill="#e28569"/>
              <path id="Trazado_883809" data-name="Trazado 883809" d="M2307.285,1077.175s0,0-.008-.01a.689.689,0,0,1-.272-.636l.167-1.226-.369.039v1.144a.591.591,0,0,1-.431.571c-.283.077-.586.125-.586.125a2.117,2.117,0,0,0,.912-.042.537.537,0,0,1,.29.016.731.731,0,0,0,.3.018" transform="translate(-2030.204 -946.785)" fill="#2f1a31"/>
              <path id="Trazado_883810" data-name="Trazado 883810" d="M2307.344,1054.02s0,2.774-.78,2.774c-.384,0-1.411-2.075-1.062-2.774a1.114,1.114,0,0,1,1.843,0" transform="translate(-2029.89 -927.616)" fill="#e28569"/>
              <path id="Trazado_883811" data-name="Trazado 883811" d="M2320.189,1077.175s0,0-.008-.01a.687.687,0,0,1-.272-.636l.167-1.226-.368.039v1.144a.591.591,0,0,1-.431.571c-.283.077-.586.125-.586.125a2.118,2.118,0,0,0,.912-.042.537.537,0,0,1,.29.016.731.731,0,0,0,.3.018" transform="translate(-2041.566 -946.785)" fill="#2f1a31"/>
              <path id="Trazado_883812" data-name="Trazado 883812" d="M2320.247,1054.02s0,2.774-.78,2.774c-.384,0-1.412-2.075-1.062-2.774a1.114,1.114,0,0,1,1.843,0" transform="translate(-2041.251 -927.616)" fill="#e28569"/>
              <path id="Trazado_883813" data-name="Trazado 883813" d="M2274.571,1039.982s-2.205,2.453-2.713,2.962-.022,1.238.751,1.172a11.984,11.984,0,0,0,2.721-1.122Z" transform="translate(-2000.146 -915.686)" fill="#e28569"/>
              <path id="Trazado_883814" data-name="Trazado 883814" d="M2271.347,1071.363s-.287.536-.172.813c0,0,.684-.3.657-.56a.352.352,0,0,0-.486-.254" transform="translate(-1999.705 -943.286)" fill="#56335b"/>
              <path id="Trazado_883815" data-name="Trazado 883815" d="M2274.877,1073.659s.1.4.419.414.541-.406.281-.58a.7.7,0,0,0-.549-.087Z" transform="translate(-2002.988 -945.095)" fill="#2f1a31"/>
              <path id="Trazado_883816" data-name="Trazado 883816" d="M2276.354,1065.311a.121.121,0,1,0-.057.161.121.121,0,0,0,.057-.161" transform="translate(-2004.087 -937.927)" fill="#060633"/>
              <path id="Trazado_883817" data-name="Trazado 883817" d="M2158.253,926.9s-.205.335,0,.566.643.1.587-.2a.677.677,0,0,0-.311-.435Z" transform="translate(-1900.223 -816.063)" fill="#2f1a31"/>
              <path id="Trazado_883818" data-name="Trazado 883818" d="M2148.891,912.271s-.037-.8-.506-1.051a.9.9,0,0,0-.77-.106.84.84,0,0,0-.54-.086.481.481,0,0,0-.246.359s-.381.009-.438.246.517.93,1.36.886a2.424,2.424,0,0,0,1.141-.248" transform="translate(-1889.856 -802.123)" fill="#2f1a31"/>
              <path id="Trazado_883819" data-name="Trazado 883819" d="M2159.221,920.653s.352-.069.782.515c.4.539.287,1.345.478,1.78a1.974,1.974,0,0,0,2.042.441c.481-.156,1.563-.712,1.69-.223a2.923,2.923,0,0,1-1.709,3.734,3.941,3.941,0,0,1-3.707-.946c-1.078-1.288.5-3.187.455-3.888-.025-.388-.793-.573-.6-1.051a.605.605,0,0,1,.564-.36" transform="translate(-1900.451 -810.617)" fill="#e28569"/>
              <path id="Trazado_883820" data-name="Trazado 883820" d="M2156.283,923.686s-.47.138-.564.362c0,0,.56.222.693.061a.284.284,0,0,0-.129-.422" transform="translate(-1898.072 -813.289)" fill="#56335b"/>
              <path id="Trazado_883821" data-name="Trazado 883821" d="M2181.754,909.193s1.106-5.118,2.365-4.9.477,1.605,1.41,2,.325,1.193.39,1.757.673,1.367.325,1.953a1.671,1.671,0,0,1-2.192.868,9.891,9.891,0,0,1-2.3-1.673" transform="translate(-1920.995 -796.208)" fill="#e28569"/>
              <path id="Trazado_883822" data-name="Trazado 883822" d="M2170.118,984.012l.177-1.3-.351.037v1.267a.324.324,0,0,1-.212.306,5,5,0,0,1-.757.181,1.928,1.928,0,0,0,.792-.022.957.957,0,0,1,.4.009.755.755,0,0,0,.239.006c.009,0-.04-.031-.1-.075a.432.432,0,0,1-.182-.413" transform="translate(-1909.744 -865.264)" fill="#2f1a31"/>
              <path id="Trazado_883823" data-name="Trazado 883823" d="M2170.457,962.433s0,2.643-.744,2.643a3.141,3.141,0,0,1-1.012-2.643,1.061,1.061,0,0,1,1.756,0" transform="translate(-1909.442 -846.996)" fill="#e28569"/>
              <path id="Trazado_883824" data-name="Trazado 883824" d="M2185.38,984.012l.176-1.3-.351.037v1.267a.324.324,0,0,1-.212.306,5,5,0,0,1-.757.181,1.931,1.931,0,0,0,.792-.022.954.954,0,0,1,.4.009.755.755,0,0,0,.239.006c.009,0-.04-.031-.1-.075a.43.43,0,0,1-.181-.413" transform="translate(-1923.181 -865.264)" fill="#2f1a31"/>
              <path id="Trazado_883825" data-name="Trazado 883825" d="M2185.719,962.433s0,2.643-.744,2.643a3.141,3.141,0,0,1-1.012-2.643,1.061,1.061,0,0,1,1.756,0" transform="translate(-1922.88 -846.996)" fill="#e28569"/>
              <path id="Trazado_883826" data-name="Trazado 883826" d="M2163.248,922.633a.1.1,0,1,0-.045.129.1.1,0,0,0,.045-.129" transform="translate(-1904.539 -812.313)" fill="#060633"/>
              <path id="Trazado_883827" data-name="Trazado 883827" d="M1204.6,1094.019a.283.283,0,0,1-.279-.24c-.278-1.833,1.2-4.421,1.262-4.531a.283.283,0,0,1,.49.282c-.014.025-1.441,2.526-1.193,4.163a.283.283,0,0,1-.237.322.269.269,0,0,1-.043,0" transform="translate(-1060.354 -958.939)" fill="#e29c6d"/>
            </g>
          </g>
        </g>
      </g>
    </g>
  </g>
</svg>
