<svg xmlns="http://www.w3.org/2000/svg" width="105.144" height="105.137" viewBox="0 0 105.144 105.137">
  <path id="cosecha_1_" data-name="cosecha (1)" d="M91.407,61.232c3,0,7.4-.566,10.288-3.45,4.638-4.638,3.278-13.191,3.218-13.553a1.315,1.315,0,0,0-1.081-1.081c-.364-.061-8.916-1.422-13.553,3.218a9.6,9.6,0,0,0-1.11,1.368V44.47c1.7-1.356,6.759-5.858,6.759-11.438,0-6.559-7.011-11.645-7.309-11.859a1.318,1.318,0,0,0-1.529,0c-.3.214-7.306,5.3-7.306,11.859,0,5.581,5.059,10.083,6.758,11.438v8.337A9.6,9.6,0,0,0,85.4,51.392c-4.638-4.639-13.189-3.281-13.553-3.219a1.312,1.312,0,0,0-1.08,1.08c-.061.362-1.421,8.915,3.219,13.553,2.885,2.887,7.283,3.45,10.285,3.45.915,0,1.7-.052,2.273-.107v7.732A9.6,9.6,0,0,0,85.4,72.466c-4.638-4.638-13.189-3.28-13.553-3.218a1.312,1.312,0,0,0-1.08,1.08c-.061.362-1.421,8.915,3.219,13.553,2.885,2.887,7.283,3.45,10.285,3.45.915,0,1.7-.053,2.273-.108V96.3A166.169,166.169,0,0,0,53.9,93.139V77.358c.523.047,1.206.089,2,.089,2.817,0,6.952-.529,9.665-3.244,4.361-4.362,3.085-12.387,3.029-12.727A1.316,1.316,0,0,0,67.515,60.4c-.34-.057-8.365-1.335-12.727,3.028a8.955,8.955,0,0,0-.886,1.054V57.689c.523.047,1.205.089,2,.089,2.818,0,6.952-.531,9.666-3.246,4.361-4.36,3.085-12.386,3.029-12.726a1.315,1.315,0,0,0-1.081-1.081c-.34-.058-8.366-1.334-12.727,3.029a8.874,8.874,0,0,0-.886,1.054V38.017c.523.047,1.206.09,2,.09,2.817,0,6.952-.53,9.665-3.245C69.928,30.5,68.652,22.475,68.6,22.135a1.315,1.315,0,0,0-1.081-1.081c-.34-.056-8.366-1.332-12.727,3.029a8.954,8.954,0,0,0-.886,1.054V22.415c1.626-1.3,6.308-5.506,6.308-10.717,0-6.168-6.578-10.94-6.858-11.14a1.315,1.315,0,0,0-1.527,0c-.282.2-6.859,4.971-6.859,11.14,0,5.211,4.681,9.413,6.308,10.717v7.458a8.863,8.863,0,0,0-.917-1.1C45.994,24.41,37.97,25.688,37.63,25.746a1.313,1.313,0,0,0-1.081,1.08c-.056.341-1.333,8.365,3.029,12.727,2.714,2.715,6.848,3.246,9.666,3.246.808,0,1.5-.044,2.029-.092v6.837a8.855,8.855,0,0,0-.917-1.1c-4.362-4.363-12.386-3.085-12.726-3.028A1.314,1.314,0,0,0,36.549,46.5c-.056.34-1.333,8.365,3.029,12.726,2.714,2.715,6.848,3.245,9.664,3.245.81,0,1.505-.044,2.031-.092V93.14A165.9,165.9,0,0,0,18.6,96.313v-9.09c.573.055,1.358.108,2.273.108,3,0,7.4-.565,10.285-3.45,4.639-4.638,3.279-13.191,3.219-13.553a1.313,1.313,0,0,0-1.081-1.08c-.364-.062-8.916-1.423-13.552,3.218A9.539,9.539,0,0,0,18.6,73.881V66.149c.573.055,1.358.107,2.273.107,3,0,7.4-.564,10.285-3.45,4.639-4.638,3.279-13.191,3.219-13.553a1.313,1.313,0,0,0-1.081-1.08c-.363-.063-8.917-1.42-13.552,3.219A9.495,9.495,0,0,0,18.6,52.808V44.469c1.7-1.356,6.757-5.858,6.757-11.438,0-6.559-7.009-11.645-7.306-11.859a1.316,1.316,0,0,0-1.528,0c-.3.214-7.309,5.3-7.309,11.859,0,5.581,5.06,10.083,6.759,11.438v3.264a9.54,9.54,0,0,0-1.111-1.368c-4.637-4.639-13.189-3.279-13.552-3.218A1.315,1.315,0,0,0,.232,44.229c-.06.362-1.421,8.915,3.218,13.553,2.887,2.885,7.287,3.45,10.287,3.45.9,0,1.669-.051,2.239-.105v7.68a9.477,9.477,0,0,0-1.111-1.367C10.228,62.8,1.676,64.162,1.313,64.223A1.315,1.315,0,0,0,.232,65.3c-.06.362-1.421,8.915,3.218,13.553,2.885,2.885,7.284,3.448,10.285,3.448.9,0,1.67-.05,2.241-.1V96.914c-6.72,1.628-12.085,3.715-15.433,6.161a1.314,1.314,0,0,0,1.55,2.123c7.734-5.649,28.035-9.444,50.517-9.444,22.39,0,42.662,3.775,50.448,9.394a1.314,1.314,0,0,0,1.538-2.131c-3.365-2.428-8.726-4.5-15.427-6.119V82.2c.57.054,1.342.1,2.241.1,3,0,7.4-.563,10.285-3.448,4.638-4.638,3.278-13.191,3.218-13.553a1.315,1.315,0,0,0-1.081-1.081c-.364-.062-8.916-1.422-13.553,3.218a9.538,9.538,0,0,0-1.11,1.367v-7.68c.57.054,1.34.105,2.238.105Zm.731-13.008c2.888-2.887,8.136-2.778,10.294-2.594.19,2.16.3,7.4-2.6,10.293s-8.13,2.775-10.293,2.595C89.357,56.355,89.252,51.111,92.138,48.224Zm-6,15.32c-2.158.193-7.4.3-10.293-2.6s-2.779-8.134-2.595-10.294c2.159-.188,7.395-.3,10.293,2.6S86.318,61.384,86.134,63.544Zm0,21.075c-2.158.193-7.4.3-10.293-2.6s-2.779-8.134-2.595-10.294c2.164-.187,7.4-.3,10.293,2.595S86.318,82.459,86.134,84.619ZM56.647,65.282c2.635-2.634,7.413-2.572,9.464-2.4.167,2.048.234,6.828-2.4,9.464s-7.41,2.574-9.463,2.4c-.168-2.048-.234-6.828,2.4-9.464Zm0-19.669c2.637-2.636,7.42-2.572,9.464-2.4.167,2.048.234,6.828-2.4,9.464s-7.417,2.574-9.463,2.4c-.168-2.048-.234-6.828,2.4-9.464Zm0-19.67c2.637-2.637,7.42-2.574,9.464-2.4.167,2.048.234,6.829-2.4,9.465s-7.41,2.572-9.463,2.4c-.168-2.048-.234-6.827,2.4-9.463ZM50.9,40.1c-2.047.171-6.829.234-9.464-2.4s-2.571-7.415-2.4-9.463c2.052-.172,6.829-.234,9.464,2.4s2.571,7.417,2.4,9.465Zm0,19.669c-2.052.171-6.829.234-9.464-2.4s-2.571-7.416-2.4-9.464c2.052-.17,6.829-.234,9.464,2.4S51.069,57.718,50.9,59.766ZM21.606,74.324c2.888-2.887,8.133-2.78,10.294-2.594.19,2.16.3,7.4-2.6,10.293S21.17,84.807,19.01,84.618C18.82,82.459,18.708,77.222,21.606,74.324Zm0-21.074c2.885-2.886,8.136-2.779,10.294-2.595.19,2.16.3,7.4-2.6,10.293S21.17,63.731,19.01,63.543C18.82,61.384,18.708,56.147,21.606,53.25Zm-6,5.269c-2.168.18-7.408.29-10.294-2.595S2.529,47.79,2.714,45.63c2.166-.188,7.4-.3,10.293,2.595S15.787,56.355,15.6,58.519Zm0,21.073c-2.163.188-7.409.293-10.294-2.594S2.529,68.865,2.714,66.7c2.161-.193,7.4-.3,10.293,2.595S15.787,77.43,15.6,79.592ZM11.846,33.031c0-4.08,3.783-7.715,5.443-9.112,1.661,1.4,5.443,5.032,5.443,9.112s-3.782,7.715-5.443,9.114c-1.66-1.4-5.443-5.034-5.443-9.114ZM47.594,11.7c0-3.73,3.429-7.064,4.994-8.392,1.567,1.325,4.993,4.648,4.993,8.392s-3.429,7.064-5,8.392C51.02,18.766,47.594,15.442,47.594,11.7ZM92.138,69.3c2.888-2.887,8.136-2.78,10.294-2.594.19,2.16.3,7.4-2.6,10.292s-8.133,2.781-10.3,2.594c-.189-2.16-.3-7.4,2.6-10.292ZM82.412,33.031c0-4.08,3.782-7.715,5.442-9.112,1.661,1.4,5.444,5.032,5.444,9.112s-3.786,7.718-5.445,9.115C86.193,40.752,82.412,37.128,82.412,33.031Zm0,0" transform="translate(-0.001 -0.314)" fill="#006d36"/>
</svg>
