<svg xmlns="http://www.w3.org/2000/svg" xmlns:xlink="http://www.w3.org/1999/xlink" width="165.314" height="142.016" viewBox="0 0 165.314 142.016">
  <defs>
    <clipPath id="clip-path">
      <rect id="Rectángulo_404362" data-name="Rectángulo 404362" width="139.35" height="142.016" fill="none"/>
    </clipPath>
    <clipPath id="clip-path-3">
      <rect id="Rectángulo_404305" data-name="Rectángulo 404305" width="32.773" height="17.392" fill="none"/>
    </clipPath>
    <clipPath id="clip-path-4">
      <rect id="Rectángulo_404306" data-name="Rectángulo 404306" width="19.823" height="30.956" fill="none"/>
    </clipPath>
    <clipPath id="clip-path-5">
      <rect id="Rectángulo_404307" data-name="Rectángulo 404307" width="4.248" height="9.601" fill="none"/>
    </clipPath>
    <clipPath id="clip-path-6">
      <rect id="Rectángulo_404308" data-name="Rectángulo 404308" width="2.251" height="10.376" fill="none"/>
    </clipPath>
    <clipPath id="clip-path-7">
      <rect id="Rectángulo_404309" data-name="Rectángulo 404309" width="10.107" height="3.251" fill="none"/>
    </clipPath>
    <clipPath id="clip-path-8">
      <rect id="Rectángulo_404310" data-name="Rectángulo 404310" width="2.263" height="10.342" fill="none"/>
    </clipPath>
    <clipPath id="clip-path-9">
      <rect id="Rectángulo_404311" data-name="Rectángulo 404311" width="10.362" height="2.347" fill="none"/>
    </clipPath>
    <clipPath id="clip-path-10">
      <rect id="Rectángulo_404312" data-name="Rectángulo 404312" width="3.276" height="10.046" fill="none"/>
    </clipPath>
    <clipPath id="clip-path-11">
      <rect id="Rectángulo_404313" data-name="Rectángulo 404313" width="10.358" height="2.168" fill="none"/>
    </clipPath>
    <clipPath id="clip-path-12">
      <rect id="Rectángulo_404314" data-name="Rectángulo 404314" width="4.703" height="9.35" fill="none"/>
    </clipPath>
    <clipPath id="clip-path-13">
      <rect id="Rectángulo_404315" data-name="Rectángulo 404315" width="10.002" height="3.387" fill="none"/>
    </clipPath>
    <clipPath id="clip-path-14">
      <rect id="Rectángulo_404316" data-name="Rectángulo 404316" width="5.291" height="8.983" fill="none"/>
    </clipPath>
    <clipPath id="clip-path-15">
      <rect id="Rectángulo_404317" data-name="Rectángulo 404317" width="9.762" height="3.928" fill="none"/>
    </clipPath>
    <clipPath id="clip-path-16">
      <rect id="Rectángulo_404318" data-name="Rectángulo 404318" width="7.027" height="7.658" fill="none"/>
    </clipPath>
    <clipPath id="clip-path-17">
      <rect id="Rectángulo_404319" data-name="Rectángulo 404319" width="8.773" height="5.6" fill="none"/>
    </clipPath>
    <clipPath id="clip-path-18">
      <rect id="Rectángulo_404320" data-name="Rectángulo 404320" width="7.111" height="7.58" fill="none"/>
    </clipPath>
    <clipPath id="clip-path-19">
      <rect id="Rectángulo_404321" data-name="Rectángulo 404321" width="3.576" height="9.922" fill="none"/>
    </clipPath>
    <clipPath id="clip-path-20">
      <rect id="Rectángulo_404322" data-name="Rectángulo 404322" width="10.312" height="2.416" fill="none"/>
    </clipPath>
    <clipPath id="clip-path-21">
      <rect id="Rectángulo_404323" data-name="Rectángulo 404323" width="4.765" height="9.313" fill="none"/>
    </clipPath>
    <clipPath id="clip-path-22">
      <rect id="Rectángulo_404324" data-name="Rectángulo 404324" width="9.979" height="3.443" fill="none"/>
    </clipPath>
    <clipPath id="clip-path-23">
      <rect id="Rectángulo_404325" data-name="Rectángulo 404325" width="6.038" height="8.46" fill="none"/>
    </clipPath>
    <clipPath id="clip-path-24">
      <rect id="Rectángulo_404326" data-name="Rectángulo 404326" width="9.389" height="4.635" fill="none"/>
    </clipPath>
    <clipPath id="clip-path-25">
      <rect id="Rectángulo_404327" data-name="Rectángulo 404327" width="7.547" height="7.146" fill="none"/>
    </clipPath>
    <clipPath id="clip-path-26">
      <rect id="Rectángulo_404328" data-name="Rectángulo 404328" width="8.361" height="6.174" fill="none"/>
    </clipPath>
    <clipPath id="clip-path-27">
      <rect id="Rectángulo_404329" data-name="Rectángulo 404329" width="8.061" height="6.561" fill="none"/>
    </clipPath>
    <clipPath id="clip-path-28">
      <rect id="Rectángulo_404330" data-name="Rectángulo 404330" width="7.875" height="6.783" fill="none"/>
    </clipPath>
    <clipPath id="clip-path-29">
      <rect id="Rectángulo_404331" data-name="Rectángulo 404331" width="9.278" height="4.855" fill="none"/>
    </clipPath>
    <clipPath id="clip-path-30">
      <rect id="Rectángulo_404332" data-name="Rectángulo 404332" width="6.242" height="8.31" fill="none"/>
    </clipPath>
    <clipPath id="clip-path-31">
      <path id="Trazado_883414" data-name="Trazado 883414" d="M125.837,88.585a4.172,4.172,0,1,0,4.173-4.173,4.172,4.172,0,0,0-4.173,4.173" transform="translate(-125.837 -84.412)" fill="none"/>
    </clipPath>
    <clipPath id="clip-path-33">
      <path id="Trazado_883419" data-name="Trazado 883419" d="M229.115,165.792a4.172,4.172,0,1,0,4.172-4.173,4.172,4.172,0,0,0-4.172,4.173" transform="translate(-229.115 -161.619)" fill="none"/>
    </clipPath>
    <clipPath id="clip-path-35">
      <path id="Trazado_883424" data-name="Trazado 883424" d="M125.837,245.4a4.172,4.172,0,1,0,4.173-4.173,4.172,4.172,0,0,0-4.173,4.173" transform="translate(-125.837 -241.232)" fill="none"/>
    </clipPath>
    <clipPath id="clip-path-37">
      <path id="Trazado_883435" data-name="Trazado 883435" d="M221.344,246.293l-17.379,42.855h40.207l-17.379-42.855Z" transform="translate(-203.965 -246.293)" fill="none"/>
    </clipPath>
    <clipPath id="clip-path-39">
      <rect id="Rectángulo_404353" data-name="Rectángulo 404353" width="21.531" height="42.855" fill="none"/>
    </clipPath>
    <clipPath id="clip-path-40">
      <rect id="Rectángulo_404354" data-name="Rectángulo 404354" width="11.71" height="27.902" fill="none"/>
    </clipPath>
    <clipPath id="clip-path-41">
      <path id="Trazado_883439" data-name="Trazado 883439" d="M72.605,297.986,62.454,323.018H85.939L75.788,297.986Z" transform="translate(-62.454 -297.986)" fill="none"/>
    </clipPath>
    <clipPath id="clip-path-43">
      <rect id="Rectángulo_404359" data-name="Rectángulo 404359" width="12.577" height="25.032" fill="none"/>
    </clipPath>
    <clipPath id="clip-path-44">
      <rect id="Rectángulo_404360" data-name="Rectángulo 404360" width="6.84" height="16.298" fill="none"/>
    </clipPath>
  </defs>
  <g id="Grupo_1104329" data-name="Grupo 1104329" transform="translate(-704.336 -10242.648)">
    <circle id="Elipse_11628" data-name="Elipse 11628" cx="71.008" cy="71.008" r="71.008" transform="translate(724.958 10242.648)" fill="#ffde9c"/>
    <g id="Grupo_1102661" data-name="Grupo 1102661" transform="translate(791.858 10289.416) rotate(90)">
      <path id="Trazado_877639" data-name="Trazado 877639" d="M2.095,0A2.088,2.088,0,1,0,4.185,2.089,2.092,2.092,0,0,0,2.095,0" transform="translate(0 83.346)" fill="#d93a04"/>
      <path id="Trazado_877640" data-name="Trazado 877640" d="M2.095,0A2.088,2.088,0,1,0,4.185,2.089,2.092,2.092,0,0,0,2.095,0" transform="translate(0 66.678)" fill="#d93a04"/>
      <path id="Trazado_877641" data-name="Trazado 877641" d="M2.095,0A2.088,2.088,0,1,0,4.185,2.091,2.09,2.09,0,0,0,2.095,0" transform="translate(0 50.009)" fill="#d93a04"/>
      <path id="Trazado_877642" data-name="Trazado 877642" d="M2.095,0A2.088,2.088,0,1,0,4.185,2.091,2.091,2.091,0,0,0,2.095,0" transform="translate(0 33.341)" fill="#d93a04"/>
      <path id="Trazado_877643" data-name="Trazado 877643" d="M2.095,0A2.09,2.09,0,1,0,4.185,2.091,2.093,2.093,0,0,0,2.095,0" transform="translate(0 16.668)" fill="#d93a04"/>
      <path id="Trazado_877644" data-name="Trazado 877644" d="M2.095,0A2.09,2.09,0,1,0,4.185,2.091,2.093,2.093,0,0,0,2.095,0" transform="translate(0)" fill="#d93a04"/>
      <path id="Trazado_877645" data-name="Trazado 877645" d="M2.091,0A2.088,2.088,0,1,0,4.185,2.089,2.09,2.09,0,0,0,2.091,0" transform="translate(9.39 83.346)" fill="#d93a04"/>
      <path id="Trazado_877646" data-name="Trazado 877646" d="M2.091,0A2.088,2.088,0,1,0,4.185,2.089,2.09,2.09,0,0,0,2.091,0" transform="translate(9.39 66.678)" fill="#d93a04"/>
      <path id="Trazado_877647" data-name="Trazado 877647" d="M2.091,0A2.088,2.088,0,1,0,4.185,2.091,2.087,2.087,0,0,0,2.091,0" transform="translate(9.39 50.009)" fill="#d93a04"/>
      <path id="Trazado_877648" data-name="Trazado 877648" d="M2.091,0A2.088,2.088,0,1,0,4.185,2.091,2.088,2.088,0,0,0,2.091,0" transform="translate(9.39 33.341)" fill="#d93a04"/>
      <path id="Trazado_877649" data-name="Trazado 877649" d="M2.091,0A2.09,2.09,0,1,0,4.185,2.091,2.091,2.091,0,0,0,2.091,0" transform="translate(9.39 16.668)" fill="#d93a04"/>
      <path id="Trazado_877650" data-name="Trazado 877650" d="M2.091,0A2.09,2.09,0,1,0,4.185,2.091,2.091,2.091,0,0,0,2.091,0" transform="translate(9.39)" fill="#d93a04"/>
      <path id="Trazado_877651" data-name="Trazado 877651" d="M2.091,0A2.088,2.088,0,1,0,4.185,2.089,2.089,2.089,0,0,0,2.091,0" transform="translate(18.779 83.346)" fill="#d93a04"/>
      <path id="Trazado_877652" data-name="Trazado 877652" d="M2.091,0A2.088,2.088,0,1,0,4.185,2.089,2.089,2.089,0,0,0,2.091,0" transform="translate(18.779 66.678)" fill="#d93a04"/>
      <path id="Trazado_877653" data-name="Trazado 877653" d="M2.091,0A2.088,2.088,0,1,0,4.185,2.091,2.086,2.086,0,0,0,2.091,0" transform="translate(18.779 50.009)" fill="#d93a04"/>
      <path id="Trazado_877654" data-name="Trazado 877654" d="M2.091,0A2.088,2.088,0,1,0,4.185,2.091,2.087,2.087,0,0,0,2.091,0" transform="translate(18.779 33.341)" fill="#d93a04"/>
      <path id="Trazado_877655" data-name="Trazado 877655" d="M2.091,0A2.09,2.09,0,1,0,4.185,2.091,2.09,2.09,0,0,0,2.091,0" transform="translate(18.779 16.668)" fill="#d93a04"/>
      <path id="Trazado_877656" data-name="Trazado 877656" d="M2.091,0A2.09,2.09,0,1,0,4.185,2.091,2.09,2.09,0,0,0,2.091,0" transform="translate(18.779)" fill="#d93a04"/>
      <path id="Trazado_877657" data-name="Trazado 877657" d="M2.091,0A2.088,2.088,0,1,0,4.185,2.089,2.092,2.092,0,0,0,2.091,0" transform="translate(28.169 83.346)" fill="#d93a04"/>
      <path id="Trazado_877658" data-name="Trazado 877658" d="M2.091,0A2.088,2.088,0,1,0,4.185,2.089,2.092,2.092,0,0,0,2.091,0" transform="translate(28.169 66.678)" fill="#d93a04"/>
      <path id="Trazado_877659" data-name="Trazado 877659" d="M2.091,0A2.088,2.088,0,1,0,4.185,2.091,2.09,2.09,0,0,0,2.091,0" transform="translate(28.169 50.009)" fill="#d93a04"/>
      <path id="Trazado_877660" data-name="Trazado 877660" d="M2.091,0A2.088,2.088,0,1,0,4.185,2.091,2.091,2.091,0,0,0,2.091,0" transform="translate(28.169 33.341)" fill="#d93a04"/>
      <path id="Trazado_877661" data-name="Trazado 877661" d="M2.091,0A2.09,2.09,0,1,0,4.185,2.091,2.093,2.093,0,0,0,2.091,0" transform="translate(28.169 16.668)" fill="#d93a04"/>
      <path id="Trazado_877662" data-name="Trazado 877662" d="M2.091,4.18A2.09,2.09,0,1,0,0,2.089,2.092,2.092,0,0,0,2.091,4.18" transform="translate(28.169)" fill="#d93a04"/>
    </g>
    <g id="Grupo_1103851" data-name="Grupo 1103851" transform="translate(730.299 10242.648)">
      <g id="Grupo_1103850" data-name="Grupo 1103850" clip-path="url(#clip-path)">
        <g id="Grupo_1103817" data-name="Grupo 1103817">
          <g id="Grupo_1103816" data-name="Grupo 1103816" clip-path="url(#clip-path)">
            <path id="Trazado_883318" data-name="Trazado 883318" d="M140.671,355.293c0,3.865-31.023,7-69.292,7s-69.292-3.133-69.292-7,31.023-7,69.292-7,69.292,3.133,69.292,7" transform="translate(-1.321 -220.275)" fill="#edf0fc"/>
            <path id="Trazado_883319" data-name="Trazado 883319" d="M51.2,302.214c-2.307.016-1.207,7.5-1.207,7.5s-3.428-8.095-6.064-8.386-.321,6.769-.321,6.769-6.852-7.673-8.623-7.223S36.46,305.6,36.46,305.6s-11.362-5.715-12.367-3.546,10.7,7.137,10.7,7.137-5.363.294-4.561,1.937,11.086,1.9,11.086,1.9-6.881,2.8-4.954,4.624,10.318-.8,10.318-.8-6.417,4-4.937,5.771S56.805,317.2,56.805,317.2s-3.3-15.007-5.6-14.991" transform="translate(-15.199 -190.271)" fill="#eb725f"/>
            <path id="Trazado_883320" data-name="Trazado 883320" d="M57.092,312.643l.675,2.619c.219.874.469,1.741.7,2.611l.62,2.266-2.128-1.02-3.477-1.633c-.405-1.07-.81-2.139-1.246-3.2l-.667-1.617c-.237-.533-.46-1.072-.709-1.6.159.563.344,1.116.515,1.674l.556,1.659c.319.949.662,1.889,1.007,2.827l-4.191-1.968-2.294-1.047c-.451-.757-.9-1.514-1.381-2.255l-.74-1.143c-.26-.373-.508-.754-.779-1.12.188.415.4.817.6,1.225l.638,1.2c.321.6.659,1.2,1,1.786l-5.3-2.418c-2.759-1.24-5.521-2.474-8.3-3.665,2.708,1.35,5.435,2.659,8.166,3.96l5.324,2.5c-.7.129-1.392.261-2.084.415-.889.193-1.777.392-2.657.637.91-.073,1.813-.191,2.714-.316s1.793-.273,2.686-.426l2.231,1.048,4.237,1.934c-.954.354-1.908.709-2.852,1.09-1.088.433-2.173.872-3.242,1.356,1.129-.318,2.242-.681,3.353-1.05s2.195-.754,3.286-1.146l3.471,1.585,2.155.964-2.138,1.008c-.818.388-1.642.764-2.452,1.167-1.629.791-3.255,1.588-4.862,2.427,1.68-.68,3.341-1.4,5-2.132.833-.357,1.652-.741,2.478-1.113l2.473-1.122.015-.007,1.475.659c1.387.6,2.768,1.22,4.161,1.812-1.352-.679-2.716-1.333-4.073-2l-1.457-.7,0-.016-.751-2.6c-.253-.865-.492-1.734-.761-2.595l-.789-2.587c-.278-.858-.542-1.72-.832-2.575.2.881.422,1.754.632,2.631" transform="translate(-20.359 -194.684)" fill="#f9ab43"/>
            <g id="Grupo_1103734" data-name="Grupo 1103734" transform="translate(8.833 110.582)" opacity="0.1">
              <g id="Grupo_1103733" data-name="Grupo 1103733">
                <g id="Grupo_1103732" data-name="Grupo 1103732" clip-path="url(#clip-path-3)">
                  <path id="Trazado_883321" data-name="Trazado 883321" d="M35.215,306.227c-2.975-1.407-10.322-4.668-11.121-2.943-.311.671.6,1.609,1.994,2.585a23.79,23.79,0,0,1,9.127.357" transform="translate(-24.033 -302.08)" fill="#0046a0"/>
                  <path id="Trazado_883322" data-name="Trazado 883322" d="M75.649,308.811c5.385,2.743,9.41,6.535,11.19,10.233,1.232-.616,2.032-1.041,2.032-1.041s-3.3-15.007-5.6-14.991-1.207,7.5-1.207,7.5-3.428-8.1-6.064-8.386c-2.469-.273-.6,5.9-.348,6.686" transform="translate(-56.099 -301.652)" fill="#0046a0"/>
                  <path id="Trazado_883323" data-name="Trazado 883323" d="M54.126,305.228a34.762,34.762,0,0,1,5.372,1.83q.992.43,1.932.908c-.893-.988-6.87-7.51-8.507-7.094-1.45.369.462,3.3,1.2,4.356" transform="translate(-41.969 -300.853)" fill="#0046a0"/>
                </g>
              </g>
            </g>
            <path id="Trazado_883324" data-name="Trazado 883324" d="M286.463,260.579c.236-2.3-7.321-2.02-7.321-2.02s8.421-2.522,9-5.111-6.693-1.059-6.693-1.059,8.376-5.973,8.122-7.782-4.864.948-4.864.948,6.923-10.669,4.876-11.9-8.264,9.859-8.264,9.859.294-5.363-1.426-4.746-3.1,10.811-3.1,10.811-2.032-7.146-4.055-5.43-.332,10.344-.332,10.344-3.276-6.816-5.2-5.538,3.746,15.559,3.746,15.559,15.277-1.636,15.513-3.931" transform="translate(-168.739 -147.709)" fill="#eb725f"/>
            <path id="Trazado_883325" data-name="Trazado 883325" d="M284.115,265.581l-2.677.385c-.893.122-1.782.275-2.672.413l-2.32.369,1.246-2,2-3.278c1.107-.285,2.215-.572,3.315-.889l1.68-.487c.556-.177,1.116-.34,1.669-.53-.577.1-1.147.219-1.721.328l-1.709.372c-.978.213-1.95.451-2.921.692L282.423,257l1.292-2.166c.8-.365,1.6-.731,2.392-1.127l1.217-.611c.4-.218.8-.422,1.2-.652-.433.141-.856.308-1.283.462l-1.266.5c-.634.253-1.26.525-1.885.8l2.982-5c1.535-2.607,3.063-5.218,4.551-7.852-1.638,2.544-3.237,5.112-4.829,7.684l-3.068,5.019c-.052-.706-.108-1.413-.185-2.117-.094-.9-.2-1.81-.343-2.711-.028.913-.008,1.823.018,2.732s.076,1.812.13,2.716l-1.285,2.1-2.386,4c-.247-.987-.5-1.974-.772-2.954-.312-1.128-.63-2.255-.994-3.371.193,1.157.432,2.3.677,3.448s.51,2.264.781,3.392l-1.955,3.277-1.194,2.037-.767-2.236c-.3-.855-.58-1.715-.892-2.565-.608-1.706-1.223-3.409-1.881-5.1.492,1.744,1.029,3.474,1.572,5.2.263.866.556,1.723.835,2.584l.845,2.581,0,.015-.817,1.394c-.751,1.313-1.515,2.618-2.256,3.938.823-1.27,1.622-2.554,2.434-3.83l.853-1.372.017,0,2.664-.462c.888-.158,1.778-.3,2.663-.473l2.657-.5c.883-.182,1.769-.351,2.65-.545-.9.1-1.789.228-2.684.34" transform="translate(-172.451 -152.642)" fill="#f9ab43"/>
            <g id="Grupo_1103737" data-name="Grupo 1103737" transform="translate(101.399 85.845)" opacity="0.1">
              <g id="Grupo_1103736" data-name="Grupo 1103736">
                <g id="Grupo_1103735" data-name="Grupo 1103735" clip-path="url(#clip-path-4)">
                  <path id="Trazado_883326" data-name="Trazado 883326" d="M317.505,244.383c1.724-2.8,5.768-9.75,4.141-10.732-.633-.382-1.665.416-2.788,1.7a23.783,23.783,0,0,1-1.353,9.033" transform="translate(-302.202 -233.555)" fill="#0046a0"/>
                  <path id="Trazado_883327" data-name="Trazado 883327" d="M287.264,284.006c-3.316,5.054-7.524,8.639-11.394,10,.478,1.292.812,2.134.812,2.134s15.277-1.636,15.513-3.931-7.321-2.02-7.321-2.02,8.421-2.522,9-5.111c.541-2.425-5.8-1.237-6.608-1.077" transform="translate(-275.87 -265.189)" fill="#0046a0"/>
                  <path id="Trazado_883328" data-name="Trazado 883328" d="M310.542,263.285a34.765,34.765,0,0,1-2.406,5.14q-.536.94-1.113,1.821c1.079-.78,8.216-6.007,7.981-7.681-.208-1.481-3.335.1-4.461.719" transform="translate(-295.572 -251.513)" fill="#0046a0"/>
                </g>
              </g>
            </g>
            <path id="Trazado_883329" data-name="Trazado 883329" d="M42.892,243.79a25.828,25.828,0,0,0,1.464,2.778,43.078,43.078,0,0,0,4.568,6.346,39.319,39.319,0,0,0,7.98,7.068,34.255,34.255,0,0,0,11.7,4.945,39.413,39.413,0,0,0,15.674-.012q1.126-.216,2.242-.484c.231-.056.114-.407-.117-.351a40.8,40.8,0,0,1-16.163.783,33.853,33.853,0,0,1-12.018-4.479,38.207,38.207,0,0,1-8.3-6.894,42.773,42.773,0,0,1-4.893-6.509c-.65-1.06-1.227-2.2-1.771-3.259-.008-.015-.015-.032-.022-.049-.094-.217-.446-.1-.351.117" transform="translate(-27.116 -154.035)" fill="#6e7fdd"/>
            <path id="Trazado_883330" data-name="Trazado 883330" d="M40.949,237.24a7.627,7.627,0,0,1-2.086-1.948,10.528,10.528,0,0,1-1.3-2.276,10.37,10.37,0,0,1-.7-2.524,7.557,7.557,0,0,1,.1-2.854,7.562,7.562,0,0,1,2.09,1.947,10.374,10.374,0,0,1,1.292,2.277,10.531,10.531,0,0,1,.693,2.526,7.625,7.625,0,0,1-.1,2.852" transform="translate(-23.262 -143.967)" fill="#6e7fdd"/>
            <path id="Trazado_883331" data-name="Trazado 883331" d="M38.229,229.89c.314.639.606,1.287.894,1.936s.559,1.306.84,1.959c.264.66.537,1.316.792,1.979s.508,1.328.737,2c-.315-.639-.606-1.287-.895-1.936s-.559-1.306-.84-1.959c-.263-.66-.537-1.315-.792-1.979s-.508-1.328-.737-2" transform="translate(-24.178 -145.391)" fill="#0046a0"/>
            <g id="Grupo_1103740" data-name="Grupo 1103740" transform="translate(13.624 83.671)" opacity="0.1">
              <g id="Grupo_1103739" data-name="Grupo 1103739">
                <g id="Grupo_1103738" data-name="Grupo 1103738" clip-path="url(#clip-path-5)">
                  <path id="Trazado_883332" data-name="Trazado 883332" d="M39.241,229.586a7.555,7.555,0,0,0-2.09-1.947c-.033.136-.061.269-.084.4a8.407,8.407,0,0,1,1.373,1.44,10.35,10.35,0,0,1,1.292,2.277,10.507,10.507,0,0,1,.694,2.525,7.965,7.965,0,0,1-.013,2.448,6.563,6.563,0,0,0,.717.51,7.633,7.633,0,0,0,.1-2.852,10.548,10.548,0,0,0-.694-2.526,10.374,10.374,0,0,0-1.292-2.277" transform="translate(-37.067 -227.639)" fill="#0046a0"/>
                </g>
              </g>
            </g>
            <path id="Trazado_883333" data-name="Trazado 883333" d="M51.214,243.394a7.64,7.64,0,0,1-1.027-2.663,10.521,10.521,0,0,1-.173-2.613,10.366,10.366,0,0,1,.473-2.575,7.555,7.555,0,0,1,1.335-2.524,7.561,7.561,0,0,1,1.031,2.663,10.342,10.342,0,0,1,.169,2.613,10.538,10.538,0,0,1-.477,2.575,7.63,7.63,0,0,1-1.331,2.525" transform="translate(-31.619 -147.37)" fill="#6e7fdd"/>
            <path id="Trazado_883334" data-name="Trazado 883334" d="M53.962,235.451c0,.712-.016,1.422-.04,2.132s-.067,1.42-.1,2.129c-.05.709-.091,1.418-.15,2.126s-.122,1.416-.21,2.122c0-.712.016-1.422.04-2.133s.066-1.419.1-2.129c.051-.709.09-1.418.15-2.126s.122-1.416.21-2.122" transform="translate(-33.812 -148.908)" fill="#0046a0"/>
            <g id="Grupo_1103743" data-name="Grupo 1103743" transform="translate(19.171 85.648)" opacity="0.1">
              <g id="Grupo_1103742" data-name="Grupo 1103742">
                <g id="Grupo_1103741" data-name="Grupo 1103741" clip-path="url(#clip-path-6)">
                  <path id="Trazado_883335" data-name="Trazado 883335" d="M54.22,235.681a7.559,7.559,0,0,0-1.031-2.663c-.089.108-.172.216-.251.324a8.4,8.4,0,0,1,.607,1.895,10.359,10.359,0,0,1,.169,2.613,10.538,10.538,0,0,1-.477,2.575,7.974,7.974,0,0,1-1.08,2.2,6.616,6.616,0,0,0,.423.772,7.63,7.63,0,0,0,1.331-2.525,10.538,10.538,0,0,0,.477-2.575,10.376,10.376,0,0,0-.169-2.613" transform="translate(-52.158 -233.018)" fill="#0046a0"/>
                </g>
              </g>
            </g>
            <path id="Trazado_883336" data-name="Trazado 883336" d="M35.741,255.654a7.634,7.634,0,0,1-2.8.543,10.515,10.515,0,0,1-2.6-.289,10.367,10.367,0,0,1-2.452-.918,7.562,7.562,0,0,1-2.251-1.758,7.555,7.555,0,0,1,2.8-.547,10.366,10.366,0,0,1,2.6.292,10.549,10.549,0,0,1,2.451.922,7.632,7.632,0,0,1,2.252,1.754" transform="translate(-16.212 -159.807)" fill="#6e7fdd"/>
            <path id="Trazado_883337" data-name="Trazado 883337" d="M28,254.744c.7.121,1.4.266,2.092.414s1.386.315,2.079.471c.689.174,1.38.339,2.066.521s1.372.369,2.053.58c-.7-.121-1.4-.265-2.093-.414s-1.386-.315-2.079-.472c-.688-.175-1.38-.339-2.066-.522s-1.372-.369-2.052-.579" transform="translate(-17.711 -161.11)" fill="#0046a0"/>
            <g id="Grupo_1103746" data-name="Grupo 1103746" transform="translate(9.422 92.877)" opacity="0.1">
              <g id="Grupo_1103745" data-name="Grupo 1103745">
                <g id="Grupo_1103744" data-name="Grupo 1103744" clip-path="url(#clip-path-7)">
                  <path id="Trazado_883338" data-name="Trazado 883338" d="M28.436,252.685a7.555,7.555,0,0,0-2.8.547c.09.107.182.207.275.3a8.4,8.4,0,0,1,1.972-.264,10.351,10.351,0,0,1,2.6.292,10.531,10.531,0,0,1,2.451.922,7.959,7.959,0,0,1,1.973,1.449,6.7,6.7,0,0,0,.834-.281,7.637,7.637,0,0,0-2.252-1.754,10.549,10.549,0,0,0-2.451-.922,10.368,10.368,0,0,0-2.6-.292" transform="translate(-25.633 -252.684)" fill="#0046a0"/>
                </g>
              </g>
            </g>
            <path id="Trazado_883339" data-name="Trazado 883339" d="M60.937,255.868A7.636,7.636,0,0,1,59.5,253.4a10.537,10.537,0,0,1-.581-2.553,10.344,10.344,0,0,1,.063-2.617,7.556,7.556,0,0,1,.922-2.7,7.556,7.556,0,0,1,1.437,2.468,10.359,10.359,0,0,1,.577,2.553,10.522,10.522,0,0,1-.067,2.618,7.634,7.634,0,0,1-.918,2.7" transform="translate(-37.231 -155.28)" fill="#6e7fdd"/>
            <path id="Trazado_883340" data-name="Trazado 883340" d="M61.938,247.951c.116.7.208,1.407.3,2.112s.157,1.412.237,2.118c.062.708.133,1.414.186,2.123s.1,1.418.126,2.129c-.116-.7-.208-1.407-.3-2.112s-.158-1.412-.237-2.118c-.061-.708-.133-1.415-.185-2.123s-.1-1.417-.126-2.129" transform="translate(-39.172 -156.814)" fill="#0046a0"/>
            <g id="Grupo_1103749" data-name="Grupo 1103749" transform="translate(22.48 90.245)" opacity="0.1">
              <g id="Grupo_1103748" data-name="Grupo 1103748">
                <g id="Grupo_1103747" data-name="Grupo 1103747" clip-path="url(#clip-path-8)">
                  <path id="Trazado_883341" data-name="Trazado 883341" d="M62.794,247.993a7.56,7.56,0,0,0-1.437-2.468c-.071.121-.136.24-.2.36a8.4,8.4,0,0,1,.9,1.776,10.359,10.359,0,0,1,.577,2.553,10.522,10.522,0,0,1-.067,2.618,7.963,7.963,0,0,1-.721,2.339,6.626,6.626,0,0,0,.539.7,7.631,7.631,0,0,0,.918-2.7,10.54,10.54,0,0,0,.067-2.618,10.36,10.36,0,0,0-.578-2.554" transform="translate(-61.161 -245.525)" fill="#0046a0"/>
                </g>
              </g>
            </g>
            <path id="Trazado_883342" data-name="Trazado 883342" d="M46.416,269.879a7.629,7.629,0,0,1-2.682.977,10.542,10.542,0,0,1-2.616.124,10.379,10.379,0,0,1-2.566-.522,7.559,7.559,0,0,1-2.5-1.382,7.569,7.569,0,0,1,2.682-.981,10.366,10.366,0,0,1,2.616-.12,10.54,10.54,0,0,1,2.565.526,7.635,7.635,0,0,1,2.5,1.378" transform="translate(-22.802 -169.457)" fill="#6e7fdd"/>
            <path id="Trazado_883343" data-name="Trazado 883343" d="M38.484,271.217c.712.009,1.422.043,2.131.08s1.418.093,2.127.139c.708.064,1.416.118,2.123.19s1.413.149,2.118.25c-.712-.009-1.422-.043-2.131-.08s-1.418-.093-2.127-.139c-.708-.064-1.416-.117-2.123-.19s-1.414-.149-2.118-.25" transform="translate(-24.339 -171.528)" fill="#0046a0"/>
            <g id="Grupo_1103752" data-name="Grupo 1103752" transform="translate(13.252 98.485)" opacity="0.1">
              <g id="Grupo_1103751" data-name="Grupo 1103751">
                <g id="Grupo_1103750" data-name="Grupo 1103750" clip-path="url(#clip-path-9)">
                  <path id="Trazado_883344" data-name="Trazado 883344" d="M38.736,268.1a7.556,7.556,0,0,0-2.682.981c.106.091.213.176.32.257a8.413,8.413,0,0,1,1.906-.571,10.361,10.361,0,0,1,2.615-.12,10.542,10.542,0,0,1,2.566.526,7.966,7.966,0,0,1,2.176,1.121,6.631,6.631,0,0,0,.78-.409,7.635,7.635,0,0,0-2.5-1.378,10.524,10.524,0,0,0-2.565-.526,10.366,10.366,0,0,0-2.616.12" transform="translate(-36.054 -267.942)" fill="#0046a0"/>
                </g>
              </g>
            </g>
            <path id="Trazado_883345" data-name="Trazado 883345" d="M72.476,268.006a7.633,7.633,0,0,1-1.807-2.209,10.523,10.523,0,0,1-.981-2.428,10.34,10.34,0,0,1-.355-2.594,7.561,7.561,0,0,1,.48-2.816,7.567,7.567,0,0,1,1.811,2.208A10.36,10.36,0,0,1,72.6,262.6a10.542,10.542,0,0,1,.351,2.6,7.64,7.64,0,0,1-.476,2.814" transform="translate(-43.849 -163.143)" fill="#6e7fdd"/>
            <path id="Trazado_883346" data-name="Trazado 883346" d="M71.262,260.316c.226.675.429,1.356.628,2.038s.38,1.369.571,2.054c.173.689.356,1.375.521,2.066s.326,1.384.464,2.082c-.226-.675-.429-1.356-.629-2.038s-.38-1.369-.571-2.054c-.173-.689-.357-1.375-.521-2.066s-.326-1.383-.464-2.082" transform="translate(-45.069 -164.634)" fill="#0046a0"/>
            <g id="Grupo_1103755" data-name="Grupo 1103755" transform="translate(25.827 94.816)" opacity="0.1">
              <g id="Grupo_1103754" data-name="Grupo 1103754">
                <g id="Grupo_1103753" data-name="Grupo 1103753" clip-path="url(#clip-path-10)">
                  <path id="Trazado_883347" data-name="Trazado 883347" d="M72.214,260.168A7.557,7.557,0,0,0,70.4,257.96c-.051.13-.1.259-.137.387a8.4,8.4,0,0,1,1.168,1.61,10.354,10.354,0,0,1,.977,2.429,10.54,10.54,0,0,1,.351,2.595,7.963,7.963,0,0,1-.339,2.424,6.6,6.6,0,0,0,.643.6,7.642,7.642,0,0,0,.476-2.814,10.539,10.539,0,0,0-.351-2.6,10.354,10.354,0,0,0-.977-2.429" transform="translate(-70.266 -257.96)" fill="#0046a0"/>
                </g>
              </g>
            </g>
            <path id="Trazado_883348" data-name="Trazado 883348" d="M59.741,282.981a7.64,7.64,0,0,1-2.492,1.391,10.536,10.536,0,0,1-2.563.539,10.356,10.356,0,0,1-2.616-.107,7.553,7.553,0,0,1-2.687-.967,7.551,7.551,0,0,1,2.492-1.395,10.359,10.359,0,0,1,2.563-.535,10.538,10.538,0,0,1,2.616.111,7.642,7.642,0,0,1,2.687.963" transform="translate(-31.232 -178.267)" fill="#6e7fdd"/>
            <path id="Trazado_883349" data-name="Trazado 883349" d="M51.812,285.81c.7-.1,1.41-.184,2.117-.26s1.415-.134,2.122-.2c.709-.05,1.417-.11,2.126-.15s1.419-.078,2.131-.09c-.7.1-1.41.184-2.117.261s-1.415.134-2.122.2c-.709.049-1.417.109-2.126.15s-1.419.078-2.131.091" transform="translate(-32.768 -180.313)" fill="#0046a0"/>
            <g id="Grupo_1103758" data-name="Grupo 1103758" transform="translate(18.151 103.605)" opacity="0.1">
              <g id="Grupo_1103757" data-name="Grupo 1103757">
                <g id="Grupo_1103756" data-name="Grupo 1103756" clip-path="url(#clip-path-11)">
                  <path id="Trazado_883350" data-name="Trazado 883350" d="M51.875,282.442a7.56,7.56,0,0,0-2.492,1.4q.179.109.357.2a8.4,8.4,0,0,1,1.79-.867,10.359,10.359,0,0,1,2.563-.535,10.52,10.52,0,0,1,2.616.111,7.959,7.959,0,0,1,2.327.76,6.635,6.635,0,0,0,.7-.528,7.642,7.642,0,0,0-2.687-.963,10.52,10.52,0,0,0-2.616-.111,10.361,10.361,0,0,0-2.563.535" transform="translate(-49.383 -281.872)" fill="#0046a0"/>
                </g>
              </g>
            </g>
            <path id="Trazado_883351" data-name="Trazado 883351" d="M86.594,278.848a7.638,7.638,0,0,1-2.2-1.822,10.538,10.538,0,0,1-1.428-2.2,10.379,10.379,0,0,1-.845-2.478,7.569,7.569,0,0,1-.069-2.855,7.557,7.557,0,0,1,2.2,1.82,10.348,10.348,0,0,1,1.424,2.2,10.519,10.519,0,0,1,.842,2.48,7.635,7.635,0,0,1,.072,2.853" transform="translate(-51.828 -170.441)" fill="#6e7fdd"/>
            <path id="Trazado_883352" data-name="Trazado 883352" d="M83.3,271.69c.351.619.681,1.249,1.007,1.88s.636,1.271.954,1.906c.3.643.613,1.281.908,1.928s.585,1.3.854,1.954c-.352-.619-.681-1.249-1.007-1.88s-.636-1.271-.954-1.906c-.3-.643-.614-1.281-.908-1.928s-.585-1.3-.854-1.954" transform="translate(-52.684 -171.827)" fill="#0046a0"/>
            <g id="Grupo_1103761" data-name="Grupo 1103761" transform="translate(30.167 99.057)" opacity="0.1">
              <g id="Grupo_1103760" data-name="Grupo 1103760">
                <g id="Grupo_1103759" data-name="Grupo 1103759" clip-path="url(#clip-path-12)">
                  <path id="Trazado_883353" data-name="Trazado 883353" d="M84.335,271.318a7.562,7.562,0,0,0-2.2-1.82c-.025.138-.044.272-.06.406a8.385,8.385,0,0,1,1.455,1.356,10.365,10.365,0,0,1,1.425,2.2,10.54,10.54,0,0,1,.841,2.48,7.963,7.963,0,0,1,.132,2.444,6.571,6.571,0,0,0,.747.467,7.635,7.635,0,0,0-.072-2.853,10.537,10.537,0,0,0-.842-2.48,10.362,10.362,0,0,0-1.424-2.2" transform="translate(-82.074 -269.498)" fill="#0046a0"/>
                </g>
              </g>
            </g>
            <path id="Trazado_883354" data-name="Trazado 883354" d="M76.988,293.859a7.636,7.636,0,0,1-2.179,1.843,10.535,10.535,0,0,1-2.412,1.02,10.36,10.36,0,0,1-2.588.4,7.561,7.561,0,0,1-2.823-.434,7.552,7.552,0,0,1,2.178-1.847,10.342,10.342,0,0,1,2.413-1.016,10.527,10.527,0,0,1,2.589-.393,7.633,7.633,0,0,1,2.821.43" transform="translate(-42.365 -185.576)" fill="#6e7fdd"/>
            <path id="Trazado_883355" data-name="Trazado 883355" d="M69.332,297.638c.671-.237,1.349-.451,2.028-.661s1.363-.4,2.044-.6c.686-.185,1.37-.379,2.058-.555s1.378-.348,2.074-.5c-.671.237-1.349.451-2.027.662s-1.363.4-2.044.6c-.686.185-1.369.379-2.058.555s-1.378.348-2.074.5" transform="translate(-43.848 -186.772)" fill="#0046a0"/>
            <g id="Grupo_1103764" data-name="Grupo 1103764" transform="translate(24.621 107.853)" opacity="0.1">
              <g id="Grupo_1103763" data-name="Grupo 1103763">
                <g id="Grupo_1103762" data-name="Grupo 1103762" clip-path="url(#clip-path-13)">
                  <path id="Trazado_883356" data-name="Trazado 883356" d="M69.164,294.838a7.559,7.559,0,0,0-2.178,1.847c.131.049.261.092.389.13a8.4,8.4,0,0,1,1.591-1.194,10.37,10.37,0,0,1,2.413-1.016,10.532,10.532,0,0,1,2.589-.393,7.971,7.971,0,0,1,2.429.3,6.568,6.568,0,0,0,.591-.653,7.641,7.641,0,0,0-2.821-.43,10.527,10.527,0,0,0-2.589.393,10.356,10.356,0,0,0-2.413,1.016" transform="translate(-66.986 -293.429)" fill="#0046a0"/>
                </g>
              </g>
            </g>
            <path id="Trazado_883357" data-name="Trazado 883357" d="M101.291,285.368a7.631,7.631,0,0,1-2.327-1.652,10.514,10.514,0,0,1-1.588-2.082,10.351,10.351,0,0,1-1.028-2.408,7.552,7.552,0,0,1-.282-2.842,7.552,7.552,0,0,1,2.331,1.65,10.36,10.36,0,0,1,1.585,2.084,10.518,10.518,0,0,1,1.025,2.41,7.637,7.637,0,0,1,.286,2.84" transform="translate(-60.732 -174.796)" fill="#6e7fdd"/>
            <path id="Trazado_883358" data-name="Trazado 883358" d="M97.352,278.491c.4.591.773,1.194,1.145,1.8s.729,1.22,1.094,1.829c.35.619.708,1.232,1.05,1.855s.68,1.248,1,1.885c-.4-.591-.773-1.194-1.146-1.8s-.729-1.22-1.093-1.829c-.35-.619-.708-1.232-1.049-1.855s-.681-1.248-1-1.885" transform="translate(-61.569 -176.129)" fill="#0046a0"/>
            <g id="Grupo_1103767" data-name="Grupo 1103767" transform="translate(35.303 101.588)" opacity="0.1">
              <g id="Grupo_1103766" data-name="Grupo 1103766">
                <g id="Grupo_1103765" data-name="Grupo 1103765" clip-path="url(#clip-path-14)">
                  <path id="Trazado_883359" data-name="Trazado 883359" d="M98.406,278.034a7.558,7.558,0,0,0-2.331-1.65c-.014.139-.024.275-.03.409a8.4,8.4,0,0,1,1.553,1.244,10.358,10.358,0,0,1,1.585,2.084,10.539,10.539,0,0,1,1.025,2.41,7.962,7.962,0,0,1,.315,2.427,6.544,6.544,0,0,0,.779.409,7.637,7.637,0,0,0-.286-2.84,10.54,10.54,0,0,0-1.025-2.41,10.36,10.36,0,0,0-1.585-2.084" transform="translate(-96.045 -276.384)" fill="#0046a0"/>
                </g>
              </g>
            </g>
            <path id="Trazado_883360" data-name="Trazado 883360" d="M93.134,300.074a7.628,7.628,0,0,1-2.035,2,10.521,10.521,0,0,1-2.329,1.2,10.361,10.361,0,0,1-2.551.59,7.56,7.56,0,0,1-2.847-.222,7.558,7.558,0,0,1,2.034-2,10.349,10.349,0,0,1,2.33-1.194,10.535,10.535,0,0,1,2.552-.586,7.639,7.639,0,0,1,2.846.218" transform="translate(-52.728 -189.614)" fill="#6e7fdd"/>
            <path id="Trazado_883361" data-name="Trazado 883361" d="M85.661,304.355c.652-.287,1.311-.551,1.973-.811s1.329-.5,1.993-.756c.67-.236,1.337-.48,2.011-.708s1.348-.451,2.031-.651c-.651.287-1.311.551-1.972.812s-1.329.5-1.993.755c-.67.235-1.337.48-2.011.707s-1.348.451-2.031.652" transform="translate(-54.175 -190.635)" fill="#0046a0"/>
            <g id="Grupo_1103770" data-name="Grupo 1103770" transform="translate(30.644 110.2)" opacity="0.1">
              <g id="Grupo_1103769" data-name="Grupo 1103769">
                <g id="Grupo_1103768" data-name="Grupo 1103768" clip-path="url(#clip-path-15)">
                  <path id="Trazado_883362" data-name="Trazado 883362" d="M85.406,301.636a7.564,7.564,0,0,0-2.034,2c.134.039.266.072.4.1a8.392,8.392,0,0,1,1.5-1.31,10.355,10.355,0,0,1,2.33-1.194,10.515,10.515,0,0,1,2.552-.586,7.96,7.96,0,0,1,2.445.117,6.621,6.621,0,0,0,.54-.7,7.639,7.639,0,0,0-2.846-.218,10.552,10.552,0,0,0-2.552.586,10.38,10.38,0,0,0-2.33,1.194" transform="translate(-83.372 -299.814)" fill="#0046a0"/>
                </g>
              </g>
            </g>
            <path id="Trazado_883363" data-name="Trazado 883363" d="M118.419,290.254a7.634,7.634,0,0,1-2.627-1.116,10.534,10.534,0,0,1-2-1.694,10.357,10.357,0,0,1-1.52-2.132,7.554,7.554,0,0,1-.884-2.716,7.564,7.564,0,0,1,2.63,1.113,10.354,10.354,0,0,1,1.994,1.7,10.557,10.557,0,0,1,1.517,2.135,7.642,7.642,0,0,1,.887,2.713" transform="translate(-70.449 -178.725)" fill="#6e7fdd"/>
            <path id="Trazado_883364" data-name="Trazado 883364" d="M113.039,284.393c.514.493,1.01,1,1.5,1.513s.973,1.035,1.46,1.553.955,1.052,1.422,1.588.931,1.073,1.378,1.628c-.515-.492-1.01-1-1.5-1.512s-.973-1.035-1.46-1.553-.955-1.052-1.422-1.588-.932-1.073-1.378-1.628" transform="translate(-71.49 -179.861)" fill="#0046a0"/>
            <g id="Grupo_1103773" data-name="Grupo 1103773" transform="translate(40.943 103.871)" opacity="0.1">
              <g id="Grupo_1103772" data-name="Grupo 1103772">
                <g id="Grupo_1103771" data-name="Grupo 1103771" clip-path="url(#clip-path-16)">
                  <path id="Trazado_883365" data-name="Trazado 883365" d="M114.022,283.709a7.571,7.571,0,0,0-2.63-1.113c.015.139.035.274.058.406a8.4,8.4,0,0,1,1.783.883,10.357,10.357,0,0,1,1.994,1.7,10.529,10.529,0,0,1,1.517,2.135,7.966,7.966,0,0,1,.827,2.3,6.659,6.659,0,0,0,.849.233,7.634,7.634,0,0,0-.887-2.713,10.557,10.557,0,0,0-1.517-2.135,10.367,10.367,0,0,0-1.994-1.7" transform="translate(-111.392 -282.596)" fill="#0046a0"/>
                </g>
              </g>
            </g>
            <path id="Trazado_883366" data-name="Trazado 883366" d="M114.945,303.2a7.637,7.637,0,0,1-1.56,2.39,10.54,10.54,0,0,1-2.019,1.668A10.347,10.347,0,0,1,109,308.379a7.552,7.552,0,0,1-2.828.393,7.559,7.559,0,0,1,1.558-2.394,10.346,10.346,0,0,1,2.021-1.665,10.522,10.522,0,0,1,2.368-1.118,7.631,7.631,0,0,1,2.827-.4" transform="translate(-67.147 -191.747)" fill="#6e7fdd"/>
            <path id="Trazado_883367" data-name="Trazado 883367" d="M108.229,309.212c.575-.419,1.163-.819,1.753-1.214s1.191-.776,1.785-1.164c.6-.373,1.2-.755,1.812-1.121s1.22-.729,1.845-1.071c-.575.42-1.163.819-1.753,1.215s-1.19.776-1.785,1.164c-.6.373-1.2.755-1.813,1.121s-1.22.729-1.844,1.071" transform="translate(-68.448 -192.667)" fill="#0046a0"/>
            <g id="Grupo_1103776" data-name="Grupo 1103776" transform="translate(39.024 111.439)" opacity="0.1">
              <g id="Grupo_1103775" data-name="Grupo 1103775">
                <g id="Grupo_1103774" data-name="Grupo 1103774" clip-path="url(#clip-path-17)">
                  <path id="Trazado_883368" data-name="Trazado 883368" d="M107.729,306.378a7.554,7.554,0,0,0-1.558,2.394c.139.009.276.013.41.014a8.4,8.4,0,0,1,1.182-1.6,10.345,10.345,0,0,1,2.02-1.665,10.533,10.533,0,0,1,2.368-1.118,7.959,7.959,0,0,1,2.413-.409,6.63,6.63,0,0,0,.379-.795,7.632,7.632,0,0,0-2.827.4,10.521,10.521,0,0,0-2.368,1.118,10.333,10.333,0,0,0-2.02,1.665" transform="translate(-106.171 -303.186)" fill="#0046a0"/>
                </g>
              </g>
            </g>
            <path id="Trazado_883369" data-name="Trazado 883369" d="M278.063,308.608a25.783,25.783,0,0,1-2.351,2.083,43.132,43.132,0,0,1-6.514,4.326,39.346,39.346,0,0,1-9.961,3.8,34.257,34.257,0,0,1-12.693.5,39.407,39.407,0,0,1-14.661-5.544q-.978-.6-1.927-1.244c-.2-.133.037-.42.233-.287a40.8,40.8,0,0,0,14.847,6.437,33.859,33.859,0,0,0,12.825.051,38.212,38.212,0,0,0,10.2-3.523,42.779,42.779,0,0,0,6.875-4.363c.982-.763,1.926-1.63,2.807-2.424.013-.012.025-.025.037-.038.164-.169.454.062.287.233" transform="translate(-145.386 -194.991)" fill="#6e7fdd"/>
            <path id="Trazado_883370" data-name="Trazado 883370" d="M352.722,303.188a7.633,7.633,0,0,0,2.639-1.087,10.526,10.526,0,0,0,2.016-1.672,10.361,10.361,0,0,0,1.543-2.115,7.563,7.563,0,0,0,.913-2.706,7.56,7.56,0,0,0-2.642,1.084,10.357,10.357,0,0,0-2.012,1.675,10.552,10.552,0,0,0-1.54,2.118,7.638,7.638,0,0,0-.916,2.7" transform="translate(-223.075 -186.954)" fill="#6e7fdd"/>
            <path id="Trazado_883371" data-name="Trazado 883371" d="M360.366,297.386c-.519.487-1.021.99-1.52,1.5s-.984,1.025-1.477,1.536-.966,1.042-1.44,1.572-.943,1.063-1.4,1.612c.52-.486,1.021-.99,1.52-1.5s.984-1.025,1.477-1.537.966-1.041,1.439-1.572.944-1.063,1.4-1.612" transform="translate(-224.221 -188.078)" fill="#0046a0"/>
            <g id="Grupo_1103779" data-name="Grupo 1103779" transform="translate(129.647 108.654)" opacity="0.1">
              <g id="Grupo_1103778" data-name="Grupo 1103778">
                <g id="Grupo_1103777" data-name="Grupo 1103777" clip-path="url(#clip-path-18)">
                  <path id="Trazado_883372" data-name="Trazado 883372" d="M357.191,296.692a7.554,7.554,0,0,1,2.642-1.084c-.017.139-.038.273-.063.405a8.425,8.425,0,0,0-1.793.863,10.364,10.364,0,0,0-2.012,1.675,10.525,10.525,0,0,0-1.54,2.118,7.967,7.967,0,0,0-.852,2.295,6.618,6.618,0,0,1-.851.224,7.634,7.634,0,0,1,.917-2.7,10.536,10.536,0,0,1,1.54-2.118,10.361,10.361,0,0,1,2.012-1.675" transform="translate(-352.722 -295.608)" fill="#0046a0"/>
                </g>
              </g>
            </g>
            <path id="Trazado_883373" data-name="Trazado 883373" d="M344.6,304.328a7.626,7.626,0,0,0,1.9-2.129,10.52,10.52,0,0,0,1.085-2.384,10.367,10.367,0,0,0,.466-2.576,7.56,7.56,0,0,0-.358-2.833,7.566,7.566,0,0,0-1.9,2.128,10.365,10.365,0,0,0-1.081,2.385,10.536,10.536,0,0,0-.462,2.578,7.634,7.634,0,0,0,.354,2.832" transform="translate(-217.709 -186.194)" fill="#6e7fdd"/>
            <path id="Trazado_883374" data-name="Trazado 883374" d="M348.55,296.733c-.255.665-.487,1.336-.715,2.009s-.439,1.351-.659,2.027c-.2.681-.415,1.359-.61,2.042s-.386,1.368-.553,2.06c.255-.665.487-1.336.716-2.009s.439-1.352.659-2.027c.2-.681.415-1.359.609-2.042s.386-1.368.553-2.06" transform="translate(-218.832 -187.666)" fill="#0046a0"/>
            <g id="Grupo_1103782" data-name="Grupo 1103782" transform="translate(126.528 108.212)" opacity="0.1">
              <g id="Grupo_1103781" data-name="Grupo 1103781">
                <g id="Grupo_1103780" data-name="Grupo 1103780" clip-path="url(#clip-path-19)">
                  <path id="Trazado_883375" data-name="Trazado 883375" d="M345.789,296.534a7.562,7.562,0,0,1,1.9-2.128c.045.132.085.263.12.392a8.39,8.39,0,0,0-1.236,1.558,10.35,10.35,0,0,0-1.081,2.385,10.519,10.519,0,0,0-.462,2.578,7.964,7.964,0,0,0,.234,2.437,6.62,6.62,0,0,1-.668.573,7.634,7.634,0,0,1-.354-2.832,10.538,10.538,0,0,1,.462-2.578,10.37,10.37,0,0,1,1.081-2.385" transform="translate(-344.238 -294.406)" fill="#0046a0"/>
                </g>
              </g>
            </g>
            <path id="Trazado_883376" data-name="Trazado 883376" d="M345.562,319.417a7.628,7.628,0,0,0,2.43,1.5,10.529,10.529,0,0,0,2.537.649,10.349,10.349,0,0,0,2.618.006,7.556,7.556,0,0,0,2.726-.85,7.555,7.555,0,0,0-2.43-1.5,10.36,10.36,0,0,0-2.538-.645,10.525,10.525,0,0,0-2.618,0,7.635,7.635,0,0,0-2.726.846" transform="translate(-218.547 -201.426)" fill="#6e7fdd"/>
            <path id="Trazado_883377" data-name="Trazado 883377" d="M356.645,322.412c-.7-.134-1.4-.245-2.1-.351s-1.408-.194-2.111-.293c-.706-.081-1.41-.17-2.118-.241s-1.414-.139-2.125-.182c.7.135,1.4.245,2.1.352s1.407.194,2.111.292c.706.08,1.41.17,2.117.241s1.414.139,2.125.183" transform="translate(-220.208 -203.23)" fill="#0046a0"/>
            <g id="Grupo_1103785" data-name="Grupo 1103785" transform="translate(127.015 117.065)" opacity="0.1">
              <g id="Grupo_1103784" data-name="Grupo 1103784">
                <g id="Grupo_1103783" data-name="Grupo 1103783" clip-path="url(#clip-path-20)">
                  <path id="Trazado_883378" data-name="Trazado 883378" d="M353.444,319.218a7.557,7.557,0,0,1,2.429,1.5c-.122.068-.244.13-.365.187a8.415,8.415,0,0,0-1.752-.944,10.38,10.38,0,0,0-2.537-.645,10.527,10.527,0,0,0-2.619,0,7.965,7.965,0,0,0-2.358.659,6.584,6.584,0,0,1-.681-.558,7.631,7.631,0,0,1,2.726-.846,10.508,10.508,0,0,1,2.618,0,10.348,10.348,0,0,1,2.538.645" transform="translate(-345.562 -318.49)" fill="#0046a0"/>
                </g>
              </g>
            </g>
            <path id="Trazado_883379" data-name="Trazado 883379" d="M330.212,313.045a7.637,7.637,0,0,0,2.212-1.8,10.549,10.549,0,0,0,1.446-2.184,10.367,10.367,0,0,0,.865-2.471,7.564,7.564,0,0,0,.091-2.854,7.571,7.571,0,0,0-2.215,1.8,10.365,10.365,0,0,0-1.442,2.186,10.52,10.52,0,0,0-.861,2.473,7.628,7.628,0,0,0-.1,2.853" transform="translate(-208.779 -192.092)" fill="#6e7fdd"/>
            <path id="Trazado_883380" data-name="Trazado 883380" d="M335.335,305.917c-.356.616-.691,1.243-1.022,1.872s-.645,1.266-.969,1.9c-.307.64-.623,1.277-.923,1.921s-.6,1.291-.869,1.948c.357-.616.691-1.243,1.022-1.872s.646-1.266.969-1.9c.307-.641.624-1.277.923-1.921s.6-1.29.87-1.947" transform="translate(-209.686 -193.474)" fill="#0046a0"/>
            <g id="Grupo_1103788" data-name="Grupo 1103788" transform="translate(121.339 111.64)" opacity="0.1">
              <g id="Grupo_1103787" data-name="Grupo 1103787">
                <g id="Grupo_1103786" data-name="Grupo 1103786" clip-path="url(#clip-path-21)">
                  <path id="Trazado_883381" data-name="Trazado 883381" d="M332.611,305.535a7.555,7.555,0,0,1,2.215-1.8c.024.137.042.273.057.406a8.381,8.381,0,0,0-1.466,1.345,10.355,10.355,0,0,0-1.442,2.186,10.534,10.534,0,0,0-.861,2.473,7.969,7.969,0,0,0-.151,2.443,6.609,6.609,0,0,1-.75.461,7.636,7.636,0,0,1,.095-2.853,10.516,10.516,0,0,1,.862-2.473,10.337,10.337,0,0,1,1.442-2.186" transform="translate(-330.118 -303.733)" fill="#0046a0"/>
                </g>
              </g>
            </g>
            <path id="Trazado_883382" data-name="Trazado 883382" d="M330.769,328.034a7.633,7.633,0,0,0,2.165,1.86,10.547,10.547,0,0,0,2.4,1.039,10.359,10.359,0,0,0,2.585.417,7.558,7.558,0,0,0,2.826-.411,7.558,7.558,0,0,0-2.163-1.864,10.355,10.355,0,0,0-2.4-1.035,10.523,10.523,0,0,0-2.586-.413,7.632,7.632,0,0,0-2.825.408" transform="translate(-209.191 -207.202)" fill="#6e7fdd"/>
            <path id="Trazado_883383" data-name="Trazado 883383" d="M341.5,331.863c-.669-.243-1.345-.462-2.022-.677s-1.36-.413-2.039-.62c-.685-.19-1.367-.39-2.054-.572s-1.375-.359-2.07-.513c.669.243,1.345.462,2.022.678s1.359.413,2.039.62c.685.19,1.366.39,2.053.571s1.375.359,2.07.514" transform="translate(-210.799 -208.376)" fill="#0046a0"/>
            <g id="Grupo_1103791" data-name="Grupo 1103791" transform="translate(121.578 120.422)" opacity="0.1">
              <g id="Grupo_1103790" data-name="Grupo 1103790">
                <g id="Grupo_1103789" data-name="Grupo 1103789" clip-path="url(#clip-path-22)">
                  <path id="Trazado_883384" data-name="Trazado 883384" d="M338.585,329.075a7.559,7.559,0,0,1,2.163,1.864c-.132.048-.261.09-.39.128a8.407,8.407,0,0,0-1.582-1.207,10.364,10.364,0,0,0-2.4-1.035,10.54,10.54,0,0,0-2.586-.413,7.966,7.966,0,0,0-2.432.28,6.6,6.6,0,0,1-.585-.658,7.638,7.638,0,0,1,2.825-.408,10.544,10.544,0,0,1,2.586.414,10.359,10.359,0,0,1,2.4,1.035" transform="translate(-330.769 -327.625)" fill="#0046a0"/>
                </g>
              </g>
            </g>
            <path id="Trazado_883385" data-name="Trazado 883385" d="M313.746,320.67a7.635,7.635,0,0,0,2.471-1.429,10.535,10.535,0,0,0,1.775-1.926,10.374,10.374,0,0,0,1.247-2.3,7.557,7.557,0,0,0,.544-2.8,7.564,7.564,0,0,0-2.474,1.427,10.355,10.355,0,0,0-1.771,1.928,10.534,10.534,0,0,0-1.244,2.3,7.631,7.631,0,0,0-.548,2.8" transform="translate(-198.425 -197.454)" fill="#6e7fdd"/>
            <path id="Trazado_883386" data-name="Trazado 883386" d="M320.236,314.2c-.45.552-.88,1.117-1.307,1.685s-.839,1.147-1.259,1.72-.819,1.161-1.217,1.749-.793,1.18-1.168,1.785c.45-.551.88-1.117,1.307-1.685s.839-1.146,1.259-1.72.819-1.161,1.217-1.75.794-1.179,1.169-1.784" transform="translate(-199.398 -198.709)" fill="#0046a0"/>
            <g id="Grupo_1103794" data-name="Grupo 1103794" transform="translate(115.321 114.756)" opacity="0.1">
              <g id="Grupo_1103793" data-name="Grupo 1103793">
                <g id="Grupo_1103792" data-name="Grupo 1103792" clip-path="url(#clip-path-23)">
                  <path id="Trazado_883387" data-name="Trazado 883387" d="M317.31,313.638a7.564,7.564,0,0,1,2.474-1.427c0,.14,0,.276-.008.41a8.409,8.409,0,0,0-1.661,1.095,10.358,10.358,0,0,0-1.771,1.928,10.54,10.54,0,0,0-1.244,2.3,7.965,7.965,0,0,0-.538,2.388,6.56,6.56,0,0,1-.814.335,7.635,7.635,0,0,1,.548-2.8,10.537,10.537,0,0,1,1.244-2.3,10.369,10.369,0,0,1,1.771-1.928" transform="translate(-313.746 -312.211)" fill="#0046a0"/>
                </g>
              </g>
            </g>
            <path id="Trazado_883388" data-name="Trazado 883388" d="M314.188,334.767a7.633,7.633,0,0,0,1.841,2.181,10.527,10.527,0,0,0,2.208,1.409,10.35,10.35,0,0,0,2.485.823,7.556,7.556,0,0,0,2.856.044,7.564,7.564,0,0,0-1.839-2.185,10.361,10.361,0,0,0-2.209-1.405,10.535,10.535,0,0,0-2.487-.82,7.634,7.634,0,0,0-2.854-.047" transform="translate(-198.705 -211.647)" fill="#6e7fdd"/>
            <path id="Trazado_883389" data-name="Trazado 883389" d="M324.28,339.754c-.622-.346-1.254-.67-1.889-.991s-1.276-.624-1.914-.937c-.645-.3-1.287-.6-1.936-.891s-1.3-.574-1.962-.837c.622.347,1.254.67,1.889.991s1.276.624,1.914.937c.646.3,1.287.6,1.936.891s1.3.574,1.962.837" transform="translate(-200.217 -212.561)" fill="#0046a0"/>
            <g id="Grupo_1103797" data-name="Grupo 1103797" transform="translate(115.483 123.005)" opacity="0.1">
              <g id="Grupo_1103796" data-name="Grupo 1103796">
                <g id="Grupo_1103795" data-name="Grupo 1103795" clip-path="url(#clip-path-24)">
                  <path id="Trazado_883390" data-name="Trazado 883390" d="M321.738,337.039a7.558,7.558,0,0,1,1.839,2.185c-.137.026-.272.047-.405.064a8.4,8.4,0,0,0-1.369-1.443,10.361,10.361,0,0,0-2.209-1.405,10.539,10.539,0,0,0-2.487-.82,7.964,7.964,0,0,0-2.445-.111,6.585,6.585,0,0,1-.473-.742,7.634,7.634,0,0,1,2.854.047,10.535,10.535,0,0,1,2.487.82,10.361,10.361,0,0,1,2.209,1.405" transform="translate(-314.188 -334.652)" fill="#0046a0"/>
                </g>
              </g>
            </g>
            <path id="Trazado_883391" data-name="Trazado 883391" d="M294.713,326.057a7.635,7.635,0,0,0,2.7-.929,10.525,10.525,0,0,0,2.111-1.55,10.351,10.351,0,0,0,1.665-2.02,7.564,7.564,0,0,0,1.072-2.647,7.563,7.563,0,0,0-2.7.926,10.349,10.349,0,0,0-2.108,1.553,10.539,10.539,0,0,0-1.663,2.023,7.636,7.636,0,0,0-1.075,2.644" transform="translate(-186.388 -201.692)" fill="#6e7fdd"/>
            <path id="Trazado_883392" data-name="Trazado 883392" d="M302.825,320.587c-.547.455-1.078.928-1.606,1.4s-1.043.965-1.565,1.447-1.026.982-1.53,1.483-1,1.006-1.489,1.528c.548-.455,1.078-.928,1.606-1.4s1.043-.965,1.565-1.447,1.027-.983,1.53-1.484,1-1.005,1.489-1.527" transform="translate(-187.604 -202.752)" fill="#0046a0"/>
            <g id="Grupo_1103800" data-name="Grupo 1103800" transform="translate(108.325 117.219)" opacity="0.1">
              <g id="Grupo_1103799" data-name="Grupo 1103799">
                <g id="Grupo_1103798" data-name="Grupo 1103798" clip-path="url(#clip-path-25)">
                  <path id="Trazado_883393" data-name="Trazado 883393" d="M299.559,319.838a7.556,7.556,0,0,1,2.7-.926c-.025.138-.054.271-.087.4a8.409,8.409,0,0,0-1.84.756,10.352,10.352,0,0,0-2.108,1.553,10.53,10.53,0,0,0-1.663,2.023,7.969,7.969,0,0,0-.986,2.24,6.613,6.613,0,0,1-.863.173,7.638,7.638,0,0,1,1.075-2.644,10.516,10.516,0,0,1,1.663-2.023,10.337,10.337,0,0,1,2.108-1.553" transform="translate(-294.713 -318.912)" fill="#0046a0"/>
                </g>
              </g>
            </g>
            <path id="Trazado_883394" data-name="Trazado 883394" d="M295.2,338.178a7.633,7.633,0,0,0,1.389,2.494,10.514,10.514,0,0,0,1.9,1.806,10.358,10.358,0,0,0,2.281,1.285,7.562,7.562,0,0,0,2.794.59,7.553,7.553,0,0,0-1.386-2.5,10.358,10.358,0,0,0-1.9-1.8,10.511,10.511,0,0,0-2.284-1.281,7.635,7.635,0,0,0-2.792-.594" transform="translate(-186.694 -213.877)" fill="#6e7fdd"/>
            <path id="Trazado_883395" data-name="Trazado 883395" d="M304.183,344.815c-.544-.459-1.1-.9-1.664-1.334s-1.133-.857-1.7-1.287-1.147-.838-1.729-1.246-1.166-.812-1.765-1.2c.544.459,1.1.9,1.664,1.335s1.133.857,1.7,1.286,1.147.838,1.729,1.245,1.166.812,1.765,1.2" transform="translate(-188.041 -214.872)" fill="#0046a0"/>
            <g id="Grupo_1103803" data-name="Grupo 1103803" transform="translate(108.503 124.301)" opacity="0.1">
              <g id="Grupo_1103802" data-name="Grupo 1103802">
                <g id="Grupo_1103801" data-name="Grupo 1103801" clip-path="url(#clip-path-26)">
                  <path id="Trazado_883396" data-name="Trazado 883396" d="M302.171,341.855a7.557,7.557,0,0,1,1.386,2.5c-.14,0-.276-.006-.41-.015a8.4,8.4,0,0,0-1.067-1.679,10.373,10.373,0,0,0-1.9-1.8,10.538,10.538,0,0,0-2.284-1.281,7.977,7.977,0,0,0-2.379-.577,6.623,6.623,0,0,1-.322-.819,7.635,7.635,0,0,1,2.792.594,10.541,10.541,0,0,1,2.284,1.281,10.369,10.369,0,0,1,1.9,1.8" transform="translate(-295.197 -338.178)" fill="#0046a0"/>
                </g>
              </g>
            </g>
            <path id="Trazado_883397" data-name="Trazado 883397" d="M277.891,327.014a7.629,7.629,0,0,0,2.761-.724,10.511,10.511,0,0,0,2.221-1.387,10.349,10.349,0,0,0,1.812-1.89,7.554,7.554,0,0,0,1.267-2.559,7.557,7.557,0,0,0-2.763.721,10.349,10.349,0,0,0-2.219,1.391,10.548,10.548,0,0,0-1.81,1.893,7.634,7.634,0,0,0-1.27,2.556" transform="translate(-175.749 -202.667)" fill="#6e7fdd"/>
            <path id="Trazado_883398" data-name="Trazado 883398" d="M286.555,321.992c-.58.413-1.144.845-1.707,1.279s-1.112.884-1.669,1.325-1.1.9-1.637,1.365-1.077.927-1.6,1.411c.58-.413,1.145-.845,1.707-1.279s1.113-.884,1.669-1.325,1.1-.9,1.636-1.365,1.077-.927,1.6-1.411" transform="translate(-177.047 -203.64)" fill="#0046a0"/>
            <g id="Grupo_1103806" data-name="Grupo 1103806" transform="translate(102.142 117.786)" opacity="0.1">
              <g id="Grupo_1103805" data-name="Grupo 1103805">
                <g id="Grupo_1103804" data-name="Grupo 1103804" clip-path="url(#clip-path-27)">
                  <path id="Trazado_883399" data-name="Trazado 883399" d="M283.188,321.174a7.561,7.561,0,0,1,2.763-.721c-.035.135-.075.266-.117.393a8.408,8.408,0,0,0-1.892.616,10.374,10.374,0,0,0-2.218,1.391,10.517,10.517,0,0,0-1.81,1.893,7.969,7.969,0,0,0-1.151,2.16,6.636,6.636,0,0,1-.874.108,7.64,7.64,0,0,1,1.27-2.556,10.522,10.522,0,0,1,1.809-1.893,10.356,10.356,0,0,1,2.218-1.391" transform="translate(-277.89 -320.453)" fill="#0046a0"/>
                </g>
              </g>
            </g>
            <path id="Trazado_883400" data-name="Trazado 883400" d="M278.386,338.164a7.639,7.639,0,0,0,1.2,2.591,10.54,10.54,0,0,0,1.756,1.943,10.362,10.362,0,0,0,2.179,1.452,7.561,7.561,0,0,0,2.742.8,7.559,7.559,0,0,0-1.2-2.594,10.374,10.374,0,0,0-1.759-1.94,10.525,10.525,0,0,0-2.181-1.449,7.636,7.636,0,0,0-2.739-.8" transform="translate(-176.062 -213.868)" fill="#6e7fdd"/>
            <path id="Trazado_883401" data-name="Trazado 883401" d="M286.851,345.455c-.508-.5-1.033-.978-1.559-1.455s-1.066-.94-1.6-1.41-1.082-.921-1.632-1.372-1.1-.9-1.67-1.326c.508.5,1.032.978,1.559,1.455s1.066.94,1.6,1.41,1.081.921,1.632,1.371,1.1.9,1.67,1.327" transform="translate(-177.331 -214.961)" fill="#0046a0"/>
            <g id="Grupo_1103809" data-name="Grupo 1103809" transform="translate(102.324 124.296)" opacity="0.1">
              <g id="Grupo_1103808" data-name="Grupo 1103808">
                <g id="Grupo_1103807" data-name="Grupo 1103807" clip-path="url(#clip-path-28)">
                  <path id="Trazado_883402" data-name="Trazado 883402" d="M285.066,342.354a7.561,7.561,0,0,1,1.2,2.594q-.209-.017-.408-.046a8.4,8.4,0,0,0-.938-1.754,10.35,10.35,0,0,0-1.759-1.94,10.527,10.527,0,0,0-2.181-1.449,7.969,7.969,0,0,0-2.329-.754,6.608,6.608,0,0,1-.26-.841,7.633,7.633,0,0,1,2.739.8,10.526,10.526,0,0,1,2.181,1.449,10.374,10.374,0,0,1,1.759,1.94" transform="translate(-278.386 -338.165)" fill="#0046a0"/>
                </g>
              </g>
            </g>
            <path id="Trazado_883403" data-name="Trazado 883403" d="M258.105,325.411a7.639,7.639,0,0,0,2.852-.117,10.527,10.527,0,0,0,2.466-.88,10.363,10.363,0,0,0,2.174-1.458,7.56,7.56,0,0,0,1.785-2.229,7.558,7.558,0,0,0-2.853.113,10.356,10.356,0,0,0-2.464.884,10.528,10.528,0,0,0-2.173,1.462,7.635,7.635,0,0,0-1.787,2.226" transform="translate(-163.236 -202.784)" fill="#6e7fdd"/>
            <path id="Trazado_883404" data-name="Trazado 883404" d="M268.077,321.977c-.655.279-1.3.58-1.941.885s-1.276.626-1.914.938c-.63.328-1.265.647-1.891.983s-1.25.675-1.864,1.037c.655-.279,1.3-.58,1.941-.884s1.276-.626,1.914-.938c.63-.328,1.265-.647,1.891-.984s1.25-.676,1.864-1.037" transform="translate(-164.73 -203.631)" fill="#0046a0"/>
            <g id="Grupo_1103812" data-name="Grupo 1103812" transform="translate(94.869 117.854)" opacity="0.1">
              <g id="Grupo_1103811" data-name="Grupo 1103811">
                <g id="Grupo_1103810" data-name="Grupo 1103810" clip-path="url(#clip-path-29)">
                  <path id="Trazado_883405" data-name="Trazado 883405" d="M264.528,320.838a7.558,7.558,0,0,1,2.853-.113c-.063.125-.13.244-.2.359a8.421,8.421,0,0,0-1.98.2,10.371,10.371,0,0,0-2.464.884,10.538,10.538,0,0,0-2.173,1.462,7.964,7.964,0,0,0-1.586,1.864,6.558,6.558,0,0,1-.877-.081,7.64,7.64,0,0,1,1.787-2.225,10.509,10.509,0,0,1,2.173-1.462,10.34,10.34,0,0,1,2.465-.884" transform="translate(-258.104 -320.636)" fill="#0046a0"/>
                </g>
              </g>
            </g>
            <path id="Trazado_883406" data-name="Trazado 883406" d="M258.618,333.6a7.633,7.633,0,0,0,.616,2.787,10.527,10.527,0,0,0,1.3,2.273,10.348,10.348,0,0,0,1.818,1.884,7.558,7.558,0,0,0,2.508,1.366,7.559,7.559,0,0,0-.613-2.789,10.357,10.357,0,0,0-1.3-2.271,10.548,10.548,0,0,0-1.821-1.882,7.634,7.634,0,0,0-2.5-1.368" transform="translate(-163.56 -210.979)" fill="#6e7fdd"/>
            <path id="Trazado_883407" data-name="Trazado 883407" d="M265.327,342.527c-.39-.6-.8-1.177-1.212-1.755s-.84-1.146-1.259-1.719-.859-1.131-1.3-1.689-.885-1.112-1.348-1.653c.39.6.8,1.177,1.211,1.755s.84,1.146,1.26,1.719.859,1.131,1.3,1.689.885,1.112,1.348,1.653" transform="translate(-164.566 -212.317)" fill="#0046a0"/>
            <g id="Grupo_1103815" data-name="Grupo 1103815" transform="translate(95.058 122.616)" opacity="0.1">
              <g id="Grupo_1103814" data-name="Grupo 1103814">
                <g id="Grupo_1103813" data-name="Grupo 1103813" clip-path="url(#clip-path-30)">
                  <path id="Trazado_883408" data-name="Trazado 883408" d="M264.247,339.116a7.552,7.552,0,0,1,.613,2.789c-.134-.041-.263-.085-.388-.132a8.4,8.4,0,0,0-.541-1.914,10.351,10.351,0,0,0-1.3-2.271,10.525,10.525,0,0,0-1.821-1.882,7.96,7.96,0,0,0-2.114-1.234,6.582,6.582,0,0,1-.074-.877,7.635,7.635,0,0,1,2.5,1.368,10.527,10.527,0,0,1,1.821,1.882,10.362,10.362,0,0,1,1.3,2.271" transform="translate(-258.618 -333.595)" fill="#0046a0"/>
                </g>
              </g>
            </g>
            <path id="Rectángulo_404333" data-name="Rectángulo 404333" d="M14.185,0H54.939A14.185,14.185,0,0,1,69.124,14.185v85.6A14.184,14.184,0,0,1,54.94,113.972H14.184A14.184,14.184,0,0,1,0,99.788v-85.6A14.185,14.185,0,0,1,14.185,0Z" transform="translate(34.795 19.411)" fill="#6e7fdd"/>
            <path id="Trazado_883409" data-name="Trazado 883409" d="M151.922,64.132c-.583,2.048-6.5,3.658-13.724,3.658s-13.142-1.61-13.725-3.658H108.849v98.226h58.7V64.132Z" transform="translate(-68.84 -40.56)" fill="#c2cef2"/>
            <path id="Trazado_883410" data-name="Trazado 883410" d="M170.523,111.947H126.8a1.233,1.233,0,0,0-1.229,1.229v15.461l4.9-2.668h40.05a1.233,1.233,0,0,0,1.229-1.229V113.176a1.233,1.233,0,0,0-1.229-1.229" transform="translate(-79.416 -70.8)" fill="#b0c1ea"/>
            <rect id="Rectángulo_404334" data-name="Rectángulo 404334" width="38.281" height="0.41" transform="translate(50.105 44.06)" fill="#d2ddf9"/>
            <rect id="Rectángulo_404335" data-name="Rectángulo 404335" width="38.281" height="0.41" transform="translate(50.105 48.157)" fill="#d2ddf9"/>
            <rect id="Rectángulo_404336" data-name="Rectángulo 404336" width="27.204" height="0.41" transform="translate(50.105 52.255)" fill="#d2ddf9"/>
            <path id="Trazado_883411" data-name="Trazado 883411" d="M134.182,88.585a4.173,4.173,0,1,1-4.173-4.172,4.173,4.173,0,0,1,4.173,4.172" transform="translate(-79.584 -53.386)" fill="#b0c1ea"/>
          </g>
        </g>
        <g id="Grupo_1103819" data-name="Grupo 1103819" transform="translate(46.253 31.027)">
          <g id="Grupo_1103818" data-name="Grupo 1103818" clip-path="url(#clip-path-31)">
            <path id="Trazado_883412" data-name="Trazado 883412" d="M135.226,93.169a1.141,1.141,0,1,0-1.141-1.141,1.141,1.141,0,0,0,1.141,1.141" transform="translate(-131.053 -88.507)" fill="#d2ddf9"/>
            <path id="Trazado_883413" data-name="Trazado 883413" d="M133.207,98.248a2.315,2.315,0,1,0,2.315,2.315,2.314,2.314,0,0,0-2.315-2.315" transform="translate(-129.034 -93.162)" fill="#d2ddf9"/>
          </g>
        </g>
        <g id="Grupo_1103821" data-name="Grupo 1103821">
          <g id="Grupo_1103820" data-name="Grupo 1103820" clip-path="url(#clip-path)">
            <path id="Trazado_883415" data-name="Trazado 883415" d="M126.8,189.989h43.722a1.233,1.233,0,0,1,1.229,1.229v15.461l-4.9-2.669H126.8a1.233,1.233,0,0,1-1.229-1.229V191.219a1.233,1.233,0,0,1,1.229-1.229" transform="translate(-79.415 -120.156)" fill="#b0c1ea"/>
            <rect id="Rectángulo_404338" data-name="Rectángulo 404338" width="38.281" height="0.41" transform="translate(50.105 72.745)" fill="#d2ddf9"/>
            <rect id="Rectángulo_404339" data-name="Rectángulo 404339" width="38.281" height="0.41" transform="translate(50.105 76.843)" fill="#d2ddf9"/>
            <rect id="Rectángulo_404340" data-name="Rectángulo 404340" width="27.204" height="0.41" transform="translate(61.183 80.941)" fill="#d2ddf9"/>
            <path id="Trazado_883416" data-name="Trazado 883416" d="M237.459,165.792a4.173,4.173,0,1,1-4.173-4.173,4.172,4.172,0,0,1,4.173,4.173" transform="translate(-144.901 -102.214)" fill="#b0c1ea"/>
          </g>
        </g>
        <g id="Grupo_1103823" data-name="Grupo 1103823" transform="translate(84.214 59.405)">
          <g id="Grupo_1103822" data-name="Grupo 1103822" clip-path="url(#clip-path-33)">
            <path id="Trazado_883417" data-name="Trazado 883417" d="M238.5,170.375a1.141,1.141,0,1,0-1.141-1.141,1.141,1.141,0,0,0,1.141,1.141" transform="translate(-234.331 -165.713)" fill="#d2ddf9"/>
            <path id="Trazado_883418" data-name="Trazado 883418" d="M236.484,175.454a2.315,2.315,0,1,0,2.315,2.315,2.314,2.314,0,0,0-2.315-2.315" transform="translate(-232.311 -170.369)" fill="#d2ddf9"/>
          </g>
        </g>
        <g id="Grupo_1103825" data-name="Grupo 1103825">
          <g id="Grupo_1103824" data-name="Grupo 1103824" clip-path="url(#clip-path)">
            <path id="Trazado_883420" data-name="Trazado 883420" d="M170.523,270.261H126.8a1.233,1.233,0,0,0-1.229,1.229v15.461l4.9-2.668h40.05a1.233,1.233,0,0,0,1.229-1.229V271.49a1.233,1.233,0,0,0-1.229-1.229" transform="translate(-79.416 -170.924)" fill="#b0c1ea"/>
            <rect id="Rectángulo_404342" data-name="Rectángulo 404342" width="38.281" height="0.41" transform="translate(50.105 102.25)" fill="#d2ddf9"/>
            <rect id="Rectángulo_404343" data-name="Rectángulo 404343" width="38.281" height="0.41" transform="translate(50.105 106.348)" fill="#d2ddf9"/>
            <rect id="Rectángulo_404344" data-name="Rectángulo 404344" width="27.204" height="0.41" transform="translate(50.105 110.445)" fill="#d2ddf9"/>
            <path id="Trazado_883421" data-name="Trazado 883421" d="M134.182,245.4a4.173,4.173,0,1,1-4.173-4.173,4.172,4.172,0,0,1,4.173,4.173" transform="translate(-79.584 -152.565)" fill="#b0c1ea"/>
          </g>
        </g>
        <g id="Grupo_1103827" data-name="Grupo 1103827" transform="translate(46.253 88.667)">
          <g id="Grupo_1103826" data-name="Grupo 1103826" clip-path="url(#clip-path-35)">
            <path id="Trazado_883422" data-name="Trazado 883422" d="M135.226,249.988a1.141,1.141,0,1,0-1.141-1.141,1.141,1.141,0,0,0,1.141,1.141" transform="translate(-131.053 -245.326)" fill="#d2ddf9"/>
            <path id="Trazado_883423" data-name="Trazado 883423" d="M133.207,255.067a2.314,2.314,0,1,0,2.315,2.315,2.314,2.314,0,0,0-2.315-2.315" transform="translate(-129.034 -249.982)" fill="#d2ddf9"/>
          </g>
        </g>
        <g id="Grupo_1103829" data-name="Grupo 1103829">
          <g id="Grupo_1103828" data-name="Grupo 1103828" clip-path="url(#clip-path)">
            <path id="Trazado_883425" data-name="Trazado 883425" d="M175.178,162.886l-5.523-5.523L156.422,170.6,143.19,157.363l-5.523,5.523L150.9,176.118,137.667,189.35l5.523,5.523,13.233-13.232,13.233,13.232,5.523-5.523-13.233-13.232Z" transform="translate(-87.066 -99.523)" fill="#6e7fdd"/>
            <rect id="Rectángulo_404346" data-name="Rectángulo 404346" width="48.739" height="36.731" transform="translate(84.215 12.781)" fill="#f2f2f2"/>
            <rect id="Rectángulo_404347" data-name="Rectángulo 404347" width="43.037" height="5.868" transform="translate(87.066 15.095)" fill="#d2ddf7"/>
            <path id="Trazado_883426" data-name="Trazado 883426" d="M342.54,43.535l-.651-.651-1.56,1.56-1.56-1.56-.651.651,1.56,1.56-1.56,1.56.651.651,1.56-1.56,1.56,1.56.651-.651-1.56-1.56Z" transform="translate(-213.839 -27.121)" fill="#f2f2f2"/>
            <path id="Trazado_883427" data-name="Trazado 883427" d="M262.466,90.877h-.022a28.706,28.706,0,0,1-9.169-1.482,26.936,26.936,0,0,1-4.59-2.034,25.751,25.751,0,0,1-2.308-1.466,18.789,18.789,0,0,1-2.313-1.925l-.523-.507.523-.507a18.837,18.837,0,0,1,2.324-1.932,25.461,25.461,0,0,1,2.288-1.453,26.956,26.956,0,0,1,4.6-2.041,28.73,28.73,0,0,1,9.163-1.481h.022a28.34,28.34,0,0,1,9.149,1.463A26.668,26.668,0,0,1,276.2,79.55a25.751,25.751,0,0,1,2.308,1.472,18.7,18.7,0,0,1,2.313,1.936l.518.505-.518.505a18.711,18.711,0,0,1-2.324,1.943,25.72,25.72,0,0,1-2.288,1.46,26.733,26.733,0,0,1-4.6,2.044,28.348,28.348,0,0,1-9.144,1.461" transform="translate(-154.025 -48.097)" fill="#6e7fdd"/>
            <path id="Trazado_883428" data-name="Trazado 883428" d="M289.8,88.373a4.039,4.039,0,0,1-3.721-5.607,4.96,4.96,0,1,0,5.29,5.29,4.027,4.027,0,0,1-1.569.316" transform="translate(-178.009 -52.344)" fill="#ffcf74"/>
            <rect id="Rectángulo_404348" data-name="Rectángulo 404348" width="24.634" height="1.144" transform="translate(99.304 43.672) rotate(-45)" fill="#eb725f"/>
            <path id="Trazado_883429" data-name="Trazado 883429" d="M77.584,155.189a16.8,16.8,0,1,0,16.8,16.8,16.815,16.815,0,0,0-16.8-16.8" transform="translate(-38.445 -98.148)" fill="#ffcf74"/>
            <path id="Trazado_883430" data-name="Trazado 883430" d="M86.5,169.292A11.612,11.612,0,1,0,98.117,180.9,11.625,11.625,0,0,0,86.5,169.292m0,2.19a9.373,9.373,0,0,1,5.839,2.035L79.117,186.743A9.415,9.415,0,0,1,86.5,171.482m0,18.845a9.373,9.373,0,0,1-5.839-2.036l13.226-13.226A9.415,9.415,0,0,1,86.5,190.327" transform="translate(-47.365 -107.067)" fill="#fff"/>
            <path id="Trazado_883431" data-name="Trazado 883431" d="M66.115,97.072H64.509c-.039-.169-.079-.338-.129-.5l1.39-.8a1.5,1.5,0,0,0,.554-2.038l-.168-.294a1.5,1.5,0,0,0-2.038-.554l-1.4.8q-.2-.218-.419-.418l.8-1.4a1.5,1.5,0,0,0-.554-2.038l-.293-.168a1.5,1.5,0,0,0-2.038.554l-.8,1.39c-.165-.05-.333-.091-.5-.129V89.874a1.5,1.5,0,0,0-1.493-1.493h-.338a1.5,1.5,0,0,0-1.493,1.493v1.606c-.169.039-.338.079-.5.129l-.8-1.39a1.5,1.5,0,0,0-2.038-.554l-.293.168a1.5,1.5,0,0,0-.554,2.038l.8,1.4q-.218.2-.419.418l-1.4-.8a1.5,1.5,0,0,0-2.038.554l-.168.294a1.5,1.5,0,0,0,.554,2.038l1.39.8c-.05.165-.09.333-.129.5H48.4A1.5,1.5,0,0,0,46.9,98.565V98.9A1.5,1.5,0,0,0,48.4,100.4H50c.039.169.079.338.129.5l-1.39.8a1.5,1.5,0,0,0-.554,2.038l.168.294a1.5,1.5,0,0,0,2.038.554l1.4-.8q.2.218.419.419l-.8,1.4a1.5,1.5,0,0,0,.554,2.038l.293.168a1.5,1.5,0,0,0,2.038-.554l.8-1.39c.165.05.333.091.5.129v1.606a1.5,1.5,0,0,0,1.493,1.493h.338a1.5,1.5,0,0,0,1.493-1.493v-1.606c.169-.039.338-.079.5-.129l.8,1.39a1.5,1.5,0,0,0,2.038.554l.293-.168A1.5,1.5,0,0,0,63.1,105.6l-.8-1.4q.218-.2.419-.419l1.4.8a1.5,1.5,0,0,0,2.038-.554l.168-.294a1.5,1.5,0,0,0-.554-2.038l-1.39-.8c.05-.165.09-.333.129-.5h1.606A1.5,1.5,0,0,0,67.608,98.9v-.339a1.5,1.5,0,0,0-1.493-1.493m-8.86,6.788a5.125,5.125,0,1,1,5.126-5.125,5.126,5.126,0,0,1-5.126,5.125" transform="translate(-29.663 -55.896)" fill="#f9ab43"/>
            <path id="Trazado_883432" data-name="Trazado 883432" d="M44.51,56.4l-1.062.241c-.051-.106-.1-.211-.161-.313l.8-.735a1.015,1.015,0,0,0,.06-1.429L43.992,54a1.015,1.015,0,0,0-1.43-.06l-.8.738q-.165-.114-.339-.214l.319-1.043a1.015,1.015,0,0,0-.672-1.263l-.219-.067a1.015,1.015,0,0,0-1.263.672L39.267,53.8c-.117-.008-.234-.01-.352-.01l-.241-1.061a1.015,1.015,0,0,0-1.211-.763l-.223.051a1.015,1.015,0,0,0-.762,1.211l.241,1.062c-.106.051-.211.1-.313.161l-.735-.8a1.015,1.015,0,0,0-1.429-.06l-.169.155a1.015,1.015,0,0,0-.06,1.43l.738.8q-.114.165-.214.339L33.5,56a1.015,1.015,0,0,0-1.263.672l-.067.219a1.015,1.015,0,0,0,.672,1.263l1.038.317c-.008.117-.01.234-.01.352l-1.061.241a1.014,1.014,0,0,0-.762,1.211l.051.223a1.014,1.014,0,0,0,1.21.762l1.062-.241c.051.106.1.211.161.313l-.8.734a1.015,1.015,0,0,0-.06,1.43l.155.169a1.015,1.015,0,0,0,1.429.06l.8-.738q.165.114.339.214l-.319,1.043a1.015,1.015,0,0,0,.672,1.263l.219.067a1.015,1.015,0,0,0,1.263-.672l.317-1.038c.117.008.234.01.352.01l.241,1.061a1.015,1.015,0,0,0,1.211.763l.223-.051a1.015,1.015,0,0,0,.762-1.211l-.241-1.061c.106-.051.211-.1.313-.161l.735.8a1.015,1.015,0,0,0,1.429.06l.169-.155a1.015,1.015,0,0,0,.06-1.429l-.738-.8q.114-.165.214-.339l1.043.319a1.015,1.015,0,0,0,1.263-.672l.067-.219a1.015,1.015,0,0,0-.672-1.263l-1.038-.317c.008-.117.01-.234.01-.352l1.061-.241a1.015,1.015,0,0,0,.763-1.211l-.051-.223a1.014,1.014,0,0,0-1.21-.762m-4.835,5.814a3.473,3.473,0,1,1,2.617-4.156,3.473,3.473,0,0,1-2.617,4.156" transform="translate(-20.248 -32.849)" fill="#eb725f"/>
            <path id="Trazado_883433" data-name="Trazado 883433" d="M309.253,131.216l-1.042.237c-.05-.1-.1-.208-.158-.307l.785-.722a1,1,0,0,0,.059-1.4l-.153-.166a1,1,0,0,0-1.4-.059l-.789.726q-.163-.112-.333-.21l.314-1.025a1,1,0,0,0-.66-1.241l-.215-.066a1,1,0,0,0-1.241.66l-.312,1.02c-.114-.008-.23-.01-.345-.01l-.237-1.043a1,1,0,0,0-1.189-.749l-.219.05a1,1,0,0,0-.749,1.189l.237,1.043c-.1.05-.208.1-.307.158l-.722-.785a1,1,0,0,0-1.4-.059l-.166.152a1,1,0,0,0-.059,1.4l.726.789q-.112.163-.21.333l-1.024-.313a1,1,0,0,0-1.241.66l-.066.215a1,1,0,0,0,.66,1.241l1.02.312c-.008.114-.01.23-.01.346l-1.043.237a1,1,0,0,0-.749,1.189l.05.22a1,1,0,0,0,1.189.749l1.043-.237c.05.1.1.208.158.307l-.785.722a1,1,0,0,0-.059,1.4l.152.165a1,1,0,0,0,1.4.059l.789-.725q.163.111.333.21l-.314,1.025a1,1,0,0,0,.66,1.241l.215.066a1,1,0,0,0,1.241-.66l.312-1.02c.114.008.23.01.345.01l.237,1.043a1,1,0,0,0,1.189.749l.22-.05a1,1,0,0,0,.749-1.189l-.237-1.042c.1-.05.208-.1.307-.158l.722.785a1,1,0,0,0,1.4.059l.165-.153a1,1,0,0,0,.059-1.4l-.725-.789q.111-.163.21-.333l1.025.314a1,1,0,0,0,1.241-.66l.066-.215a1,1,0,0,0-.66-1.241l-1.02-.312c.008-.114.01-.23.01-.346l1.043-.237a1,1,0,0,0,.749-1.189l-.05-.219a1,1,0,0,0-1.189-.749m-4.75,5.712a3.412,3.412,0,1,1,2.571-4.082,3.411,3.411,0,0,1-2.571,4.082" transform="translate(-187.821 -80.214)" fill="#eb725f"/>
            <rect id="Rectángulo_404349" data-name="Rectángulo 404349" width="49.757" height="2.831" transform="translate(70.195 133.382)" fill="#ffcf74"/>
            <path id="Trazado_883434" data-name="Trazado 883434" d="M244.172,289.148H203.965l17.379-42.855h5.448Z" transform="translate(-128.995 -155.766)" fill="#f9ab43"/>
          </g>
        </g>
        <g id="Grupo_1103831" data-name="Grupo 1103831" transform="translate(74.97 90.528)">
          <g id="Grupo_1103830" data-name="Grupo 1103830" clip-path="url(#clip-path-37)">
            <rect id="Rectángulo_404351" data-name="Rectángulo 404351" width="54.746" height="10.273" transform="translate(-7.27 27.105)" fill="#ffcf74"/>
            <rect id="Rectángulo_404352" data-name="Rectángulo 404352" width="54.746" height="10.273" transform="translate(-7.27 6.684)" fill="#ffcf74"/>
          </g>
        </g>
        <g id="Grupo_1103839" data-name="Grupo 1103839">
          <g id="Grupo_1103838" data-name="Grupo 1103838" clip-path="url(#clip-path)">
            <g id="Grupo_1103834" data-name="Grupo 1103834" transform="translate(93.645 90.528)" opacity="0.1">
              <g id="Grupo_1103833" data-name="Grupo 1103833">
                <g id="Grupo_1103832" data-name="Grupo 1103832" clip-path="url(#clip-path-39)">
                  <path id="Trazado_883436" data-name="Trazado 883436" d="M262.649,261.624c3.237,9.841,3.534,19.623,1.4,27.524h12.254l-17.379-42.855h-4.152a53.655,53.655,0,0,1,7.875,15.331" transform="translate(-254.774 -246.293)" fill="#0046a0"/>
                </g>
              </g>
            </g>
            <g id="Grupo_1103837" data-name="Grupo 1103837" transform="translate(81.512 98.571)" opacity="0.3">
              <g id="Grupo_1103836" data-name="Grupo 1103836">
                <g id="Grupo_1103835" data-name="Grupo 1103835" clip-path="url(#clip-path-40)">
                  <path id="Trazado_883437" data-name="Trazado 883437" d="M231.846,268.725l-3.382,8.894-5.4,14.194-1.247,3.281c-.373.981,1.2,1.405,1.571.433l3.382-8.894,5.4-14.194,1.248-3.281c.373-.981-1.2-1.405-1.571-.433" transform="translate(-221.764 -268.175)" fill="#fff"/>
                </g>
              </g>
            </g>
            <rect id="Rectángulo_404355" data-name="Rectángulo 404355" width="29.063" height="1.654" transform="translate(20.167 134.56)" fill="#ffcf74"/>
            <path id="Trazado_883438" data-name="Trazado 883438" d="M85.939,323.018H62.454l10.151-25.032h3.183Z" transform="translate(-39.498 -188.458)" fill="#f9ab43"/>
          </g>
        </g>
        <g id="Grupo_1103841" data-name="Grupo 1103841" transform="translate(22.956 109.528)">
          <g id="Grupo_1103840" data-name="Grupo 1103840" clip-path="url(#clip-path-41)">
            <rect id="Rectángulo_404357" data-name="Rectángulo 404357" width="31.978" height="6" transform="translate(-4.246 15.832)" fill="#ffcf74"/>
            <rect id="Rectángulo_404358" data-name="Rectángulo 404358" width="31.978" height="6" transform="translate(-4.246 3.905)" fill="#ffcf74"/>
          </g>
        </g>
        <g id="Grupo_1103849" data-name="Grupo 1103849">
          <g id="Grupo_1103848" data-name="Grupo 1103848" clip-path="url(#clip-path)">
            <g id="Grupo_1103844" data-name="Grupo 1103844" transform="translate(33.864 109.528)" opacity="0.1">
              <g id="Grupo_1103843" data-name="Grupo 1103843">
                <g id="Grupo_1103842" data-name="Grupo 1103842" clip-path="url(#clip-path-43)">
                  <path id="Trazado_883440" data-name="Trazado 883440" d="M96.733,306.941a28.58,28.58,0,0,1,.819,16.077h7.158L94.558,297.986H92.133a31.348,31.348,0,0,1,4.6,8.955" transform="translate(-92.133 -297.986)" fill="#0046a0"/>
                </g>
              </g>
            </g>
            <g id="Grupo_1103847" data-name="Grupo 1103847" transform="translate(26.777 114.226)" opacity="0.3">
              <g id="Grupo_1103846" data-name="Grupo 1103846">
                <g id="Grupo_1103845" data-name="Grupo 1103845" clip-path="url(#clip-path-44)">
                  <path id="Trazado_883441" data-name="Trazado 883441" d="M78.739,311.089l-1.975,5.2-3.152,8.291-.729,1.917c-.218.573.7.821.918.253l1.975-5.2,3.152-8.291.729-1.917c.218-.573-.7-.821-.918-.253" transform="translate(-72.85 -310.768)" fill="#fff"/>
                </g>
              </g>
            </g>
            <path id="Trazado_883442" data-name="Trazado 883442" d="M302.342,183.3h-2.771v-2.771h-.987V183.3h-2.771v.986h2.771v2.771h.987v-2.771h2.771Z" transform="translate(-187.084 -114.176)" fill="#cad2f9"/>
            <path id="Trazado_883443" data-name="Trazado 883443" d="M349.66,259.914h-2.428v-2.428h-.864v2.428h-2.427v.864h2.427v2.427h.864v-2.427h2.428Z" transform="translate(-217.521 -162.845)" fill="#cad2f9"/>
            <path id="Trazado_883444" data-name="Trazado 883444" d="M358.549,206.949h-1.386v-1.386h-.493v1.386h-1.386v.493h1.386v1.386h.493v-1.386h1.386Z" transform="translate(-224.695 -130.006)" fill="#cad2f9"/>
            <path id="Trazado_883445" data-name="Trazado 883445" d="M202.284,19.114H200.9V17.728H200.4v1.386h-1.386v.493H200.4v1.386h.493V19.608h1.386Z" transform="translate(-125.867 -11.212)" fill="#cad2f9"/>
            <path id="Trazado_883446" data-name="Trazado 883446" d="M226.762,2.771h-2.771V0H223V2.771h-2.771v.986H223V6.529h.987V3.758h2.771Z" transform="translate(-139.285 0)" fill="#cad2f9"/>
            <path id="Trazado_883447" data-name="Trazado 883447" d="M36.635,168.752H34.207v-2.428h-.864v2.428H30.915v.864h2.427v2.427h.864v-2.427h2.428Z" transform="translate(-19.552 -105.19)" fill="#cad2f9"/>
            <path id="Trazado_883448" data-name="Trazado 883448" d="M14.522,112.407H13.136v-1.386h-.493v1.386H11.257v.493h1.386v1.386h.493V112.9h1.386Z" transform="translate(-7.119 -70.214)" fill="#cad2f9"/>
            <path id="Trazado_883449" data-name="Trazado 883449" d="M10.08,271.658H8.694v-1.386H8.2v1.386H6.815v.493H8.2v1.386h.493v-1.386H10.08Z" transform="translate(-4.31 -170.931)" fill="#cad2f9"/>
            <path id="Trazado_883450" data-name="Trazado 883450" d="M83.862,32.431H81.435V30H80.57v2.428H78.143V33.3H80.57v2.427h.864V33.3h2.428Z" transform="translate(-49.421 -18.975)" fill="#cad2f9"/>
            <path id="Trazado_883451" data-name="Trazado 883451" d="M165.9,28.993a.768.768,0,1,1-.768-.767.768.768,0,0,1,.768.767" transform="translate(-103.952 -17.851)" fill="#e2e6ff"/>
            <path id="Trazado_883452" data-name="Trazado 883452" d="M350.283,181.536a1.453,1.453,0,1,1-1.453-1.453,1.453,1.453,0,0,1,1.453,1.453" transform="translate(-219.695 -113.892)" fill="#e2e6ff"/>
            <path id="Trazado_883453" data-name="Trazado 883453" d="M1.534,167.971a.767.767,0,1,1-.767-.767.768.768,0,0,1,.767.767" transform="translate(0.001 -105.746)" fill="#e2e6ff"/>
            <path id="Trazado_883454" data-name="Trazado 883454" d="M120.751,9.049A1.453,1.453,0,1,1,119.3,7.6a1.453,1.453,0,0,1,1.453,1.453" transform="translate(-74.529 -4.804)" fill="#e2e6ff"/>
            <path id="Trazado_883455" data-name="Trazado 883455" d="M6.262,64.431a.767.767,0,1,1-.767-.767.768.768,0,0,1,.767.767" transform="translate(-2.99 -40.264)" fill="#e2e6ff"/>
            <path id="Trazado_883456" data-name="Trazado 883456" d="M14.652,334.332a1.453,1.453,0,1,1-1.453-1.453,1.453,1.453,0,0,1,1.453,1.453" transform="translate(-7.428 -210.526)" fill="#e2e6ff"/>
            <path id="Trazado_883457" data-name="Trazado 883457" d="M300.036,224.243a.767.767,0,1,1-.767-.767.768.768,0,0,1,.767.767" transform="translate(-188.784 -141.335)" fill="#e2e6ff"/>
            <path id="Trazado_883458" data-name="Trazado 883458" d="M304.142,6.275a.767.767,0,1,1-.767-.767.768.768,0,0,1,.767.767" transform="translate(-191.38 -3.483)" fill="#e2e6ff"/>
            <path id="Trazado_883459" data-name="Trazado 883459" d="M26.957,210.192a1.453,1.453,0,1,1-1.453-1.453,1.453,1.453,0,0,1,1.453,1.453" transform="translate(-15.21 -132.015)" fill="#e2e6ff"/>
            <path id="Trazado_883460" data-name="Trazado 883460" d="M140.515,25.957a.7.7,0,0,0-.164.438.739.739,0,0,0,.453.1h15.561a.7.7,0,0,0,.456-.1.742.742,0,0,0-.166-.433l-7.579-11.612a.51.51,0,0,0-.982,0Z" transform="translate(-88.762 -8.837)" fill="#ffcf74"/>
            <path id="Trazado_883461" data-name="Trazado 883461" d="M153.536,25.306H137.975a1.87,1.87,0,0,1-1.668-3.079l7.579-11.612a2.12,2.12,0,0,1,3.737,0L155.2,22.227a1.87,1.87,0,0,1-1.668,3.079m-15.851-2.18a.7.7,0,0,0-.164.438.739.739,0,0,0,.453.1h15.561a.7.7,0,0,0,.456-.1.742.742,0,0,0-.167-.433l-7.579-11.612a.51.51,0,0,0-.982,0Z" transform="translate(-85.933 -6.006)" fill="#f9ab43"/>
            <path id="Trazado_883462" data-name="Trazado 883462" d="M160.946,31.015a.6.6,0,0,1,.429-1.031.6.6,0,0,1,.434.174.6.6,0,0,1,0,.858.6.6,0,0,1-.434.174.585.585,0,0,1-.429-.174m-.357-7.119h1.593l-.3,5.1h-1Z" transform="translate(-101.563 -15.113)" fill="#fff"/>
          </g>
        </g>
      </g>
    </g>
  </g>
</svg>
